<?xml version="1.0" standalone="no"?>
<!DOCTYPE svg PUBLIC "-//W3C//DTD SVG 20010904//EN"
 "http://www.w3.org/TR/2001/REC-SVG-20010904/DTD/svg10.dtd">
<svg version="1.0" xmlns="http://www.w3.org/2000/svg"
 width="512.000000pt" height="512.000000pt" viewBox="0 0 512.000000 512.000000"
 preserveAspectRatio="xMidYMid meet">
<metadata>
Created by potrace 1.14, written by Peter Selinger 2001-2017
</metadata>
<g transform="translate(0.000000,512.000000) scale(0.100000,-0.100000)"
fill="#000000" stroke="none">
<path d="M2401 4940 c-178 -50 -329 -171 -409 -330 -57 -115 -73 -189 -68
-325 l4 -110 -191 -70 c-106 -38 -194 -70 -197 -71 -3 0 -12 -4 -20 -7 -8 -3
-45 -17 -82 -31 l-67 -25 -32 52 c-44 72 -145 168 -221 210 -103 58 -180 79
-294 83 -291 10 -542 -167 -635 -447 -27 -80 -33 -236 -13 -329 47 -225 239
-421 470 -480 101 -26 251 -22 341 9 34 11 64 21 67 21 3 0 68 -104 102 -165
6 -11 52 -89 103 -174 l91 -153 -127 -197 c-69 -108 -131 -202 -137 -208 -9
-10 -24 -9 -71 8 -83 29 -88 30 -195 34 -120 5 -221 -17 -322 -72 -155 -83
-284 -252 -323 -423 -19 -87 -13 -245 13 -327 52 -164 178 -312 323 -381 119
-57 192 -72 313 -68 177 6 303 63 433 194 l82 82 300 -150 300 -149 -10 -33
c-15 -53 -3 -225 20 -298 85 -266 333 -448 609 -448 177 0 331 65 457 193 198
200 241 509 105 752 l-30 52 99 103 c55 57 122 128 151 158 48 50 294 307 512
534 77 81 89 90 105 78 39 -28 161 -80 221 -95 84 -21 219 -19 307 6 176 48
329 173 404 329 54 112 71 191 67 308 -6 175 -64 309 -186 431 -86 85 -197
147 -310 173 -64 15 -217 16 -284 1 -48 -10 -146 -53 -198 -86 l-50 -32 -431
431 -431 431 25 38 c79 120 114 249 105 388 -3 50 -10 107 -16 127 -6 21 -11
40 -11 43 0 2 -18 42 -41 87 -59 116 -166 222 -280 277 -46 22 -108 46 -138
54 -78 20 -231 18 -309 -3z m273 -156 c166 -41 298 -169 349 -340 22 -73 16
-213 -12 -285 -74 -194 -237 -310 -440 -315 -141 -3 -246 40 -347 140 -102
102 -147 217 -140 361 15 300 298 511 590 439z m-1712 -653 c117 -45 211 -129
263 -235 97 -198 58 -418 -102 -567 -97 -89 -211 -131 -347 -125 -128 6 -233
54 -323 148 -83 89 -122 181 -129 303 -12 229 135 430 357 489 76 20 209 14
281 -13z m1056 -148 c16 -27 52 -73 80 -104 42 -46 49 -58 38 -70 -7 -8 -86
-128 -176 -267 -89 -139 -166 -255 -171 -257 -4 -3 -92 36 -194 87 -175 87
-186 94 -182 118 3 14 10 52 17 85 8 38 10 95 6 155 l-6 95 277 101 c153 56
279 102 280 103 1 1 14 -20 31 -46z m1366 -602 l430 -430 -27 -38 c-30 -43
-77 -146 -77 -168 0 -18 -29 -19 -115 -6 -33 5 -82 12 -110 16 -27 3 -59 8
-70 10 -11 3 -40 7 -65 10 -155 16 -150 14 -151 49 -1 44 -8 94 -19 135 -5 20
-10 39 -10 43 0 4 -19 44 -42 89 -28 57 -62 102 -112 153 -180 183 -415 238
-673 158 -95 -30 -242 -140 -296 -222 l-17 -24 -46 22 c-27 14 -44 28 -41 35
6 17 317 498 332 515 10 11 19 10 51 -2 191 -75 421 -51 589 63 17 12 32 21
35 21 3 0 198 -193 434 -429z m-1864 -151 l180 -90 -33 -53 c-19 -28 -76 -116
-127 -195 l-93 -143 -21 36 c-12 19 -67 113 -123 209 -57 95 -103 175 -103
177 0 4 134 149 138 149 1 0 83 -41 182 -90z m1202 20 c120 -45 208 -124 263
-235 44 -89 55 -140 51 -240 -10 -246 -205 -440 -453 -451 -386 -17 -628 391
-430 729 55 94 174 181 290 211 75 20 208 14 279 -14z m-772 -246 c0 -7 -7
-43 -15 -79 -21 -88 -14 -229 15 -316 49 -145 158 -284 282 -357 62 -37 186
-82 224 -82 l24 0 0 -370 0 -370 -24 0 c-20 0 -118 -30 -176 -54 -11 -4 -32
24 -81 107 -54 92 -255 429 -290 487 -5 8 -90 152 -189 319 l-180 303 22 37
c12 20 69 108 127 196 57 88 115 179 129 201 l26 42 53 -26 c29 -14 53 -32 53
-38z m2516 13 c74 -27 120 -55 178 -108 97 -88 146 -195 152 -326 6 -145 -37
-256 -142 -360 -102 -102 -217 -146 -360 -139 -173 8 -332 114 -404 268 -39
85 -50 138 -45 233 5 122 42 208 129 302 96 104 220 154 366 148 47 -2 103
-10 126 -18z m-1146 -401 c14 -3 45 -7 70 -10 25 -3 59 -8 75 -11 33 -5 69
-10 158 -20 56 -7 57 -8 58 -39 2 -112 42 -234 109 -333 l31 -46 -23 -25 c-21
-23 -85 -91 -253 -267 -32 -33 -140 -145 -240 -250 -100 -104 -212 -222 -250
-262 l-67 -72 -59 40 c-84 57 -211 109 -266 109 l-23 0 0 368 0 368 62 13
c129 26 269 113 354 218 47 59 114 187 114 219 0 15 8 16 63 10 34 -3 73 -8
87 -10z m-1860 -197 c0 -5 11 -26 24 -47 25 -39 310 -518 336 -564 20 -36 63
-108 197 -332 62 -103 113 -190 113 -193 0 -3 -18 -26 -41 -51 -22 -25 -52
-65 -67 -89 -15 -23 -30 -42 -35 -43 -7 0 -567 278 -576 286 -2 2 4 39 13 81
43 203 -14 411 -157 568 l-54 59 67 101 c36 55 82 125 100 155 19 30 41 63 49
72 15 17 31 15 31 -3z m-497 -369 c184 -70 303 -231 313 -424 19 -385 -399
-634 -728 -433 -103 62 -196 195 -217 312 -47 252 105 494 350 559 77 20 209
14 282 -14z m1760 -800 c186 -70 303 -230 313 -426 10 -221 -127 -417 -338
-482 -85 -27 -220 -24 -300 7 -186 72 -306 233 -314 426 -2 44 1 100 7 125 38
171 179 318 350 364 76 21 208 14 282 -14z"/>
</g>
</svg>
