<?xml version="1.0" encoding="UTF-8" standalone="no"?>
<!-- Generator: Adobe Illustrator 27.0.0, SVG Export Plug-In . SVG Version: 6.00 Build 0)  -->

<svg
   version="1.1"
   id="a"
   x="0px"
   y="0px"
   viewBox="0 0 462.94016 61.734522"
   xml:space="preserve"
   sodipodi:docname="bmj_mental_health.svg"
   width="462.94016"
   height="61.734524"
   inkscape:version="1.2.1 (9c6d41e, 2022-07-14)"
   xmlns:inkscape="http://www.inkscape.org/namespaces/inkscape"
   xmlns:sodipodi="http://sodipodi.sourceforge.net/DTD/sodipodi-0.dtd"
   xmlns="http://www.w3.org/2000/svg"
   xmlns:svg="http://www.w3.org/2000/svg"><defs
   id="defs44" /><sodipodi:namedview
   id="namedview42"
   pagecolor="#ffffff"
   bordercolor="#000000"
   borderopacity="0.25"
   inkscape:showpageshadow="2"
   inkscape:pageopacity="0.0"
   inkscape:pagecheckerboard="0"
   inkscape:deskcolor="#d1d1d1"
   showgrid="false"
   inkscape:zoom="1.3073097"
   inkscape:cx="235.98081"
   inkscape:cy="45.895781"
   inkscape:window-width="1512"
   inkscape:window-height="916"
   inkscape:window-x="0"
   inkscape:window-y="38"
   inkscape:window-maximized="0"
   inkscape:current-layer="layer2" />
<style
   type="text/css"
   id="style9">
	.st0{fill:#FFFFFF;}
</style>















<g
   inkscape:groupmode="layer"
   id="layer2"
   inkscape:label="background#"
   transform="translate(0.27006698,-0.4948597)"><rect
     style="fill:#333333;fill-opacity:1;stroke:#333333;stroke-width:8.27254;stroke-opacity:1;-inkscape-stroke:none;stop-color:#000000"
     id="rect254"
     width="454.6676"
     height="53.461983"
     x="3.8662031"
     y="4.6311297" /></g><g
   inkscape:groupmode="layer"
   id="layer1"
   inkscape:label="text"
   transform="translate(0.27006698,-0.4948597)"><path
     class="st0"
     d="M 4.4,47.6 V 9.5 H 18 c 1.8,0 3.5,0.2 5.1,0.7 1.5,0.5 2.9,1.1 4,2 1.1,0.9 2,2 2.6,3.3 0.6,1.3 0.9,2.7 0.9,4.3 0,1.7 -0.4,3.2 -1.2,4.5 -0.8,1.3 -2,2.3 -3.4,3.2 2.1,0.7 3.7,1.9 4.9,3.5 1.2,1.6 1.9,3.6 1.9,6 0,2 -0.6,3.9 -1.7,5.8 C 30,44.7 28.2,46 25.9,46.9 25,47 24,47.3 23,47.4 c -1,0.2 -2,0.2 -2.9,0.2 z M 12,25.1 h 3.8 c 0.9,0 1.7,0 2.5,-0.1 0.8,-0.1 1.4,-0.2 1.7,-0.4 1,-0.5 1.7,-1 2.1,-1.7 0.4,-0.7 0.7,-1.4 0.7,-2.2 0,-0.9 -0.3,-1.8 -0.9,-2.5 -0.6,-0.7 -1.5,-1.4 -2.7,-1.7 -0.2,0 -0.5,-0.1 -0.8,-0.1 -0.3,0 -0.7,-0.1 -1.1,-0.1 -0.4,0 -0.8,0 -1.2,-0.1 -0.4,0 -0.8,0 -1.1,0 h -3 z m 0,16 h 5.5 c 1.3,0 2.4,-0.1 3.1,-0.2 0.8,-0.1 1.4,-0.3 1.9,-0.6 0.8,-0.5 1.5,-1 1.8,-1.7 0.3,-0.7 0.6,-1.4 0.6,-2.1 0,-0.8 -0.2,-1.7 -0.7,-2.5 C 23.7,33.2 23,32.5 22.1,32.1 21.5,31.8 20.8,31.6 20,31.4 19.2,31.3 18.4,31.2 17.4,31.2 H 12 Z"
     id="path11" /><path
     class="st0"
     d="M 38.6,47.6 V 9.5 h 7.9 L 57.8,34.9 67.9,9.5 h 7.9 V 47.6 H 68.2 V 26.3 L 59,47.9 H 56.3 L 46.2,26.1 v 21.6 c 0,-0.1 -7.6,-0.1 -7.6,-0.1 z"
     id="path13" /><path
     class="st0"
     d="m 77.8,49.3 c 2.7,-0.5 4.6,-1.3 5.7,-2.5 1.1,-1.1 1.7,-2.5 1.7,-4.3 v -33 h 7.7 v 34.3 c 0,1.8 -0.3,3.4 -1,4.7 -0.7,1.3 -1.6,2.5 -2.8,3.5 -1.2,1 -2.6,1.8 -4.3,2.4 -1.7,0.6 -3.5,1.1 -5.6,1.4 z"
     id="path15" /><path
     class="st0"
     d="M 113.1,47.6 V 9.5 h 7.9 l 11.3,25.4 10.2,-25.4 h 7.9 v 38.1 h -7.6 V 26.3 l -9.2,21.5 h -2.7 L 120.8,26 v 21.6 z"
     id="path17" /><path
     class="st0"
     d="m 164.2,35.6 c 0.2,2.3 0.9,4 2.1,5 1.2,1 2.6,1.5 4.1,1.5 1.3,0 2.5,-0.2 3.6,-0.7 1.1,-0.5 2.2,-1.5 3.3,-3.1 l 5.5,3.4 c -1.6,2.4 -3.4,4.1 -5.4,5.1 -2,1 -4.5,1.5 -7.3,1.5 -1.8,0 -3.6,-0.3 -5.2,-0.9 -1.6,-0.6 -3.1,-1.5 -4.3,-2.7 -1.2,-1.2 -2.2,-2.7 -2.9,-4.5 -0.7,-1.8 -1.1,-3.9 -1.1,-6.4 0,-2.3 0.4,-4.4 1.1,-6.2 0.7,-1.8 1.7,-3.3 2.9,-4.5 1.2,-1.2 2.6,-2.1 4.3,-2.8 1.7,-0.7 3.3,-1 5.2,-1 3.9,0 6.9,1.3 9.3,4 2.3,2.7 3.6,6.8 3.6,12.2 0,0.1 -18.8,0.1 -18.8,0.1 z m 11.2,-5.1 c -0.1,-1.8 -0.8,-3.2 -1.9,-4.1 -1.1,-0.9 -2.2,-1.4 -3.5,-1.4 -0.6,0 -1.3,0.1 -1.9,0.4 -0.6,0.2 -1.2,0.6 -1.7,1.1 -0.5,0.5 -1,1.1 -1.3,1.7 -0.4,0.7 -0.6,1.5 -0.7,2.3 z"
     id="path19" /><path
     class="st0"
     d="M 188.4,47.6 V 20.1 h 6.8 l 0.3,2.2 c 1.1,-0.9 2.5,-1.6 3.9,-2.1 1.5,-0.5 3,-0.7 4.5,-0.7 1.5,0 2.9,0.2 4.2,0.7 1.3,0.5 2.4,1.1 3.3,2.1 0.9,1 1.6,2.2 2.1,3.7 0.5,1.5 0.8,3.4 0.8,5.5 v 16.3 h -7.5 V 31.9 c 0,-2.1 -0.5,-3.7 -1.4,-4.9 -0.9,-1.2 -2.2,-1.7 -3.8,-1.7 -1.1,0 -2.2,0.3 -3.2,0.9 -1,0.6 -1.9,1.2 -2.6,1.9 v 19.5 z"
     id="path21" /><path
     class="st0"
     d="m 230.3,39.9 c 0,0.9 0.2,1.5 0.6,1.8 0.4,0.3 0.8,0.5 1.2,0.5 0.8,0 1.5,-0.2 2.2,-0.6 0.7,-0.4 1.4,-0.8 1.9,-1.2 l 2.7,5.1 c -1.3,0.8 -2.6,1.5 -4,2 -1.4,0.5 -2.9,0.8 -4.4,0.8 -0.9,0 -1.9,-0.1 -2.8,-0.4 -0.9,-0.3 -1.7,-0.7 -2.4,-1.3 -0.7,-0.6 -1.3,-1.3 -1.7,-2.3 -0.4,-0.9 -0.7,-2.1 -0.7,-3.4 V 25.8 h -4.1 v -5.7 h 4.1 V 13 h 7.4 v 7.1 h 6.7 v 5.7 h -6.7 z"
     id="path23" /><path
     class="st0"
     d="m 257.9,47.6 -0.3,-2.1 c -0.8,0.8 -1.8,1.5 -3.1,2 -1.2,0.5 -2.6,0.7 -4.1,0.7 -1.2,0 -2.4,-0.2 -3.6,-0.6 -1.2,-0.4 -2.2,-1 -3.1,-1.7 -0.9,-0.7 -1.6,-1.7 -2.1,-2.7 -0.5,-1.1 -0.8,-2.3 -0.8,-3.7 0,-1.4 0.3,-2.6 0.9,-3.6 0.6,-1 1.3,-1.9 2.3,-2.7 0.9,-0.7 2.1,-1.3 3.3,-1.8 1.2,-0.5 2.5,-0.8 3.9,-1 0.9,-0.2 2,-0.3 3.1,-0.4 1.1,-0.1 2.1,-0.2 2.9,-0.3 v -0.9 c 0,-1.1 -0.4,-2 -1.1,-2.7 -0.8,-0.7 -1.7,-1 -2.7,-1 -0.6,0 -1.5,0.2 -2.5,0.5 -1,0.3 -1.9,1 -2.9,1.9 L 243,24 c 0.7,-0.9 1.6,-1.7 2.5,-2.3 0.9,-0.6 1.9,-1.1 2.9,-1.4 1,-0.3 1.9,-0.6 2.9,-0.7 0.9,-0.1 1.8,-0.2 2.6,-0.2 1.6,0 3.1,0.2 4.4,0.6 1.3,0.4 2.5,1 3.5,1.9 1,0.9 1.7,1.9 2.3,3.3 0.6,1.4 0.8,2.9 0.8,4.8 v 17.7 z m -0.6,-12.8 c -0.8,0 -1.6,0.1 -2.4,0.2 -0.9,0.1 -1.7,0.2 -2.4,0.4 -1.6,0.3 -2.7,0.8 -3.3,1.6 -0.6,0.7 -0.9,1.5 -0.9,2.4 0,0.9 0.3,1.7 1,2.2 0.7,0.5 1.7,0.8 3,0.8 0.9,0 1.9,-0.2 2.8,-0.6 0.9,-0.4 1.7,-0.9 2.3,-1.4 z"
     id="path25" /><path
     class="st0"
     d="M 272,47.6 V 9.5 h 7.5 v 38.1 z"
     id="path27" /><path
     class="st0"
     d="M 299.1,47.6 V 9.5 h 7.7 V 24.6 H 322 V 9.5 h 7.7 V 47.6 H 322 V 31.5 h -15.1 v 16.1 z"
     id="path29" /><path
     class="st0"
     d="m 343.5,35.6 c 0.2,2.3 0.9,4 2.1,5 1.2,1 2.6,1.5 4.1,1.5 1.3,0 2.5,-0.2 3.6,-0.7 1.1,-0.5 2.2,-1.5 3.3,-3.1 l 5.5,3.4 c -1.6,2.4 -3.4,4.1 -5.4,5.1 -2,1 -4.5,1.5 -7.3,1.5 -1.8,0 -3.6,-0.3 -5.2,-0.9 -1.6,-0.6 -3.1,-1.5 -4.3,-2.7 -1.2,-1.2 -2.2,-2.7 -2.9,-4.5 -0.7,-1.8 -1.1,-3.9 -1.1,-6.4 0,-2.3 0.4,-4.4 1.1,-6.2 0.7,-1.8 1.7,-3.3 2.9,-4.5 1.2,-1.2 2.6,-2.1 4.3,-2.8 1.7,-0.7 3.3,-1 5.2,-1 3.9,0 6.9,1.3 9.3,4 2.3,2.7 3.5,6.8 3.6,12.2 z m 11.3,-5.1 c -0.1,-1.8 -0.8,-3.2 -1.9,-4.1 -1.1,-0.9 -2.2,-1.4 -3.5,-1.4 -0.6,0 -1.3,0.1 -1.9,0.4 -0.6,0.3 -1.2,0.6 -1.7,1.1 -0.5,0.5 -1,1.1 -1.3,1.7 -0.4,0.7 -0.6,1.5 -0.7,2.3 z"
     id="path31" /><path
     class="st0"
     d="m 383,47.6 -0.3,-2.1 c -0.8,0.8 -1.8,1.5 -3.1,2 -1.2,0.5 -2.6,0.7 -4.1,0.7 -1.2,0 -2.4,-0.2 -3.6,-0.6 -1.2,-0.4 -2.2,-1 -3.1,-1.7 -0.9,-0.7 -1.6,-1.7 -2.1,-2.7 -0.5,-1.1 -0.8,-2.3 -0.8,-3.7 0,-1.4 0.3,-2.6 0.9,-3.6 0.6,-1 1.3,-1.9 2.3,-2.7 1,-0.7 2,-1.3 3.3,-1.8 1.2,-0.5 2.5,-0.8 3.9,-1 1,-0.2 2,-0.3 3.1,-0.4 1.1,-0.1 2.1,-0.2 2.9,-0.3 v -0.9 c 0,-1.1 -0.4,-2 -1.1,-2.7 -0.7,-0.7 -1.7,-1 -2.7,-1 -0.6,0 -1.5,0.2 -2.5,0.5 -1,0.3 -1.9,1 -2.9,1.9 L 368,24 c 0.7,-0.9 1.5,-1.7 2.5,-2.3 0.9,-0.6 1.9,-1.1 2.9,-1.4 1,-0.3 1.9,-0.6 2.9,-0.7 1,-0.1 1.8,-0.2 2.6,-0.2 1.6,0 3.1,0.2 4.4,0.6 1.3,0.4 2.5,1 3.5,1.9 1,0.9 1.7,1.9 2.3,3.3 0.6,1.4 0.8,2.9 0.8,4.8 v 17.7 z m -0.6,-12.8 c -0.8,0 -1.6,0.1 -2.4,0.2 -0.9,0.1 -1.7,0.2 -2.4,0.4 -1.6,0.3 -2.7,0.8 -3.3,1.6 -0.6,0.7 -0.9,1.5 -0.9,2.4 0,0.9 0.3,1.7 1,2.2 0.7,0.5 1.7,0.8 3,0.8 1,0 1.9,-0.2 2.8,-0.6 0.9,-0.4 1.7,-0.9 2.3,-1.4 -0.1,0 -0.1,-5.6 -0.1,-5.6 z"
     id="path33" /><path
     class="st0"
     d="M 397.2,47.6 V 9.5 h 7.5 v 38.1 z"
     id="path35" /><path
     class="st0"
     d="m 420.7,39.9 c 0,0.9 0.2,1.5 0.6,1.8 0.4,0.3 0.8,0.5 1.2,0.5 0.8,0 1.5,-0.2 2.2,-0.6 0.7,-0.4 1.4,-0.8 1.9,-1.2 l 2.7,5.1 c -1.3,0.8 -2.6,1.5 -4,2 -1.4,0.5 -2.9,0.8 -4.4,0.8 -1,0 -1.9,-0.1 -2.8,-0.4 -0.9,-0.3 -1.7,-0.7 -2.4,-1.3 -0.7,-0.6 -1.3,-1.3 -1.7,-2.3 -0.4,-0.9 -0.7,-2.1 -0.7,-3.4 V 25.8 h -4.1 v -5.7 h 4.1 V 13 h 7.4 v 7.1 h 6.7 v 5.7 h -6.7 z"
     id="path37" /><path
     class="st0"
     d="M 433.1,47.6 V 9.5 h 7.5 v 12.4 c 0.9,-0.7 2,-1.3 3.3,-1.8 1.3,-0.5 2.8,-0.7 4.6,-0.7 1.8,0 3.5,0.3 4.7,0.9 1.3,0.6 2.4,1.4 3.2,2.4 0.8,1 1.5,2.3 1.8,3.7 0.4,1.5 0.6,3.1 0.6,4.9 v 16.4 h -7.5 V 31.8 c 0,-2.3 -0.5,-3.9 -1.4,-4.9 -0.9,-1 -2,-1.5 -3.2,-1.5 -1.2,0 -2.4,0.3 -3.5,0.9 -1.1,0.6 -2,1.2 -2.6,1.7 v 19.6 z"
     id="path39" /></g></svg>
