<?xml version="1.0" encoding="utf-8"?>
<!-- Generator: Adobe Illustrator 24.0.1, SVG Export Plug-In . SVG Version: 6.00 Build 0)  -->
<svg version="1.1" id="bpsc_200331" xmlns="http://www.w3.org/2000/svg" xmlns:xlink="http://www.w3.org/1999/xlink" x="0px"
	 y="0px" viewBox="0 0 397.2 60" style="enable-background:new 0 0 397.2 60;" xml:space="preserve" width="397.2" height="60">
<style type="text/css">
	.st0{fill:#FFFFFF;}
	.st1{fill:#EC2027;}
</style>
<path class="st0" d="M250.4,53c0.2-2.6-1.2-5-4.1-5c-2.6,0-4.3,1.9-4.3,4.4c0,2.6,1.7,4.4,4.3,4.4c1.9,0,3.4-0.8,4-2.9h-2
	c-0.1,0.5-1,1.1-1.8,1.1c-1.3,0-2-0.6-2-2.2h6V53z M244.3,51.6c0-0.6,0.5-1.8,1.9-1.8c1.1,0,1.7,0.6,1.8,1.8H244.3z M241.4,51.2
	c-0.1-2.2-2-3.2-4-3.2c-2.8,0-4.3,1.9-4.3,4.6c0,2.5,1.7,4.3,4.3,4.3c2.3,0,3.8-1.2,4.1-3.5h-2.3c-0.1,1.1-0.7,1.7-1.8,1.7
	c-1.4,0-1.9-1.4-1.9-2.6c0-1.2,0.5-2.8,2-2.8c1,0,1.6,0.5,1.7,1.4h2.2V51.2z M224,56.8h2.3v-4.4c0-1.7,0.6-2.4,1.8-2.4
	c1.1,0,1.4,0.7,1.4,2v4.8h2.3v-5.2c0-2.2-0.6-3.5-3.1-3.5c-1,0-2,0.5-2.6,1.4l0,0v-1.2h-2.2v8.4H224z M223,53c0.2-2.6-1.2-5-4.1-5
	c-2.6,0-4.3,1.9-4.3,4.4c0,2.6,1.7,4.4,4.3,4.4c1.9,0,3.4-0.8,4-2.9h-2c-0.1,0.5-1,1.1-1.8,1.1c-1.3,0-2-0.6-2-2.2h6V53z
	 M216.8,51.6c0-0.6,0.5-1.8,1.9-1.8c1.1,0,1.7,0.6,1.8,1.8H216.8z M211.2,56.8h2.3v-8.5h-2.3V56.8z M213.5,45h-2.3v1.9h2.3V45z
	 M210.1,51.2c-0.1-2.2-2-3.2-4-3.2c-2.8,0-4.3,1.9-4.3,4.6c0,2.5,1.7,4.3,4.3,4.3c2.3,0,3.8-1.2,4.1-3.5H208
	c-0.1,1.1-0.7,1.7-1.8,1.7c-1.4,0-1.9-1.4-1.9-2.6c0-1.2,0.5-2.8,2-2.8c1,0,1.6,0.5,1.7,1.4h2.2V51.2z M193.3,54c0.1,2.3,2,3,4,3
	c1.9,0,3.8-0.7,3.8-3c0-1.6-1.3-2-2.6-2.4c-1.3-0.4-2.6-0.5-2.6-1.3c0-0.7,0.7-0.8,1.3-0.8c0.8,0,1.6,0.2,1.6,1.2h2.2
	c-0.2-2-1.9-2.8-3.7-2.8s-3.7,0.6-3.7,2.8c0,1.6,1.3,1.9,2.6,2.3c1.7,0.4,2.6,0.6,2.6,1.3c0,0.8-0.8,1.1-1.6,1.1
	c-1,0-1.8-0.5-1.8-1.4h-2V54z M183.8,52.6c0,2.6,1.7,4.4,4.4,4.4c2.6,0,4.4-1.8,4.4-4.4c0-2.8-1.7-4.4-4.4-4.4
	C185.6,48,183.8,49.8,183.8,52.6z M186.2,52.6c0-1.3,0.5-2.8,2-2.8c1.6,0,2,1.3,2,2.8c0,1.4-0.5,2.8-2,2.8
	C186.7,55.2,186.2,53.9,186.2,52.6z M178.1,56.8h2.3v-3.8c0-1.6,0.6-2.8,2.3-2.8c0.2,0,0.6,0,0.8,0.1v-2.2c-0.1,0-0.4-0.1-0.5-0.1
	c-1.2,0-2.3,0.7-2.8,1.8l0,0v-1.6h-2.2L178.1,56.8L178.1,56.8z M176.6,48.2h-2.3v4.4c0,1.7-0.6,2.4-1.8,2.4c-1.1,0-1.4-0.7-1.4-2
	v-4.8h-2.3v5.3c0,2.2,0.6,3.5,3.1,3.5c1,0,2-0.5,2.6-1.4l0,0v1.2h2.2v-8.5H176.6z M167.8,53c0.2-2.6-1.2-5-4.1-5
	c-2.6,0-4.3,1.9-4.3,4.4c0,2.6,1.7,4.4,4.3,4.4c1.9,0,3.4-0.8,4-2.9h-2c-0.1,0.5-1,1.1-1.8,1.1c-1.3,0-2-0.6-2-2.2h6V53z
	 M161.6,51.6c0-0.6,0.5-1.8,1.9-1.8c1.1,0,1.7,0.6,1.8,1.8H161.6z M148.1,56.8h2.4V49l0,0l4.9,7.8h2.6V45h-2.4v7.9l0,0l-4.9-7.9
	h-2.5v11.8H148.1z M142.8,53c0.2-2.6-1.2-5-4.1-5c-2.6,0-4.3,1.9-4.3,4.4c0,2.6,1.7,4.4,4.3,4.4c1.9,0,3.4-0.8,4-2.9h-2
	c-0.1,0.5-1,1.1-1.8,1.1c-1.3,0-2-0.6-2-2.2h6V53z M136.6,51.6c0-0.6,0.5-1.8,1.9-1.8c1.1,0,1.7,0.6,1.8,1.8H136.6z M134.4,48.2
	h-2.3l-1.8,5.8l0,0l-1.8-5.8h-2.4l2.9,8.5h2.6L134.4,48.2z M123.1,56.8h2.3v-8.5h-2.3V56.8z M125.4,45h-2.3v1.9h2.3V45z M120.4,45.7
	h-2.3v2.5h-1.4v1.6h1.4v5c0,1.7,1.2,2,2.6,2c0.5,0,1,0,1.3-0.1V55c-0.2,0-0.5,0.1-0.7,0.1c-0.8,0-1-0.2-1-1v-4.2h1.7v-1.6h-1.7
	C120.4,48.4,120.4,45.7,120.4,45.7z M113.6,56.8h2.3v-8.5h-2.3V56.8z M116,45h-2.3v1.9h2.3V45z M104.3,56.8h2.3v-4.4
	c0-1.7,0.6-2.4,1.8-2.4c1.1,0,1.4,0.7,1.4,2v4.8h2.3v-5.2c0-2.2-0.6-3.5-3.1-3.5c-1,0-2,0.5-2.6,1.4l0,0v-1.2h-2.2v8.4H104.3z
	 M102.7,48.2h-2.2v1.1l0,0c-0.6-1-1.4-1.3-2.5-1.3c-2.4,0-3.6,2-3.6,4.2c0,2.3,1.1,4.3,3.6,4.3c1.1,0,2-0.4,2.5-1.3l0,0v1.1
	c0,1.2-0.6,2.2-1.9,2.2c-0.8,0-1.6-0.2-1.8-1.2h-2.3c0.1,1.9,2,2.8,3.7,2.8c3.8,0,4.4-2.4,4.4-3.7C102.7,56.3,102.7,48.2,102.7,48.2
	z M98.5,54.7c-1.4,0-1.9-1.3-1.9-2.5c0-1.3,0.6-2.4,1.9-2.4c1.6,0,2,1.2,2,2.6C100.6,53.6,99.8,54.7,98.5,54.7z M84.7,52.6
	c0,2.6,1.7,4.4,4.4,4.4c2.6,0,4.4-1.8,4.4-4.4c0-2.8-1.7-4.4-4.4-4.4C86.5,48,84.7,49.8,84.7,52.6z M87.1,52.6c0-1.3,0.5-2.8,2-2.8
	c1.6,0,2,1.3,2,2.8c0,1.4-0.5,2.6-2,2.6C87.6,55.2,87.1,53.9,87.1,52.6z M83.9,49c-0.4-2.8-2.5-4.2-5-4.2c-3.6,0-5.8,2.8-5.8,6.2
	c0,3.4,2.2,6.1,5.8,6.1c2.9,0,4.9-1.8,5.2-4.8h-2.5c-0.2,1.6-1.1,2.6-2.6,2.6c-2.3,0-3.2-1.9-3.2-4s0.8-4.1,3.2-4.1
	c1.3,0,2.4,0.8,2.5,2H83.9z"/>
<path class="st0" d="M393.2,48.2h-2.2v1.1l0,0c-0.6-1-1.4-1.3-2.5-1.3c-2.4,0-3.6,2-3.6,4.2c0,2.3,1.1,4.3,3.6,4.3
	c1.1,0,2-0.4,2.5-1.3l0,0v1.1c0,1.2-0.6,2.2-1.9,2.2c-0.8,0-1.6-0.2-1.8-1.2h-2.3c0.1,1.9,2,2.8,3.7,2.8c3.8,0,4.4-2.4,4.4-3.7
	L393.2,48.2L393.2,48.2z M389,54.7c-1.4,0-1.9-1.3-1.9-2.5c0-1.3,0.6-2.4,1.9-2.4c1.6,0,2,1.2,2,2.6C391.1,53.6,390.4,54.7,389,54.7
	z M375.7,56.8h2.3v-4.4c0-1.7,0.6-2.4,1.8-2.4c1.1,0,1.4,0.7,1.4,2v4.8h2.3v-5.2c0-2.2-0.6-3.5-3.1-3.5c-1,0-2,0.5-2.6,1.4l0,0v-1.2
	h-2.2v8.4H375.7z M372,56.8h2.3v-8.5H372V56.8z M374.3,45H372v1.9h2.3V45z M370.4,48.2h-2.2v1.1l0,0c-0.6-1-1.4-1.3-2.5-1.3
	c-2.4,0-3.6,2-3.6,4.2c0,2.3,1.1,4.3,3.6,4.3c1.1,0,2-0.4,2.5-1.3l0,0v1.1c0,1.2-0.6,2.2-1.9,2.2c-0.8,0-1.6-0.2-1.8-1.2h-2.3
	c0.1,1.9,2,2.8,3.7,2.8c3.8,0,4.4-2.4,4.4-3.7L370.4,48.2L370.4,48.2z M366.2,54.7c-1.4,0-1.9-1.3-1.9-2.5c0-1.3,0.6-2.4,1.9-2.4
	c1.6,0,2,1.2,2,2.6C368.3,53.6,367.6,54.7,366.2,54.7z M358.6,53.5c0,0.5-0.1,1.9-1.9,1.9c-0.7,0-1.4-0.2-1.4-1.1s0.6-1.1,1.4-1.2
	c0.7-0.1,1.6-0.1,1.9-0.5V53.5z M355.6,50.9c0.1-1,0.6-1.3,1.6-1.3c0.8,0,1.6,0.1,1.6,1.2c0.1,1.9-5.6-0.1-5.6,3.7
	c0,1.8,1.3,2.5,2.9,2.5c1.1,0,2.2-0.2,2.9-1.1c0,0.2,0.1,0.6,0.1,0.8h2.4c-0.2-0.4-0.2-1.1-0.2-1.9v-4.4c0-2-2-2.4-3.7-2.4
	c-1.9,0-3.8,0.7-4,2.9H355.6z M338.9,56.8h2.3v-4.9c0-1.7,1.1-1.9,1.6-1.9c1.4,0,1.4,1.1,1.4,2.2v4.8h2.3v-4.7
	c0-1.1,0.2-2.2,1.6-2.2c1.3,0,1.4,1,1.4,2v4.8h2.3v-5.6c0-2.2-1.3-3-3.1-3c-1.2,0-2,0.7-2.5,1.4c-0.5-1.1-1.4-1.4-2.5-1.4
	c-1.1,0-2,0.5-2.6,1.4l0,0v-1.2h-2.2v8.3H338.9z M335,56.8h2.3v-8.5H335V56.8z M337.3,45H335v1.9h2.3V45z M325.1,52.6
	c0,2.6,1.7,4.4,4.4,4.4c2.6,0,4.4-1.8,4.4-4.4c0-2.8-1.7-4.4-4.4-4.4C326.9,48,325.1,49.8,325.1,52.6z M327.5,52.6
	c0-1.3,0.5-2.8,2-2.8c1.6,0,2,1.3,2,2.8c0,1.3-0.5,2.8-2,2.8C328,55.2,327.5,53.9,327.5,52.6z M319.3,56.8h2.3v-3.8
	c0-1.6,0.6-2.8,2.3-2.8c0.2,0,0.6,0,0.8,0.1v-2.2c-0.1,0-0.4-0.1-0.5-0.1c-1.2,0-2.3,0.7-2.8,1.8l0,0v-1.6h-2.2L319.3,56.8
	L319.3,56.8z M317.9,48.2h-2.3v4.4c0,1.7-0.6,2.4-1.8,2.4c-1.1,0-1.4-0.7-1.4-2v-4.8h-2.3v5.3c0,2.2,0.6,3.5,3.1,3.5
	c1,0,2-0.5,2.6-1.4l0,0v1.2h2.2v-8.5H317.9z M309,53c0.2-2.6-1.2-5-4.1-5c-2.6,0-4.3,1.9-4.3,4.4c0,2.6,1.7,4.4,4.3,4.4
	c1.9,0,3.4-0.8,4-2.9h-2c-0.1,0.5-1,1.1-1.8,1.1c-1.3,0-2-0.6-2-2.2h6V53z M302.9,51.6c0-0.6,0.5-1.8,1.9-1.8c1.1,0,1.7,0.6,1.8,1.8
	H302.9z M289.3,56.8h2.4V49l0,0l4.9,7.8h2.6V45h-2.4v7.9l0,0L292,45h-2.5v11.8H289.3z M281.4,56.8h2.2V45h-2.3v4.3l0,0
	c-0.5-0.8-1.6-1.3-2.5-1.3c-2.5,0-3.7,2.2-3.7,4.4c0,2.4,1.2,4.6,3.8,4.6c1.1,0,2-0.4,2.6-1.3l0,0v1.1H281.4z M281.4,52.6
	c0,1.4-0.5,2.8-2,2.8c-1.4,0-2-1.4-2-2.8c0-1.4,0.5-2.8,2-2.8S281.4,51.1,281.4,52.6z M265.9,56.8h2.3v-4.4c0-1.7,0.6-2.4,1.8-2.4
	c1.1,0,1.4,0.7,1.4,2v4.8h2.3v-5.2c0-2.2-0.6-3.5-3.1-3.5c-1,0-2,0.5-2.6,1.4l0,0v-1.2h-2.2v8.4H265.9z M262.1,53.5
	c0,0.5-0.1,1.9-1.9,1.9c-0.7,0-1.4-0.2-1.4-1.1s0.6-1.1,1.4-1.2c0.7-0.1,1.6-0.1,1.9-0.5V53.5z M259.1,50.9c0.1-1,0.6-1.3,1.6-1.3
	c0.8,0,1.6,0.1,1.6,1.2c0.1,1.9-5.6-0.1-5.6,3.7c0,1.8,1.3,2.5,2.9,2.5c1.1,0,2.2-0.2,2.9-1.1c0,0.2,0.1,0.6,0.1,0.8h2.4
	c-0.2-0.4-0.2-1.1-0.2-1.9v-4.4c0-2-2-2.4-3.7-2.4c-1.9,0-3.8,0.7-4,2.9H259.1z"/>
<path class="st1" d="M9.4,17v8.2h7.3c1.3,0,2.3-0.2,3.1-0.6c1.3-0.7,2-1.9,2-3.8c0-1.6-0.6-2.8-1.9-3.4c-0.7-0.4-1.7-0.5-3-0.5H9.4
	V17z M9.4,5.4v6.7h7.3c1.3,0,2.4-0.2,3.2-0.7c0.8-0.5,1.2-1.4,1.2-2.6c0-1.4-0.6-2.4-1.7-2.8c-1-0.4-2.2-0.5-3.6-0.5H9.4V5.4z
	 M25.8,3.4c1,1.3,1.4,2.9,1.4,4.6c0,1.8-0.5,3.4-1.4,4.4c-0.5,0.6-1.3,1.2-2.3,1.7c1.6,0.6,2.8,1.4,3.5,2.6c0.8,1.2,1.2,2.8,1.2,4.4
	c0,1.8-0.5,3.4-1.3,4.8c-0.6,1-1.3,1.8-2.2,2.4c-1,0.7-2.2,1.2-3.5,1.6c-1.3,0.2-2.8,0.4-4.3,0.4H3.2V0.1h14.6
	C21.6,0.2,24.2,1.3,25.8,3.4"/>
<path class="st1" d="M30.6,8h5.9v22.4h-5.9V8z M36.4,5.4h-5.9V0h5.9V5.4z"/>
<path class="st1" d="M54.5,24.6c1-1.2,1.4-3,1.4-5.2c0-2.3-0.5-4-1.4-5.2c-1-1.2-2.3-1.8-4-1.8c-1.7,0-3.1,0.6-4,1.8
	c-1,1.2-1.4,3-1.4,5.2c0,2.3,0.5,4,1.4,5.2c1,1.2,2.3,1.8,4,1.8C52.2,26.4,53.5,25.8,54.5,24.6 M59.2,27.7c-1.9,2.3-4.8,3.5-8.6,3.5
	s-6.7-1.2-8.6-3.5C40,25.4,39,22.6,39,19.3s1-6,2.9-8.4c1.9-2.4,4.8-3.5,8.6-3.5s6.7,1.2,8.6,3.5c1.9,2.4,2.9,5.2,2.9,8.4
	C61.9,22.7,61,25.4,59.2,27.7"/>
<rect x="64.3" y="0.2" class="st1" width="5.9" height="30.2"/>
<path class="st1" d="M88.2,24.6c1-1.2,1.4-3,1.4-5.2c0-2.3-0.5-4-1.4-5.2c-1-1.2-2.3-1.8-4-1.8s-3.1,0.6-4,1.8c-1,1.2-1.4,3-1.4,5.2
	c0,2.3,0.5,4,1.4,5.2c1,1.2,2.3,1.8,4,1.8S87.2,25.8,88.2,24.6 M92.9,27.7c-1.9,2.3-4.8,3.5-8.6,3.5s-6.7-1.2-8.6-3.5
	c-1.9-2.3-2.9-5.2-2.9-8.4s1-6,2.9-8.4s4.8-3.5,8.6-3.5c3.8,0,6.7,1.2,8.6,3.5c1.9,2.4,2.9,5.2,2.9,8.4
	C95.6,22.7,94.8,25.4,92.9,27.7"/>
<path class="st1" d="M112.1,24.1c1-1.1,1.4-2.8,1.4-5c0-2.2-0.5-3.7-1.3-4.9c-0.8-1.1-2-1.7-3.6-1.7c-2,0-3.5,1-4.2,2.9
	c-0.4,1.1-0.6,2.3-0.6,3.8c0,1.3,0.2,2.5,0.6,3.5c0.8,1.9,2.2,2.9,4.2,2.9C110,25.7,111.1,25.2,112.1,24.1 M110.2,8
	c1.4,0.6,2.5,1.7,3.5,3.2V8h5.8v21.2c0,2.9-0.5,5-1.4,6.5c-1.7,2.5-4.9,3.8-9.6,3.8c-2.9,0-5.2-0.6-7-1.7c-1.8-1.1-2.8-2.8-3-5h6.4
	c0.1,0.7,0.5,1.2,0.8,1.4c0.6,0.5,1.7,0.8,3.1,0.8c2,0,3.5-0.7,4.2-2.2c0.5-0.8,0.7-2.4,0.7-4.6V27c-0.6,1-1.2,1.7-1.8,2.2
	c-1.2,0.8-2.6,1.3-4.6,1.3c-2.9,0-5.2-1-6.8-3c-1.7-2-2.5-4.8-2.5-8.3c0-3.4,0.8-6.1,2.5-8.4c1.7-2.3,4-3.4,7.1-3.4
	C108.4,7.4,109.3,7.7,110.2,8"/>
<path class="st1" d="M122.6,8h5.9v22.4h-5.9V8z M128.5,5.4h-5.9V0h5.9V5.4z"/>
<path class="st1" d="M145.3,16c-0.1-0.8-0.4-1.6-0.8-2.3c-0.6-1-1.7-1.3-3-1.3c-1.9,0-3.2,1-4,2.9c-0.4,1.1-0.6,2.5-0.6,4.3
	c0,1.7,0.2,3,0.6,4.1c0.7,1.8,2,2.8,3.8,2.8c1.3,0,2.3-0.4,2.9-1.1c0.6-0.7,1-1.7,1.1-2.9h6.1c-0.1,1.8-0.7,3.5-1.9,5
	c-1.8,2.5-4.6,3.8-8.2,3.8c-3.6,0-6.2-1.1-7.9-3.1c-1.7-2.2-2.5-4.9-2.5-8.4c0-4,1-7,2.8-9c1.9-2.2,4.4-3.1,7.8-3.1
	c2.8,0,5.2,0.6,6.8,1.9c1.8,1.2,2.9,3.5,3.1,6.6h-6.1V16z"/>
<path class="st1" d="M166.8,19.6c-0.4,0.2-0.7,0.5-1.1,0.6c-0.4,0.1-0.8,0.2-1.6,0.4l-1.3,0.2c-1.2,0.2-2.2,0.5-2.6,0.8
	c-1,0.5-1.4,1.3-1.4,2.5c0,1,0.2,1.7,0.8,2.2c0.6,0.5,1.2,0.7,2,0.7c1.3,0,2.4-0.4,3.5-1.1c1.1-0.7,1.7-2.2,1.7-4.1L166.8,19.6
	L166.8,19.6z M163.3,16.8c1.1-0.1,1.8-0.4,2.3-0.5c0.8-0.4,1.2-1,1.2-1.7c0-1-0.4-1.6-1-1.9c-0.6-0.4-1.6-0.5-2.8-0.5
	c-1.3,0-2.4,0.4-2.9,1.1c-0.4,0.5-0.7,1.2-0.8,2h-5.6c0.1-1.9,0.7-3.6,1.7-4.8c1.6-1.9,4.2-3,7.9-3c2.4,0,4.6,0.5,6.5,1.4
	c1.9,1,2.9,2.8,2.9,5.5v10.3c0,0.7,0,1.6,0,2.6c0,0.7,0.1,1.3,0.4,1.6c0.2,0.2,0.5,0.5,0.8,0.7v1h-6.4c-0.1-0.5-0.4-0.8-0.4-1.3
	c-0.1-0.4-0.1-0.8-0.1-1.3c-0.8,0.8-1.7,1.7-2.8,2.3c-1.2,0.7-2.6,1.1-4.3,1.1c-2,0-3.7-0.6-5-1.8c-1.3-1.2-1.9-2.8-1.9-4.9
	c0-2.8,1.1-4.8,3.2-6c1.2-0.7,2.9-1.2,5.2-1.4L163.3,16.8z"/>
<rect x="176.4" y="0.2" class="st1" width="5.9" height="30.2"/>
<path class="st1" d="M218,6.6c-0.8-0.7-1.9-1.1-3.4-1.1h-5.8v9h5.8c1.4,0,2.5-0.4,3.4-1.1c0.8-0.7,1.2-1.9,1.2-3.5
	C219.2,8.4,218.9,7.2,218,6.6 M222.8,17.5c-1.8,1.4-4.3,2.2-7.6,2.2H209v10.9h-6.2V0.4h13c3,0,5.4,0.8,7.2,2.4
	c1.8,1.6,2.6,4,2.6,7.2C225.5,13.6,224.6,16.1,222.8,17.5"/>
<path class="st1" d="M232.1,23.5c0.1,1.1,0.4,1.8,0.8,2.2c0.7,0.7,2,1.2,4.1,1.2c1.2,0,2-0.1,2.8-0.5c0.7-0.4,1.1-0.8,1.1-1.6
	c0-0.6-0.2-1.2-0.8-1.4c-0.6-0.4-2.6-1-6.1-1.8c-2.5-0.6-4.3-1.4-5.4-2.4c-1.1-1-1.6-2.3-1.6-4.1c0-2,0.8-3.8,2.4-5.3
	c1.7-1.4,4-2.3,6.8-2.3c2.8,0,5,0.6,6.8,1.7c1.8,1.1,2.8,3,3,5.8h-5.9c-0.1-0.7-0.2-1.3-0.6-1.8c-0.6-0.8-1.8-1.2-3.2-1.2
	c-1.3,0-2.2,0.2-2.8,0.6c-0.6,0.4-0.8,0.8-0.8,1.4c0,0.7,0.2,1.2,0.8,1.4c0.6,0.4,2.6,0.8,6.1,1.6c2.3,0.6,4.1,1.3,5.2,2.5
	c1.1,1.1,1.7,2.5,1.7,4.2c0,2.2-0.8,4-2.5,5.4c-1.7,1.4-4.2,2-7.7,2s-6.1-0.7-7.8-2.3c-1.7-1.4-2.5-3.4-2.5-5.6h6.1V23.5z"/>
<path class="st1" d="M249.7,35h0.7c0.6,0,1.2,0,1.7-0.1c0.6-0.1,1-0.2,1.4-0.5c0.4-0.2,0.7-0.7,1-1.4c0.4-0.7,0.4-1.2,0.2-1.4
	l-8.3-23.4h6.5l4.9,16.6l4.7-16.6h6.2l-7.7,22.1c-1.4,4.3-2.6,7-3.6,7.9c-0.8,1.1-2.6,1.6-5.3,1.6c-0.5,0-1,0-1.3,0
	c-0.4,0-0.8,0-1.4-0.1V35H249.7z"/>
<path class="st1" d="M283.2,16.2c-0.1-0.8-0.4-1.6-0.8-2.3c-0.6-1-1.7-1.3-3-1.3c-1.9,0-3.2,1-4,2.9c-0.4,1.1-0.6,2.5-0.6,4.3
	c0,1.7,0.2,3,0.6,4.1c0.7,1.8,2,2.8,3.8,2.8c1.3,0,2.3-0.4,2.9-1.1c0.6-0.7,1-1.7,1.1-2.9h6.1c-0.1,1.8-0.7,3.5-1.9,5
	c-1.8,2.5-4.6,3.8-8.2,3.8s-6.2-1.1-7.9-3.1c-1.7-2.2-2.5-4.9-2.5-8.4c0-4,1-7,2.8-9c1.9-2.2,4.4-3.1,7.8-3.1c2.8,0,5.2,0.6,6.8,1.9
	c1.8,1.2,2.9,3.5,3.1,6.6h-6.1V16.2z"/>
<path class="st1" d="M307.7,8.4c1.1,0.5,2,1.2,2.8,2.2c0.6,0.8,1,1.7,1.1,2.6c0.1,0.8,0.2,2.3,0.2,4.3v13.2h-6.1V17
	c0-1.2-0.2-2.2-0.6-2.9c-0.5-1.1-1.6-1.6-3-1.6c-1.6,0-2.6,0.5-3.5,1.6s-1.2,2.5-1.2,4.4v12.1h-5.8V0.5h5.9v10.7
	c0.8-1.3,1.8-2.2,2.9-2.8c1.1-0.5,2.3-0.7,3.5-0.7C305.3,7.7,306.6,7.9,307.7,8.4"/>
<path class="st1" d="M314.8,8.3h5.9v22.4h-5.9V8.3z M320.6,5.5h-5.9V0.2h5.9V5.5z"/>
<path class="st1" d="M337.1,19.8c-0.4,0.2-0.7,0.5-1.1,0.6c-0.4,0.1-0.8,0.2-1.6,0.4l-1.3,0.2c-1.2,0.2-2.2,0.5-2.6,0.8
	c-1,0.5-1.4,1.3-1.4,2.5c0,1,0.2,1.7,0.8,2.2s1.2,0.7,2,0.7c1.3,0,2.4-0.4,3.5-1.1c1.1-0.7,1.7-2.2,1.7-4.1V19.8z M333.5,17
	c1.1-0.1,1.8-0.4,2.3-0.5c0.8-0.4,1.2-1,1.2-1.7c0-1-0.4-1.6-1-1.9c-0.6-0.4-1.6-0.5-2.8-0.5c-1.3,0-2.4,0.4-2.9,1.1
	c-0.4,0.5-0.7,1.2-0.8,2h-5.6c0.1-1.9,0.7-3.6,1.7-4.8c1.6-1.9,4.2-3,7.9-3c2.4,0,4.6,0.5,6.5,1.4s2.9,2.8,2.9,5.5v10.3
	c0,0.7,0,1.6,0,2.6c0,0.7,0.1,1.3,0.4,1.6c0.2,0.2,0.5,0.5,0.8,0.7v1h-6.4c-0.1-0.5-0.4-0.8-0.4-1.3c-0.1-0.4-0.1-0.8-0.1-1.3
	c-0.8,0.8-1.7,1.7-2.8,2.3c-1.2,0.7-2.6,1.1-4.3,1.1c-2,0-3.7-0.6-5-1.8c-1.3-1.2-1.9-2.8-1.9-4.9c0-2.8,1.1-4.8,3.2-6
	c1.2-0.7,2.9-1.2,5.2-1.4L333.5,17z"/>
<path class="st1" d="M344.9,12.6V8.5h3.1V2.2h5.9v6.4h3.6v4.1h-3.6v11.9c0,1,0.1,1.4,0.4,1.7c0.2,0.2,1,0.4,2.2,0.4
	c0.1,0,0.4,0,0.6,0s0.4,0,0.6-0.1v4.3l-2.8,0.1c-2.8,0.1-4.7-0.4-5.6-1.4c-0.7-0.7-1-1.7-1-3.1V12.6H344.9z"/>
<path class="st1" d="M373,7.7c0.1,0,0.2,0,0.5,0.1v5.9c-0.4,0-0.7,0-1-0.1c-0.2,0-0.5,0-0.7,0c-2.4,0-4,0.7-4.8,2.3
	c-0.5,0.8-0.7,2.2-0.7,4v10.8h-5.9V8.3h5.5v3.8c1-1.4,1.7-2.5,2.4-3c1.1-1,2.5-1.3,4.3-1.3C372.8,7.7,373,7.7,373,7.7"/>
<path class="st1" d="M378.1,35h0.7c0.6,0,1.2,0,1.7-0.1c0.6-0.1,1-0.2,1.4-0.5c0.4-0.2,0.7-0.7,1-1.4c0.4-0.7,0.4-1.2,0.2-1.4
	l-8.3-23.4h6.5l4.9,16.6L391,8.2h6.2l-7.7,22.1c-1.4,4.3-2.6,7-3.5,7.9c-0.8,1.1-2.6,1.6-5.3,1.6c-0.5,0-1,0-1.3,0
	c-0.4,0-0.8,0-1.4-0.1V35H378.1z"/>
<path class="st1" d="M60.2,57.1h4.4V36.8h-4.4V57.1z M40.4,57.1h4.2V43.6l0,0L53,57.1h4.4V36.8h-4.2v13.6l0,0l-8.4-13.6h-4.4V57.1z
	 M20.5,57.1h4.2V43.6l0,0l8.4,13.6h4.4V36.8h-4.2v13.6l0,0L25,36.8h-4.4V57.1z M18.7,43.7c-0.5-4.7-4.3-7.3-8.8-7.3
	C3.7,36.4,0,41,0,47c0,5.9,3.7,10.6,10,10.6c5,0,8.4-3.2,8.9-8.3h-4.3c-0.4,2.6-1.9,4.6-4.6,4.6c-4,0-5.5-3.4-5.5-6.7
	c0-3.6,1.6-7,5.5-7c2.2,0,4.1,1.6,4.4,3.6h4.3V43.7z"/>
</svg>
