<svg xmlns="http://www.w3.org/2000/svg" height="85" width="270" version="1.1" viewBox="0 0 270 85">
<g id="logo">
<path fill="#231f20" d="m137.86 5.23 5.7 13.36h-11.05l5.35-13.36zm19.35-3.44c0.28 0.21 0.73 0.54 1.13 0.98 0.78 0.87 1.06 1.34 1.06 2.55v21.24c0 1.31-0.56 2.45-1.36 3.23h4.83c-0.85-0.78-1.45-1.92-1.45-3.23v-20.06l20.01 23.29h1.24v-24.64c0.03-1.39 0.53-2.62 1.35-3.36h-4.68c0.78 0.83 1.33 1.97 1.33 3.36v17.54l-17.84-20.9h-5.62zm-22.13 0c0.59 0.27 1.49 1.58 0.79 3.19l-8.84 21.5c-0.41 0.93-1.28 2.14-2.41 3.31h4.84c-0.45-1.15-0.46-2.02-0.01-3.19 0 0 1.86-5.04 2.35-6.22h12.44c0.3 0.76 2.67 6.22 2.67 6.22 0.5 1.17 0.45 2.07-0.03 3.19h6.79c-1.29-1.14-1.91-2.31-2.32-3.23l-10.48-24.77h-5.79zm-34.45 0c0.76 0.82 1.34 2.07 1.34 3.36v21.38c0 1.35-0.6 2.48-1.4 3.26h18.83l1.71-4.02c-2.87 2.1-9.17 2.2-10.04 2.2-1.82 0-2.92-0.02-4.77-0.02v-22.84c0-1.22 0.68-2.46 1.47-3.32h-7.14zm118.64 0c0.76 0.82 1.34 2.07 1.34 3.35v21.42c0 1.35-0.6 2.45-1.4 3.23h18.59l1.61-3.78c-2.71 1.93-9.35 1.96-10.2 1.96-1.83 0-2.48-0.02-4.28-0.02v-12.2h7.11c1.54 0 2.42 0.09 3.27 0.87l1.31-3.18c-1.15 0.39-2.22 0.53-3.25 0.53h-8.43v-10.4h9.03c1.5 0 2.43 0.28 3.35 1.13l1.13-2.91h-19.18zm-155.38 0c0.76 0.82 1.35 2.07 1.35 3.35v21.42c0 1.35-0.59 2.45-1.4 3.23h18.59l1.62-3.78c-2.72 1.93-9.34 1.96-10.21 1.96-1.83 0-2.48-0.02-4.27-0.02v-12.2h7.11c1.54 0 2.42 0.09 3.27 0.87l1.31-3.18c-1.17 0.39-2.22 0.53-3.26 0.53h-8.43v-10.4h9.03c1.5 0 2.43 0.28 3.36 1.13l1.12-2.91h-19.19zm-32.85 0c0.79 0.82 1.4 1.97 1.4 3.35v21.42c0 1.38-0.65 2.45-1.4 3.23h7.17c-0.77-0.78-1.44-1.85-1.44-3.23v-10.79h14.75v10.71c0 1.38-0.57 2.53-1.41 3.31h7.12c-0.8-0.78-1.38-1.93-1.38-3.23v-21.42c0-1.35 0.53-2.53 1.36-3.35h-7.05c0.83 0.82 1.36 1.92 1.36 3.35v8.84h-14.75v-8.84c0-1.28 0.62-2.53 1.44-3.35h-7.17zm173.52-0.45c-8.9 0-15.63 5.84-15.63 14.6 0 7.87 6.19 14.34 15.56 14.34 2.03 0 2.6-0.1 4.23-0.32 1.41-0.2 2.13-0.39 2.95-0.61 0.22-0.6 0.63-1.71 1.49-3.91-2.02 2.19-5.44 3.21-8.34 3.21-7.31 0-11.02-5.62-11.02-12.73 0-6.88 3.46-12.97 10.75-12.97 3.99 0 6.78 1.44 8.19 2.79l-1.26-3.65c-1.2-0.25-2.21-0.43-3.48-0.58-0.97-0.1-2.07-0.17-3.44-0.17zm64.18-0.2c-0.99 0.47-2.08 0.65-3.63 0.65h-20.1l-1.18 2.64c1.05-0.54 2.4-0.86 3.56-0.86h6.58l0.01 23.66c0 1.28-0.64 2.07-1.32 2.56h7.12c-0.57-0.42-1.47-1.32-1.47-2.56l-0.02-23.67 9.25 0.01 1.2-2.43zm-242.83 0c-0.98 0.47-2.08 0.65-3.63 0.65h-20.1l-1.18 2.64c1.04-0.54 2.39-0.86 3.57-0.86h6.56l0.01 23.66c0 1.28-0.69 2.07-1.36 2.56h7.14c-0.57-0.42-1.44-1.32-1.44-2.56l-0.02-23.67 9.25 0.01 1.2-2.43z"/>
<path fill="#00447c" d="m121.12 63.58v4.88c-1.12 1.83-2.91 2.91-4.93 2.91-2.06 0-3.18-1.3-3.18-3.27 0-2.82 2.42-4.39 8.11-4.52zm35.4-10.22 8.28 19.13h0.9c-2.06 4.66-5.56 7.39-9.01 8.78l1.13 2.73c5.69-2.46 8.78-6 11.82-14.6l5.6-16.04h-3.8l-4.71 16.62h-0.13l-6.18-16.62h-3.9zm-55.21 0v20.07h3.41v-20.07h-3.41zm-61.95 0 8.28 19.13h0.9c-2.07 4.66-5.56 7.39-9.01 8.78l1.13 2.73c5.69-2.46 8.78-6 11.82-14.6l5.6-16.04h-3.8l-4.71 16.62h-0.13l-6.19-16.62h-3.89zm-7.98-0.58c-3.81 0-6.9 1.97-6.9 5.6 0 6.9 9.86 4.75 9.86 9.72 0 1.75-1.21 3.36-4.89 3.36-1.75 0-3.63-0.31-4.97-0.81v2.25c0.8 0.44 2.87 1.03 5.55 1.03 3.94 0 7.75-1.89 7.75-6.19 0-7.12-9.9-5.1-9.9-9.67 0-1.93 1.62-2.78 4.04-2.78 1.61 0 3.54 0.36 4.88 0.76v-2.28c-0.94-0.4-3.05-0.99-5.42-0.99zm86.42 0c-2.24 0-5.02 0.72-7.03 1.93v2.19c1.83-0.85 4.07-1.52 6.27-1.52 2.28 0 4.07 0.85 4.07 3.63v2.5c-7.21 0.18-11.64 1.97-11.64 6.95 0 3.85 2.74 5.46 5.65 5.46 2.55 0 4.61-1.07 6.4-3.4h0.09c0.31 1.39 1.39 2.87 3.9 3.36l1.03-3.05c-1.57-0.44-2.02-1.52-2.02-3v-9.05c0-4.75-3.23-6-6.72-6zm-47.89 0c-6 0-10.17 4.43-10.17 11.15 0 6.46 4.17 9.99 9.94 9.99 1.35 0 3.23-0.27 4.48-0.76v-2.28c-1.07 0.31-2.46 0.49-3.67 0.49-4.12 0-7.21-2.29-7.21-8.65 0-2.46 0.89-5.41 2.24-6.8 0.44-0.14 1.65-0.36 2.95-0.36 1.48 0 3.32 0.18 5.2 0.67v-2.91c-1.12-0.32-2.55-0.54-3.76-0.54zm85.84-0.13c-3 0.09-4.88 1.97-6.18 3.85h-0.09v-3.14h-3.45v20.07h3.45v-15.01c1.97-1.79 3.81-2.37 6.27-2.28v-3.49zm-23.74-4.89v5.6h-4.08v1.43l4.08 1.13v12.94c0 3.85 2.19 4.88 5.15 4.88 1.61 0 3.58-0.4 4.48-0.85v-2.1c-0.76 0.18-1.97 0.4-3.13 0.4-1.71 0-3.05-0.45-3.05-2.69v-12.58h5.91v-2.56h-5.91v-5.6h-3.45zm-124.06-0.89c1.34 0 3.22 0.09 4.92 0.44 2.46 0.54 5.24 2.06 5.24 5.69 0 2.65-1.3 4.75-4.7 5.82-1.48 0.5-3.54 0.77-5.46 0.77v-12.72zm-3.54-2.11v28.67h3.54v-11.65c2.37-0.04 4.7-0.36 6.63-0.89 4.74-1.26 7.21-3.99 7.21-7.93 0-4.71-3.45-6.68-6.68-7.48-2.73-0.67-6.54-0.72-10.7-0.72zm98.61-0.36c-1.26 0-2.24 0.94-2.24 2.2 0 1.25 0.98 2.24 2.24 2.24 1.3 0 2.24-0.99 2.24-2.24 0-1.26-0.94-2.2-2.24-2.2zm-24.69-2.69v31.71h3.4v-15.04c1.48-1.57 3.63-2.87 5.74-2.87 1.43 0 2.73 0.54 3.49 1.88 0.45 0.76 0.63 1.79 0.63 3.36v12.67h3.45v-13.16c0-2.11-0.36-3.63-1.12-4.84-0.99-1.61-2.78-2.64-5.15-2.64-3.01 0-5.2 1.57-6.95 3.54h-0.09v-14.61h-3.4z"/>
</g>
</svg>
