<svg height="32" viewBox="0 0 271 32" width="271" xmlns="http://www.w3.org/2000/svg"><path d="m7.12 9.28.08.08v4.72h.08c.96-2.64 3.36-4.8 6.8-4.8 4.56 0 5.92 2.24 5.92 6.56v8.48c0 2.56.16 5.28.8 7.28h-7.28c.64-1.92.72-4.24.72-7.04v-8.16c0-2-.8-2.96-2.96-2.96-1.68 0-2.96.48-3.84 1.28v9.76c0 2.8.08 5.12.72 7.04h-7.28c.64-2 .8-4.72.8-7.28v-7.84c0-2.08-.72-4-1.68-5.04zm23.92-.08c5.68 0 7.76 2.24 7.76 6.8v9.6c0 1.68.72 2.24 2.08 2.24.24 0 .88-.08 1.12-.32-.08.64-.24 1.04-.32 1.44-.64 1.84-1.84 2.96-4.16 2.96-2.8 0-4.16-1.92-4.32-4h-.08c-.88 2.8-2.72 4-5.6 4-3.52 0-5.76-2.08-5.76-5.36 0-3.44 3.12-4.96 6.4-6.24 3.12-1.28 4.8-2.08 4.8-4.32v-.48c0-2.48-.72-3.76-3.04-3.76-1.44 0-2 .64-2.32 2.08-.48 2.08-1.28 2.88-2.72 2.88-1.28 0-2.4-.88-2.4-2.4 0-3.04 4.24-5.12 8.56-5.12zm1.92 18.08v-7.92c-.48.64-1.04 1.04-2.64 1.84-2.08 1.04-2.8 2.08-2.8 4.4 0 1.92 1.04 3.12 2.72 3.12s2.24-.64 2.72-1.44zm21.68 1.84c-.8 1.76-2.64 2.88-5.28 2.88-4.48 0-6.16-2.24-6.16-6.32v-12.96h-2.08v-.16l7.84-8.08.08.08v5.12h5.52l-.56 3.04h-4.96v11.92c0 2.32.96 3.2 3.04 3.2 1.6 0 2.4-.24 3.12-.64-.24.8-.24 1.28-.56 1.92zm7.52-19.6v15.04c0 2.24.88 3.52 3.04 3.52 1.84 0 3.2-.64 4-1.68v-10.16c0-2.24-.24-4.16-.88-6.08l6.72-.72v15.44c0 3.36.32 4.96.88 6.56h-6.56v-4.32h-.08c-.88 2.8-2.72 4.8-6.48 4.8-4.72 0-6.48-2.88-6.48-7.12v-8.64c0-2.24-.24-4.16-.88-6.08zm22.16 5.28c.96-4 2.8-5.6 5.28-5.6 2.24 0 3.36 1.12 3.36 3.04 0 1.68-.88 3.04-2.72 3.04-1.04 0-1.6-.48-2.08-.88-.48-.48-.88-.88-1.28-.88-1.12 0-2.48 1.92-2.48 5.28v5.36c0 2.72.24 5.36.72 7.36h-7.28c.64-2 .8-4.72.8-7.28v-7.84c0-2.08-.72-4-1.68-5.04l7.12-2.08.08.08v5.52h.16zm18.32 17.12c-5.52 0-10.16-3.76-10.16-10.8 0-7.2 4.4-12 10.32-12 5.68 0 8.24 3.6 8.24 10.32h-12.8v.64c0 5.44 2.8 7.52 6.64 7.52 3.44 0 5.04-1.44 6.08-2.4l.08.32c-.96 3.44-3.6 6.4-8.4 6.4zm-4.4-13.92 7.28-.64c-.08-3.44-.64-5.52-3.04-5.52-2.4-.08-3.84 2-4.24 6.16zm24.4-8.72.08.08v4.72h.08c.96-2.64 3.12-4.8 6.56-4.8 3.92 0 5.28 1.68 5.52 4.8h.08c.96-2.64 3.04-4.8 6.56-4.8 4.56 0 5.68 2.24 5.68 6.56v8.48c0 2.56.16 5.28.8 7.28h-7.28c.64-1.92.72-4.24.72-7.04v-8.16c0-2-.64-2.96-2.72-2.96-1.68 0-2.64.32-3.6 1.28v9.44c0 2.56.16 5.28.8 7.28h-7.28c.64-1.92.72-4.24.72-7.04v-8c0-2-.64-2.96-2.72-2.96-1.68 0-2.48.32-3.6 1.28v9.76c0 2.8.08 5.12.72 7.04h-7.36c.64-2 .8-4.72.8-7.28v-7.84c0-2.08-.72-4-1.68-5.04zm36.96 22.64c-5.52 0-10.16-3.76-10.16-10.8 0-7.2 4.4-12 10.32-12 5.68 0 8.24 3.6 8.24 10.32h-12.8v.64c0 5.44 2.8 7.52 6.64 7.52 3.44 0 5.04-1.44 6.08-2.4l.08.32c-.96 3.44-3.6 6.4-8.4 6.4zm-4.32-13.92 7.28-.64c-.08-3.44-.64-5.52-3.04-5.52-2.48-.08-3.92 2-4.24 6.16zm27.12-16 7.44-2 .08.08-.16 5.76v18.48c0 3.2.32 5.52.88 7.2h-6.56v-3.76h-.16c-.64 1.84-2.4 4.16-5.84 4.16-4.64 0-8.64-3.52-8.64-10.8 0-8.4 5.84-12 10.56-12 1.76 0 3.04.32 3.92.8v-3.04c0-2.72-.72-3.84-1.52-4.88zm1.52 12.8c-.24-1.92-1.44-3.04-3.84-3.04-2.8 0-4.56 2.64-4.56 8.08 0 5.52 1.84 8.4 4.72 8.4 1.84 0 3.04-.64 3.6-1.68zm15.28 9.44c0 2.56.16 5.28.8 7.28h-7.44c.64-2 .8-4.72.8-7.28v-7.84c0-2.08-.72-4-1.68-5.04l7.52-2.08.08.08-.16 5.44v9.44zm-6.64-19.76c0-1.92 1.44-3.44 3.52-3.44s3.52 1.52 3.52 3.44-1.44 3.44-3.52 3.44c-2.08.08-3.52-1.6-3.52-3.44zm18.96 27.44c-5.84 0-9.76-4.16-9.76-10.96 0-7.6 5.12-11.84 10.56-11.84 4.96 0 7.12 2.24 7.12 4.56 0 1.68-.96 2.72-2.64 2.72-1.52 0-2.24-.96-2.48-2.88-.24-1.52-.72-1.76-2.08-1.76-2.8 0-4.56 2.96-4.56 7.84 0 5.68 2.4 8 6.16 8 2.4 0 4.56-.72 5.76-2l.08.32c-.8 2.64-3.2 6-8.16 6zm16.08-7.68c0 2.56.16 5.28.8 7.28h-7.44c.64-2 .8-4.72.8-7.28v-7.84c0-2.08-.72-4-1.68-5.04l7.52-2.08.08.08-.16 5.44v9.44zm-6.64-19.76c0-1.92 1.44-3.44 3.52-3.44s3.52 1.52 3.52 3.44-1.44 3.44-3.52 3.44-3.52-1.6-3.52-3.44zm15.76 4.8.08.08v4.72h.08c.96-2.64 3.36-4.8 6.8-4.8 4.56 0 5.92 2.24 5.92 6.56v8.48c0 2.56.16 5.28.8 7.28h-7.28c.64-1.92.72-4.24.72-7.04v-8.16c0-2-.8-2.96-2.96-2.96-1.68 0-2.96.48-3.84 1.28v9.76c0 2.8.08 5.12.72 7.04h-7.28c.64-2 .8-4.72.8-7.28v-7.84c0-2.08-.72-4-1.68-5.04zm25.2 22.64c-5.52 0-10.16-3.76-10.16-10.8 0-7.2 4.4-12 10.32-12 5.68 0 8.24 3.6 8.24 10.32h-12.88v.64c0 5.44 2.8 7.52 6.64 7.52 3.44 0 5.04-1.44 6.08-2.4l.08.32c-.8 3.44-3.44 6.4-8.32 6.4zm-4.32-13.92 7.28-.64c-.08-3.44-.64-5.52-3.04-5.52-2.4-.08-3.84 2-4.24 6.16z"/></svg>