<svg xmlns="http://www.w3.org/2000/svg" height="85" width="270" version="1.1" viewBox="0 0 198.17 55.3">
<g id="logo">
<path d="M6.2,4.1l.07,0v4.1h.1A6.17,6.17,0,0,1,12.29,4C16.21,4,17.4,6,17.4,9.7v7.38a22,22,0,0,0,.7,6.3H11.76a20.62,20.62,0,0,0,.6-6.09v-7c0-1.72-.7-2.52-2.56-2.52A4.68,4.68,0,0,0,6.48,8.86v8.43a21,21,0,0,0,.59,6.09H.73a22,22,0,0,0,.71-6.3V10.26A6.94,6.94,0,0,0,0,5.88Z" transform="translate(0 0)"/><path d="M27,4c4.9,0,6.72,1.92,6.72,5.91v8.37c0,1.5.6,2,1.79,2a2.26,2.26,0,0,0,1-.28,5.78,5.78,0,0,1-.31,1.22,3.48,3.48,0,0,1-3.64,2.59,3.49,3.49,0,0,1-3.71-3.46h-.07a4.61,4.61,0,0,1-4.87,3.46c-3.05,0-5-1.82-5-4.69s2.73-4.3,5.57-5.42,4.17-1.86,4.17-3.78V9.52c0-2.13-.67-3.22-2.66-3.22-1.27,0-1.72.56-2,1.79-.39,1.82-1.12,2.48-2.35,2.48a2,2,0,0,1-2.06-2.06C19.53,5.85,23.17,4,27,4ZM28.6,19.74V12.88a5.08,5.08,0,0,1-2.28,1.58,3.63,3.63,0,0,0-2.42,3.85c0,1.64.91,2.69,2.39,2.69A2.19,2.19,0,0,0,28.6,19.74Z" transform="translate(0 0)"/><path d="M47.39,21.32c-.66,1.5-2.27,2.48-4.55,2.48-3.89,0-5.39-2-5.39-5.53V7.11H35.59V7l6.8-7,.1,0V4.45h4.83l-.49,2.66H42.49V17.47c0,2,.84,2.76,2.63,2.76a5.44,5.44,0,0,0,2.69-.52A5.44,5.44,0,0,1,47.39,21.32Z" transform="translate(0 0)"/><path d="M53.93,4.31V17.4c0,2,.77,3,2.66,3A4.21,4.21,0,0,0,60.1,19V10.15a15.05,15.05,0,0,0-.81-5.25l5.85-.59v13.4a16,16,0,0,0,.77,5.67H60.23V19.6h-.06a5.45,5.45,0,0,1-5.64,4.17c-4.13,0-5.64-2.49-5.64-6.2V10.15a14.38,14.38,0,0,0-.8-5.25Z" transform="translate(0 0)"/><path d="M73.18,8.89C74,5.39,75.63,4,77.77,4c2,0,2.94,1,2.94,2.62a2.35,2.35,0,0,1-2.35,2.63,2.38,2.38,0,0,1-1.78-.77c-.46-.39-.74-.81-1.16-.81-1,0-2.13,1.68-2.13,4.59V17a26.73,26.73,0,0,0,.63,6.4H67.58a22,22,0,0,0,.7-6.3V10.26a6.94,6.94,0,0,0-1.43-4.38L73,4.1l.07,0V8.89Z" transform="translate(0 0)"/><path d="M89,23.8c-4.83,0-8.86-3.22-8.86-9.38S84,4,89.14,4c4.9,0,7.18,3.12,7.18,9H85.19v.56c0,4.73,2.45,6.58,5.77,6.58A6.62,6.62,0,0,0,96.21,18l.11.32A7.22,7.22,0,0,1,89,23.8ZM85.26,11.66l6.33-.56c-.07-3-.52-4.8-2.62-4.8S85.57,8,85.26,11.66Z" transform="translate(0 0)"/><path d="M6.2,35.6l.07,0v4.1h.1a5.91,5.91,0,0,1,5.71-4.2c3.43,0,4.58,1.5,4.83,4.2h0a5.86,5.86,0,0,1,5.67-4.2c3.92,0,4.94,2,4.94,5.67v7.38a22,22,0,0,0,.7,6.3H21.91a20.62,20.62,0,0,0,.6-6.09v-7c0-1.72-.53-2.52-2.38-2.52A3.82,3.82,0,0,0,17,40.36v8.22a22,22,0,0,0,.7,6.3H11.38A21,21,0,0,0,12,48.79v-7c0-1.72-.52-2.52-2.38-2.52a3.81,3.81,0,0,0-3.11,1.12v8.43a21,21,0,0,0,.59,6.09H.73a22,22,0,0,0,.71-6.3V41.76A6.94,6.94,0,0,0,0,37.38Z" transform="translate(0 0)"/><path d="M38,55.3c-4.83,0-8.86-3.22-8.86-9.38s3.82-10.43,9-10.43c4.9,0,7.18,3.12,7.18,9H34.13V45c0,4.73,2.45,6.58,5.77,6.58a6.62,6.62,0,0,0,5.25-2.1l.11.32A7.22,7.22,0,0,1,38,55.3ZM34.2,43.16l6.33-.56c-.07-3-.52-4.8-2.62-4.8S34.51,39.52,34.2,43.16Z" transform="translate(0 0)"/><path d="M52,35.6l.07,0v4.1h.11a6.15,6.15,0,0,1,5.91-4.2c3.92,0,5.11,2,5.11,5.67v7.38a22,22,0,0,0,.7,6.3H57.58a21,21,0,0,0,.59-6.09v-7c0-1.72-.7-2.52-2.55-2.52a4.7,4.7,0,0,0-3.33,1.12v8.43a20.62,20.62,0,0,0,.6,6.09H46.55a22,22,0,0,0,.7-6.3V41.76a6.94,6.94,0,0,0-1.44-4.38Z" transform="translate(0 0)"/><path d="M76,52.82c-.67,1.5-2.28,2.48-4.56,2.48-3.88,0-5.39-2-5.39-5.53V38.61H64.19v-.14l6.79-7,.1,0V36h4.84l-.49,2.66H71.08V49c0,2,.84,2.76,2.63,2.76a5.49,5.49,0,0,0,2.7-.52A6.13,6.13,0,0,1,76,52.82Z" transform="translate(0 0)"/><path d="M85.05,35.53c4.9,0,6.72,1.92,6.72,5.91v8.37c0,1.5.6,2,1.79,2a2.26,2.26,0,0,0,1-.28,5.78,5.78,0,0,1-.31,1.22,3.78,3.78,0,0,1-7.36-.87h-.07A4.59,4.59,0,0,1,82,55.3c-3,0-5-1.82-5-4.69s2.73-4.3,5.57-5.42c2.69-1.09,4.16-1.86,4.16-3.78V41c0-2.13-.66-3.22-2.66-3.22-1.26,0-1.71.56-2,1.79-.39,1.82-1.12,2.48-2.35,2.48A2,2,0,0,1,77.63,40C77.63,37.35,81.27,35.53,85.05,35.53Zm1.64,15.71V44.38A5,5,0,0,1,84.42,46,3.63,3.63,0,0,0,82,49.81c0,1.64.91,2.69,2.38,2.69A2.17,2.17,0,0,0,86.69,51.24Z" transform="translate(0 0)"/><path d="M100.66,48.58a22,22,0,0,0,.7,6.3H94.88a22,22,0,0,0,.7-6.3V33.67a7,7,0,0,0-1.43-4.38l6.58-1.78.07,0c-.11,1.65-.14,4.52-.14,5.43Z" transform="translate(0 0)"/><path d="M113.54,39.66h.1a5.89,5.89,0,0,1,5.74-4.13c3.92,0,5.11,2,5.11,5.67v7.38a22,22,0,0,0,.7,6.3h-6.33a21,21,0,0,0,.59-6.09v-7c0-1.72-.7-2.52-2.55-2.52a4.64,4.64,0,0,0-3.33,1.12v8.43a20.62,20.62,0,0,0,.6,6.09h-6.34a22,22,0,0,0,.7-6.3V34a7,7,0,0,0-1.33-4.69l6.44-1.72.07,0-.17,5Z" transform="translate(0 0)"/><path d="M134.85,55.3c-4.83,0-8.85-3.22-8.85-9.38s3.81-10.43,9-10.43c4.9,0,7.17,3.12,7.17,9H131V45c0,4.73,2.45,6.58,5.78,6.58a6.64,6.64,0,0,0,5.25-2.1l.1.32A7.21,7.21,0,0,1,134.85,55.3Zm-3.78-12.14,6.34-.56c-.07-3-.53-4.8-2.63-4.8S131.39,39.52,131.07,43.16Z" transform="translate(0 0)"/><path d="M151,35.53c4.9,0,6.72,1.92,6.72,5.91v8.37c0,1.5.6,2,1.79,2a2.26,2.26,0,0,0,1-.28,5.78,5.78,0,0,1-.31,1.22,3.78,3.78,0,0,1-7.35-.87h-.07a4.6,4.6,0,0,1-4.87,3.46c-3,0-5-1.82-5-4.69s2.73-4.3,5.56-5.42,4.17-1.86,4.17-3.78V41c0-2.13-.67-3.22-2.66-3.22-1.26,0-1.72.56-2,1.79-.38,1.82-1.12,2.48-2.34,2.48A2,2,0,0,1,143.6,40C143.6,37.35,147.24,35.53,151,35.53Zm1.65,15.71V44.38A5.08,5.08,0,0,1,150.39,46,3.64,3.64,0,0,0,148,49.81c0,1.64.91,2.69,2.38,2.69A2.19,2.19,0,0,0,152.67,51.24Z" transform="translate(0 0)"/><path d="M166.63,48.58a22,22,0,0,0,.7,6.3h-6.47a22,22,0,0,0,.7-6.3V33.67a7,7,0,0,0-1.44-4.38l6.58-1.78.07,0c-.1,1.65-.14,4.52-.14,5.43Z" transform="translate(0 0)"/><path d="M179.86,52.82c-.66,1.5-2.27,2.48-4.55,2.48-3.88,0-5.39-2-5.39-5.53V38.61h-1.85v-.14l6.79-7,.1,0V36h4.83l-.49,2.66H175V49c0,2,.84,2.76,2.63,2.76a5.44,5.44,0,0,0,2.69-.52A5.44,5.44,0,0,1,179.86,52.82Z" transform="translate(0 0)"/><path d="M186.51,39.66h.11a5.89,5.89,0,0,1,5.74-4.13c3.92,0,5.11,2,5.11,5.67v7.38a22,22,0,0,0,.7,6.3h-6.34a20.62,20.62,0,0,0,.6-6.09v-7c0-1.72-.7-2.52-2.56-2.52a4.63,4.63,0,0,0-3.32,1.12v8.43a21,21,0,0,0,.59,6.09h-6.33a22,22,0,0,0,.7-6.3V34a7.09,7.09,0,0,0-1.33-4.69l6.44-1.72.07,0-.18,5Z" transform="translate(0 0)"/>
</g>
</svg>