<svg height="32" viewBox="0 0 91 32" width="91" xmlns="http://www.w3.org/2000/svg"><g><path d="m3.36 2.2144h.8832v8.5056c0 .3456-.0128.608-.0448.8-.0256.1408-.064.2368-.1088.3072-.0384.0512-.0768.0896-.1408.1344-.096.0576-.2368.1088-.4416.1408-.2048.0384-.4736.064-.8128.0832l-.1984.0128v.9088h5.4848v-.9088l-.1984-.0128c-.4096-.0256-.7232-.0576-.9536-.1088-.1728-.0384-.288-.0832-.3712-.1408-.0576-.0384-.1024-.0832-.1408-.1408-.0512-.0832-.0896-.2048-.1152-.384s-.032-.4096-.032-.6976v-8.4992h1.024c.6656 0 1.056.0384 1.2928.1088.1152.0384.1984.0768.2624.1344.0704.0512.128.1216.1984.2112.1728.2688.3392.6848.512 1.5104l.0384.1856.192-.0192.7424-.0768-.0192-.2112c-.1024-1.0176-.1728-2.3232-.192-3.1104l-.0064-.2112h-.6784l-.064.0832c-.128.1664-.2112.2496-.2944.2944s-.1984.0704-.4224.0704h-6.9824c-.2432 0-.4032-.0128-.4992-.0512-.1024-.0448-.1792-.1024-.2944-.288l-.064-.1024h-.6784l-.0064.2048c-.032.9472-.1216 2.0992-.2112 3.1744l-.0192.2304h.9088l.0448-.16c.2112-.7808.3584-1.28.5376-1.5232l.0064-.0064.0064-.0064c.0512-.0832.096-.1472.16-.1984.0896-.0768.2368-.1344.5056-.1792.2624-.0448.6464-.064 1.1904-.064z"/><path d="m9.888 5.4592v.7744l.1856.0256c.256.032.4416.0576.5696.096.096.0256.1536.0576.192.0832.0256.0256.0448.0448.064.0832.0256.0576.0512.1536.064.3008s.0192.3392.0192.5824v3.6608c0 .2816-.0064.4992-.032.6464-.0192.1152-.0448.1856-.0768.2368-.0256.0384-.0448.064-.0832.0896-.0576.0384-.1472.0768-.2816.1024-.1408.032-.32.0512-.5504.0704l-.192.0192v.864h4.4928v-.8704l-.1984-.0128c-.3392-.0256-.5952-.0512-.7744-.0896-.1344-.032-.224-.064-.2816-.1024-.0448-.0256-.0704-.0576-.096-.096-.0384-.0576-.064-.1472-.0832-.2944s-.0192-.3392-.0192-.5824v-3.1744c.1856-.4544.4032-.8.6208-1.0176.224-.2304.4352-.32.5824-.3136.1152 0 .2048.0192.2944.064.096.0448.1984.1152.32.2304.0896.0896.2304.1536.3648.1472.1088 0 .2112-.0256.32-.0704h.0064.0064c.4096-.1984.6848-.6144.6848-1.0624 0-.2752-.1408-.544-.352-.7488-.2176-.2048-.5248-.3456-.8832-.3456-.256 0-.4992.0768-.7168.192-.3328.1792-.6336.4608-.896.7744-.1216.1472-.2368.3008-.3456.4544v-1.5616l-.2944.1216c-.832.3456-1.5936.5568-2.4448.6912z"/><path d="m20.1088 8.1408c-.5568.2752-1.4784.608-2.272.8768-.512.1792-.9024.416-1.1776.7424-.2688.3264-.4032.736-.4032 1.1968 0 .6144.2368 1.2032.6464 1.6448s.9984.7296 1.6896.7296c.1792 0 .352-.0512.5312-.128.4608-.192.9728-.5568 1.44-.8832.0832.224.1984.4224.384.608l.0064.0064.0064.0064c.1216.1088.2816.2048.4544.2752s.3456.1152.5248.1152h.0576l.0512-.032 1.6576-.992-.3328-.864-.2176.128c-.1536.096-.384.1856-.5248.1792-.0896 0-.1664-.032-.2496-.1408-.0832-.1152-.16-.3328-.16-.704v-3.2704c0-.48-.0448-.9152-.1792-1.3056s-.3584-.7424-.6912-1.0304c-.4352-.3584-1.0112-.5248-1.5872-.5248h-.0256l-.0256-.0128c-1.056.2432-2.1952.9024-2.7136 1.2736-.1728.128-.32.2432-.4352.384-.1152.1344-.1984.3072-.1984.4992 0 .2816.1472.5184.3328.6848s.4096.2688.64.2752c.16 0 .32-.0448.448-.1408s.2176-.2432.2688-.416c.0768-.2624.1536-.4864.2304-.6656s.16-.3072.2496-.3968l.0064-.0064.0064-.0064c.1344-.16.3328-.256.6144-.2624.3968 0 .6912.1472.9088.4288.2176.288.3584.7424.3584 1.3568v.192c-.0768.0512-.1856.1152-.32.1792zm.3264 3.1744c-.1408.128-.3328.2496-.5376.3456-.2304.1088-.48.1728-.6656.1728-.2176 0-.4864-.0896-.6912-.2752s-.352-.4544-.352-.8576c0-.288.0768-.4608.224-.6272s.3968-.3136.7296-.4672c.1792-.0896.4864-.224.7936-.3648.1728-.0768.3392-.16.4928-.2304v2.304z"/><path d="m28.0192 12.2432-.192-.0192c-.256-.0256-.4544-.0512-.5888-.0832-.1024-.0256-.1664-.0576-.2048-.0896-.032-.0256-.0512-.0512-.0704-.0896-.032-.0576-.0576-.16-.0768-.3072-.0128-.1472-.0192-.3456-.0192-.6016v-4.0384c.2368-.1984.5056-.3904.7808-.5312.3072-.16.6272-.256.9344-.256.2752 0 .4928.0448.6656.1216.256.1216.4288.3072.5568.5888.1216.2816.1792.6528.1792 1.088v2.9376c0 .3008-.0064.5312-.032.6976-.0192.128-.0448.2112-.0768.2688-.0512.0832-.1024.128-.2368.1792-.1344.0448-.3392.0832-.6336.1088l-.192.0192v.864h.2112 3.9104v-.864l-.192-.0192c-.256-.0256-.448-.0512-.576-.0832-.096-.0256-.16-.0576-.1984-.0832-.032-.0256-.0512-.0448-.0704-.0896-.032-.0576-.0576-.16-.0704-.3072s-.0192-.3456-.0192-.6016v-3.4112c0-.8832-.224-1.6064-.6592-2.112s-1.0752-.7744-1.8304-.7744c-.576 0-1.0752.2368-1.5808.5632-.3072.2112-.5888.4032-.8512.5888v-1.3184l-.3008.1344c-.7552.3456-1.568.5504-2.4128.7104l-.1728.032v.7616l.1728.032c.2368.0448.416.0832.544.1216.096.032.1536.064.192.096.0256.0256.0512.0512.0704.0896.032.0576.0576.1472.0704.288s.0192.3264.0192.5632v3.6416c0 .288-.0064.5056-.032.6592-.0192.1152-.0448.1856-.0768.2368-.0256.0384-.0448.064-.0896.0896-.0576.0384-.16.0768-.3072.1088-.1536.032-.352.0576-.6016.0832l-.192.0192v.864h4.2624v-.8768z"/><path d="m33.6192 12.2112c.0192.0832.0384.1536.0512.2176.0192.064.0384.1216.064.1728l.0192.0384.032.0256c.1856.1664.48.32.8576.4416.3712.1216.8256.2112 1.2992.2112.7488 0 1.5168-.2176 2.1184-.6592.5952-.4416 1.0176-1.12 1.0176-1.9968 0-.6656-.256-1.1968-.6848-1.6-.4288-.4096-1.0112-.704-1.6896-.9856-.384-.1664-.736-.3456-.9792-.5568-.1216-.1088-.2176-.224-.2816-.3456s-.096-.256-.096-.4224c0-.3072.096-.5568.256-.7296s.384-.2752.6784-.2752c.3776 0 .6784.1408.9536.416.2688.2688.4992.6784.6656 1.1904l.064.192.1984-.0576.6144-.1728-.0128-.1728c-.0192-.2368-.0768-.608-.1536-.9792s-.16-.7296-.256-.9536l-.032-.0768-.0768-.032c-.3712-.1664-.8896-.3392-1.6448-.3392-.8576 0-1.5872.2816-2.0992.7424-.512.4544-.8064 1.0944-.8064 1.7728 0 .3648.0768.6912.2176.9728.2112.4224.544.7424.9216.9984s.8.4608 1.1968.6464c.4352.1984.7616.3904.9664.608s.3072.448.3072.7872c0 .3264-.1216.5696-.3136.7488s-.4544.2752-.7296.2752c-.4608 0-.864-.2176-1.2096-.5888-.3392-.3648-.6016-.8832-.7424-1.4272l-.0512-.1856-.8512.128v.1856c0 .3392.0448.8.1088 1.2224.032.1984.0704.3968.1024.5632z"/><path d="m43.7312 13.1072v-.8704l-.192-.0192c-.2816-.0256-.4928-.0512-.6464-.0896-.1152-.0256-.192-.064-.2368-.096-.0384-.0256-.064-.0576-.0896-.096-.0384-.0576-.064-.1536-.0832-.3008s-.0256-.3392-.0256-.5824v-11.0528l-.2816.1024c-.5824.2048-1.6768.5056-2.5728.608l-.1856.0192v.8064l.192.0192c.2752.0256.4864.0512.6336.0832.1088.0256.1792.0512.224.0832.032.0256.0512.0448.0704.0832.032.0512.0576.1472.0768.2944s.0192.3456.0192.5952v8.3648c0 .288-.0128.5056-.0384.6528-.0192.1152-.0512.192-.0832.2368-.0512.0704-.1152.1216-.2688.1664s-.384.0768-.6912.1024l-.192.0192v.864h.2112 4.16z"/><path d="m48.0192 8.1408c-.5568.2752-1.4784.608-2.272.8768-.512.1792-.9024.416-1.1776.7424-.2688.3264-.4032.736-.4032 1.1968 0 .6144.2368 1.2032.6464 1.6448s.9984.7296 1.6896.7296c.1792 0 .352-.0512.5312-.128.4608-.192.9728-.5568 1.44-.8832.0832.224.1984.4224.384.608l.0064.0064.0064.0064c.1216.1088.2816.2048.4544.2752s.352.1152.5248.1152h.0576l.0512-.032 1.6576-.992-.3328-.864-.2176.128c-.1536.096-.384.1856-.5248.1792-.0896 0-.1664-.032-.2496-.1408-.0832-.1152-.16-.3328-.16-.704v-3.2704c0-.48-.0448-.9152-.1792-1.3056s-.3584-.7424-.6912-1.0304c-.4352-.3584-1.0112-.5248-1.5872-.5248h-.0256l-.0256.0064c-1.056.2432-2.1952.9024-2.7136 1.2736-.1728.128-.32.2432-.4352.384-.1152.1344-.1984.3072-.1984.4992 0 .2816.1472.5184.3328.6848s.4096.2688.64.2752c.16 0 .32-.0448.448-.1408s.2176-.2432.2688-.416c.0768-.2624.1536-.4864.2304-.6656s.16-.3072.2496-.3968l.0064-.0064.0064-.0064c.1344-.16.3328-.256.6144-.2624.3968 0 .6912.1472.9088.4288.2176.288.3584.7424.3584 1.3568v.192c-.0768.032-.1856.096-.32.16zm.3264 3.1744c-.1408.128-.3328.2496-.5376.3456-.2304.1088-.48.1728-.6656.1728-.2176 0-.4864-.0896-.6912-.2752s-.352-.4544-.352-.8576c0-.288.0768-.4608.224-.6272s.3968-.3136.7296-.4672c.1792-.0896.4864-.224.7936-.3648.1728-.0768.3392-.16.4928-.2304v2.304z"/><path d="m52.2496 6.1056v4.9152c0 .7296.16 1.3056.4992 1.7024.3392.4032.8512.5952 1.4464.5952.2304 0 .5184-.0832.8384-.256l1.3696-.704-.3072-.8512-.2176.1152c-.2048.1088-.5888.256-.9792.256-.096 0-.192-.0128-.2816-.0512-.1344-.0512-.256-.1472-.3648-.3584s-.1856-.5504-.1856-1.056v-4.3072h1.7408l.0512-.032c.2176-.1344.3136-.3712.3136-.5952 0-.1536-.0448-.3136-.16-.4416l-.064-.0704h-1.8816v-2.3936l-.5312-.0768-1.2864 1.3248v1.1456h-.672l-.6528.672.1664.4608h1.1584z"/><path d="m65.1648 13.3184586c.928 0 1.9392-.3520586 2.72-1.0880586.7808-.7296 1.3312-1.8432 1.3312-3.3216 0-1.1392-.4288-2.1824-1.1456-2.9376s-1.7344-1.2224-2.8864-1.2224h-.0192c-.864 0-1.8752.352-2.6816 1.0816s-1.4016 1.8624-1.4016 3.3728c0 1.024.384 2.048 1.0816 2.816.6976.7872 1.7344 1.3056 3.0016 1.2992586zm-.2112-7.5520586h.0192c.352 0 .6528.096.9152.2624.3968.2496.7104.6848.928 1.2544.2176.5632.3328 1.2608.3328 2.0032 0 1.1968-.224 1.9584-.5504 2.4064-.16.224-.3456.3776-.5568.4736-.2048.096-.4352.1408-.6848.1408-.3264 0-.6208-.0896-.8832-.256-.3968-.2496-.7296-.6912-.96-1.2736s-.3648-1.312-.3648-2.1248c0-.9664.2304-1.696.5696-2.176.3456-.48.7808-.7104 1.2352-.7104z"/><path d="m77.8368 12.1408c-.096-.0256-.16-.0576-.1984-.0832-.032-.0256-.0512-.0448-.0704-.0896-.032-.0576-.0576-.16-.0704-.3072s-.0192-.3456-.0192-.6016v-3.4112c0-.8832-.224-1.6064-.6592-2.112s-1.0752-.7744-1.8304-.7744c-.576 0-1.0752.2368-1.5808.5632-.3072.2112-.5888.4032-.8512.5888v-1.3248l-.3008.1344c-.7552.3456-1.568.5504-2.4064.7104l-.1728.032v.7616l.1728.032c.2368.0448.416.0832.544.1216.096.032.1536.064.1856.096.0256.0256.0512.0512.0704.0896.032.0576.0576.1472.0704.288s.0192.3264.0192.5632v3.6416c0 .288-.0064.5056-.032.6592-.0192.1152-.0448.1856-.0768.2368-.0256.0384-.0448.064-.0896.0896-.0576.0384-.16.0768-.3072.1088-.1536.032-.352.0576-.6016.0832l-.192.0192v.864h4.2624v-.864l-.192-.0192c-.256-.0256-.4544-.0512-.5888-.0832-.1024-.0256-.1664-.0576-.2048-.0896-.032-.0256-.0512-.0512-.0704-.0896-.032-.0576-.0576-.16-.0768-.3072-.0128-.1472-.0192-.3456-.0192-.6016v-4.0384c.2368-.1984.5056-.3904.7808-.5312.3072-.16.6272-.256.9344-.256.2752 0 .4928.0448.6656.1216.256.1216.4288.3072.5568.5888.1216.2816.1792.6528.1792 1.088v2.9376c0 .3008-.0064.5312-.032.6976-.0192.128-.0448.2112-.0768.2688-.0512.0832-.1024.128-.2368.1792-.1344.0448-.3392.0832-.6272.1088l-.192.0192v.864h.2112 3.9104v-.864l-.192-.0192c-.2688-.032-.4608-.0576-.5952-.0896z"/><path d="m90.528 12.224c-.2816-.0256-.4928-.0512-.6464-.0896-.1152-.0256-.192-.064-.2368-.096-.0384-.0256-.064-.0576-.0896-.096-.0384-.0576-.064-.1536-.0832-.3008s-.0256-.3392-.0256-.5824v-11.0592l-.2816.1024c-.5824.2048-1.6768.5056-2.5728.608l-.1856.0192v.8064l.192.0192c.2752.0256.4864.0512.6336.0832.1088.0256.1792.0512.224.0832.032.0256.0512.0448.0704.0832.032.0512.0576.1472.0768.2944s.0192.3456.0192.5952v8.3648c0 .288-.0128.5056-.0384.6528-.0192.1152-.0512.192-.0832.2368-.0512.0704-.1152.1216-.2688.1664s-.3776.0768-.6912.1024l-.1088.0128-.3072-.8-.2176.128c-.1536.096-.384.1856-.5248.1792-.0896 0-.1664-.032-.2496-.1408-.0832-.1152-.16-.3328-.16-.704v-3.2704c0-.48-.0448-.9152-.1792-1.3056s-.3584-.7424-.6912-1.0304c-.4352-.3584-1.0112-.5248-1.5872-.5248h-.0256l-.0256.0064c-1.056.2432-2.1952.9024-2.7136 1.2736-.1728.128-.32.2432-.4352.384-.1152.1344-.1984.3072-.1984.4992 0 .2816.1472.5184.3328.6848s.4096.2688.64.2752c.16 0 .32-.0448.448-.1408s.2176-.2432.2688-.416c.0768-.2624.1536-.4864.2304-.6656s.16-.3072.2496-.3968l.0064-.0064.0064-.0064c.1344-.16.3328-.256.6144-.2624.3968 0 .6912.1472.9152.4288.2176.288.3584.7424.3584 1.3568v.192c-.0768.0512-.192.1152-.3264.1792-.5568.2752-1.4784.608-2.272.8768-.512.1792-.9024.416-1.1776.7424-.2688.3264-.4032.736-.4032 1.1968 0 .6144.2368 1.2032.6464 1.6448s.9984.7296 1.6896.7296c.1792 0 .352-.0512.5312-.128.4608-.192.9728-.5568 1.44-.8832.0832.224.1984.4224.3904.608l.0064.0064.0064.0064c.1216.1088.2816.2048.4544.2752s.3456.1152.5248.1152h.0576l.0512-.032 1.5488-.928v.7488h.2112 4.16v-.8704zm-7.3408-.9088c-.1408.128-.3328.2496-.5376.3456-.2304.1088-.48.1728-.6656.1728-.2176 0-.4864-.0896-.6912-.2752s-.352-.4544-.352-.8576c0-.288.0768-.4608.224-.6272s.3968-.3136.7296-.4672c.1792-.0896.4864-.224.7936-.3648.1728-.0768.3392-.16.4928-.2304v2.304z"/><path d="m9.9392 16.3008c-.7744-.5568-1.8432-.768-3.1168-.768h-4.5824v.9088l.1984.0128c.3264.0192.576.0448.7488.0832.128.0256.2176.064.2752.1088.0448.032.0704.0704.1024.1216.0448.0832.0832.2176.1024.4096.0192.1984.0256.4544.0256.7808v7.072c0 .3648-.0064.64-.0384.8384-.0256.1472-.0576.2496-.1024.32-.032.0512-.0704.0896-.1216.128-.0768.0512-.1984.096-.384.1344-.1792.032-.416.0576-.7104.0832l-.1984.0128v.9088h5.2224v-.9088l-.1984-.0128c-.3968-.0256-.6976-.0512-.9216-.096-.1664-.032-.2816-.0768-.3584-.1216-.0576-.0384-.096-.0768-.128-.128-.0576-.0768-.096-.2048-.1216-.3904s-.032-.4352-.032-.7488v-2.5024l1.056.2752h.0192c.0896.0064.1984.0128.32.0128.1664 0 .352-.0064.5184-.032.9024-.1088 1.8048-.4544 2.4896-1.0816s1.1456641-1.5488 1.1456641-2.752c.0063359-1.2096-.4672641-2.0992-1.2096641-2.6688zm-4.3392 1.056c0-.2496.0128-.416.0384-.5184s.0512-.1216.0704-.1408l.0128-.0064.0128-.0128c0-.0064.1024-.064.2496-.096.1536-.032.352-.0576.5888-.0576.6848 0 1.2992.192 1.7344.5888s.7168 1.0112.7232 1.92c0 1.0816-.3328 1.7216-.7808 2.112s-1.0368.5376-1.5744.5376c-.4544 0-.8384-.0768-1.0752-.1536z"/><path d="m14.4704 22.432c-.384-.1664-.736-.3456-.9792-.5568-.1216-.1088-.2176-.224-.2816-.3456s-.096-.256-.096-.4224c0-.3072.096-.5568.256-.7296s.384-.2752.6784-.2752c.3776 0 .6784.1408.9536.416.2688.2688.4992.6784.6656 1.1904l.064.192.1984-.0576.6144-.1728-.0128-.1728c-.0192-.2368-.0768-.608-.1536-.9792s-.16-.7296-.2496-.9536l-.032-.0768-.0768-.032c-.3712-.1664-.8896-.3392-1.6448-.3392-.8576 0-1.5872.2816-2.0992.7424-.512.4544-.8064 1.0944-.8064 1.7728 0 .3648.0768.6912.2176.9728.2112.4224.544.7424.9216.9984s.8.4608 1.1968.6464c.4352.1984.7616.3904.9664.608s.3072.448.3072.7872c0 .3264-.1216.5696-.3136.7488s-.4544.2752-.7296.2752c-.4608 0-.864-.2176-1.2096-.5888-.3392-.3648-.6016-.8832-.7424-1.4272l-.0512-.1856-.8512.128v.1856c0 .3392.0448.8.1088 1.2224.032.2112.064.4096.1024.5696.0192.0832.0384.1536.0512.2176.0192.064.0384.1216.064.1728l.0128.0192.032.0256c.1856.1664.48.32.8576.4416.3712.1216.8256.2112 1.2992.2112.7488 0 1.5168-.2176 2.1184-.6592.5952-.4416 1.0176-1.12 1.0176-1.9968 0-.6656-.256-1.1968-.6848-1.6-.4288-.3968-1.0112-.6976-1.6896-.9728z"/><path d="m25.6512 20.1728v-.1856-.672h-3.6288v.8576l.1856.0256c.3648.0512.6016.1088.7168.1728.0576.032.0768.0576.0896.0768s.0192.0448.0192.1024c0 .0768-.0256.2112-.0832.3776-.3072.9408-.928 2.6432-1.4144 3.8528l-1.4016-3.8976c-.0768-.1984-.1088-.3456-.1088-.4224 0-.0448.0064-.064.0128-.0768.0128-.0192.0384-.0512.1408-.0896.096-.0384.2496-.0704.4608-.1024l.192-.0256-.032-.8576h-3.9936v.8576l.1856.0256c.2368.032.416.064.5504.1152.2048.0768.3136.16.4288.32s.224.4096.3712.7616c.512 1.248 1.3056 3.3856 2.0096 5.4016.0512.1472.0768.2624.0768.3712 0 .0832-.0128.1664-.0448.2624-.0832.2368-.224.5824-.5376 1.1904-.2112.3904-.3904.6848-.5824.9152s-.3968.4096-.6656.576c-.16.1024-.288.2048-.3904.3392s-.1536.3008-.1472.48c0 .3008.1664.5568.384.7424.224.2048.512.3328.8192.3328.1472 0 .3136-.0256.4608-.1216s.256-.2624.3136-.4736c.2432-.9152.6272-1.92 1.8112-4.7296 1.2224-2.9184 1.7728-4.3904 2.2208-5.312.1152-.2432.2176-.4352.3008-.576.1344-.2176.2368-.32.384-.3968s.3648-.128.7104-.1792z"/><path d="m31.8784 25.6448-.1024-.128-.448-.5504-.1664.1536c-.3968.3712-.7232.5952-1.0304.7296s-.6016.1856-.9664.1856c-.448 0-1.0688-.1856-1.568-.6528s-.8896-1.216-.8896-2.3872c0-.8896.2432-1.5488.6016-1.9776s.8384-.64 1.3632-.64c.5824 0 1.1456.2048 1.6384.6656.0768.0768.1408.1344.2176.1792s.1728.0768.2624.0704c.1216 0 .2048-.0448.288-.1024.128-.0832.2432-.2048.3392-.352s.1664-.32.1664-.5184c0-.1152-.0192-.2432-.0768-.3648-.0512-.1152-.1472-.2176-.2752-.32s-.0064-.0064-.0064-.0064 0 0-.0064-.0064c-.1728-.1472-.4032-.2688-.6912-.3648-.2944-.096-.64-.1536-1.0304-.1536h-.0192c-.3584 0-.8064.0832-1.2864.2496-.48.1728-.9984.4352-1.4784.8-1.2288.9344-1.8752 2.1952-1.8688471 3.616 0 .9984.3456471 1.9648.9984471 2.688.6464.7232 1.6 1.2032 2.7712 1.2032.576 0 1.1648-.2112 1.7088-.5504s1.0496-.8064 1.4528-1.3376z"/><path d="m26.72 20.16v-.0064z"/><path d="m39.9424 26.4896c-.1024-.0256-.1664-.0576-.2112-.0896-.064-.0512-.1024-.1088-.1408-.2688-.032-.1536-.0448-.3904-.0448-.7104v-3.0976c0-1.0816-.2624-1.8944-.736-2.432-.4736-.544-1.1584-.7872-1.92-.7872-.5248 0-1.0304.1792-1.4912.4352-.3008.1664-.576.3712-.8256.5888v-5.7664l-.2752.0832c-.6848.2112-1.7408.4928-2.5664.6144l-.1792.0256v.8064l.192.0192c.288.0256.5056.0512.6528.0832.1088.0256.1792.0576.2176.0832.032.0192.0448.0384.064.0768.0256.0512.0512.1408.064.2752.0128.1408.0128.3264.0128.5568v8.4352c0 .288-.0064.5056-.0384.6592-.0192.1152-.0448.192-.0768.2432-.0256.0384-.0512.064-.0832.0896-.0512.0384-.1408.0704-.2752.096s-.3136.0448-.5312.064l-.1856.0128-.032.8704h4.2048v-.864l-.192-.0192c-.2624-.0256-.4544-.0512-.5888-.0896-.1024-.0256-.16-.0576-.2048-.096-.032-.0256-.0512-.0512-.0704-.0896-.032-.0576-.0576-.16-.0704-.3008-.0128-.1472-.0192-.3328-.0192-.5696v-4.1152c.4544-.4928 1.0496-.7744 1.6256-.7744.2752 0 .5056.0448.6912.1216.2816.1152.4736.3072.6144.608s.2176.7104.2176 1.2352v2.9184c0 .2816-.0064.4992-.032.6464-.0192.1152-.0448.192-.0768.2368-.0448.0704-.096.1152-.2368.16-.1344.0448-.3456.0768-.6272.1024l-.192.0192v.864h.2112 3.9424v-.8704l-.192-.0192c-.2688-.0128-.4608-.0384-.5952-.0704z"/><path d="m44.448 26.4768c-.1088-.0256-.1856-.064-.2304-.096-.0384-.0256-.0576-.0576-.0832-.096-.0384-.064-.064-.1664-.0832-.3136-.0192-.1536-.0256-.352-.0256-.6016v-6.4064l-.2944.1216c-.7424.3136-1.5744.5376-2.464.6784l-.1792.0256v.7872l.1792.0256c.2624.0384.4608.0768.5888.1152.1024.032.16.064.1984.096.0256.0256.0448.0448.064.0832.0256.0512.0512.1408.064.2816.0128.1344.0128.3136.0128.544v3.6416c0 .2944-.0064.5184-.032.6784-.0192.1216-.0448.1984-.0768.2496-.0256.0384-.0512.064-.0896.096-.0576.0384-.1472.0768-.288.1088s-.3264.0512-.5568.0768l-.192.0128v.864h.2112 4.1024v-.864l-.192-.0192c-.2752-.0256-.4864-.0512-.6336-.0896z"/><path d="m52.3136 25.9072c-.1536.096-.384.1856-.5248.1792-.0896 0-.1664-.032-.2496-.1408-.0832-.1152-.16-.3328-.16-.704v-3.2704c0-.48-.0448-.9152-.1792-1.3056s-.352-.7424-.6912-1.0304c-.4352-.3584-1.0112-.5248-1.5872-.5248h-.0256l-.0256.0064c-1.056.2432-2.1952.9024-2.7136 1.2736-.1728.128-.32.2432-.4352.384-.1152.1344-.1984.3072-.1984.4992 0 .2816.1472.5184.3328.6848s.4096.2688.64.2752c.16 0 .32-.0448.448-.1408s.2176-.2432.2688-.416c.0768-.2624.1536-.4864.2304-.6656s.16-.3072.2496-.3968l.0064-.0064.0064-.0064c.1344-.16.3328-.256.6144-.256.3968 0 .6912.1472.9088.4288.2176.288.3584.7424.3584 1.3568v.192c-.0768.0512-.192.1152-.3264.1792-.5568.2752-1.4784.608-2.272.8768-.512.1728-.9024.416-1.1776.7424-.2688.3264-.4032.736-.4032 1.1968 0 .6144.2368 1.2032.6464 1.6448s.9984.7296 1.6896.7296c.1792 0 .352-.0512.5312-.128.4608-.192.9728-.5568 1.44-.8832.0832.2176.1984.4224.384.608l.0064.0064.0064.0064c.1216.1088.2816.2048.4544.2752s.3456.1152.5248.1152h.0576l.0512-.032 1.6576-.992-.3328-.864zm-4.0128-1.9584c.1856-.0896.4864-.224.7936-.3648.1728-.0768.3392-.16.4928-.2304v2.304c-.1408.128-.3328.2496-.5376.3456-.2304.1088-.48.1728-.6656.1728-.2176 0-.4864-.0896-.6912-.2752s-.352-.4544-.352-.8576c0-.288.0768-.4608.224-.6272.16-.16.4032-.3136.736-.4672z"/><path d="m57.1328 25.9776c-.2048.1088-.5888.256-.9792.256-.096 0-.192-.0128-.2816-.0512-.1344-.0512-.256-.1472-.3648-.3584s-.1856-.5504-.1856-1.056v-4.3136h1.7408l.0512-.032c.2176-.1344.3136-.3712.3136-.5952 0-.1536-.0448-.3136-.16-.4352l-.064-.0704h-1.8816v-2.3936l-.5376-.0768-1.2864 1.3248v1.1456h-.672l-.6528.672.1664.4608h1.1584v4.9152c0 .7296.16 1.3056.4992 1.7024.3392.4032.8512.5952 1.4464.5952.2304 0 .5184-.0832.8384-.256l1.3696-.704-.3072-.8512z"/><path d="m62.8928 19.104c-.256 0-.4992.0768-.7168.192-.3328.1792-.6336.4608-.896.7744-.1216.1472-.2368.3008-.3456.4544v-1.568l-.2944.1216c-.832.3456-1.5936.5568-2.4448.6912l-.1792.032v.7744l.1856.0256c.256.032.4416.0576.5696.096.096.0256.1536.0576.192.0832.0256.0256.0448.0448.064.0832.0256.0576.0512.1536.064.3008s.0192.3392.0192.5824v3.6608c0 .2816-.0064.4992-.032.6464-.0192.1152-.0448.1856-.0768.2368-.0256.0384-.0512.064-.0832.0896-.0576.0384-.1472.0768-.2816.1024-.1408.032-.32.0512-.5504.0704l-.192.0192v.864h4.4928v-.8704l-.1984-.0128c-.3392-.0256-.5952-.0512-.7744-.0896-.1344-.032-.224-.064-.2816-.1024-.0448-.0256-.0704-.0576-.096-.096-.0384-.0576-.064-.1472-.0832-.2944s-.0192-.3392-.0192-.5824v-3.1744c.1856-.4544.4032-.8.6208-1.0176.224-.224.4352-.32.5824-.3136.1152 0 .2048.0192.2944.064.096.0448.1984.1152.32.2304.0896.0896.2304.1536.3648.1472.1088 0 .2112-.0256.32-.0704h.0064.0064c.4096-.1984.6848-.6144.6912-1.0624 0-.2752-.1408-.544-.352-.7488-.2304-.1984-.5376-.3392-.896-.3392z"/><path d="m69.6512 20.1728.1856.0256c.3648.0512.6016.1088.7104.1728.0576.032.0768.0576.0896.0768s.0192.0448.0192.1024c0 .0768-.0256.2112-.0832.3776-.3072.9408-.928 2.6368-1.4144 3.8528l-1.4016-3.8976c-.0768-.1984-.1088-.3456-.1088-.4224 0-.0448.0064-.064.0128-.0768.0128-.0192.0384-.0512.1408-.0896.096-.0384.2496-.0704.4608-.1024l.1856-.0256-.032-.8576h-3.9936v.8576l.1856.0256c.2368.032.416.064.5504.1152.2048.0768.3136.16.4288.32s.224.4096.3712.7616c.512 1.248 1.3056 3.3856 2.0096 5.4016.0512.1472.0768.2624.0768.3712 0 .0832-.0128.1664-.0448.2624-.0832.2368-.224.5824-.5376 1.1904-.2112.3904-.3904.6848-.5824.9152s-.3968.4096-.6656.576c-.16.1024-.288.2048-.3904.3392s-.1536.3008-.1472.48c0 .2944.1664.5568.384.7424.224.1856.512.3136.8192.3136.1472 0 .3136-.0256.4608-.1216s.256-.2624.3136-.4736c.2432-.9152.6272-1.92 1.8112-4.7296 1.2224-2.9184 1.7728-4.3904 2.2208-5.312.1216-.2432.2176-.4352.3008-.576.1344-.2176.2368-.32.384-.3968s.3648-.128.7104-.1792l.1792-.0256v-.1856-.672h-3.6288v.864z"/><path d="m42.0224 16.1408c0 .5888.4736 1.0624 1.0624 1.0624s1.0624-.4736 1.0624-1.0624-.4736-1.0624-1.0624-1.0624-1.0624.48-1.0624 1.0624z"/><path d="m60.9728 13.1008v-.864l-.192-.0192c-.2816-.0256-.4928-.0512-.64-.0896-.1088-.0256-.1856-.064-.2304-.096-.0384-.0256-.0576-.0576-.0832-.096-.0384-.064-.064-.1664-.0832-.3136-.0192-.1536-.0256-.352-.0256-.6016v-6.4128l-.2944.1216c-.7424.3136-1.5744.5376-2.464.6784l-.1792.0256v.7872l.1792.032c.2624.0384.4608.0768.5888.1152.1024.032.16.064.1984.096.0256.0256.0448.0448.064.0832.0256.0512.0512.1408.064.2816.0128.1344.0128.3136.0128.544v3.6416c0 .2944-.0064.5184-.032.6784-.0192.1216-.0448.1984-.0768.2496-.0256.0384-.0512.064-.0896.096-.0576.0384-.1472.0768-.288.1088s-.3264.0512-.5568.0768l-.192.0192v.864h.2112 4.1088z"/><path d="m58.7776 2.848c.5888 0 1.0624-.4736 1.0624-1.0624s-.4736-1.0624-1.0624-1.0624c-.5824 0-1.0624.4736-1.0624 1.0624s.4736 1.0624 1.0624 1.0624z"/></g></svg>