<?xml version="1.0" encoding="utf-8"?>
<!-- Generator: Adobe Illustrator 26.4.1, SVG Export Plug-In . SVG Version: 6.00 Build 0)  -->
<svg version="1.1" xmlns="http://www.w3.org/2000/svg" xmlns:xlink="http://www.w3.org/1999/xlink" x="0px" y="0px"
	 viewBox="0 0 566.93 117.81" style="enable-background:new 0 0 566.93 117.81;" xml:space="preserve">
<style type="text/css">
	.st0{fill:none;stroke:#FFDD00;stroke-width:0.2411;stroke-miterlimit:10;}
	.st1{fill:none;stroke:#000000;stroke-width:0.2411;stroke-miterlimit:10;}
	.st2{fill:#141006;}
	.st3{fill:#FFFFFF;}
	.st4{fill:#EF4135;}
	.st5{fill:#FFDD00;}
</style>
<g id="Layer_1_copy">
	<g>
		<path class="st0" d="M95.76,64.96c-0.21,5.25-0.98,10-2.29,14.18c-1.27,4.04-3.08,7.63-5.39,10.69
			c-4.31,5.69-9.54,8.54-13.01,10.42c-0.3,0.16-2.36,1.21-12.24,6.13V64.96H95.76"/>
	</g>
	<path class="st0" d="M37.57,64.96v41.42c-9.88-4.92-11.93-5.97-12.24-6.13c-3.46-1.88-8.7-4.73-13.01-10.42
		c-2.31-3.05-4.13-6.65-5.39-10.69c-1.31-4.17-2.08-8.93-2.29-14.18H37.57"/>
	<path class="st1" d="M95.82,5.94H62.83v33.77h32.99V5.94L95.82,5.94z"/>
	<path class="st1" d="M37.57,5.94H4.58v33.77h32.99V5.94L37.57,5.94z"/>
	<path class="st2" d="M50.2,117.81l-1-0.53c-1.49-0.74-24.67-12.26-26.05-13.01C15.63,100.18,0,91.68,0,61.91V1.36h100.4v60.55
		c0,29.77-15.64,38.27-23.15,42.35c-1.38,0.75-24.71,12.35-26.05,13.01L50.2,117.81z"/>
	<path class="st3" d="M60.41,42.12V3.53H39.99v38.59H2.17v19.79l0,0c0,0.21,0,0.42,0,0.63h37.81v47.72
		c5.45,2.71,10.21,5.08,10.21,5.08c0,0,0,0,0,0s0,0,0,0c0,0,4.76-2.37,10.21-5.08V62.54h37.81c0-0.21,0-0.42,0-0.63V42.12H60.41z"/>
	<g>
		<rect x="2.17" y="3.53" class="st4" width="37.82" height="38.59"/>
		<rect x="60.41" y="3.53" class="st4" width="37.82" height="38.59"/>
		<path class="st4" d="M39.99,62.54H2.17c0.22,27.66,14.4,35.68,22.01,39.81c0.77,0.42,8.85,4.45,15.8,7.91V62.54z"/>
		<path class="st4" d="M60.41,62.54v47.72c6.95-3.46,15.03-7.49,15.8-7.91c7.61-4.14,21.79-12.15,22.01-39.81H60.41z"/>
	</g>
	<g>
		<path class="st2" d="M73.4,52.63l0.78-0.93l-0.99-1.17l-0.99,1.17l0.78,0.93c0.01,0.47,0.04,4.56-2.37,6.02
			c0,0,0.8,0.15,1.88-0.05c0,0,0.19,1.07,0.69,2.28c0.51-1.22,0.69-2.28,0.69-2.28c1.08,0.21,1.88,0.05,1.88,0.05
			C73.36,57.19,73.39,53.1,73.4,52.63z"/>
		<path class="st2" d="M79.56,45.68l0.78-0.93l-0.99-1.17l-0.99,1.17l0.78,0.93c0.01,0.47,0.04,4.56-2.37,6.02
			c0,0,0.8,0.15,1.88-0.05c0,0,0.19,1.07,0.69,2.28c0.51-1.22,0.69-2.28,0.69-2.28c1.08,0.21,1.88,0.05,1.88,0.05
			C79.52,50.24,79.55,46.15,79.56,45.68z"/>
		<path class="st2" d="M85.72,52.63l0.78-0.93l-0.99-1.17l-0.99,1.17l0.78,0.93c0.01,0.47,0.04,4.56-2.37,6.02
			c0,0,0.8,0.15,1.88-0.05c0,0,0.19,1.07,0.69,2.28c0.51-1.22,0.69-2.28,0.69-2.28c1.08,0.21,1.88,0.05,1.88,0.05
			C85.68,57.19,85.71,53.1,85.72,52.63z"/>
		<path class="st2" d="M91.88,45.68l0.78-0.93l-0.99-1.17l-0.99,1.17l0.78,0.93c0.01,0.47,0.04,4.56-2.37,6.02
			c0,0,0.8,0.15,1.88-0.05c0,0,0.19,1.07,0.69,2.28c0.51-1.22,0.69-2.28,0.69-2.28c1.08,0.21,1.88,0.05,1.88,0.05
			C91.84,50.24,91.87,46.15,91.88,45.68z"/>
		<path class="st2" d="M67.25,45.68l0.78-0.93l-0.99-1.17l-0.99,1.17l0.78,0.93c0.01,0.47,0.04,4.56-2.37,6.02
			c0,0,0.8,0.15,1.88-0.05c0,0,0.19,1.07,0.69,2.28c0.51-1.22,0.69-2.28,0.69-2.28c1.08,0.21,1.88,0.05,1.88,0.05
			C67.2,50.24,67.23,46.15,67.25,45.68z"/>
	</g>
	<g>
		<path class="st2" d="M15.09,52.63l0.78-0.93l-0.99-1.17L13.9,51.7l0.78,0.93c0.01,0.47,0.04,4.56-2.37,6.02
			c0,0,0.8,0.15,1.88-0.05c0,0,0.19,1.07,0.69,2.28c0.51-1.22,0.69-2.28,0.69-2.28c1.08,0.21,1.88,0.05,1.88,0.05
			C15.05,57.19,15.08,53.1,15.09,52.63z"/>
		<path class="st2" d="M21.25,45.68l0.78-0.93l-0.99-1.17l-0.99,1.17l0.78,0.93c0.01,0.47,0.04,4.56-2.37,6.02
			c0,0,0.8,0.15,1.88-0.05c0,0,0.19,1.07,0.69,2.28c0.51-1.22,0.69-2.28,0.69-2.28c1.08,0.21,1.88,0.05,1.88,0.05
			C21.21,50.24,21.24,46.15,21.25,45.68z"/>
		<path class="st2" d="M27.41,52.63l0.78-0.93l-0.99-1.17l-0.99,1.17L27,52.63c0.01,0.47,0.04,4.56-2.37,6.02
			c0,0,0.8,0.15,1.88-0.05c0,0,0.19,1.07,0.69,2.28c0.51-1.22,0.69-2.28,0.69-2.28c1.08,0.21,1.88,0.05,1.88,0.05
			C27.37,57.19,27.4,53.1,27.41,52.63z"/>
		<path class="st2" d="M33.57,45.68l0.78-0.93l-0.99-1.17l-0.99,1.17l0.78,0.93c0.01,0.47,0.04,4.56-2.37,6.02
			c0,0,0.8,0.15,1.88-0.05c0,0,0.19,1.07,0.69,2.28c0.51-1.22,0.69-2.28,0.69-2.28c1.08,0.21,1.88,0.05,1.88,0.05
			C33.52,50.24,33.55,46.15,33.57,45.68z"/>
		<path class="st2" d="M8.93,45.68l0.78-0.93l-0.99-1.17l-0.99,1.17l0.78,0.93c0.01,0.47,0.04,4.56-2.37,6.02
			c0,0,0.8,0.15,1.88-0.05c0,0,0.19,1.07,0.69,2.28c0.51-1.22,0.69-2.28,0.69-2.28c1.08,0.21,1.88,0.05,1.88,0.05
			C8.89,50.24,8.92,46.15,8.93,45.68z"/>
	</g>
	<g>
		<path class="st2" d="M50.45,68.3l0.78-0.93l-0.99-1.17l-0.99,1.17l0.78,0.93c0.01,0.47,0.04,4.56-2.37,6.02
			c0,0,0.8,0.16,1.88-0.05c0,0,0.19,1.07,0.69,2.28c0.51-1.22,0.69-2.28,0.69-2.28c1.08,0.21,1.88,0.05,1.88,0.05
			C50.41,72.86,50.44,68.77,50.45,68.3z"/>
		<path class="st2" d="M50.45,89.21l0.78-0.93l-0.99-1.17l-0.99,1.17l0.78,0.93c0.01,0.47,0.04,4.56-2.37,6.02
			c0,0,0.8,0.15,1.88-0.05c0,0,0.19,1.07,0.69,2.28c0.51-1.22,0.69-2.28,0.69-2.28c1.08,0.21,1.88,0.05,1.88,0.05
			C50.41,93.77,50.44,89.68,50.45,89.21z"/>
		<g>
			<path class="st2" d="M56.16,78.76l0.78-0.93l-0.99-1.17l-0.99,1.17l0.78,0.93c0.01,0.47,0.04,4.56-2.37,6.02
				c0,0,0.8,0.15,1.88-0.05c0,0,0.19,1.07,0.69,2.28c0.51-1.22,0.69-2.28,0.69-2.28c1.08,0.21,1.88,0.05,1.88,0.05
				C56.12,83.32,56.15,79.23,56.16,78.76z"/>
			<path class="st2" d="M44.68,78.76l0.78-0.93l-0.99-1.17l-0.99,1.17l0.78,0.93c0.01,0.47,0.04,4.56-2.37,6.02
				c0,0,0.8,0.15,1.88-0.05c0,0,0.19,1.07,0.69,2.28c0.51-1.22,0.69-2.28,0.69-2.28c1.08,0.21,1.88,0.05,1.88,0.05
				C44.64,83.32,44.67,79.23,44.68,78.76z"/>
		</g>
	</g>
	<g>
		<g>
			<path class="st2" d="M56.16,99.67l0.78-0.93l-0.99-1.17l-0.99,1.17l0.78,0.93c0.01,0.47,0.04,4.56-2.37,6.02
				c0,0,0.8,0.15,1.88-0.05c0,0,0.19,1.07,0.69,2.28c0.51-1.22,0.69-2.28,0.69-2.28c1.08,0.21,1.88,0.05,1.88,0.05
				C56.12,104.23,56.15,100.14,56.16,99.67z"/>
			<path class="st2" d="M44.68,99.67l0.78-0.93l-0.99-1.17l-0.99,1.17l0.78,0.93c0.01,0.47,0.04,4.56-2.37,6.02
				c0,0,0.8,0.15,1.88-0.05c0,0,0.19,1.07,0.69,2.28c0.51-1.22,0.69-2.28,0.69-2.28c1.08,0.21,1.88,0.05,1.88,0.05
				C44.64,104.23,44.67,100.14,44.68,99.67z"/>
		</g>
	</g>
	<g>
		<path class="st2" d="M50.45,20.68l0.78-0.93l-0.99-1.17l-0.99,1.17l0.78,0.93c0.01,0.47,0.04,4.56-2.37,6.02
			c0,0,0.8,0.15,1.88-0.05c0,0,0.19,1.07,0.69,2.28c0.51-1.22,0.69-2.28,0.69-2.28c1.08,0.21,1.88,0.05,1.88,0.05
			C50.41,25.24,50.44,21.15,50.45,20.68z"/>
		<g>
			<path class="st2" d="M56.16,10.23l0.78-0.93l-0.99-1.17L54.97,9.3l0.78,0.93c0.01,0.47,0.04,4.56-2.37,6.02
				c0,0,0.8,0.15,1.88-0.05c0,0,0.19,1.07,0.69,2.28c0.51-1.22,0.69-2.28,0.69-2.28c1.08,0.21,1.88,0.05,1.88,0.05
				C56.12,14.79,56.15,10.7,56.16,10.23z"/>
			<path class="st2" d="M44.68,10.23l0.78-0.93l-0.99-1.17L43.49,9.3l0.78,0.93c0.01,0.47,0.04,4.56-2.37,6.02
				c0,0,0.8,0.15,1.88-0.05c0,0,0.19,1.07,0.69,2.28c0.51-1.22,0.69-2.28,0.69-2.28c1.08,0.21,1.88,0.05,1.88,0.05
				C44.64,14.79,44.67,10.7,44.68,10.23z"/>
		</g>
		<g>
			<path class="st2" d="M56.16,31.14l0.78-0.93l-0.99-1.17l-0.99,1.17l0.78,0.93c0.01,0.47,0.04,4.56-2.37,6.02
				c0,0,0.8,0.15,1.88-0.05c0,0,0.19,1.07,0.69,2.28c0.51-1.22,0.69-2.28,0.69-2.28c1.08,0.21,1.88,0.05,1.88,0.05
				C56.12,35.7,56.15,31.61,56.16,31.14z"/>
			<path class="st2" d="M44.68,31.14l0.78-0.93l-0.99-1.17l-0.99,1.17l0.78,0.93c0.01,0.47,0.04,4.56-2.37,6.02
				c0,0,0.8,0.15,1.88-0.05c0,0,0.19,1.07,0.69,2.28c0.51-1.22,0.69-2.28,0.69-2.28c1.08,0.21,1.88,0.05,1.88,0.05
				C44.64,35.7,44.67,31.61,44.68,31.14z"/>
		</g>
	</g>
	<g>
		<path class="st2" d="M31.82,22.58l0.13,0.48c0.12,0.43,0.2,0.78,0.26,1.03c0.4,1.83,0.74,2.31,1.63,2.31
			c0.51,0,0.93-0.28,1.06-0.71l0.19-0.64c0.04-0.15,0.16-0.23,0.31-0.23c0.35,0,0.51,0.36,0.52,1.17c0.01,0.23,0.08,0.75,0.23,1.57
			c0.08,0.48,0.13,0.95,0.13,1.4c0,0.41-0.03,0.58-0.19,1c0.11,0.63,0.19,1.48,0.19,1.96c0,0.79-0.15,1.53-0.39,1.92
			c0.13,0.53,0.16,0.74,0.16,1.21c0,0.34-0.03,0.71-0.1,1.07c-0.14,0.77-0.17,0.96-0.17,1.11c0,0.15,0.03,0.29,0.07,0.43
			c0.06,0.18,0.1,0.31,0.1,0.38c0,0.09-0.04,0.16-0.1,0.16l-0.64-0.26l-0.71-0.38c-0.23-0.12-0.39-0.25-0.74-0.58
			c-0.62,0.56-0.81,0.64-2.44,1.09c-0.33,0.09-0.57,0.19-0.71,0.29c-0.2,0.14-0.35,0.22-0.43,0.22c-0.27,0-0.41-0.44-0.41-1.36
			c0-0.68,0.07-1.31,0.19-1.78c-0.48-0.18-0.89-0.29-1.15-0.29c-0.05,0-0.21,0.02-0.49,0.06l-0.12,0.01c-0.09,0-0.17-0.14-0.17-0.31
			c0-0.12,0.09-0.43,0.2-0.7l0.32-0.77c0.12-0.28,0.38-0.6,0.77-0.93c0.32-0.27,0.6-0.44,0.83-0.48l1.15-0.22
			c0.69-0.13,1.09-0.5,1.09-0.97c0-0.46-0.31-0.77-1-1.01l-1.38-0.48c-0.35-0.12-0.77-0.33-1.25-0.61
			c-0.76-0.45-0.89-0.51-1.08-0.51c-0.27,0-0.43,0.21-0.43,0.57c0,0.57,0.37,0.97,0.9,0.97c0.11,0,0.22-0.02,0.32-0.06
			c0.16-0.06,0.27-0.1,0.33-0.1c0.14,0,0.22,0.08,0.22,0.24l-0.01,0.14L29,30.53c-0.06,0.47-0.36,1.03-1.03,1.92l-0.29,0.38
			c-0.26,1.03-0.9,1.97-1.73,2.53c-0.21,0.14-0.33,0.23-0.35,0.25c-0.03,0.03-0.11,0.18-0.26,0.45c-0.06,0.12-0.28,0.38-0.64,0.77
			c-0.27,0.29-0.54,0.54-0.8,0.74c-0.36,0.27-0.57,0.47-0.64,0.58l-0.32,0.55c-0.06,0.1-0.15,0.16-0.26,0.16
			c-0.28,0-0.54-0.29-0.7-0.8c-0.12-0.38-0.22-0.48-0.46-0.48c-0.12,0-0.31,0.03-0.56,0.1l-0.45,0.06h-1.16
			c-0.58,0-1.39,0.15-1.76,0.32c-0.15,0.07-0.26,0.1-0.33,0.1c-0.08,0-0.13-0.04-0.21-0.2c-0.06-0.11-0.07-0.16-0.07-0.26
			c0-0.59,0.42-1.69,0.97-2.57c0.35-0.55,0.46-0.68,0.87-1.03c-0.13-0.54-0.48-0.96-0.9-1.09l-0.55-0.16
			c-0.08-0.02-0.13-0.09-0.13-0.16c0-0.17,0.26-0.39,0.74-0.65c0.63-0.33,1.26-0.51,1.76-0.51c0.53,0,1.05,0.21,1.64,0.67
			c0.87,0.68,1.1,0.8,1.53,0.8c0.69,0,1.34-0.63,1.34-1.29c0-0.44-0.23-0.91-0.85-1.7c-0.89-1.16-1.16-1.76-1.16-2.6
			c0-0.53,0.16-1.2,0.36-1.5l0.32-0.48c0.07-0.11,0.11-0.21,0.11-0.31c0-0.21-0.25-0.37-0.58-0.37c-0.51,0-1.48,0.36-2.25,0.84
			c-0.38,0.24-0.65,0.51-0.65,0.68c0,0.1,0.05,0.19,0.13,0.25l0.35,0.22c0.04,0.03,0.07,0.08,0.07,0.13c0,0.04-0.05,0.15-0.13,0.25
			L19.32,28c-0.33,0.43-0.84,0.97-1.35,1.41c-0.17,0.15-0.28,0.26-0.32,0.32c0,0-0.09,0.16-0.25,0.48
			c-0.23,0.43-0.84,1.05-1.41,1.44c-0.24,0.16-0.39,0.28-0.45,0.35c-0.05,0.05-0.13,0.21-0.26,0.45c-0.08,0.16-0.22,0.38-0.42,0.67
			c-0.31,0.46-0.57,0.8-0.77,0.99l-0.9,0.9c-0.28,0.27-0.52,0.81-0.9,1.98c-0.23,0.71-0.43,1.13-0.55,1.13
			c-0.05,0-0.14-0.07-0.25-0.2c-0.64-0.72-1.18-1.16-1.47-1.16c-0.07,0-0.19,0.06-0.36,0.16c-0.23,0.15-0.53,0.26-0.87,0.32
			l-1.18,0.22c-0.9,0.17-1.25,0.36-1.76,0.96c-0.12,0.14-0.22,0.22-0.28,0.22c-0.1,0-0.17-0.16-0.17-0.37L5.44,38l0.16-0.86
			c0.17-0.93,0.38-1.61,0.64-2.08l0.54-0.99c0.11-0.19,0.16-0.37,0.16-0.52c0-0.74-0.76-1.41-1.7-1.5
			c-0.24-0.02-0.33-0.08-0.33-0.21c0-0.16,0.26-0.48,0.62-0.75c0.64-0.49,1.48-0.83,2.02-0.83c0.32,0,0.83,0.14,1.44,0.38l0.71,0.29
			c0.26,0.11,0.5,0.17,0.71,0.17c0.75,0,1.47-0.68,2.36-2.21c0.4-0.69,0.58-1.2,0.58-1.65c0-0.81-0.38-1.3-1.02-1.3
			c-0.48,0-1.01,0.23-1.39,0.61c-0.32,0.33-0.49,0.67-0.49,0.99l0.01,0.36l0,0.08c0,0.3-0.1,0.47-0.28,0.47c-0.3,0-0.74-0.43-2-1.96
			c-0.94-1.14-1.15-1.62-1.19-2.76c-1.09-1.39-1.36-1.97-1.36-2.96l0.04-0.66c-0.75-0.91-0.96-1.4-0.96-2.23
			c0-0.3,0.05-0.48,0.23-0.85c-0.38-0.56-0.51-0.81-0.61-1.25l-0.16-0.68c-0.11-0.46-0.28-0.85-0.51-1.19
			c-0.29-0.41-0.32-0.47-0.32-0.61c0-0.37,0.26-0.52,1.38-0.8c-0.05-0.31-0.07-0.55-0.07-0.71c0-0.19,0.02-0.37,0.1-0.76l0.22-1.19
			C5.08,9.34,5.13,9,5.13,8.8c0-0.22-0.04-0.38-0.23-1.02C4.78,7.41,4.69,7.16,4.61,7.03C4.5,6.87,4.41,6.67,4.41,6.6
			c0-0.11,0.08-0.18,0.22-0.18c0.32,0,1.16,0.51,2.02,1.23c1.84,1.52,2.22,2.13,2.47,3.97c0.02,0.14,0.05,0.36,0.1,0.64
			c0.88,0.65,1.35,1.43,1.35,2.27c0,0.66-0.24,1.43-0.64,2.05l-0.64,0.99C9.1,17.87,9,18.24,9,18.64c0,0.6,0.17,1.16,0.61,1.92
			c0.49,0.87,0.91,1.22,1.43,1.22c0.84,0,1.59-1.47,1.59-3.14v-0.22l-0.01-0.58c0-0.33,0.02-0.65,0.07-1.06
			c0.06-0.5,0.09-0.81,0.09-0.93l0.03-0.77l0.01-0.51c0-0.18-0.09-0.36-0.33-0.61l-0.7-0.77c-1.02-1.11-1.58-2.16-1.58-2.94
			c0-0.97,0.7-1.71,1.64-1.71c0.19,0,0.36,0.03,0.68,0.12V8.45c0-1.41,0.29-2.46,0.68-2.46l0.15,0.05l0.58,0.51L14.64,7l0.19,0.19
			c0-0.4,0.02-0.44,0.42-0.9c0.1-0.11,0.24-0.31,0.45-0.61c0.16-0.24,0.27-0.4,0.32-0.48c0.05-0.08,0.1-0.18,0.16-0.29
			c0.08-0.16,0.17-0.24,0.27-0.24c0.09,0,0.16,0.12,0.28,0.47c0.08,0.22,0.13,0.28,0.68,0.77c0.19,0.17,0.32,0.31,0.38,0.42
			c0.05,0.09,0.14,0.3,0.26,0.64c0.02,0.06,0.05,0.14,0.1,0.26c0.24-0.3,0.35-0.41,0.64-0.58l0.48-0.29
			c0.18-0.11,0.3-0.17,0.36-0.17c0.04,0,0.1,0.08,0.16,0.2c0.05,0.11,0.14,0.27,0.26,0.48c0.34,0.6,0.45,0.88,0.45,1.16l-0.01,0.32
			v0.38c1.05,0.33,1.45,0.88,1.45,2.01c0,0.82-0.43,1.75-1.25,2.74c-0.55,0.66-0.61,0.79-0.61,1.24c0,2.37,1.65,3.75,4.56,3.79
			l2.15,0.03c1.38,0.02,2.21,0.16,3.49,0.58c1.52,0.5,1.97,0.61,2.41,0.61c0.15,0,0.29-0.05,0.41-0.13
			c0.12-0.08,0.19-0.19,0.19-0.28c0-0.45-0.79-0.81-3.36-1.54c-5.29-1.5-7.53-3.63-7.53-7.13c0-2.71,2.25-4.8,5.16-4.8
			c0.94,0,2.38,0.25,3.2,0.55l1.31,0.48c0.24,0.09,0.47,0.13,0.69,0.13c0.45,0,0.67-0.37,0.69-1.13c0.01-0.4,0.1-0.54,0.37-0.54
			c0.37,0,0.94,0.46,1.46,1.19c0.53,0.73,0.87,1.56,0.87,2.1c0,0.73-0.34,1.24-1.12,1.68c-0.72,1.1-1.6,1.6-2.79,1.6
			c-0.93,0-2.24-0.52-4.42-1.76c-0.76-0.43-1.15-0.58-1.55-0.58c-0.57,0-0.94,0.33-0.94,0.83c0,0.46,0.36,0.76,1.3,1.09
			c1.38,0.49,1.73,0.67,2.27,1.25c1.63,0.28,2.34,0.57,3.37,1.34c2.81,0.89,4.56,2.81,4.56,5.01c0,2.14-1.45,3.68-3.46,3.68
			C32.86,22.77,32.56,22.74,31.82,22.58"/>
		<path class="st5" d="M34.99,36.62c-0.09-0.39-0.12-0.58-0.12-0.77l0.02-0.25l0.1-0.51l0.03-0.41c0-0.45-0.08-0.76-0.23-0.96
			l-0.39-0.51c-0.12-0.17-0.24-0.38-0.32-0.61c-0.04-0.12-0.07-0.21-0.07-0.27c0-0.15,0.09-0.24,0.23-0.24
			c0.09,0,0.12,0.02,0.41,0.19c0.12,0.07,0.23,0.11,0.31,0.11c0.19,0,0.3-0.31,0.3-0.85c0-0.62-0.06-0.96-0.19-1.12l-0.48-0.54
			l-0.42-0.35c-0.1-0.09-0.17-0.2-0.17-0.28c0-0.14,0.11-0.23,0.26-0.23c0.15,0,0.45,0.07,0.71,0.16l0.15,0.03
			c0.13,0,0.18-0.08,0.18-0.27l-0.01-0.12l-0.1-0.67l-0.19-0.7c-0.06-0.23-0.1-0.26-0.24-0.26l-0.08,0.01l-0.8,0.16l-0.13,0.01
			c-1.05,0-2.16-0.89-2.5-2l-0.64-2.08c-0.2-0.64-0.68-1.25-1.54-1.96c-0.26-0.21-0.48-0.33-0.64-0.35l-0.58-0.07
			c-0.11-0.01-0.17-0.07-0.17-0.16c0-0.13,0.12-0.19,0.4-0.19l1.06,0.09c0.39,0.04,0.97,0.19,1.73,0.45
			c0.96,0.33,1.61,0.47,2.15,0.47c1.6,0,2.56-0.87,2.56-2.32c0-0.99-0.52-2.12-1.31-2.84c-0.45-0.4-0.9-0.71-1.06-0.71
			c-0.09,0-0.16,0.07-0.16,0.17l0.03,0.41l0,0.04c0,0.16-0.09,0.29-0.22,0.29c-0.16,0-0.34-0.21-0.55-0.64
			c-0.61-1.26-1.57-2.01-2.56-2.01c-0.17,0-0.29,0.07-0.29,0.17c0,0.07,0.05,0.22,0.16,0.46l0.26,0.58c0.07,0.15,0.1,0.25,0.1,0.29
			c0,0.04-0.06,0.07-0.14,0.07c-0.15,0-0.38-0.13-0.54-0.3l-0.48-0.51l-0.42-0.64c-0.34-0.51-0.6-0.75-1.31-1.12
			c-0.4-0.21-0.65-0.35-0.77-0.42c-0.15-0.08-0.28-0.13-0.4-0.13c-0.11,0-0.17,0.05-0.17,0.17c0,0.1,0.04,0.23,0.12,0.35
			c0.24,0.37,0.33,0.55,0.33,0.64c0,0.1-0.08,0.19-0.17,0.19c-0.25,0-0.77-0.5-1.22-1.18c-0.38-0.56-0.58-1.19-0.58-1.8
			c0-1.38,1.01-2.4,2.37-2.4c0.7,0,1.59,0.3,2.41,0.8l1.51,0.93c0.52,0.33,1.29,0.58,1.75,0.58c0.2,0,0.63-0.07,0.94-0.16
			c0.14-0.04,0.27-0.09,0.38-0.16c0.09-0.05,0.15-0.13,0.15-0.18c0-0.06-0.04-0.12-0.09-0.14l-0.19-0.06l-0.7-0.13
			C32.6,9.79,32.3,9.68,31.92,9.5c-0.85-0.39-1.38-0.66-1.6-0.8c-0.53-0.35-0.88-0.55-1.06-0.61c-0.26-0.09-0.42-0.21-0.42-0.3
			c0-0.1,0.05-0.14,0.14-0.14c0.09,0,0.21,0.04,0.34,0.12c0.47,0.29,0.88,0.45,1.19,0.45l1.38,0.48c0.68,0.24,1.68,0.45,2.13,0.45
			c0.58,0,1.05-0.47,1.05-1.06c0-0.38-0.22-0.94-0.56-1.41c-0.07-0.11-0.15-0.16-0.22-0.16c-0.13,0-0.2,0.09-0.2,0.26l0.03,0.26
			l0.05,0.38c0,0.42-0.28,0.74-0.64,0.74c-0.13,0-0.3-0.03-0.5-0.1l-2.08-0.67c-1.75-0.56-2.55-0.74-3.43-0.74
			c-2.49,0-4.39,1.71-4.39,3.97c0,2.55,1.79,4.2,6.22,5.71c4.36,1.5,4.97,1.86,4.97,2.98c0,0.64-0.65,1.22-1.38,1.22
			c-0.29,0-0.55-0.02-0.77-0.06c-0.15-0.03-0.87-0.2-2.18-0.51c-1.32-0.32-2.51-0.45-3.99-0.45c-3.14,0-4.89,0.55-6.4,2.02
			c-0.38,0.37-0.5,0.42-0.94,0.42l-0.22-0.01L18,21.91l-0.06,0c-0.38,0-0.65,0.17-0.9,0.58c-0.34,0.54-0.52,0.83-0.55,0.87
			c-0.09,0.12-0.23,0.19-0.37,0.19c-0.29,0-0.46-0.22-0.79-0.99c-0.16-0.38-0.39-0.71-0.67-0.96l-0.64-0.58
			c-0.1-0.09-0.16-0.18-0.16-0.24c0-0.07,0.05-0.17,0.13-0.3c0.31-0.45,0.41-0.65,0.45-0.84c0.09-0.43,0.1-0.45,0.27-0.45
			c0.2,0,0.26,0.2,0.27,0.93c0,0.21,0.09,0.51,0.26,0.86l0.35,0.77c0.04,0.1,0.16,0.16,0.29,0.16c0.33,0,0.75-0.78,0.86-1.6
			c0.09-0.69,0.16-0.9,0.31-0.9c0.06,0,0.11,0.02,0.14,0.07c0.03,0.05,0.13,0.24,0.29,0.58c0.08,0.18,0.23,0.34,0.42,0.48
			c0.18,0.14,0.32,0.21,0.38,0.23l0.04,0c0.26,0,0.35-0.17,0.41-0.78l0.03-0.32l-0.06-0.45l-0.04-0.31c0-0.21,0.07-0.33,0.19-0.33
			c0.07,0,0.16,0.04,0.24,0.13l0.32,0.32c0.21,0.21,0.43,0.32,0.63,0.32c0.27,0,0.43-0.11,0.43-0.28c0-0.15-0.06-0.31-0.3-0.74
			l-0.22-0.42c-0.26-0.48-0.46-0.67-0.7-0.67l-0.32,0.03l-0.38,0.16c-0.12,0.05-0.2,0.07-0.25,0.07c-0.06,0-0.1-0.05-0.1-0.13
			c0-0.29,0.19-0.74,0.54-1.31c0.25-0.41,0.43-1.27,0.51-2.52c0.11-1.67,0.33-2.76,0.57-2.76c0.16,0,0.22,0.13,0.22,0.49l-0.02,0.44
			l-0.01,0.31c0,0.3,0.07,0.54,0.14,0.54c0.27,0,0.6-0.41,0.86-1.07c0.11-0.28,0.17-0.5,0.17-0.65l-0.04-0.15L20.51,9.5l-0.64-0.19
			c-0.12-0.04-0.2-0.09-0.22-0.14V8.73V8.38L19.58,8l-0.13-0.32l-0.16-0.35c-0.7,0.38-1.04,0.63-1.28,0.96
			c-0.25,0.34-0.39,0.46-0.52,0.46c-0.08,0-0.16-0.08-0.16-0.17c0-0.08,0.03-0.25,0.1-0.52l0.02-0.18c0-0.69-0.42-1.37-1.11-1.81
			l-0.19,0.26l-0.23,0.32L15.54,7.1c-0.12,0.14-0.23,0.36-0.32,0.64C15.17,7.88,15.15,8,15.15,8.11l0,0.05l0,0.12
			c0,0.27-0.03,0.33-0.15,0.33l-0.08-0.04L14.7,8.25l-0.35-0.39l-0.54-0.35l-0.29-0.22c-0.06,0.13-0.1,0.22-0.13,0.29
			c-0.1,0.22-0.15,0.4-0.16,0.51L13.2,8.61l-0.03,0.54l0,0.09c0,0.28-0.07,0.39-0.24,0.39c-0.06,0-0.22-0.07-0.37-0.16
			c-0.14-0.08-0.3-0.13-0.46-0.13c-0.5,0-0.82,0.35-0.82,0.89c0,0.64,0.19,1.26,0.52,1.68l0.41,0.55c0.12,0.15,0.33,0.27,0.34,0.19
			l0.08-0.67l-0.1-0.54l-0.02-0.24c0-0.21,0.07-0.34,0.19-0.34c0.18,0,0.29,0.2,0.41,0.74l0.25,1.19l0.26,1.51
			c0.07,0.41,0.2,0.84,0.38,1.28c0.25,0.6,0.44,0.98,0.55,1.12c0.36,0.46,0.4,0.52,0.4,0.62c0,0.08-0.06,0.15-0.14,0.15
			c-0.07,0-0.17-0.03-0.29-0.1c-0.11-0.06-0.24-0.1-0.38-0.13l-0.25-0.04c-0.52,0-0.62,0.44-0.62,2.58c0,1.31,0.28,3.08,0.62,3.93
			l0.67,1.7c0.11,0.27,0.16,0.54,0.16,0.79c0,2.34-3.1,6.01-6.5,7.7c-1.27,0.63-1.67,1.23-1.76,2.63L6.4,36.94
			c0.52-0.27,0.73-0.36,1.09-0.45c0.96-0.25,1.14-0.37,1.28-0.83l0.13-0.42c0.05-0.16,0.13-0.21,0.87-0.61
			c0.25-0.13,0.43-0.28,0.51-0.42c0.16-0.27,0.29-0.41,0.38-0.41c0.08,0,0.12,0.04,0.12,0.1l-0.03,0.11l-0.32,0.92l-0.04,0.22
			c0,0.68,0.37,1.23,1.06,1.58c0.11-0.74,0.19-1,0.42-1.34l0.58-0.9c0.21-0.33,0.3-0.74,0.3-1.37c0-0.36-0.03-0.73-0.08-1
			l-0.02-0.25c0-0.16,0.08-0.26,0.23-0.26c0.11,0,0.2,0.04,0.21,0.09l0.13,0.61c0.02,0.13,0.16,0.23,0.31,0.23
			c0.31,0,0.71-0.4,1.13-1.12c0.15-0.27,0.24-0.56,0.24-0.85l-0.05-0.43l-0.1-0.48l-0.01-0.09c0-0.21,0.12-0.36,0.28-0.36
			c0.07,0,0.13,0.03,0.14,0.06l0.19,0.74c0.06,0.25,0.24,0.42,0.42,0.42c0.22,0,0.59-0.37,0.8-0.8c0.19-0.38,0.29-0.82,0.29-1.31
			c0-0.68,0.07-0.88,0.32-0.88c0.08,0,0.15,0.03,0.16,0.08l0.13,0.42c0.05,0.15,0.14,0.25,0.23,0.25c0.13,0,0.49-0.39,0.73-0.8
			c0.06-0.11,0.1-0.21,0.1-0.3c0-0.14-0.09-0.28-0.29-0.44c-0.34-0.28-0.35-0.32-0.35-0.74c0-0.4,0.07-0.61,0.35-1.12
			c0.15-0.27,0.29-0.53,0.42-0.77c0.41-0.79,0.55-1,0.7-1c0.12,0,0.23,0.13,0.23,0.28c0,0.08-0.02,0.17-0.07,0.26
			c-0.09,0.18-0.13,0.31-0.13,0.38c0,0.13,0.11,0.23,0.24,0.23c0.15,0,0.34-0.07,0.56-0.19c0.09-0.05,0.39-0.16,0.9-0.35l1.06-0.38
			c0.17-0.06,0.39-0.1,0.64-0.1c0.2,0,0.39,0.02,0.57,0.06c0.38,0.09,0.63,0.13,0.74,0.13c0.29,0,0.55-0.25,0.55-0.53
			c0-0.21-0.22-0.63-0.52-0.97c-0.11-0.13-0.16-0.23-0.16-0.29l0.04-0.13c0.04-0.08,0.11-0.13,0.17-0.13c0.22,0,0.72,0.54,1.18,1.25
			c2.76,4.34,3.75,5.4,5.61,5.96c1.88,0.57,2.38,1.01,2.38,2.13c0,0.61-0.31,1.33-1,2.29c-1.4,1.95-1.73,2.74-1.73,4.03l0,0.24
			c0.16-0.07,0.27-0.12,0.35-0.16c0.26-0.13,0.44-0.21,0.51-0.22l0.8-0.16c0.24-0.05,0.45-0.36,0.45-0.66l0-0.08l-0.1-0.71
			l-0.01-0.09c0-0.25,0.12-0.54,0.3-0.68c0.05-0.04,0.11-0.07,0.17-0.07c0.09,0,0.2,0.08,0.25,0.2l0.51,1.09
			C34.08,36.1,34.33,36.31,34.99,36.62"/>
		<path class="st5" d="M9.15,13.38c-0.23,0-0.35,0.2-0.38,0.64l-0.06,0.61c-0.07,0.57-0.08,0.63-0.08,0.78c0,0.46,0.14,0.8,0.32,0.8
			c0.21,0,0.53-0.39,0.69-0.84c0.1-0.27,0.15-0.51,0.15-0.75c0-0.21-0.05-0.47-0.15-0.72C9.52,13.57,9.34,13.38,9.15,13.38"/>
		<path class="st5" d="M6.5,8.7l0.45,0.45c0.73,0.73,1.09,1.94,1.09,3.67c0,0.38-0.02,0.63-0.1,1.65c-0.04,0.54-0.06,0.98-0.06,1.32
			c0,3.97,1.29,6.98,3,6.98c0.54,0,0.89-0.26,1.39-1.03c0.08-0.12,0.21-0.23,0.29-0.23c0.1,0,0.15,0.08,0.16,0.26l0.06,0.71
			l0.07,0.61l0.06,0.67l0.1,0.61l0.01,0.08c0,0.18-0.08,0.28-0.23,0.3l-0.58,0.1c-0.29,0.04-0.59,0.17-0.9,0.35
			c-0.48,0.29-0.77,0.51-0.83,0.64l-0.35,0.74c-0.05,0.09-0.12,0.16-0.2,0.16c-0.19,0-0.48-0.32-0.83-0.9
			c-0.29-0.49-0.47-0.89-0.47-1.05c0-0.1,0.08-0.14,0.28-0.14h0.06l0.41,0.03l0.26-0.03l0.29-0.03c0.11-0.01,0.19-0.11,0.19-0.23
			c0-0.08-0.05-0.16-0.13-0.19L8.55,23.6c-0.44-0.19-0.83-0.56-1.09-1.05c-0.4-0.76-0.58-1.21-0.58-1.44c0-0.2,0.1-0.33,0.26-0.33
			c0.06,0,0.13,0.02,0.22,0.07c0.14,0.07,0.33,0.13,0.41,0.13c0.13,0,0.24-0.1,0.24-0.2c0-0.09-0.11-0.24-0.26-0.35
			c-1.2-0.87-1.89-1.88-1.89-2.74c0-0.24,0.06-0.36,0.19-0.36l0.23,0.03l0.42,0.06h0.02c0.16,0,0.28-0.1,0.28-0.25
			c0-0.09-0.11-0.21-0.26-0.29c-0.29-0.16-0.46-0.26-0.51-0.29c-0.18-0.11-0.33-0.26-0.45-0.45c-0.05-0.08-0.23-0.42-0.54-1.03
			l-0.45-0.87C4.6,13.92,4.5,13.74,4.48,13.7c-0.03-0.05-0.09-0.13-0.19-0.26c0.42-0.2,0.65-0.26,1-0.26c0.44,0,0.71,0.29,1.02,1.06
			c0.19,0.49,0.41,0.82,0.53,0.82c0.06,0,0.08-0.11,0.08-0.38c0-0.32-0.05-0.64-0.13-0.95c-0.08-0.29-0.11-0.53-0.1-0.71l-0.06-0.45
			l-0.38-0.19c-0.09-0.04-0.19-0.15-0.29-0.32c-0.18-0.28-0.26-0.52-0.26-0.73c0-0.14,0.04-0.36,0.1-0.58
			c0.33-1.22,0.42-1.7,0.42-2.1L6.21,8.38L6.5,8.7z"/>
		<path class="st5" d="M10.34,31.81c-0.45-0.07-0.66-0.12-0.93-0.23c-0.08-0.03-0.28-0.12-0.61-0.25c-0.52-0.22-0.9-0.32-1.23-0.32
			c-0.48,0-0.88,0.16-1.34,0.55l0.29,0.22l0.64,0.45l0.61,0.48c0.16,0.12,0.34,0.19,0.53,0.19C8.94,32.9,9.48,32.61,10.34,31.81"/>
		<path class="st5" d="M22.68,37.65c0.18-0.4,0.26-0.51,0.64-0.83c0.9-0.77,1.31-1.34,1.31-1.79V34.7v-0.38
			c0-0.41,0.07-0.55,0.28-0.55c0.1,0,0.17,0.04,0.2,0.1l0.16,0.38c0.04,0.09,0.15,0.15,0.27,0.15c0.12,0,0.31-0.15,0.47-0.37
			l0.32-0.45c0.16-0.22,0.23-0.42,0.23-0.63c0-0.12-0.03-0.25-0.07-0.37c-0.03-0.06-0.1-0.23-0.22-0.51
			c-0.07-0.17-0.13-0.39-0.13-0.5c0-0.21,0.11-0.33,0.29-0.33c0.09,0,0.18,0.04,0.23,0.1l0.26,0.32c0.06,0.07,0.15,0.11,0.24,0.11
			c0.12,0,0.25-0.11,0.33-0.27l0.26-0.51c0.07-0.13,0.1-0.23,0.1-0.29c0-0.1-0.1-0.2-0.29-0.29l-0.42-0.19
			c-0.55-0.25-0.97-1.13-0.97-2.05c0-0.12,0.02-0.24,0.07-0.35l0.22-0.55c0.07-0.15,0.1-0.33,0.1-0.51c0-0.33-0.11-0.67-0.32-1
			c-0.26-0.39-0.4-0.62-0.42-0.67c-0.19-0.51-0.29-0.65-0.44-0.65l-0.16,0.04l-0.22,0.13l-0.35,0.19l-0.42,0.51l-0.45,0.22
			c-0.27,0.13-0.52,0.71-0.52,1.18c0,0.83,0.09,1.06,1.19,2.96c0.43,0.73,0.65,1.37,0.65,1.83c0,1.31-1.18,2.25-3.54,2.81
			l-1.47,0.35c-1.09,0.26-1.73,1.01-1.96,2.28c0.45-0.23,0.63-0.27,1.42-0.27l0.47,0.01l0.07,0c0.43,0,0.49-0.03,0.76-0.42
			c0.32-0.44,0.63-0.71,1.06-0.89l0.51-0.23l0.42-0.22l0.13-0.03c0.11,0,0.18,0.05,0.18,0.13c0,0.12-0.12,0.33-0.3,0.54
			c-0.37,0.41-0.51,0.75-0.51,1.24C22.33,37.11,22.41,37.29,22.68,37.65"/>
		<path class="st5" d="M18.64,32.68c0.37,0.23,0.74,0.56,0.96,0.87c0.31,0.42,0.35,0.45,0.65,0.45c0.13,0,0.29-0.02,0.47-0.07
			l0.29-0.06c0.53-0.1,0.71-0.18,0.71-0.31c0-0.08-0.06-0.18-0.16-0.27l-0.35-0.32l-0.35-0.32c-0.23-0.21-0.67-0.36-1.06-0.36
			C19.42,32.28,19.19,32.36,18.64,32.68"/>
		<path class="st5" d="M29.03,34.41l0.19-0.03l0.29-0.03l0.29,0.03l0.14,0.01c0.71,0,1.4-0.6,1.4-1.24c0-0.22-0.2-0.34-0.56-0.34
			C29.91,32.8,29.37,33.3,29.03,34.41"/>
		<path class="st2" d="M17.08,12.26c0.03,0.3,0.19,0.54,0.35,0.54c0.13,0,0.29-0.35,0.62-0.92c0.45-0.77,0.89-1.52,0.89-1.93
			c0-0.14-0.07-0.24-0.16-0.24l-0.03,0.01l-0.35,0.32c-0.26,0.23-0.46,0.34-1.09,0.58c-0.36,0.14-0.49,0.28-0.49,0.55l0.05,0.26
			l0.16,0.45L17.08,12.26z"/>
		<path class="st2" d="M15.12,10.59l0.54,0.29c0.15,0.08,0.23,0.18,0.23,0.31l-0.04,0.2c-0.08,0.27-0.02,0.57-0.02,0.68
			c-0.03,0.57-0.46,0.57-0.64,0.57c-0.11,0-0.05-0.07-0.3-0.35l-0.71-0.8c-0.22-0.25-0.41-0.81-0.48-1.44l0-0.08
			c0-0.18,0.06-0.24,0.19-0.24c0.09,0,0.24,0.07,0.35,0.16L15.12,10.59z"/>
		<path class="st2" d="M16.37,13.96l-0.17,0l-0.37-0.03c-0.01,0-0.14-0.08-0.39-0.23c-0.15-0.08-0.3-0.13-0.46-0.13
			c-0.29,0-0.48,0.16-0.48,0.4c0,0.27,0.13,0.7,0.42,1.43l0.42,1.02c0.37,0.9,0.72,1.28,1.19,1.28c0.42,0,0.48-0.41,0.76-1.12
			c0.64-1.61,1-1.85,1-2.42c0-0.39-0.09-0.49-0.44-0.49l-0.3-0.07l-0.51,0.32L16.37,13.96z"/>
		<path class="st5" d="M16.34,14.86h-0.42c-0.06,0-0.12,0.04-0.16,0.1l-0.06,0.16l0.16,0.77l0.13,0.67
			c0.07,0.37,0.21,0.51,0.48,0.51c0.31,0,0.51-0.21,0.54-0.61l0.06-0.71c0.04-0.47,0.06-0.71,0.06-0.73c0-0.07-0.04-0.14-0.1-0.2
			c-0.05-0.04-0.1-0.07-0.16-0.07l-0.03,0L16.34,14.86z"/>
	</g>
	<g>
		<path class="st2" d="M91.62,22.58l0.13,0.48c0.12,0.43,0.2,0.78,0.26,1.03c0.4,1.83,0.74,2.31,1.63,2.31
			c0.51,0,0.93-0.28,1.06-0.71l0.19-0.64c0.04-0.15,0.15-0.23,0.3-0.23c0.35,0,0.53,0.38,0.56,1.16c0.01,0.3,0.07,0.82,0.19,1.57
			c0.09,0.54,0.13,1.04,0.13,1.48c0,0.33-0.04,0.52-0.19,0.92l0.06,0.38c0.11,0.63,0.13,0.88,0.13,1.18c0,1.38-0.07,1.78-0.39,2.32
			c0.13,0.53,0.17,0.77,0.17,1.15c0,0.24-0.03,0.59-0.1,1.13l-0.13,0.96l0.03,0.58c0.09,0.21,0.13,0.34,0.13,0.38
			c0,0.09-0.06,0.16-0.13,0.16l-0.64-0.26l-0.7-0.38c-0.23-0.12-0.39-0.25-0.74-0.58c-0.62,0.55-0.71,0.6-1.45,0.8
			c-1.06,0.29-1.45,0.43-1.67,0.58c-0.21,0.14-0.36,0.22-0.44,0.22c-0.25,0-0.42-0.48-0.42-1.19c0-1.03,0.06-1.55,0.22-1.96
			c-0.62-0.21-0.94-0.29-1.17-0.29c-0.09,0-0.14,0.01-0.47,0.06l-0.14,0.01c-0.09,0-0.15-0.11-0.15-0.31c0-0.31,0.22-0.94,0.52-1.47
			c0.4-0.72,1.06-1.31,1.57-1.41l1.15-0.22c0.68-0.13,1.09-0.5,1.09-0.97c0-0.46-0.3-0.76-1-1.01l-1.35-0.48
			c-0.45-0.16-0.88-0.37-1.28-0.61c-0.34-0.21-0.58-0.35-0.7-0.42c-0.12-0.06-0.24-0.09-0.35-0.09c-0.29,0-0.46,0.21-0.46,0.55
			c0,0.54,0.42,0.99,0.93,0.99c0.11,0,0.22-0.02,0.33-0.07c0.15-0.06,0.25-0.1,0.29-0.1c0.15,0,0.25,0.14,0.25,0.34
			c0,0.57-0.36,1.56-0.74,2.03l-0.38,0.48l-0.29,0.38c-0.11,0.83-0.92,2.01-1.73,2.53c-0.2,0.12-0.32,0.21-0.35,0.25
			c-0.03,0.03-0.11,0.18-0.26,0.45c-0.07,0.12-0.28,0.38-0.64,0.77c-0.27,0.29-0.54,0.54-0.8,0.74c-0.36,0.27-0.57,0.47-0.64,0.58
			l-0.32,0.55c-0.07,0.11-0.15,0.17-0.25,0.17c-0.29,0-0.55-0.3-0.71-0.81c-0.12-0.38-0.22-0.48-0.46-0.48
			c-0.12,0-0.31,0.03-0.56,0.1l-0.45,0.06h-1.12c-0.61,0-1.42,0.15-1.8,0.32c-0.14,0.07-0.26,0.1-0.33,0.1
			c-0.17,0-0.25-0.17-0.25-0.49c0-1.02,0.78-2.56,1.8-3.56c-0.15-0.59-0.46-0.98-0.87-1.09c-0.36-0.1-0.56-0.15-0.58-0.16
			c-0.06-0.03-0.1-0.09-0.1-0.15c0-0.21,0.23-0.41,0.74-0.65c0.91-0.43,1.18-0.51,1.69-0.51c0.58,0,1.07,0.2,1.68,0.67
			c0.87,0.68,1.11,0.8,1.53,0.8c0.68,0,1.34-0.62,1.34-1.28c0-0.44-0.24-0.94-0.85-1.7c-0.85-1.09-1.15-1.8-1.15-2.72
			c0-0.62,0.12-0.96,0.67-1.86c0.09-0.14,0.13-0.26,0.13-0.34c0-0.17-0.29-0.33-0.62-0.33c-0.34,0-0.77,0.12-1.35,0.39
			c-0.96,0.44-1.54,0.86-1.54,1.11c0,0.1,0.06,0.2,0.16,0.27l0.32,0.22c0.04,0.03,0.07,0.08,0.07,0.13c0,0.06-0.06,0.17-0.13,0.25
			c-0.06,0.07-0.28,0.35-0.64,0.83c-0.45,0.59-0.87,1.04-1.34,1.41c-0.17,0.13-0.28,0.24-0.32,0.32l-0.25,0.48
			c-0.21,0.4-0.85,1.06-1.38,1.44c-0.24,0.17-0.39,0.29-0.45,0.35c-0.07,0.07-0.16,0.22-0.29,0.45c-0.33,0.59-0.84,1.31-1.18,1.67
			l-0.87,0.9c-0.25,0.25-0.6,1-0.93,1.98c-0.26,0.78-0.43,1.13-0.55,1.13c-0.05,0-0.14-0.07-0.25-0.2
			c-0.62-0.71-1.18-1.16-1.45-1.16c-0.07,0-0.2,0.06-0.37,0.16c-0.25,0.15-0.54,0.26-0.86,0.32l-1.15,0.22
			c-0.96,0.19-1.35,0.39-1.79,0.96c-0.11,0.14-0.21,0.22-0.25,0.22c-0.11,0-0.2-0.17-0.2-0.39L65.25,38
			c0.01-0.03,0.06-0.32,0.16-0.86c0.17-0.91,0.4-1.67,0.64-2.08l0.58-0.99c0.1-0.18,0.16-0.36,0.16-0.52c0-0.74-0.69-1.34-1.73-1.5
			c-0.21-0.03-0.32-0.11-0.32-0.23c0-0.15,0.25-0.43,0.64-0.73c0.68-0.51,1.43-0.83,1.96-0.83c0.36,0,0.83,0.13,1.47,0.38l0.7,0.29
			c0.26,0.11,0.51,0.17,0.71,0.17c0.75,0,1.47-0.68,2.36-2.21c0.4-0.7,0.58-1.19,0.58-1.65c0-0.81-0.38-1.3-1.01-1.3
			c-0.5,0-0.97,0.21-1.36,0.61c-0.35,0.35-0.53,0.71-0.53,1.02l0.02,0.33l0.01,0.17c0,0.26-0.09,0.38-0.28,0.38
			c-0.24,0-0.52-0.24-1.08-0.9c-0.23-0.28-0.53-0.62-0.9-1.06c-0.97-1.14-1.18-1.6-1.22-2.76c-1.09-1.39-1.36-2.16-1.36-2.96
			l0.04-0.66c-0.78-0.94-0.93-1.3-0.93-2.22c0-0.41,0.02-0.52,0.19-0.86c-0.38-0.56-0.51-0.81-0.61-1.25L64,15.08
			c-0.11-0.46-0.28-0.85-0.51-1.19c-0.29-0.41-0.32-0.47-0.32-0.59c0-0.33,0.32-0.55,1.12-0.75l0.26-0.07
			c-0.04-0.31-0.07-0.55-0.07-0.71c0-0.19,0.02-0.37,0.1-0.76l0.22-1.19c0.09-0.46,0.13-0.81,0.13-1.05c0-0.27-0.04-0.49-0.2-1
			c-0.1-0.33-0.21-0.57-0.32-0.74c-0.12-0.18-0.19-0.33-0.19-0.42c0-0.11,0.11-0.19,0.25-0.19c0.08,0,0.21,0.04,0.32,0.1
			c1.08,0.59,2.27,1.53,3.11,2.47c0.73,0.81,0.96,1.48,1.12,3.27c0.98,0.73,1.35,1.39,1.35,2.43c0,0.62-0.2,1.21-0.64,1.89
			c-0.39,0.6-0.61,0.93-0.64,0.99c-0.19,0.32-0.29,0.7-0.29,1.08c0,0.58,0.18,1.12,0.61,1.89c0.48,0.85,0.91,1.22,1.42,1.22
			c0.84,0,1.6-1.45,1.6-3.05l-0.01-0.32v-0.87l0.1-0.77l0.06-0.93l0.06-0.77l0.03-0.43c0-0.32-0.07-0.41-1.05-1.46
			c-1.09-1.17-1.6-2.15-1.6-3.06c0-0.86,0.74-1.58,1.63-1.58c0.19,0,0.35,0.03,0.68,0.12V8.29l0.03-0.68l0.19-0.83
			c0.15-0.67,0.22-0.79,0.45-0.79l0.16,0.05l0.58,0.51L74.45,7l0.19,0.19c0.05-0.4,0.08-0.48,0.42-0.9
			c0.17-0.21,0.32-0.41,0.45-0.61l0.32-0.48l0.19-0.29c0.13-0.19,0.18-0.24,0.27-0.24c0.09,0,0.15,0.11,0.25,0.47
			c0.04,0.14,0.14,0.29,0.29,0.42l0.42,0.35c0.34,0.29,0.56,0.71,0.7,1.31c0.25-0.32,0.38-0.43,0.64-0.58l0.51-0.29
			c0.19-0.11,0.31-0.16,0.34-0.16c0.03,0,0.09,0.08,0.14,0.19c0.07,0.17,0.16,0.33,0.26,0.48c0.41,0.66,0.45,0.76,0.45,1.21l0,0.27
			v0.38c1.04,0.29,1.45,0.85,1.45,2c0,0.86-0.39,1.75-1.22,2.75c-0.55,0.66-0.64,0.86-0.64,1.36c0,2.26,1.7,3.63,4.58,3.67
			l2.11,0.03c1.38,0.02,2.23,0.16,3.49,0.58c1.48,0.49,1.97,0.61,2.42,0.61c0.33,0,0.6-0.18,0.6-0.4c0-0.46-0.78-0.82-3.37-1.56
			c-5.28-1.49-7.53-3.63-7.53-7.13c0-2.71,2.26-4.8,5.18-4.8c0.92,0,2.36,0.25,3.18,0.55l1.31,0.48c0.24,0.09,0.47,0.13,0.69,0.13
			c0.45,0,0.62-0.28,0.69-1.13c0.03-0.38,0.15-0.54,0.39-0.54c0.34,0,0.99,0.53,1.47,1.19c0.49,0.68,0.84,1.57,0.84,2.15
			c0,0.68-0.36,1.2-1.12,1.63c-0.72,1.1-1.6,1.6-2.79,1.6c-0.91,0-2.46-0.62-4.42-1.76c-0.77-0.45-1.11-0.58-1.53-0.58
			c-0.58,0-0.95,0.32-0.95,0.83c0,0.46,0.34,0.75,1.29,1.09c1.52,0.54,1.84,0.72,2.28,1.25c1.63,0.28,2.34,0.57,3.37,1.34
			c2.93,0.94,4.55,2.75,4.55,5.06c0,2.11-1.43,3.63-3.41,3.63C92.65,22.77,92.38,22.74,91.62,22.58"/>
		<path class="st5" d="M94.8,36.62c-0.08-0.29-0.1-0.43-0.1-0.59l0.04-0.44c0.08-0.6,0.1-0.89,0.1-1.25c0-0.24-0.07-0.42-0.23-0.64
			l-0.39-0.51c-0.25-0.34-0.35-0.59-0.35-0.88c0-0.18,0.04-0.25,0.17-0.25l0.15,0.03c0.02,0.01,0.11,0.06,0.29,0.16
			c0.13,0.07,0.24,0.11,0.32,0.11c0.19,0,0.29-0.3,0.29-0.9c0-0.83-0.16-1.23-0.64-1.61L94,29.5c-0.08-0.06-0.13-0.17-0.13-0.26
			c0-0.15,0.09-0.25,0.24-0.25c0.09,0,0.22,0.03,0.37,0.07l0.35,0.1l0.14,0.03c0.11,0,0.16-0.08,0.16-0.27l-0.01-0.11l-0.1-0.67
			c-0.1-0.7-0.22-0.97-0.42-0.97l-0.06,0.01l-0.83,0.16l-0.14,0.01c-1,0-2.18-0.95-2.49-2l-0.61-2.08
			c-0.18-0.62-0.73-1.31-1.54-1.96c-0.27-0.21-0.5-0.33-0.67-0.35l-0.58-0.07c-0.1-0.01-0.18-0.08-0.18-0.16
			c0-0.13,0.11-0.2,0.35-0.2c0.81,0,1.68,0.17,2.84,0.55c1.05,0.35,1.63,0.47,2.14,0.47c1.61,0,2.57-0.84,2.57-2.22
			c0-0.7-0.25-1.57-0.61-2.13c-0.31-0.48-0.84-0.97-1.51-1.41c-0.1-0.07-0.19-0.1-0.25-0.1c-0.09,0-0.16,0.07-0.16,0.16l0.03,0.42
			l0,0.04c0,0.16-0.09,0.29-0.2,0.29c-0.18,0-0.36-0.21-0.57-0.64c-0.59-1.25-1.54-2.01-2.52-2.01c-0.21,0-0.34,0.08-0.34,0.21
			c0,0.1,0.06,0.25,0.17,0.42c0.1,0.16,0.2,0.36,0.29,0.58c0.05,0.12,0.08,0.22,0.08,0.27c0,0.06-0.05,0.09-0.15,0.09
			c-0.14,0-0.38-0.13-0.54-0.3c-0.32-0.34-0.48-0.51-0.48-0.51l-0.42-0.64c-0.32-0.5-0.68-0.81-1.28-1.12l-0.8-0.42
			c-0.16-0.08-0.3-0.13-0.41-0.13c-0.1,0-0.15,0.05-0.15,0.15c0,0.1,0.05,0.23,0.15,0.37c0.17,0.25,0.3,0.52,0.3,0.64
			c0,0.11-0.07,0.19-0.16,0.19c-0.22,0-0.63-0.4-1.19-1.18c-0.41-0.56-0.61-1.17-0.61-1.8c0-1.35,1.04-2.4,2.38-2.4
			c0.69,0,1.55,0.29,2.4,0.8l1.54,0.93c0.55,0.33,1.29,0.58,1.76,0.58c0.25,0,0.33-0.01,0.9-0.16c0.17-0.04,0.31-0.09,0.42-0.16
			c0.07-0.04,0.12-0.12,0.12-0.19c0-0.12-0.08-0.18-0.28-0.2C92.58,9.9,91.1,9.32,90.12,8.7c-0.57-0.36-0.92-0.56-1.06-0.61
			C88.8,8,88.62,7.86,88.62,7.75c0-0.05,0.05-0.08,0.14-0.08l0.19,0.03l1.4,0.51l1.34,0.48c0.66,0.23,1.69,0.45,2.15,0.45
			c0.61,0,1.03-0.42,1.03-1.03c0-0.31-0.08-0.65-0.2-0.89c-0.19-0.38-0.45-0.71-0.56-0.71c-0.12,0-0.19,0.13-0.19,0.34l0.01,0.17
			l0.04,0.41c0,0.43-0.24,0.71-0.61,0.71c-0.14,0-0.32-0.04-0.52-0.1l-2.08-0.67c-1.81-0.58-2.51-0.74-3.4-0.74
			c-2.52,0-4.42,1.7-4.42,3.97c0,2.55,1.75,4.16,6.25,5.71c4.36,1.51,4.93,1.86,4.93,3.01c0,0.66-0.62,1.19-1.39,1.19
			c-0.29,0-0.54-0.02-0.75-0.06c-0.19-0.04-0.92-0.21-2.18-0.51c-1.34-0.32-2.47-0.45-3.98-0.45c-3.18,0-4.71,0.49-6.37,2.02
			c-0.38,0.36-0.54,0.42-0.97,0.42l-0.22-0.01l-0.51-0.03c-0.38,0-0.67,0.18-0.91,0.58l-0.51,0.87c-0.07,0.12-0.21,0.19-0.37,0.19
			c-0.33,0-0.51-0.22-0.82-0.99c-0.16-0.41-0.38-0.74-0.64-0.96l-0.67-0.58c-0.1-0.09-0.16-0.17-0.16-0.23
			c0-0.07,0.06-0.17,0.16-0.31c0.1-0.13,0.2-0.28,0.29-0.45c0.1-0.18,0.15-0.31,0.16-0.39l0.03-0.29c0.02-0.09,0.12-0.16,0.23-0.16
			c0.21,0,0.25,0.14,0.25,0.93c0,0.2,0.09,0.5,0.25,0.86l0.35,0.77c0.05,0.1,0.16,0.16,0.29,0.16c0.33,0,0.75-0.78,0.86-1.6
			c0.09-0.68,0.17-0.9,0.31-0.9c0.13,0,0.19,0.08,0.46,0.64c0.08,0.17,0.22,0.34,0.38,0.48c0.16,0.13,0.29,0.21,0.38,0.23l0.04,0
			c0.26,0,0.35-0.17,0.42-0.77l0.03-0.32l-0.06-0.45l-0.04-0.31c0-0.21,0.07-0.33,0.19-0.33c0.07,0,0.16,0.04,0.24,0.13l0.32,0.32
			c0.21,0.21,0.43,0.32,0.65,0.32c0.27,0,0.44-0.12,0.44-0.32c0-0.16-0.04-0.24-0.32-0.71c-0.03-0.05-0.1-0.18-0.22-0.42
			c-0.28-0.54-0.42-0.67-0.67-0.67l-0.33,0.03l-0.42,0.16c-0.12,0.05-0.21,0.07-0.25,0.07c-0.05,0-0.1-0.06-0.1-0.13
			c0-0.29,0.19-0.74,0.55-1.3c0.22-0.35,0.4-1.21,0.54-2.52l0.16-1.51c0.1-0.92,0.2-1.25,0.38-1.25c0.07,0,0.12,0.03,0.13,0.07
			l0.09,0.48v0.38c0,0.47,0.05,0.85,0.11,0.85c0.14,0,0.34-0.16,0.53-0.43c0.14-0.19,0.25-0.41,0.32-0.64
			c0.11-0.34,0.16-0.63,0.16-0.84c0-0.74-0.31-1.06-1.32-1.34c-0.1-0.03-0.17-0.06-0.19-0.1l-0.03-0.29V8.38L79.38,8l-0.12-0.32
			l-0.16-0.35l-0.25,0.16c-0.65,0.41-0.81,0.53-1.03,0.8c-0.29,0.37-0.39,0.46-0.51,0.46c-0.09,0-0.16-0.06-0.16-0.14l0.13-0.55
			l0.01-0.09c0-0.7-0.39-1.38-1.1-1.89l-0.22,0.26l-0.23,0.32L75.34,7.1c-0.22,0.26-0.36,0.62-0.36,0.95l0,0.11l0,0.11
			c0,0.25-0.04,0.34-0.16,0.34l-0.07-0.03l-0.26-0.32l-0.32-0.39l-0.58-0.35l-0.29-0.22C73.02,7.96,73,8.04,73,8.9l0,0.27
			c0,0.29-0.1,0.46-0.25,0.46c-0.08,0-0.21-0.06-0.39-0.16c-0.14-0.08-0.32-0.13-0.48-0.13c-0.47,0-0.81,0.4-0.81,0.94
			c0,0.59,0.13,0.99,0.52,1.63c0.25,0.42,0.58,0.75,0.74,0.75c0.02,0,0.06-0.3,0.1-0.69l-0.1-0.54l-0.02-0.24
			c0-0.21,0.07-0.34,0.19-0.34c0.18,0,0.29,0.2,0.4,0.74l0.26,1.19l0.26,1.51c0.07,0.41,0.2,0.84,0.39,1.28
			c0.25,0.6,0.43,0.98,0.54,1.12c0.36,0.46,0.4,0.52,0.4,0.62c0,0.08-0.07,0.15-0.14,0.15c-0.07,0-0.17-0.03-0.29-0.1
			c-0.11-0.06-0.24-0.1-0.38-0.13l-0.23-0.04c-0.53,0-0.64,0.43-0.64,2.56c0,1.33,0.28,3.1,0.62,3.95l0.67,1.7
			c0.11,0.27,0.16,0.54,0.16,0.8c0,2.34-3.17,6.09-6.51,7.7c-1.3,0.62-1.68,1.27-1.79,3.04c0.56-0.27,0.78-0.35,1.12-0.45
			c0.94-0.26,1.15-0.4,1.28-0.83l0.13-0.42c0.06-0.18,0.18-0.27,0.83-0.61c0.25-0.13,0.42-0.27,0.51-0.42
			c0.17-0.28,0.3-0.41,0.38-0.41c0.09,0,0.14,0.06,0.14,0.17l-0.01,0.05l-0.35,0.92l-0.04,0.23c0,0.67,0.38,1.23,1.07,1.58
			c0.04-0.17,0.08-0.3,0.09-0.38c0.11-0.49,0.22-0.81,0.32-0.96l0.61-0.9c0.22-0.32,0.26-0.54,0.26-1.37l-0.04-1.01l-0.02-0.26
			c0-0.17,0.08-0.26,0.22-0.26c0.11,0,0.2,0.04,0.21,0.1l0.09,0.61c0.02,0.13,0.16,0.23,0.31,0.23c0.31,0,0.71-0.4,1.13-1.12
			c0.16-0.28,0.23-0.5,0.23-0.77c0-0.2-0.04-0.65-0.1-1l-0.01-0.19c0-0.16,0.09-0.26,0.24-0.26c0.08,0,0.14,0.03,0.15,0.06
			l0.22,0.74c0.08,0.25,0.25,0.42,0.42,0.42c0.49,0,1-1.01,1.05-2.08c0.03-0.68,0.12-0.91,0.32-0.91c0.08,0,0.14,0.03,0.16,0.08
			l0.13,0.42c0.05,0.15,0.14,0.25,0.23,0.25c0.08,0,0.24-0.14,0.45-0.38c0.11-0.14,0.21-0.28,0.29-0.42
			c0.06-0.11,0.09-0.23,0.09-0.34c0-0.16-0.03-0.21-0.29-0.4c-0.23-0.18-0.35-0.4-0.35-0.67c0-0.46,0.2-0.96,0.77-1.96
			c0.52-0.9,0.59-1,0.72-1c0.12,0,0.21,0.12,0.21,0.27c0,0.09-0.02,0.19-0.07,0.28c-0.09,0.19-0.13,0.31-0.13,0.38
			c0,0.12,0.11,0.23,0.25,0.23c0.16,0,0.35-0.07,0.58-0.19c0.14-0.08,0.43-0.2,0.87-0.35c0.6-0.21,0.96-0.34,1.09-0.38
			c0.2-0.06,0.43-0.1,0.66-0.1c0.19,0,0.37,0.02,0.56,0.07c0.36,0.09,0.61,0.13,0.74,0.13c0.29,0,0.52-0.22,0.52-0.51
			c0-0.13-0.09-0.37-0.2-0.55c-0.17-0.27-0.26-0.42-0.29-0.45c-0.14-0.15-0.2-0.23-0.2-0.29l0.04-0.13
			c0.04-0.08,0.11-0.13,0.18-0.13c0.25,0,0.75,0.52,1.2,1.25c2.51,4.1,3.73,5.4,5.58,5.96c1.93,0.58,2.38,0.99,2.38,2.14
			c0,0.61-0.32,1.34-1,2.28c-1.28,1.78-1.73,2.82-1.73,4l0,0.26c0.16-0.07,0.28-0.12,0.35-0.16c0.26-0.13,0.43-0.21,0.51-0.22
			l0.8-0.16c0.25-0.05,0.45-0.35,0.45-0.67l0-0.06l-0.06-0.71l-0.01-0.11c0-0.4,0.19-0.72,0.43-0.72c0.09,0,0.19,0.08,0.25,0.2
			l0.51,1.09C93.89,36.1,94.13,36.31,94.8,36.62"/>
		<path class="st5" d="M68.52,14.63l-0.03,0.51l-0.01,0.31c0,0.52,0.08,0.75,0.28,0.75c0.21,0,0.55-0.4,0.7-0.83
			c0.09-0.27,0.16-0.65,0.16-0.87c0-0.16-0.04-0.3-0.16-0.61c-0.14-0.35-0.29-0.51-0.47-0.51C68.7,13.38,68.57,13.73,68.52,14.63"/>
		<path class="st5" d="M66.31,8.7l0.45,0.45c0.66,0.66,1.1,1.99,1.1,3.28l-0.02,0.53l-0.1,1.51l-0.03,1.26
			c0,4.19,1.22,7.04,3.01,7.04c0.45,0,1-0.41,1.38-1.03c0.08-0.13,0.19-0.23,0.26-0.23c0.1,0,0.15,0.09,0.16,0.26l0.07,0.71
			l0.06,0.61c0.03,0.29,0.06,0.51,0.1,0.67c0.06,0.31,0.1,0.52,0.1,0.63c0,0.32-0.07,0.36-0.83,0.46c-0.29,0.04-0.59,0.16-0.9,0.35
			c-0.5,0.32-0.79,0.54-0.83,0.64l-0.35,0.74c-0.05,0.09-0.13,0.16-0.2,0.16c-0.19,0-0.44-0.28-0.79-0.9
			c-0.33-0.57-0.47-0.89-0.47-1.04c0-0.1,0.08-0.14,0.28-0.14l0.07,0l0.38,0.03l0.29-0.03l0.26-0.03c0.11-0.03,0.19-0.12,0.19-0.24
			c0-0.08-0.05-0.15-0.13-0.18l-1.44-0.61c-0.35-0.15-0.72-0.52-1.06-1.05c-0.37-0.59-0.58-1.11-0.58-1.4c0-0.23,0.1-0.38,0.25-0.38
			c0.06,0,0.14,0.02,0.24,0.07c0.16,0.08,0.31,0.13,0.38,0.13c0.05,0,0.11-0.02,0.17-0.07c0.06-0.05,0.1-0.11,0.1-0.15
			c0-0.09-0.1-0.21-0.26-0.33c-1.2-0.85-1.93-1.88-1.93-2.73c0-0.25,0.06-0.36,0.18-0.36l0.24,0.02c0.17,0.04,0.38,0.07,0.45,0.07
			c0.18,0,0.29-0.1,0.29-0.25c0-0.09-0.12-0.21-0.29-0.3c-0.8-0.4-1-0.63-1.51-1.76c-0.39-0.87-0.59-1.23-0.93-1.67
			c0.42-0.2,0.65-0.26,1-0.26c0.44,0,0.71,0.29,1.02,1.06c0.2,0.49,0.41,0.82,0.53,0.82c0.06,0,0.08-0.1,0.08-0.37
			c0-0.32-0.05-0.64-0.13-0.96c-0.08-0.29-0.11-0.53-0.09-0.71l-0.06-0.45l-0.35-0.19c-0.33-0.18-0.55-0.6-0.55-1.05
			c0-0.2,0.02-0.4,0.06-0.58c0.01-0.04,0.07-0.28,0.19-0.74c0.14-0.52,0.23-1.06,0.23-1.36l0-0.28L66.31,8.7z"/>
		<path class="st5" d="M70.15,31.81c-0.67-0.11-0.78-0.15-1.54-0.48c-0.53-0.23-0.87-0.33-1.2-0.33c-0.51,0-0.9,0.16-1.36,0.55
			l0.29,0.22l0.64,0.45l0.61,0.48c0.15,0.12,0.35,0.19,0.54,0.19C68.76,32.9,69.29,32.62,70.15,31.81"/>
		<path class="st5" d="M82.49,37.65c0.18-0.4,0.26-0.51,0.64-0.83c0.9-0.77,1.31-1.34,1.31-1.79V34.7v-0.38
			c0-0.41,0.07-0.55,0.28-0.55c0.1,0,0.17,0.04,0.2,0.1l0.16,0.38c0.04,0.09,0.14,0.14,0.27,0.14c0.23,0,0.39-0.16,0.79-0.81
			c0.17-0.28,0.23-0.45,0.23-0.63c0-0.11-0.03-0.24-0.08-0.36c-0.02-0.06-0.1-0.23-0.22-0.51c-0.07-0.17-0.13-0.39-0.13-0.5
			c0-0.21,0.11-0.33,0.29-0.33c0.1,0,0.18,0.04,0.23,0.1l0.25,0.32c0.06,0.07,0.07,0.11,0.17,0.11c0.12,0,0.33-0.11,0.41-0.27
			l0.26-0.51c0.06-0.13,0.1-0.23,0.1-0.29c0-0.11-0.1-0.22-0.26-0.29l-0.45-0.19c-0.53-0.22-0.96-1.13-0.96-1.99
			c0-0.1,0.03-0.24,0.1-0.42l0.19-0.55c0.06-0.18,0.1-0.36,0.1-0.53c0-0.32-0.1-0.62-0.32-0.97c-0.22-0.36-0.35-0.58-0.39-0.67
			c-0.18-0.48-0.3-0.63-0.45-0.63c-0.11,0-0.22,0.04-0.41,0.15l-0.32,0.19l-0.45,0.51l-0.45,0.22c-0.27,0.14-0.52,0.72-0.52,1.2
			c0,0.69,0.15,1.07,1.2,2.94c0.44,0.79,0.65,1.38,0.65,1.82c0,1.3-1.33,2.38-3.5,2.82c-2.6,0.53-3.16,0.96-3.46,2.63
			c0.45-0.23,0.63-0.27,1.42-0.27l0.47,0.01l0.07,0c0.43,0,0.49-0.03,0.76-0.42c0.31-0.44,0.63-0.71,1.06-0.89l0.51-0.23l0.42-0.22
			l0.13-0.03c0.12,0,0.18,0.05,0.18,0.13c0,0.11-0.1,0.29-0.31,0.54c-0.31,0.38-0.49,0.76-0.49,1.06
			C82.16,37.05,82.23,37.26,82.49,37.65"/>
		<path class="st5" d="M78.45,32.68c0.37,0.23,0.74,0.56,0.96,0.87c0.31,0.42,0.35,0.45,0.65,0.45c0.13,0,0.29-0.02,0.47-0.07
			l0.29-0.06c0.55-0.1,0.71-0.18,0.71-0.33c0-0.09-0.05-0.18-0.13-0.25l-0.38-0.32l-0.35-0.32c-0.22-0.2-0.67-0.36-1.01-0.36
			C79.26,32.29,78.93,32.39,78.45,32.68"/>
		<path class="st5" d="M88.84,34.41l0.19-0.03l0.32-0.03l0.26,0.03l0.17,0.01c0.33,0,0.49-0.04,0.63-0.14
			c0.2-0.15,0.4-0.39,0.61-0.74c0.08-0.14,0.13-0.26,0.13-0.36c0-0.22-0.2-0.34-0.55-0.34C89.72,32.8,89.18,33.29,88.84,34.41"/>
		<path class="st2" d="M76.88,12.26c0.04,0.3,0.19,0.54,0.35,0.54c0.14,0,0.35-0.46,0.68-1.02c0.45-0.77,0.83-1.42,0.83-1.83
			c0-0.14-0.07-0.24-0.16-0.24l-0.04,0.01l-0.35,0.32c-0.21,0.19-0.65,0.43-1.06,0.58c-0.41,0.15-0.53,0.27-0.53,0.54l0.05,0.26
			l0.27,0.55L76.88,12.26z"/>
		<path class="st2" d="M74.06,9.89c-0.11-0.09-0.27-0.16-0.36-0.16c-0.14,0-0.19,0.07-0.19,0.23l0.01,0.09
			c0.03,0.18,0.07,0.36,0.13,0.54c0.16,0.51,0.35,0.82,0.42,0.9l0.48,0.81c0.22,0.26,0.56,0.4,0.7,0.44l0.02,0
			c0.09,0,0.16-0.05,0.17-0.13l0.1-0.64l0.16-0.58l0.02-0.14c0-0.16-0.09-0.29-0.24-0.37l-0.55-0.29L74.06,9.89z"/>
		<path class="st2" d="M76.18,13.96l-0.17,0l-0.37-0.03c-0.01,0-0.14-0.08-0.39-0.23c-0.14-0.08-0.3-0.13-0.45-0.13
			c-0.29,0-0.47,0.18-0.47,0.49c0,0.24,0.14,0.71,0.41,1.34c0.12,0.27,0.25,0.61,0.42,1.02c0.35,0.9,0.72,1.28,1.2,1.28
			c0.41,0,0.75-0.34,1.01-1.02l0.35-1.44c0.17-0.45,0.59-0.64,0.59-0.95c0-0.37-0.41-0.72-0.76-0.72l-0.19,0.04l-0.48,0.32
			L76.18,13.96z"/>
		<path class="st5" d="M76.15,14.86h-0.39c-0.06,0-0.12,0.04-0.16,0.1c-0.06,0.09-0.1,0.15-0.1,0.16l0.16,0.77l0.13,0.67
			c0.07,0.37,0.13,0.51,0.41,0.51c0.31,0,0.58-0.21,0.62-0.61l0.07-0.71c0.04-0.47,0.06-0.71,0.06-0.73c0-0.07-0.04-0.14-0.09-0.2
			c-0.05-0.04-0.11-0.07-0.17-0.07l-0.03,0L76.15,14.86z"/>
	</g>
	<g>
		<path class="st2" d="M32.43,83.09c0.28,0.71,0.37,1.05,0.42,1.51l0.06,1.34c0.05,1.35,0.5,2.02,1.35,2.02
			c0.31,0,0.56-0.08,0.71-0.22l0.35-0.35l0.14-0.04c0.22,0,0.35,0.15,0.35,0.42l-0.04,0.52c-0.03,0.23,0.02,0.73,0.13,1.47
			c0.07,0.44,0.1,0.87,0.1,1.29c0,0.68-0.05,0.95-0.29,1.56c0.22,0.63,0.35,1.34,0.35,1.94c0,0.7-0.11,1.17-0.38,1.56
			c0.13,0.55,0.16,0.77,0.16,1.09c0,0.32-0.04,0.72-0.13,1.22c-0.11,0.67-0.16,1.18-0.13,1.53l0,0.08c0,0.2-0.06,0.3-0.19,0.3
			c-0.12,0-0.27-0.09-0.4-0.25c-0.2-0.25-0.32-0.34-0.47-0.34c-0.22,0-0.29,0.12-0.62,1.08c-0.1,0.3-0.36,0.7-0.77,1.19
			c-0.32,0.38-0.52,0.7-0.58,0.93c-0.1,0.38-0.17,0.61-0.19,0.67c-0.04,0.08-0.11,0.15-0.19,0.16l-0.04,0
			c-0.53,0-1.13-1.13-1.75-3.27c-0.17-0.61-0.4-0.87-0.72-0.87c-0.23,0-0.47,0.15-0.56,0.36l-0.19,0.45
			c-0.03,0.08-0.1,0.13-0.17,0.13c-0.26,0-0.65-0.47-0.89-1.06c-0.2-0.49-0.31-1.02-0.31-1.47c0-1,0.74-1.75,2.97-3.01
			c0.97-0.55,1.35-1.24,1.35-2.5c0-0.99-0.3-1.56-1.15-2.21c-0.68-0.51-1.07-0.71-1.43-0.71c-0.3,0-0.54,0.2-0.54,0.46
			c0,0.3,0.18,0.48,0.59,0.63c0.49,0.18,0.71,0.35,0.71,0.57c0,0.2-0.21,0.64-0.55,1.16c-0.36,0.55-0.52,0.72-1.03,1.06
			c-0.15,0.88-0.57,1.45-1.54,2.08c-0.2,0.55-0.3,0.75-0.64,1.19l-0.67,0.87c-0.21,0.27-0.45,0.76-0.48,0.99
			c-0.07,0.49-0.12,0.58-0.3,0.58c-0.25,0-0.78-0.45-1.3-1.12c-0.31-0.4-0.38-0.58-0.42-1.06c-0.34,0.26-0.44,0.3-1.09,0.38
			c-0.39,0.06-0.68,0.13-0.86,0.23c-0.49,0.26-0.65,0.33-0.74,0.33c-0.13,0-0.18-0.07-0.19-0.3l-0.03-0.71
			c0-0.97,0.38-2.1,0.96-2.85c-0.56-0.49-1.12-0.78-1.57-0.83c-0.19-0.02-0.24-0.04-0.24-0.11c0-0.12,0.12-0.37,0.3-0.59
			c0.24-0.3,0.43-0.52,0.58-0.64c0.45-0.39,1.24-0.67,1.86-0.67c0.42,0,1.03,0.15,1.83,0.45c0.29,0.11,0.54,0.16,0.77,0.16
			c0.35,0,0.55-0.23,0.55-0.63c0-0.58-0.29-1.49-0.93-2.96c-0.44-0.99-0.63-1.66-0.63-2.11c0-1.11,0.52-2.26,1.18-2.59
			c-0.31-0.16-0.45-0.2-0.71-0.2c-0.32,0-0.57,0.08-0.99,0.32c-0.48,0.28-0.74,0.52-0.74,0.68c0,0.06,0.1,0.16,0.26,0.28
			c0.25,0.17,0.29,0.24,0.29,0.47c0,0.79-0.66,1.85-1.57,2.54c-0.2,1.12-0.72,1.8-1.73,2.28c-0.13,0.61-0.22,0.79-0.7,1.48
			c-0.84,1.17-1.03,1.55-1.19,2.21c-0.08,0.34-0.16,0.49-0.26,0.49c-0.14,0-0.42-0.21-0.73-0.55c-0.27-0.29-0.44-0.5-0.51-0.61
			c-0.14-0.21-0.21-0.42-0.35-1.02c-0.23,0.07-0.3,0.08-0.46,0.08l-0.47-0.01l-0.32-0.01c-0.7,0-1.45,0.16-1.83,0.39
			c-0.14,0.09-0.23,0.13-0.28,0.13c-0.21,0-0.37-0.43-0.37-0.97c0-1.16,0.32-2.11,1.07-3.16c-0.28-0.23-0.37-0.32-0.61-0.58
			c-0.11-0.12-0.19-0.19-0.26-0.23l-0.35-0.19c-0.12-0.06-0.19-0.15-0.19-0.21c0-0.17,0.47-0.62,1.03-0.98
			c0.62-0.4,1.1-0.58,1.55-0.58c0.52,0,0.81,0.13,1.46,0.71c0.46,0.4,0.77,0.58,0.99,0.58c0.16,0,0.33-0.11,0.46-0.29
			c0.11-0.15,0.17-0.31,0.17-0.48c0-0.61-0.73-1.65-1.54-2.18c-0.6-0.4-1.27-0.61-1.91-0.61c-0.89,0-1.66,0.44-2,1.16l-0.35,0.74
			c-0.08,0.17-0.19,0.26-0.3,0.26c-0.21,0-0.31-0.09-1.04-0.93l-0.83-0.96c-0.26-0.29-0.43-0.58-0.51-0.83
			c-0.08-0.24-0.13-0.38-0.16-0.42c-0.03-0.04-0.14-0.13-0.32-0.26c-0.64-0.46-1.11-1.36-1.38-2.66c-0.02-0.09-0.05-0.23-0.1-0.42
			c-0.79-0.96-1.25-2.15-1.25-3.19c0-0.14,0.01-0.2,0.07-0.44c-0.46-0.46-0.51-0.57-0.87-1.8c-0.26-0.87-0.42-1.24-0.74-1.66
			c-0.08-0.11-0.13-0.2-0.13-0.25c0-0.17,0.27-0.32,0.74-0.39c0.44-0.07,0.47-0.07,0.64-0.07l0.64,0.04l-0.04-0.88
			c0-0.52,0.04-0.85,0.17-1.46c0.06-0.31,0.1-0.53,0.1-0.67c0-0.06-0.02-0.24-0.07-0.55c-0.03-0.24-0.06-0.4-0.09-0.48
			c-0.05-0.12-0.07-0.21-0.07-0.27c0-0.1,0.07-0.16,0.19-0.16c0.09,0,0.22,0.04,0.42,0.14c0.56,0.27,1.02,0.55,1.38,0.83
			c1.1,0.87,1.97,2.2,1.97,3.02l-0.02,0.25c-0.04,0.29-0.07,0.44-0.07,0.47c0,0.14,0.08,0.32,0.22,0.52l0.35,0.48
			c0.31,0.43,0.52,0.92,0.52,1.26c0,0.3-0.06,0.43-0.58,1.18c-0.39,0.56-0.55,0.98-0.55,1.43c0,0.58,0.23,1.31,0.64,2.03
			c0.38,0.66,0.81,1.03,1.23,1.03c0.72,0,1.03-0.63,1.14-2.35c0.06-0.89,0.15-1.69,0.26-2.43l0.03-0.44c0-0.2-0.06-0.32-0.32-0.62
			l-0.96-1.12c-0.92-1.07-1.19-1.62-1.19-2.39c0-0.88,0.58-1.49,1.42-1.49l0.38,0.04l0-0.25c0-0.2,0.05-0.5,0.16-0.87
			c0.2-0.69,0.46-1.22,0.59-1.22c0.04,0,0.15,0.05,0.31,0.16c0.05,0.03,0.24,0.11,0.58,0.22c0.18,0.07,0.31,0.13,0.64,0.32
			c0.16-0.55,0.27-0.8,0.51-1.12c0.41-0.53,0.88-0.96,1.05-0.96c0.1,0,0.29,0.14,0.52,0.38l0.61,0.64c0.1,0.1,0.22,0.31,0.35,0.61
			l0.13,0.29c0.17-0.1,0.3-0.17,0.38-0.22c0.25-0.15,0.42-0.25,0.51-0.29c0.39-0.19,0.59-0.28,0.61-0.29
			c0.17-0.11,0.28-0.17,0.33-0.17c0.11,0,0.17,0.19,0.41,1.25c0.16,0.73,0.19,0.88,0.23,1.41c1.02,0.14,1.5,0.73,1.5,1.83
			c0,1.03-0.51,2.06-1.6,3.23c-0.3,0.32-0.37,0.47-0.37,0.77c0,2.83,0.99,3.73,4.54,4.1c2.18,0.23,2.83,0.37,5.45,1.16
			c1.38,0.41,2.17,0.58,2.68,0.58c0.6,0,0.94-0.22,0.94-0.61c0-0.59-0.43-0.78-2.98-1.32c-5.94-1.25-8.27-3.28-8.27-7.2
			c0-2.79,2.09-4.89,4.88-4.89c1.23,0,2.33,0.38,4.07,1.38c1.61,0.94,1.95,1.09,2.32,1.09c0.43,0,0.6-0.28,0.6-0.97
			c0-0.45,0.14-0.67,0.42-0.67c0.26,0,0.65,0.26,0.99,0.67c0.53,0.63,0.74,0.95,0.74,1.82c0,1.16-0.62,1.92-1.83,2.25
			c-0.13,0.14-0.23,0.25-0.29,0.32c-0.66,0.75-1.24,0.99-2.29,0.99c-0.91,0-2.06-0.37-2.84-0.93l-1.54-1.09
			c-0.66-0.47-1.15-0.67-1.61-0.67c-0.66,0-1.05,0.39-1.05,1.05c0,0.64,0.43,1.17,1.12,1.38l1.44,0.45
			c0.51,0.16,0.75,0.26,1.38,0.58c0.36-0.05,0.52-0.07,0.72-0.07c0.9,0,1.86,0.24,2.71,0.67c0.27,0.14,0.46,0.23,0.58,0.26l0.8,0.22
			c1.82,0.51,3.3,2.54,3.3,4.53c0,2.27-1.47,3.67-3.84,3.67L32.43,83.09z"/>
		<path class="st5" d="M31.88,102.13l0.19-0.39l0.45-0.48c0.38-0.41,0.58-0.98,0.58-1.66c0-0.33-0.06-0.69-0.17-1.04
			c-0.08-0.26-0.13-0.47-0.13-0.57c0-0.2,0.15-0.39,0.31-0.39c0.06,0,0.15,0.06,0.24,0.16l0.48,0.54c0.3,0.34,0.4,0.4,0.77,0.48
			l0.03-0.45l0.03-0.53c0-0.77-0.28-1.62-0.71-2.17c-0.25-0.32-0.37-0.52-0.37-0.64c0-0.12,0.08-0.23,0.17-0.23
			c0.03,0,0.08,0.02,0.13,0.06c0.31,0.23,0.47,0.33,0.55,0.33c0.16,0,0.3-0.39,0.3-0.81c0-0.61-0.25-1.31-0.65-1.79
			c-0.21-0.25-0.33-0.41-0.38-0.48c-0.04-0.06-0.06-0.12-0.06-0.18c0-0.14,0.11-0.24,0.28-0.24c0.12,0,0.2,0.03,0.4,0.16
			c0.09,0.06,0.18,0.1,0.25,0.1c0.25,0,0.34-0.35,0.34-1.3l-0.01-0.39l-0.03-0.58c-0.04-0.68-0.1-0.8-0.38-0.8h-0.26
			c-1.56,0-2.29-0.99-2.69-3.66c-0.29-1.93-1.01-3.3-1.89-3.59c-0.53-0.17-0.72-0.29-0.72-0.43c0-0.09,0.15-0.18,0.3-0.18
			c0.11,0,0.39,0.07,0.6,0.16c1.28,0.52,2.36,0.77,3.29,0.77c1.54,0,2.75-1.13,2.75-2.56c0-1.09-0.52-2.21-1.46-3.11
			c-0.25-0.25-0.53-0.41-0.8-0.48l-0.06,0l-0.16,0.05l0.07,0.46l0.13,0.32l0.04,0.13c0,0.07-0.07,0.12-0.15,0.12
			c-0.09,0-0.18-0.05-0.24-0.13l-0.58-0.87c-0.46-0.68-1.46-1.25-2.2-1.25c-0.26,0-0.43,0.12-0.43,0.3c0,0.09,0.09,0.26,0.2,0.38
			c0.16,0.19,0.29,0.41,0.29,0.51l-0.04,0.13c-0.03,0.07-0.08,0.12-0.13,0.13l-0.03,0c-0.16,0-0.23-0.07-0.93-0.87
			c-0.57-0.65-1.74-1.29-2.36-1.29c-0.09,0-0.17,0.04-0.24,0.1c-0.04,0.04-0.06,0.09-0.06,0.12c0,0.1,0.08,0.23,0.23,0.36
			c0.2,0.18,0.36,0.4,0.36,0.49c0,0.06-0.08,0.12-0.18,0.12c-0.18,0-0.59-0.27-1.36-0.87c-1.2-0.94-1.73-1.83-1.73-2.85
			c0-1.24,0.88-2.21,2.02-2.21c0.66,0,1.55,0.32,2.15,0.77l1.57,1.18c0.72,0.55,1.6,0.84,2.52,0.84c0.2,0,0.39-0.04,0.55-0.13
			c0.14-0.07,0.23-0.15,0.23-0.21c0-0.04-0.12-0.09-0.29-0.14c-0.57-0.13-1.02-0.33-1.35-0.58l-1.6-1.22
			c-0.59-0.45-1.01-0.74-1.25-0.87c-0.84-0.44-1.01-0.55-1.01-0.65c0-0.05,0.08-0.09,0.18-0.09c0.09,0,0.18,0.02,0.28,0.06
			l0.83,0.35c0.27,0.11,0.72,0.38,1.35,0.8c1.72,1.15,2.59,1.51,3.6,1.51c0.96,0,1.67-0.68,1.67-1.6c0-0.18-0.05-0.38-0.13-0.55
			l-0.16-0.32c-0.06-0.11-0.16-0.2-0.19-0.16l-0.1,0.13l-0.1,0.67c0,0.03-0.04,0.1-0.1,0.22c-0.06,0.13-0.14,0.24-0.22,0.32
			c-0.17,0.17-0.32,0.23-0.59,0.23c-0.5,0-1.05-0.27-2.55-1.22c-1.52-0.97-2.89-1.47-3.97-1.47c-2.31,0-4.17,1.86-4.17,4.16
			c0,3.21,1.96,4.66,8.11,6c2.34,0.51,3.37,1.19,3.37,2.23c0,0.95-0.77,1.55-1.99,1.55c-0.37,0-0.66-0.02-0.87-0.06
			c-0.21-0.04-1.31-0.34-3.3-0.9c-1.38-0.38-2.92-0.6-4.28-0.6c-2.41,0-4.04,0.72-5.14,2.27c-0.13,0.18-0.26,0.29-0.34,0.29
			c-0.07,0-0.16-0.04-0.27-0.13l-0.45-0.35c-0.32-0.25-0.82-0.44-1.15-0.44c-0.24,0-0.47,0.1-0.68,0.28
			c-0.16,0.14-0.28,0.22-0.33,0.22c-0.18,0-0.51-0.4-0.76-0.93c-0.36-0.75-0.55-1.5-0.55-2.18c0-0.32,0.1-0.54,0.24-0.54
			c0.11,0,0.2,0.08,0.24,0.25l0.26,0.93c0.14,0.52,0.43,0.93,0.65,0.93c0.1,0,0.27-0.14,0.47-0.38c0.12-0.15,0.21-0.3,0.26-0.45
			c0.2-0.59,0.25-0.67,0.41-0.67c0.19,0,0.28,0.12,0.41,0.7c0.03,0.11,0.06,0.27,0.21,0.55c0.13,0.24,0.26,0.44,0.38,0.58
			c0.1,0.1,0.22,0.16,0.33,0.16c0.28,0,0.54-0.47,0.54-0.99l-0.01-0.14l-0.04-0.59c0-0.23,0.04-0.3,0.17-0.3
			c0.08,0,0.13,0.04,0.22,0.16c0.14,0.18,0.32,0.33,0.55,0.45c0.2,0.11,0.35,0.16,0.46,0.16c0.09,0,0.2-0.06,0.31-0.16
			c0.09-0.08,0.13-0.17,0.13-0.25c0-0.09-0.11-0.24-0.45-0.58c-0.18-0.18-0.4-0.62-0.64-1.28c-0.09-0.25-0.21-0.42-0.3-0.42
			c-0.02,0-0.1,0.02-0.21,0.07l-0.42,0.16l-0.29,0.13l-0.11,0.02c-0.14,0-0.25-0.1-0.25-0.22c0-0.12,0.29-0.47,0.64-0.76
			c0.25-0.21,0.41-0.53,0.42-0.87c0.02-0.54,0.12-0.96,0.22-0.96l0.1-1.12c0.05-0.56,0.28-1.63,0.48-2.21
			c0.04-0.12,0.09-0.2,0.13-0.2c0.09,0,0.17,0.24,0.17,0.51l-0.01,0.17l-0.02,0.32c0,0.41,0.07,0.62,0.19,0.62
			c0.14,0,0.3-0.2,0.44-0.56l0.29-0.74c0.08-0.22,0.13-0.42,0.13-0.6c0-0.62-0.37-1.08-0.89-1.08l-0.23,0.04
			c-0.12,0.04-0.2,0.06-0.23,0.06c-0.17,0-0.31-0.19-0.31-0.4l0.02-0.46l-0.03-0.64l-0.13-0.67l-0.03-0.32l-0.29,0.16l-0.35,0.29
			l-0.51,0.42l-0.42,0.35c-0.07,0.06-0.16,0.1-0.24,0.1c-0.24,0-0.27-0.07-0.27-0.57V67.5c0-0.4-0.18-0.72-0.83-1.49
			c-0.04-0.04-0.09-0.11-0.16-0.19l-0.13,0.23l-0.35,0.58l-0.35,0.9l-0.07,0.58c-0.02,0.17-0.08,0.29-0.14,0.29
			c-0.07,0-0.18-0.08-0.3-0.23c-0.49-0.56-0.65-0.66-1.38-0.93l-0.06,0.22c-0.12,0.38-0.18,0.6-0.19,0.68l-0.03,0.61v0.26l0,0.2
			c0,0.18-0.07,0.28-0.17,0.28l-0.02,0c-0.01,0-0.08-0.06-0.19-0.16c-0.07-0.07-0.21-0.1-0.39-0.1c-0.6,0-0.98,0.32-0.98,0.84
			c0,0.38,0.13,0.67,0.72,1.57c0.26,0.4,0.57,0.71,0.68,0.71c0.08,0,0.15-0.21,0.15-0.46l-0.06-0.39c-0.06-0.18-0.09-0.35-0.09-0.49
			c0-0.18,0.05-0.28,0.15-0.28c0.29,0,0.59,0.83,0.71,1.99L14,73.9c0.05,0.42,0.18,0.85,0.39,1.28c0.29,0.6,0.58,1,0.83,1.18
			c0.31,0.22,0.5,0.43,0.5,0.55c0,0.1-0.08,0.19-0.17,0.19c-0.01,0-0.23-0.08-0.65-0.23l-0.27-0.04c-0.64,0-0.85,0.37-0.85,1.47
			c0,1.33,0.9,3.25,1.89,4.05l1.47,1.19c0.75,0.6,1.32,1.6,1.32,2.31c0,0.94-1.03,1.86-2.79,2.5l-1.06,0.38
			c-0.82,0.3-1.15,0.83-1.47,2.37c0.42-0.13,0.6-0.16,0.88-0.16l0.14,0l0.48,0.01c0.43,0,0.74-0.26,0.74-0.62v-0.29
			c0-0.09,0.12-0.21,0.29-0.29c0.29-0.14,0.44-0.21,0.45-0.22l0.35-0.29c0.06-0.04,0.12-0.07,0.18-0.07c0.1,0,0.18,0.09,0.18,0.2
			c0,0.08-0.02,0.18-0.07,0.29c-0.11,0.28-0.17,0.67-0.17,1.1c0,0.79,0.12,1.21,0.52,1.78c0.04-0.21,0.07-0.35,0.1-0.42
			c0.06-0.16,0.25-0.45,0.55-0.86c0.48-0.68,0.84-1.51,0.84-1.95l-0.01-0.14l-0.1-0.74c0-0.13,0.06-0.26,0.16-0.35
			c0.07-0.06,0.15-0.09,0.22-0.09c0.14,0,0.22,0.08,0.33,0.32c0.08,0.18,0.17,0.29,0.23,0.29c0.11,0,0.33-0.29,0.47-0.64
			c0.11-0.25,0.16-0.48,0.16-0.68c0-0.12-0.03-0.26-0.1-0.41c-0.07-0.16-0.1-0.29-0.1-0.36c0-0.08,0.03-0.12,0.13-0.21
			c0.05-0.04,0.11-0.07,0.16-0.07c0.06,0,0.13,0.03,0.19,0.07l0.29,0.19c0.1,0.06,0.18,0.1,0.26,0.1c0.13,0,0.31-0.14,0.45-0.36
			c0.28-0.43,0.45-0.78,0.45-0.91c0-0.09-0.05-0.15-0.23-0.27c-0.64-0.45-1.06-1.13-1.06-1.71c0-0.14,0.03-0.29,0.1-0.46L20.92,82
			c0.16-0.44,0.25-0.66,0.26-0.67l0.09-0.04c0.11,0,0.18,0.09,0.18,0.25c0,0.11-0.03,0.23-0.08,0.37c-0.08,0.21-0.13,0.47-0.13,0.61
			c0,0.23,0.12,0.35,0.33,0.35c0.16,0,0.34-0.04,0.54-0.13c0.97-0.42,1.74-0.65,2.2-0.65c0.44,0,0.71,0.1,1.16,0.42
			c0.12,0.08,0.22,0.13,0.3,0.13c0.06,0,0.12-0.05,0.19-0.13c0.04-0.05,0.06-0.11,0.06-0.16c0-0.12-0.07-0.27-0.19-0.42
			c-0.17-0.2-0.23-0.33-0.23-0.45c0-0.1,0.07-0.17,0.17-0.17c0.5,0,1.29,1.59,2.04,4.11c0.59,1.99,0.76,2.19,2.66,3.27
			c1.61,0.91,2.22,1.81,2.22,3.27c0,1.44-0.4,3.28-1.23,5.7c-0.26,0.76-0.38,1.28-0.38,1.71c0,0.34,0.07,0.67,0.31,1.53
			c0.12,0.41,0.19,0.66,0.22,0.74C31.66,101.75,31.75,101.91,31.88,102.13"/>
		<path class="st5" d="M24.45,97.65c0.19-0.44,0.25-0.55,0.61-1.09c0.52-0.78,0.71-1.2,0.71-1.57v-0.51c0-0.48,0.09-0.71,0.28-0.71
			c0.07,0,0.13,0.04,0.17,0.1l0.16,0.25c0.05,0.08,0.13,0.13,0.23,0.13c0.09,0,0.27-0.12,0.36-0.27c0.23-0.35,0.37-0.8,0.37-1.14
			l-0.03-0.35l-0.03-0.36c0-0.19,0.08-0.28,0.26-0.28c0.12,0,0.18,0.05,0.28,0.29c0.07,0.16,0.16,0.26,0.24,0.26
			c0.09,0,0.19-0.07,0.27-0.19l0.25-0.38l0.19-0.29l0.05-0.15c0-0.09-0.07-0.17-0.24-0.29c-0.59-0.43-0.85-1.09-0.9-2.28
			c-0.04-0.9-0.09-1.49-0.16-1.76c-0.02-0.06-0.21-0.52-0.58-1.38c-0.14-0.34-0.27-0.72-0.39-1.15c-0.08-0.3-0.17-0.39-0.4-0.39
			c-0.87,0-1.53,0.74-1.53,1.73c0,0.58,0.24,1.49,0.68,2.6c0.62,1.56,0.78,2.11,0.78,2.66c0,1.18-0.47,1.69-2.1,2.27
			c-1.84,0.66-2.7,1.6-3.01,3.3c0.14-0.06,0.25-0.1,0.32-0.13c0.2-0.08,0.35-0.13,0.45-0.16l0.51-0.13
			c0.44-0.11,0.79-0.36,0.86-0.61l0.13-0.45c0.03-0.11,0.09-0.18,0.19-0.22l0.29-0.13l0.29-0.13l0.06,0.13l-0.13,0.42
			c-0.04,0.14-0.07,0.39-0.07,0.75C23.9,96.72,24.04,97.14,24.45,97.65"/>
		<path class="st5" d="M7.23,68c0.04,0.18,0.07,0.3,0.07,0.36c0,0.1-0.04,0.38-0.13,0.83l-0.06,0.65c0,0.57,0.1,1.18,0.28,1.69
			c0.16,0.46,0.21,0.61,0.21,0.73l-0.01,0.13c-0.03,0.13-0.08,0.23-0.12,0.23c-0.06,0-0.18-0.07-0.33-0.2
			c-0.37-0.32-0.77-0.48-1.18-0.48c-0.13,0-0.32,0.02-0.55,0.07l0.16,0.35l0.48,1.19l0.67,1.02l0.7,0.48
			c0.07,0.04,0.13,0.11,0.19,0.19c0.06,0.09,0.1,0.16,0.1,0.21c0,0.06-0.06,0.11-0.13,0.11l-0.64,0.03c-0.1,0-0.18,0.06-0.18,0.14
			c0,0.11,0.09,0.43,0.27,0.95l0.32,0.93l0.54,0.51l0.58,0.42c0.17,0.12,0.27,0.26,0.27,0.36c0,0.09-0.06,0.18-0.11,0.18l-0.32,0.03
			c-0.11,0.01-0.16,0.1-0.16,0.26c0,0.24,0.22,0.67,0.64,1.25c0.5,0.68,0.84,0.9,1.41,0.9h0.48c0.23,0,0.37,0.11,0.37,0.29
			c0,0.15-0.1,0.24-0.31,0.28c-0.44,0.09-0.58,0.18-0.58,0.39c0,0.08,0.06,0.2,0.16,0.35l0.26,0.35c0.21,0.29,0.45,0.49,0.61,0.49
			c0.09,0,0.29-0.09,0.47-0.29c0.29-0.33,0.62-0.6,1.04-0.7c1.11-0.28,1.35-0.4,1.35-0.66c0-0.09-0.04-0.22-0.13-0.37
			c-0.35-0.64-0.48-1.05-0.48-1.57c0-0.4-0.1-0.68-0.25-0.68c-0.06,0-0.16,0.1-0.26,0.26c-0.26,0.41-0.71,0.68-1.12,0.68
			c-1.11,0-2.45-1.74-3.11-4.04c-0.15-0.53-0.24-1.14-0.24-1.73c0-0.6,0.08-1.28,0.24-1.96c0.21-0.94,0.33-1.46,0.35-1.57l0.04-0.43
			C9.1,69.81,8.37,68.79,7.23,68"/>
		<path class="st5" d="M9.54,72.45c-0.24,0.45-0.45,1.45-0.45,2.09c0,0.37,0.12,0.67,0.28,0.67c0.05,0,0.12-0.06,0.17-0.16
			l0.35-0.64c0.06-0.11,0.12-0.22,0.23-0.39c0.13-0.19,0.22-0.38,0.22-0.48C10.35,73.16,10,72.69,9.54,72.45"/>
		<path class="st5" d="M13.07,86.91c0.07,0.07,0.12,0.12,0.16,0.16c0.14,0.14,0.23,0.22,0.26,0.25c0.62,0.65,0.72,0.71,1.02,0.71
			c0.28,0,0.86-0.16,1.19-0.32c0.14-0.07,0.22-0.16,0.22-0.22c0-0.04-0.12-0.17-0.32-0.35l-0.35-0.32
			c-0.27-0.24-0.66-0.47-0.85-0.47C14.03,86.35,13.65,86.51,13.07,86.91"/>
		<path class="st5" d="M20.51,92.71c0.34,0.14,0.46,0.2,0.64,0.32c0.29,0.19,0.46,0.29,0.51,0.32c0.1,0.04,0.27,0.06,0.51,0.06
			c0.15,0,0.28-0.02,0.39-0.06l0.68-0.25l0.64-0.22c0.17-0.06,0.29-0.16,0.29-0.25c0-0.05-0.15-0.12-0.35-0.17
			c-0.14-0.04-0.31-0.09-0.48-0.16c-0.79-0.32-0.9-0.36-1.18-0.36C21.51,91.93,20.88,92.23,20.51,92.71"/>
		<path class="st5" d="M28.61,99.15c0.21-0.52,0.36-0.6,1.09-0.64c0.82-0.04,1.61-1.52,1.61-2.52c0-0.1-0.03-0.18-0.08-0.18
			c-0.04,0-0.12,0.04-0.22,0.11c-0.23,0.15-0.39,0.25-0.48,0.29l-0.93,0.42c-0.62,0.28-1.17,1.11-1.17,1.76
			C28.44,98.59,28.48,98.78,28.61,99.15"/>
		<path class="st2" d="M14.77,71.3l0.32,0.45c0.07,0.1,0.62,0.5,0.69,0.5c0.1,0,0.15-0.07,0.2-0.28l0.13-0.48l0.03-0.53
			c0-0.42-0.19-0.58-1.06-0.81c-0.22-0.06-0.31-0.05-0.45-0.16c-0.13-0.11-0.31-0.19-0.38-0.19c-0.07,0-0.13,0.04-0.13,0.09
			l0.04,0.14l0.16,0.48L14.77,71.3z"/>
		<path class="st2" d="M18.2,71.29l-0.42,0.74c-0.1,0.11-0.15,0.17-0.16,0.18l-0.03,0c-0.17,0-0.34-0.39-0.35-0.79l-0.06-0.64
			c0.05-0.26,0.21-0.38,0.61-0.45c0.33-0.06,0.54-0.12,0.64-0.19c0.31-0.22,0.48-0.34,0.51-0.35l0.05-0.01
			c0.09,0,0.15,0.06,0.15,0.16l-0.01,0.04l-0.22,0.55L18.2,71.29z"/>
		<path class="st2" d="M17.36,73.48l0.51-0.26c0.09-0.04,0.17-0.07,0.24-0.07c0.25,0,0.43,0.18,0.43,0.52
			c0,0.37-0.29,0.86-0.68,1.56c-0.42,0.77-0.74,1.29-1.07,1.29c-0.46,0-1.11-0.73-1.75-1.96c-0.15-0.29-0.24-0.63-0.24-0.89
			c0-0.4,0.18-0.62,0.52-0.62c0.14,0,0.27,0.03,0.37,0.1l0.29,0.19c0.25,0.17,0.54,0.25,0.82,0.25C17,73.61,17.19,73.56,17.36,73.48
			"/>
		<path class="st5" d="M16.63,74.25l-0.35-0.06l-0.05,0c-0.2,0-0.31,0.12-0.31,0.35c0,0.32,0.25,0.92,0.58,1.39
			c0.06,0.08,0.15,0.14,0.25,0.14c0.21,0,0.35-0.39,0.46-1.04l0.1-0.48l0.01-0.09c0-0.2-0.06-0.27-0.22-0.27l-0.08,0"/>
	</g>
	<g>
		<path class="st2" d="M88.2,82.61c0.56,0.74,1.34,1.22,1.99,1.22c0.2,0,0.54-0.05,0.86-0.13c0.18-0.04,0.32-0.06,0.43-0.06
			c0.16,0,0.22,0.06,0.22,0.2c0,0.11-0.08,0.38-0.17,0.6c-0.1,0.24-0.17,0.43-0.19,0.58l-0.13,0.67l-0.32,0.58l-0.45,0.42
			l-0.13,0.13v0.29v0.14c0,0.78-0.23,1.23-0.87,1.65c-0.05,0.03-0.13,0.09-0.22,0.16l-0.06,0.26c-0.14,0.59-0.25,0.97-0.32,1.12
			c-0.08,0.17-0.29,0.47-0.61,0.9c-0.39,0.51-0.64,0.92-0.8,1.31c-0.13,0.32-0.23,0.41-0.44,0.41c-0.32,0-0.63-0.4-0.68-0.86
			c-0.07,0.1-0.12,0.16-0.16,0.19l-0.38,0.25l-0.61,0.41c-0.27,0.19-0.44,0.31-0.51,0.38l-0.35,0.35c-0.06,0.06-0.13,0.1-0.18,0.1
			c-0.16,0-0.33-0.27-0.49-0.8l-0.32-1.05c-0.09-0.28-0.13-0.63-0.13-1.04c0-0.53,0.04-0.72,0.23-1.15
			c-0.64,0.07-0.82,0.11-1.15,0.23c-0.1,0.04-0.22,0.06-0.28,0.06c-0.11,0-0.17-0.07-0.17-0.2c0-0.07,0.06-0.29,0.13-0.48l0.42-1.09
			c0.33-0.85,1.37-1.62,2.2-1.62c0.2,0,0.47,0.06,0.82,0.17c0.21,0.07,0.38,0.1,0.48,0.1c0.37,0,0.67-0.27,0.67-0.61
			c0-0.17-0.11-0.35-0.26-0.42c-0.05-0.03-0.44-0.14-1.15-0.35c-0.54-0.16-0.81-0.36-1.41-1.06c-0.44-0.51-0.61-0.65-0.77-0.65
			c-0.12,0-0.19,0.08-0.19,0.23l0.03,0.43l0.01,0.2c0,0.89-0.27,1.74-0.91,2.91l-0.9,1.63c-0.43,0.78-0.61,1.37-0.61,1.96
			c0,0.65,0.28,1.22,0.64,1.32l0.48,0.13c0.06,0.02,0.12,0.05,0.16,0.1c0.06,0.06,0.1,0.13,0.1,0.18c0,0.07-0.06,0.18-0.16,0.3
			c-0.06,0.06-0.25,0.31-0.58,0.74c-0.55,0.72-0.9,0.98-1.57,1.19c-0.39,0.94-1.02,1.49-2.15,1.86l-0.13,0.22
			c-0.38,0.67-1.23,1.29-1.77,1.29h-0.12c-0.07,0.58-0.49,1.2-1.12,1.64c-0.43,0.3-0.68,0.49-0.74,0.54
			c-0.04,0.04-0.09,0.14-0.16,0.29c-0.15,0.32-0.28,0.45-0.46,0.45c-0.34,0-0.62-0.32-0.82-0.93c-0.13,0.08-0.23,0.15-0.29,0.19
			c-0.36,0.26-0.57,0.4-0.61,0.42c-0.15,0.07-0.52,0.18-1.12,0.32c-0.79,0.18-1.47,0.52-1.64,0.8L68,102.8l-0.13,0.06
			c-0.16,0-0.34-0.22-0.41-0.5c-0.18-0.67-0.29-1.36-0.29-1.8c0-1.14,0.38-1.88,1.54-3.04l0-0.28c0-1.77,1.35-2.97,3.34-2.97
			l0.32,0.01l1.09,0.07l0.1,0c0.59,0,1.13-0.22,1.72-0.71c0.78-0.64,1.01-1.03,1.01-1.75c0-0.23-0.06-0.49-0.31-1.29
			c-0.16-0.53-0.24-1.03-0.24-1.51c0-1.32,0.97-2.97,2.29-3.88c0.34-0.24,0.59-0.55,0.59-0.73c0-0.07-0.04-0.13-0.09-0.13
			c-0.08,0-0.23,0.09-0.41,0.25c-0.15,0.14-0.41,0.3-0.77,0.48l-0.51,0.25l-0.58,0.23c-0.18,0.07-0.27,0.16-0.27,0.29
			c0,0.07,0.03,0.17,0.07,0.29c0.04,0.1,0.06,0.18,0.06,0.23c0,0.07-0.06,0.2-0.16,0.37l-0.45,0.74c-0.44,0.72-0.76,1.03-1.32,1.28
			c-0.36,1.06-0.88,1.59-1.63,1.7c-0.6,1.22-1.14,1.64-2.21,1.76c-0.15,0.47-0.41,0.86-0.96,1.48c-0.23,0.25-0.37,0.42-0.42,0.51
			c-0.25,0.45-0.27,0.48-0.39,0.48c-0.15,0-0.48-0.22-0.73-0.48c-0.11-0.12-0.21-0.25-0.29-0.39l-0.29-0.51
			c-0.09-0.17-0.19-0.24-0.31-0.24l-0.2,0.01l-0.71,0.1c-0.44,0.06-1.07,0.42-1.28,0.74l-0.38,0.58c-0.04,0.06-0.1,0.09-0.15,0.09
			c-0.29,0-0.46-0.63-0.46-1.68c0-0.92,0.14-1.53,0.46-1.97l0.9-1.25c0.12-0.17,0.19-0.35,0.19-0.49c0-0.14-0.06-0.29-0.16-0.41
			c-0.19-0.22-0.37-0.36-0.51-0.39L64,88.32c-0.12-0.02-0.17-0.05-0.17-0.1c0-0.06,0.04-0.13,0.1-0.22c0.22-0.28,0.49-0.52,0.8-0.71
			c0.79-0.49,1.32-0.68,1.85-0.68c0.54,0,1.13,0.2,1.68,0.55l0.93,0.61c0.13,0.09,0.29,0.13,0.45,0.13c0.43,0,0.75-0.25,1.06-0.84
			c0.29-0.56,0.42-1.01,0.42-1.49c0-1.21-0.86-2.07-2.05-2.07c-0.56,0-1.12,0.22-1.67,0.64c-0.17,0.13-0.27,0.25-0.32,0.35
			l-0.26,0.58c-0.06,0.14-0.15,0.22-0.23,0.22c-0.16,0-0.52-0.46-0.83-1.06c-0.16-0.31-0.31-0.7-0.45-1.16
			c-0.19-0.63-0.27-1.1-0.27-1.6l0.05-0.87c-0.44-0.68-0.58-1.18-0.58-1.98c0-0.29,0.04-0.52,0.23-1.13
			c-0.27-0.44-0.35-0.78-0.35-1.43l0.03-0.4l0.1-0.45l0.06-0.38c-0.31-0.4-0.4-0.68-0.71-2.08c-0.17-0.8-0.28-1.14-0.41-1.35
			c-0.06-0.09-0.1-0.16-0.1-0.19c0-0.19,0.45-0.36,0.96-0.36l0.45,0.04c-0.11-0.3-0.14-0.41-0.14-0.65c0-0.4,0.08-0.84,0.23-1.28
			c0.17-0.49,0.2-0.62,0.2-0.79c0-0.38-0.06-0.77-0.14-0.98l-0.26-0.64c-0.06-0.15-0.08-0.25-0.08-0.33c0-0.07,0.04-0.09,0.16-0.09
			c0.63,0,1.83,0.68,2.77,1.57c0.94,0.89,1.24,1.6,1.24,2.92l-0.05,0.7c0.87,0.77,1.25,1.4,1.25,2.08c0,0.5-0.16,0.84-0.65,1.31
			c-0.86,0.86-1.06,1.31-1.06,2.42c0,1.7,0.51,2.62,1.45,2.62c0.83,0,1.46-0.9,1.57-2.21l0.1-1.22c0.03-0.32,0.08-0.7,0.16-1.15
			c0.05-0.29,0.1-0.67,0.1-0.84c0-0.43-0.28-0.98-1.12-1.96c-0.9-1.05-1.2-1.62-1.2-2.44c0-0.99,0.68-1.71,1.61-1.71
			c0.23,0,0.35,0.03,0.62,0.18c0.01-0.56,0.04-0.66,0.35-1.45c0.25-0.62,0.52-1.05,0.64-1.05c0.04,0,0.11,0.05,0.19,0.13
			c0.14,0.14,0.28,0.25,0.42,0.35c0.2,0.14,0.3,0.21,0.32,0.23c0.07,0.06,0.17,0.16,0.29,0.29c0.2-0.72,0.4-1.06,0.99-1.64
			c0.45-0.44,0.62-0.58,0.7-0.58c0.07,0,0.15,0.06,0.23,0.16l0.38,0.51l0.54,0.61c0.21,0.23,0.28,0.43,0.39,0.99l0.32-0.19
			l0.51-0.29c0.1-0.05,0.22-0.14,0.39-0.26c0.09-0.06,0.16-0.1,0.2-0.1c0.05,0,0.11,0.09,0.15,0.23l0.19,0.74l0.42,0.83
			c0.12,0.25,0.16,0.44,0.16,0.82l0,0.2l0.22-0.01c0.63,0,1.18,0.75,1.18,1.61c0,1.14-0.91,2.62-2.1,3.4
			c-0.11,0.39-0.13,0.54-0.13,0.85c0,2.55,0.67,3.08,4.59,3.67c0.98,0.15,1.86,0.33,2.63,0.54c0.13,0.04,0.97,0.31,2.53,0.83
			c0.87,0.29,1.45,0.42,1.9,0.42c0.48,0,0.74-0.14,0.74-0.39c0-0.44-0.64-0.83-2.61-1.6l-2.79-1.09c-2.84-1.11-4.17-2.84-4.17-5.39
			c0-2.97,2.23-5.19,5.2-5.19c1.12,0,2.21,0.23,3.79,0.8c2.02,0.74,2.13,0.77,2.35,0.77c0.39,0,0.61-0.27,0.67-0.83
			c0.05-0.48,0.18-0.68,0.45-0.68c0.39,0,0.82,0.37,1.13,0.96c0.26,0.52,0.42,1.13,0.42,1.66c0,1.06-0.56,1.75-1.57,1.96
			c-0.68,0.89-1.54,1.33-2.58,1.33c-1.28,0-1.91-0.25-4.09-1.61c-0.78-0.49-1.11-0.61-1.68-0.61c-0.76,0-1.33,0.47-1.33,1.12
			c0,0.59,0.47,0.97,1.54,1.26c0.64,0.17,0.73,0.21,1.06,0.54c0.26-0.06,0.37-0.08,0.53-0.08c1.04,0,2.32,0.56,3.41,1.49
			c1.98,0.61,3.73,2.74,3.73,4.53c0,1.98-1.71,3.75-3.63,3.75C90.16,83.01,89.13,82.84,88.2,82.61"/>
		<path class="st5" d="M87.04,91.49l0.13-0.35l0.13-0.45c0.02-0.08,0.14-0.26,0.35-0.54c0.33-0.43,0.49-0.97,0.49-1.59
			c0-0.2-0.05-0.38-0.17-0.62c-0.06-0.13-0.1-0.23-0.1-0.3c0-0.04,0.02-0.09,0.07-0.15c0.04-0.06,0.09-0.09,0.13-0.1l0.02,0
			c0.08,0,0.22,0.09,0.33,0.23c0.14,0.17,0.26,0.26,0.33,0.26c0.14,0,0.3-0.24,0.38-0.61c0.04-0.2,0.06-0.3,0.06-0.32
			c0-0.16-0.13-0.56-0.29-0.9c-0.06-0.13-0.09-0.24-0.09-0.33c0-0.11,0.08-0.21,0.18-0.21c0.09,0,0.25,0.1,0.43,0.27
			c0.09,0.08,0.18,0.13,0.24,0.13c0.2,0,0.35-0.21,0.5-0.71c0.09-0.31,0.13-0.45,0.13-0.5c0-0.09-0.04-0.15-0.11-0.15l-0.11,0.01
			l-0.38,0.04c-0.58,0-1.41-0.4-1.8-0.87l-0.9-1.09c-0.35-0.42-0.83-1.06-0.8-1.06l-0.74-0.48c-0.12-0.08-0.19-0.18-0.19-0.26
			c0-0.12,0.12-0.2,0.31-0.2c0.17,0,0.69,0.19,1.65,0.59c0.92,0.39,2.38,0.71,3.25,0.71c1.53,0,2.8-1.24,2.8-2.74
			c0-0.82-0.37-1.58-1.27-2.64c-0.17-0.2-0.46-0.39-0.59-0.39c-0.1,0-0.18,0.08-0.18,0.19c0,0.09,0.03,0.21,0.1,0.36
			c0.04,0.1,0.06,0.2,0.06,0.29c0,0.15-0.05,0.23-0.15,0.23c-0.2,0-0.41-0.33-0.58-0.91c-0.21-0.72-0.63-1.14-1.6-1.63
			c-0.37-0.19-0.86-0.36-1.01-0.36c-0.06,0-0.11,0.06-0.11,0.14c0,0.12,0.04,0.25,0.13,0.38c0.14,0.22,0.23,0.42,0.26,0.61l0,0.03
			c0,0.12-0.06,0.19-0.18,0.19c-0.21,0-0.25-0.05-0.72-0.77c-0.24-0.37-0.89-0.86-1.44-1.09c-0.18-0.08-0.36-0.12-0.54-0.13l-0.02,0
			c-0.12,0-0.21,0.06-0.21,0.13c0,0.03,0.05,0.13,0.14,0.29l0.05,0.18c0,0.1-0.07,0.17-0.15,0.17c-0.19,0-0.79-0.49-1.26-1.03
			c-0.51-0.59-0.83-1.33-0.83-1.92c0-1.23,1.17-2.32,2.48-2.32c0.33,0,0.61,0.06,0.82,0.16l1.12,0.58l1.32,0.87
			c0.76,0.5,1.79,0.87,2.42,0.87c0.23,0,0.41-0.03,1.01-0.2c0.31-0.08,0.51-0.21,0.51-0.32l-0.01-0.03l-0.11-0.06l-0.71-0.06
			c-0.39-0.04-1.28-0.44-1.99-0.9l-1.48-0.96l-1.31-0.55c-0.1-0.04-0.16-0.1-0.16-0.17c0-0.07,0.07-0.12,0.15-0.12
			c0,0,0.12,0.03,0.36,0.07l1.22,0.35c0.31,0.09,0.8,0.31,1.48,0.67c1.34,0.71,2.21,1.03,2.85,1.03c0.74,0,1.29-0.51,1.29-1.2
			c0-0.23-0.05-0.61-0.13-0.92c-0.04-0.15-0.1-0.29-0.19-0.42c-0.06-0.08-0.12-0.13-0.16-0.13c-0.09,0-0.15,0.1-0.15,0.26l0.02,0.22
			l0.01,0.19c0,0.59-0.23,0.8-0.88,0.8c-0.53,0-1.25-0.21-2.88-0.86c-1.53-0.6-2.48-0.83-3.43-0.83c-2.41,0-4.53,1.97-4.53,4.21
			c0,1.94,1.29,3.42,3.92,4.5l2.72,1.12c2.25,0.93,3.08,1.59,3.08,2.47c0,0.73-0.68,1.2-1.74,1.2c-0.46,0-1.03-0.13-2.08-0.46
			c-2.55-0.81-4.21-1.15-5.67-1.15c-2.38,0-4.07,0.65-5.42,2.08c-0.18,0.19-0.28,0.25-0.44,0.25c-0.11,0-0.22-0.04-0.46-0.18
			c-0.24-0.14-0.51-0.23-0.7-0.23c-0.23,0-0.6,0.2-0.77,0.42l-0.32,0.42c-0.09,0.12-0.2,0.2-0.28,0.2c-0.23,0-0.64-0.4-0.9-0.87
			c-0.16-0.29-0.27-0.57-0.32-0.83c-0.04-0.2-0.07-0.53-0.07-0.88l0.03-0.6l0.1-0.64c0.05-0.31,0.08-0.49,0.1-0.55
			c0.02-0.08,0.09-0.13,0.15-0.13c0.17,0,0.24,0.15,0.24,0.5l-0.01,0.2l-0.01,0.14c0,0.91,0.36,1.75,0.76,1.75
			c0.31,0,0.59-0.56,0.82-1.67c0.05-0.22,0.14-0.35,0.24-0.35c0.13,0,0.21,0.16,0.3,0.64c0.06,0.31,0.26,0.74,0.48,1.03
			c0.12,0.16,0.26,0.26,0.37,0.26c0.26,0,0.43-0.39,0.56-1.32c0.05-0.36,0.16-0.58,0.28-0.58c0.05,0,0.1,0.03,0.13,0.07
			c0.02,0.03,0.1,0.14,0.23,0.35c0.08,0.13,0.2,0.24,0.35,0.32c0.16,0.08,0.29,0.13,0.37,0.13c0.1,0,0.21-0.05,0.3-0.13
			c0.14-0.13,0.22-0.22,0.22-0.26c0-0.05-0.07-0.15-0.19-0.28c-0.21-0.23-0.37-0.53-0.58-1.06c-0.13-0.35-0.23-0.59-0.29-0.74
			c-0.05-0.12-0.11-0.19-0.16-0.22l-0.1-0.03l-0.19,0.03c-0.04,0.01-0.26,0.07-0.67,0.19l-0.21,0.03c-0.09,0-0.15-0.06-0.15-0.15
			c0-0.09,0.11-0.24,0.26-0.36c0.81-0.65,1.29-1.73,1.47-3.3c0.11-0.96,0.23-1.32,0.64-1.89c0.09-0.12,0.16-0.19,0.2-0.19
			c0.12,0,0.19,0.1,0.19,0.28c0,0.12-0.04,0.28-0.1,0.46c-0.05,0.12-0.07,0.25-0.07,0.39l0.01,0.12l0.06,0.19l0.35-0.13l0.38-0.45
			c0.23-0.27,0.42-0.87,0.42-1.31c0-0.31-0.07-0.52-0.26-0.74c-0.2-0.24-0.34-0.34-0.49-0.34l-0.22,0.02l-0.23,0.02
			c-0.21,0-0.31-0.06-0.31-0.19l0.06-0.24l0.03-0.35l-0.19-0.8l-0.16-0.39l-0.1-0.32l-0.22,0.16l-0.48,0.29
			c-0.12,0.08-0.25,0.2-0.39,0.35c-0.46,0.55-0.48,0.58-0.67,0.58c-0.12,0-0.18-0.04-0.18-0.12l0.02-0.14
			c0.07-0.29,0.1-0.52,0.1-0.67c0-0.56-0.41-1.4-0.9-1.87c-0.67,0.64-1.03,1.34-1.03,2.02v0.38c0,0.15-0.05,0.22-0.15,0.22h-0.01
			c-0.08-0.01-0.16-0.07-0.23-0.16l-0.38-0.51c-0.03-0.04-0.2-0.18-0.52-0.42c-0.06-0.05-0.15-0.12-0.25-0.22l-0.13,0.25
			c-0.32,0.64-0.43,1.02-0.45,1.54c-0.02,0.43-0.05,0.55-0.15,0.55c-0.05,0-0.12-0.02-0.2-0.07c-0.49-0.27-0.53-0.29-0.74-0.29
			c-0.58,0-0.97,0.41-0.97,1.02c0,0.24,0.13,0.6,0.4,1.07c0.29,0.52,0.73,1,0.93,1c0.06,0,0.07-0.04,0.07-0.2l0-0.07L71.5,71.4
			l-0.07-0.42l0-0.05c0-0.12,0.05-0.18,0.14-0.18c0.29,0,0.54,0.85,0.76,2.54c0.19,1.49,0.6,2.52,1.25,3.11
			c0.17,0.15,0.26,0.28,0.26,0.35c0,0.05-0.06,0.1-0.13,0.1c-0.09,0-0.24-0.06-0.42-0.16c-0.12-0.07-0.23-0.1-0.35-0.1
			c-0.32,0-0.68,0.37-0.74,0.78l-0.29,1.83l-0.22,2.57c-0.04,0.49,0.02,1.14,0.19,1.92c0.15,0.69,0.23,1.2,0.23,1.52
			c0,1.92-1.2,3.44-3.18,4.03l-2.05,0.61c-1.28,0.38-1.91,1.22-2.08,2.79c0.33-0.26,0.43-0.3,0.93-0.38l0.61-0.1
			c0.26-0.04,0.44-0.1,0.55-0.16c0.06-0.04,0.18-0.16,0.35-0.35l0.54-0.61c0.21-0.23,0.39-0.36,0.5-0.36c0.08,0,0.14,0.08,0.14,0.18
			c0,0.12-0.08,0.3-0.23,0.53c-0.15,0.24-0.23,0.52-0.23,0.83c0,0.41,0.11,0.67,0.52,1.26c0.05-0.19,0.1-0.32,0.13-0.39
			c0.05-0.1,0.21-0.33,0.48-0.67c0.44-0.57,0.76-1.17,0.77-1.44c0.01-0.5,0.05-0.66,0.18-0.66c0.11,0,0.13,0.02,0.18,0.31
			c0.01,0.07,0.05,0.14,0.1,0.19c0.07,0.08,0.15,0.13,0.2,0.13c0.04,0,0.13-0.04,0.25-0.13c0.22-0.15,0.39-0.3,0.51-0.45
			c0.13-0.17,0.24-0.36,0.32-0.58c0.11-0.28,0.16-0.49,0.16-0.61l0-0.41c0-0.11,0.05-0.2,0.11-0.2c0.08,0,0.24,0.17,0.34,0.35
			c0.07,0.12,0.11,0.16,0.21,0.16h0.02c0.12-0.01,0.22-0.06,0.29-0.13c0.39-0.38,0.64-0.85,0.64-1.2l-0.03-0.59l-0.13-0.48
			l-0.01-0.04c0-0.1,0.07-0.18,0.16-0.18c0.14,0,0.3,0.21,0.52,0.68c0.1,0.22,0.2,0.32,0.29,0.32c0.15,0,0.27-0.11,0.57-0.55
			l0.29-0.41c0.06-0.09,0.1-0.2,0.1-0.32c0-0.11-0.03-0.22-0.1-0.32l-0.26-0.39c-0.04-0.07-0.06-0.18-0.06-0.32
			c0-0.44,0.16-0.93,0.48-1.5c0.24-0.42,0.38-0.69,0.42-0.8c0.05-0.13,0.11-0.19,0.18-0.19c0.06,0,0.11,0.08,0.11,0.16l-0.03,0.35
			v0.26v0.25c0.04,0.12,0.12,0.16,0.28,0.16c0.1,0,0.21-0.02,0.33-0.07l0.8-0.29c0.19-0.07,0.44-0.19,0.74-0.35
			c1.26-0.7,1.64-0.84,2.26-0.84c0.37,0,0.84,0.14,1.52,0.46c0.14,0.06,0.25,0.1,0.33,0.1c0.09,0,0.19-0.06,0.28-0.16
			c0.06-0.07,0.09-0.17,0.09-0.24c0-0.12-0.04-0.25-0.13-0.4c-0.1-0.18-0.2-0.4-0.2-0.48c0-0.09,0.06-0.14,0.15-0.14
			c0.07,0,0.18,0.08,0.24,0.17c0.1,0.15,0.34,0.58,0.74,1.28c0.6,1.06,1.38,1.8,2.05,1.96l1.41,0.32c0.44,0.1,0.55,0.27,0.55,0.81
			c0,1-0.47,1.87-1.28,2.39l-1.15,0.74c-0.42,0.27-0.77,1-0.77,1.62c0,0.4,0.1,1.1,0.22,1.65l0.22-0.22l0.55-0.32l0.48-0.48
			l0.26-0.71l0.25-0.64c0.13-0.31,0.27-0.51,0.37-0.51c0.11,0,0.17,0.17,0.17,0.49l0,0.09l0,0.12C86.62,90.6,86.69,90.8,87.04,91.49
			"/>
		<path class="st5" d="M68.06,100.63c0-1.53,0.55-2.19,2.76-3.31c4.36-2.21,6.7-4.24,6.7-5.77c0-0.31-0.1-0.77-0.39-1.73
			c-0.18-0.59-0.28-1.09-0.28-1.39c0-0.71,0.58-1.79,1.33-2.45l0.61-0.54c0.33-0.3,0.58-0.73,0.58-1.01l0-0.14l-0.01-0.19
			c0-0.32,0.12-0.44,0.46-0.45l0.29-0.03c0.15-0.05,0.23-0.07,0.25-0.07c0.1,0,0.2,0.06,0.27,0.16l0.16,0.26l0.22,0.25
			c0.07,0.08,0.15,0.13,0.21,0.13c0.04,0,0.13-0.03,0.24-0.09c0.15-0.09,0.27-0.12,0.39-0.12c0.17,0,0.25,0.09,0.25,0.28
			c0,0.64-0.42,1.57-1.15,2.57c-1.23,1.67-1.63,2.56-1.63,3.63c0,0.84,0.24,1.57,0.71,2.17c0.08,0.11,0.13,0.19,0.13,0.24
			c0,0.09-0.08,0.23-0.22,0.4c-0.06,0.07-0.12,0.15-0.19,0.26c-0.26,0.37-0.43,0.51-0.59,0.51c-0.13,0-0.25-0.1-0.3-0.26l-0.13-0.35
			c-0.04-0.1-0.11-0.17-0.18-0.17c-0.02,0-0.08,0.05-0.14,0.13c-0.08,0.11-0.13,0.23-0.13,0.35v0.54c0,0.22-0.08,0.44-0.23,0.64
			c-0.12,0.17-0.27,0.33-0.45,0.48c-0.12,0.11-0.21,0.16-0.25,0.16c-0.09,0-0.18-0.1-0.23-0.26l-0.19-0.64
			c-0.03-0.09-0.09-0.16-0.16-0.16c-0.11,0-0.2,0.18-0.23,0.45c-0.07,0.73-0.19,1.17-0.38,1.35l-0.45,0.41
			c-0.15,0.14-0.31,0.24-0.41,0.24c-0.09,0-0.17-0.04-0.2-0.11l-0.23-0.48c-0.03-0.06-0.08-0.1-0.14-0.1
			c-0.13,0-0.23,0.25-0.27,0.74c-0.12,1.15-0.36,1.67-0.99,2.12c-0.5,0.35-0.61,0.47-0.8,0.9c-0.28-0.41-0.39-0.76-0.39-1.28
			c0-0.27,0.04-0.46,0.13-0.61c0.13-0.24,0.21-0.42,0.21-0.53c0-0.08-0.05-0.14-0.11-0.14c-0.03,0-0.09,0.04-0.16,0.13
			c-0.09,0.11-0.23,0.21-0.42,0.32c-0.58,0.33-0.66,0.45-0.8,1.09c-0.19,0.86-0.6,1.26-1.47,1.44c-1.09,0.22-1.15,0.25-1.54,0.61
			L68.06,100.63z"/>
		<path class="st5" d="M65.99,67.58v0.32l0,0.47c0,0.17-0.02,0.29-0.07,0.52c-0.1,0.45-0.13,0.6-0.13,0.72
			c0,0.61,0.09,0.92,0.45,1.55c0.2,0.35,0.33,0.77,0.33,1.08c0,0.13-0.05,0.21-0.14,0.21c-0.05,0-0.11-0.03-0.16-0.09L66.02,72
			c-0.21-0.28-0.4-0.36-0.92-0.36l-0.56,0.04c0.22,0.55,0.29,0.75,0.38,1.12c0.26,1.05,0.3,1.12,0.87,1.64
			c0.57,0.52,0.63,0.58,0.63,0.77c0,0.15-0.1,0.26-0.22,0.26l-0.21-0.03l-0.13-0.01c-0.17,0-0.33,0.32-0.33,0.68
			c0,0.21,0.08,0.53,0.2,0.81c0.08,0.19,0.16,0.32,0.22,0.39l0.32,0.32c0.08,0.08,0.13,0.2,0.13,0.33c0,0.16-0.09,0.29-0.19,0.29
			c-0.06,0-0.16-0.04-0.29-0.1c-0.08-0.04-0.16-0.06-0.23-0.06c-0.14,0-0.21,0.09-0.21,0.26l0.05,0.48l0.19,0.83
			c0.04,0.19,0.16,0.4,0.35,0.61c0.16,0.19,0.33,0.31,0.48,0.38c0.4,0.17,0.62,0.27,0.64,0.29c0.06,0.04,0.09,0.14,0.09,0.26
			c0,0.12-0.09,0.22-0.21,0.22c-0.04,0-0.15-0.02-0.33-0.06l-0.33-0.03c-0.33,0-0.35,0.02-0.35,0.27c0,0.16,0.02,0.33,0.06,0.5
			l0.13,0.51c0.14,0.54,0.31,0.84,0.5,0.84c0.04,0,0.12-0.05,0.23-0.13c0.46-0.36,1.4-0.67,1.98-0.67c0.6,0,1.29,0.07,1.55,0.16
			c0.15,0.05,0.25,0.08,0.31,0.08c0.08,0,0.1-0.08,0.11-0.36l0.07-0.58l0.13-0.99l0.09-0.74v-0.42c-0.12,0.1-0.2,0.17-0.26,0.22
			c-0.54,0.51-0.89,0.67-1.45,0.67c-1.47,0-2.32-1.66-2.32-4.55c0-1.19,0.18-2.88,0.5-4.81c0.07-0.41,0.1-0.69,0.1-0.89
			C67.82,69.36,67.15,68.32,65.99,67.58"/>
		<path class="st5" d="M68.16,74.76l0.29-0.29l0.29-0.26c0.24-0.21,0.43-0.66,0.43-0.99c0-0.15-0.03-0.29-0.11-0.46
			c-0.11-0.24-0.33-0.46-0.46-0.46c-0.11,0-0.21,0.26-0.25,0.68l-0.07,0.48l-0.09,0.48l-0.03,0.48V74.76z"/>
		<path class="st5" d="M65.34,87.87c0.33,0.12,0.4,0.18,0.74,0.58c0.44,0.52,0.69,0.64,1.28,0.64c0.16,0,0.31-0.02,0.45-0.06
			l0.41-0.13l0.32-0.1c0.15-0.04,0.26-0.11,0.26-0.16c0-0.07-0.25-0.28-0.64-0.54c-0.26-0.17-0.51-0.33-0.77-0.45
			c-0.28-0.14-0.51-0.2-0.73-0.2C66.21,87.45,65.77,87.59,65.34,87.87"/>
		<path class="st5" d="M69.67,96.89c0-1.03,1.02-1.88,2.26-1.88c0.62,0,0.98,0.12,0.98,0.33c0,0.16-0.27,0.39-0.87,0.7
			c-0.06,0.03-0.37,0.2-0.93,0.51c-0.65,0.36-0.84,0.46-1.41,0.7L69.67,96.89z"/>
		<path class="st5" d="M82.72,89.12c0.46-0.09,0.61-0.21,0.83-0.22l0.58,0.03c0.07-0.02,0.2-0.11,0.38-0.26
			c0.1-0.08,0.25-0.19,0.45-0.32c0.64-0.44,0.68-0.47,0.68-0.61c0-0.18-0.26-0.26-0.8-0.26C83.82,87.48,83.21,87.95,82.72,89.12"/>
		<path class="st2" d="M73.04,69.6l0.45,0.29c0.26,0.16,0.47,0.28,0.64,0.35c0.5,0.2,0.67,0.28,0.67,0.47
			c0,0.07-0.02,0.24-0.06,0.37c-0.05,0.14-0.08,0.29-0.1,0.45c-0.05,0.44-0.31,0.55-0.48,0.55c-0.22,0-0.44-0.33-0.8-0.96
			c-0.16-0.29-0.39-0.86-0.51-1.28l-0.02-0.12c0-0.08,0.05-0.12,0.14-0.12"/>
		<path class="st2" d="M77.36,70.72l-0.74,0.74c-0.26,0.35-0.26,0.65-0.32,0.71c-0.05,0.04-0.13,0.08-0.23,0.1l-0.05,0
			c-0.19,0-0.33-0.13-0.34-0.32l-0.03-0.54l-0.03-0.55v-0.03c0-0.21,0.12-0.32,0.28-0.36l0.68-0.19l0.7-0.35
			c0.2-0.1,0.27-0.13,0.3-0.13c0.08,0,0.15,0.09,0.15,0.19c0,0.05-0.02,0.12-0.07,0.2L77.36,70.72z"/>
		<path class="st2" d="M74.13,72.9l0.48,0.36c0.12,0.07,0.27,0.11,0.43,0.11c0.19,0,0.48-0.08,0.76-0.21l0.42-0.19
			c0.1-0.04,0.18-0.07,0.25-0.07c0.26,0,0.46,0.27,0.46,0.61c0,0.47-0.34,0.96-0.84,1.67l-0.35,0.74c-0.28,0.4-0.47,0.54-0.69,0.54
			c-0.38,0-0.57-0.22-1.13-1.35c-0.41-0.81-0.58-1.31-0.58-1.7c0-0.34,0.18-0.57,0.43-0.57C73.86,72.84,73.99,72.81,74.13,72.9"/>
		<path class="st5" d="M74.54,74.67l0.03,0.61c0.01,0.28,0.24,0.55,0.47,0.55c0.3,0,0.51-0.45,0.62-1.12
			c0.05-0.31,0.07-0.36,0.07-0.45c0-0.24-0.08-0.3-0.38-0.3l-0.17,0.01h-0.23l-0.14-0.01c-0.2,0-0.28,0.16-0.28,0.56"/>
	</g>
	<g>
		<path class="st2" d="M38.45,60.16h3.13v6.43h3.69v-6.37h9.31v6.37h3.68v-6.37h3.14V43.61h-3.59l-0.13-0.19
			c-0.43-0.64-1.01-0.97-1.73-0.97c-0.71,0-1.3,0.41-1.69,1.17h-2.59c-0.25-0.67-0.98-1.17-1.73-1.17c-0.82,0-1.48,0.42-1.82,1.17
			h-2.78c-0.46-0.83-0.97-1.16-1.78-1.16c-0.81,0-1.33,0.36-1.72,1.16h-3.39V60.16z"/>
		<rect x="39.79" y="44.97" class="st4" width="20.38" height="13.97"/>
		<path class="st5" d="M41.91,48.16c-0.53,0-0.97,0.44-0.97,0.97c0,0.53,0.43,0.97,0.97,0.97c0.54,0,0.97-0.44,0.97-0.97
			C42.88,48.6,42.45,48.16,41.91,48.16"/>
		<path d="M41.91,50.24c-0.61,0-1.1-0.5-1.1-1.1c0-0.61,0.49-1.1,1.1-1.1c0.61,0,1.1,0.49,1.1,1.1
			C43.01,49.74,42.52,50.24,41.91,50.24z M41.91,48.3c-0.46,0-0.84,0.38-0.84,0.84c0,0.46,0.38,0.84,0.84,0.84
			c0.46,0,0.84-0.38,0.84-0.84C42.75,48.67,42.37,48.3,41.91,48.3z"/>
		<path class="st5" d="M57.91,48.16c-0.53,0-0.97,0.44-0.97,0.97c0,0.53,0.44,0.97,0.97,0.97c0.54,0,0.97-0.44,0.97-0.97
			C58.88,48.6,58.45,48.16,57.91,48.16"/>
		<path d="M57.91,50.24c-0.61,0-1.1-0.5-1.1-1.1c0-0.61,0.49-1.1,1.1-1.1c0.61,0,1.1,0.49,1.1,1.1
			C59.01,49.74,58.52,50.24,57.91,50.24z M57.91,48.3c-0.46,0-0.84,0.38-0.84,0.84c0,0.46,0.38,0.84,0.84,0.84
			c0.46,0,0.84-0.38,0.84-0.84C58.75,48.67,58.37,48.3,57.91,48.3z"/>
		<path class="st5" d="M41.91,55.76c-0.53,0-0.97,0.43-0.97,0.97c0,0.54,0.45,0.97,1,0.97c0.52,0,0.94-0.43,0.94-0.97
			C42.88,56.19,42.45,55.76,41.91,55.76"/>
		<path d="M41.95,57.83c-0.63,0-1.14-0.49-1.14-1.1c0-0.61,0.49-1.1,1.1-1.1c0.61,0,1.1,0.49,1.1,1.1
			C43.01,57.34,42.54,57.83,41.95,57.83z M41.91,55.89c-0.46,0-0.84,0.38-0.84,0.84c0,0.46,0.39,0.84,0.87,0.84
			c0.44,0,0.81-0.38,0.81-0.84C42.75,56.27,42.37,55.89,41.91,55.89z"/>
		<path class="st5" d="M57.91,55.76c-0.53,0-0.97,0.43-0.97,0.97c0,0.54,0.44,0.97,0.97,0.97c0.54,0,0.97-0.43,0.97-0.97
			C58.88,56.19,58.45,55.76,57.91,55.76"/>
		<path d="M57.91,57.83c-0.61,0-1.1-0.49-1.1-1.1c0-0.61,0.49-1.1,1.1-1.1c0.61,0,1.1,0.49,1.1,1.1
			C59.01,57.34,58.52,57.83,57.91,57.83z M57.91,55.89c-0.46,0-0.84,0.38-0.84,0.84c0,0.46,0.38,0.84,0.84,0.84
			c0.46,0,0.84-0.38,0.84-0.84C58.75,56.27,58.37,55.89,57.91,55.89z"/>
		<path class="st5" d="M44.95,52.82c1.31,1.64,2.97,2.46,5.02,2.46c1.9,0,3.2-0.68,4.74-2.46c-1.53-1.57-2.96-2.23-4.83-2.23
			C47.91,50.59,46.13,51.39,44.95,52.82"/>
		<path class="st2" d="M45.92,52.82c1.35-1.05,2.5-1.49,3.91-1.49c1.43,0,2.49,0.42,3.88,1.52c-1.21,1.2-2.27,1.65-3.9,1.65
			C48.36,54.5,47.04,53.93,45.92,52.82"/>
		<path class="st5" d="M47.57,52.5c0.81,0.51,1.45,0.71,2.21,0.71c0.89,0,1.63-0.22,2.35-0.71c-0.76-0.36-1.54-0.55-2.32-0.55
			C49,51.94,48.25,52.13,47.57,52.5"/>
		<rect x="39.51" y="45.68" class="st2" width="20.95" height="0.71"/>
		<path d="M60.5,46.44H39.46v-0.8H60.5V46.44z M39.55,46.35h20.87v-0.63H39.55V46.35z"/>
		<path class="st5" d="M42.72,44.77v1.65v0.36c0,0.48,0.37,0.84,0.86,0.84c0.56,0,0.88-0.3,0.88-0.84v-0.36V44.8
			c0-0.76-0.31-1.23-0.81-1.23c-0.1,0-0.26,0.04-0.39,0.1c-0.11,0.05-0.18,0.09-0.23,0.13c-0.08,0.07-0.14,0.15-0.19,0.26
			c-0.08,0.17-0.13,0.3-0.13,0.36"/>
		<path class="st5" d="M49.02,46.42v0.35c0,0.48,0.38,0.84,0.86,0.84c0.57,0,0.88-0.3,0.88-0.84v-0.35V44.8
			c0-0.75-0.31-1.23-0.8-1.23c-0.58,0-0.94,0.47-0.94,1.2"/>
		<path class="st5" d="M55.13,44.77v1.65v0.36c0,0.48,0.37,0.84,0.86,0.84c0.56,0,0.88-0.3,0.88-0.84v-0.36V44.8
			c0-0.76-0.31-1.23-0.81-1.23c-0.1,0-0.26,0.04-0.39,0.1c-0.11,0.05-0.19,0.09-0.23,0.13c-0.08,0.07-0.14,0.15-0.19,0.26
			c-0.08,0.17-0.13,0.3-0.13,0.36"/>
		<rect x="42.27" y="61.67" class="st5" width="1.91" height="2.45"/>
		<rect x="42.27" y="64.68" class="st5" width="1.91" height="0.78"/>
		<rect x="55.26" y="61.67" class="st5" width="1.91" height="2.45"/>
		<rect x="55.26" y="64.68" class="st5" width="1.91" height="0.78"/>
	</g>
	<path class="st2" d="M159.98,2.08c0,0.29,0,1.17,0,1.46c-0.29,0-0.96,0-0.96,0c-1.43,0-3.82,0-3.82,4.46v18.32
		c0,11.2-4.88,16.65-14.91,16.65c-11.32,0-16.6-4.51-16.6-14.21V8.01c0-4.46-2.42-4.46-4.55-4.46c0,0-0.25,0-0.45,0
		c0-0.29,0-1.17,0-1.46c0.43,0,16.51,0,16.94,0c0,0.29,0,1.17,0,1.46c-0.2,0-0.45,0-0.45,0c-2.1,0-4.72,0-4.72,4.46v19.83
		c0,8.54,3.57,12.7,10.91,12.7c7.14,0,10.92-4.47,10.92-12.93V8.01c0-4.46-2.47-4.46-4.27-4.46c0,0-0.62,0-0.9,0
		c0-0.29,0-1.17,0-1.46C147.51,2.08,159.55,2.08,159.98,2.08"/>
	<path class="st2" d="M178.28,40.64v1.46c0,0-13.87,0-14.29,0c0-0.29,0-1.17,0-1.46c0.23,0,0.57,0,0.57,0c4.68,0,5.29-3.58,5.29-7.6
		V8.99c0-3.84-2.22-5.45-5.34-5.45h-0.51V2.08h11.24l24.32,29.82V9.23c0-5.13-3.58-5.68-5.12-5.68c0,0-0.72,0-1.02,0
		c0-0.29,0-1.17,0-1.47c0.42,0,14.02,0,14.44,0c0,0.29,0,1.17,0,1.47c-0.24,0-0.62,0-0.62,0c-2.53,0-5.23,0.59-5.23,7.59V42.3
		l-2.12,0.01L172.29,8.92l0.01,24.09c0,4.02,0.58,7.62,5.42,7.62"/>
	<path class="st2" d="M254.94,33.62l8.79-24.6c1.58-4.19,0.56-5.47-3.08-5.47h-0.74V2.08h11.39v1.46h-0.25
		c-1.24,0-2.69,0.37-3.77,3.12l-13.34,35.59h-2.54L236.93,6.99c-1.15-2.93-2.51-3.45-4.93-3.45c0,0-0.17,0-0.34,0
		c0-0.29,0-1.17,0-1.46c0.43,0,16.12,0,16.55,0c0,0.29,0,1.17,0,1.46c-0.3,0-1.08,0-1.08,0c-2.83,0-3.38,1.77-2.57,3.93"/>
	<path class="st2" d="M327.87,2.08c8.86,0,13.26,3.27,13.26,9.98c0,5.69-4.44,8.58-7.95,9.99l-0.25,0.11l9.81,14.95
		c1.57,2.42,2.85,3.36,5.56,3.5c0,0.27,0,1.2,0,1.5c-0.42,0-10.25,0-10.25,0l-11.91-18.79h-4.43v12.46c0,4.52,2.01,4.87,4.85,4.87
		c0,0,0.52,0,0.79,0c0,0.29,0,1.17,0,1.46c-0.43,0-16.97,0-17.4,0c0-0.29,0-1.17,0-1.46c0.27,0,0.79,0,0.79,0
		c1.95,0,4.21-0.88,4.21-3.36V8.18c0-4.64-2.74-4.64-4.21-4.64c0,0-0.52,0-0.79,0c0-0.29,0-1.17,0-1.47
		C310.38,2.08,327.87,2.08,327.87,2.08 M321.72,3.97l-0.01,17.71h3.43c6.23,0,8.98-2.77,8.98-9.27c0-5.28-3.4-8.69-8.53-8.69
		C324.4,3.71,322.76,3.81,321.72,3.97z"/>
	<path class="st2" d="M369.45,34.51c0-4.88-4.18-6.8-8.09-8.83c-4.56-2.38-9.83-4.84-9.83-12.22c0-7.16,5.44-11.77,13.22-11.77
		c3.18,0,6.79,0.64,8.37,0.96l0.55,7.79l-1.5,0.21c-0.69-4.1-2.82-7.24-7.43-7.24c-4.33,0-7.54,2.66-7.54,7.44
		c0,4.51,4.17,6.36,8.05,8.32c4.75,2.39,10.21,4.87,10.21,12.33c0,8.25-7.35,11.95-14.16,11.95c-2.7,0-6.46-0.55-9.48-2.26
		l-0.96-8.67l1.45-0.26c1.11,5.75,4.76,9.09,9.57,9.09C366.51,41.35,369.45,38.54,369.45,34.51"/>
	<path class="st2" d="M398,2.08c0,0.29,0,1.17,0,1.46c-0.23,0-0.56,0-0.56,0c-2.28,0-4.39,0.43-4.39,3.53V37.1
		c0,3.11,2.1,3.54,4.39,3.54c0,0,0.33,0,0.56,0c0,0.29,0,1.17,0,1.46c-0.43,0-16.29,0-16.72,0c0-0.29,0-1.17,0-1.46
		c0.23,0,0.56,0,0.56,0c2.28,0,4.39-0.43,4.39-3.54V7.08c0-3.11-2.11-3.53-4.39-3.53c0,0-0.34,0-0.56,0c0-0.29,0-1.17,0-1.46
		C381.71,2.08,397.57,2.08,398,2.08"/>
	<path class="st2" d="M229.34,2.08c0,0.29,0,1.17,0,1.46c-0.23,0-0.56,0-0.56,0c-2.28,0-4.39,0.43-4.39,3.53V37.1
		c0,3.11,2.11,3.54,4.39,3.54c0,0,0.33,0,0.56,0c0,0.29,0,1.17,0,1.46c-0.42,0-16.28,0-16.71,0c0-0.29,0-1.17,0-1.46
		c0.23,0,0.57,0,0.57,0c2.28,0,4.39-0.43,4.39-3.54V7.08c0-3.11-2.11-3.53-4.39-3.53c0,0-0.34,0-0.57,0c0-0.29,0-1.17,0-1.46
		C213.05,2.08,228.91,2.08,229.34,2.08"/>
	<path class="st2" d="M562.46,59.87l0.14,10.62c0,0-1.29,0.33-1.7,0.44c-0.38-4.64-1.43-8.43-8.86-8.43h-9.98v19.63h8.57
		c4.2,0,5.34-2.35,5.82-6.41c0.32,0,1.34,0,1.71,0c0,0.55,0,16.42,0,16.42l-1.7,0.03c-0.26-3.93-1.19-6.98-5.79-6.98h-8.6v17.24
		c0,5.01,4.32,5.01,8.89,5.01c8.2,0,12-0.51,14.3-8.81c0.33,0.08,1.68,0.37,1.68,0.37l-2.3,11.07c0,0-36.71,0-37.26,0
		c0-0.36,0-1.47,0-1.84c0.29,0,0.71,0,0.71,0c2.86,0,5.5-0.53,5.5-4.43V66.15c0-3.9-2.64-4.44-5.5-4.44c0,0-0.42,0-0.71,0
		c0-0.36,0-1.46,0-1.83C527.92,59.87,562.46,59.87,562.46,59.87"/>
	<path class="st2" d="M359.39,59.87c11.11,0,16.63,4.09,16.63,12.51c0,7.14-5.58,10.76-9.97,12.54l-0.32,0.13l12.31,18.75
		c1.97,3.04,3.58,4.21,6.97,4.4c0,0.33,0,1.5,0,1.88c-0.53,0-12.85,0-12.85,0L357.22,86.5h-5.54v15.63c0,5.67,2.51,6.1,6.06,6.1
		c0,0,0.66,0,1,0c0,0.37,0,1.47,0,1.84c-0.54,0-21.28,0-21.82,0c0-0.36,0-1.47,0-1.84c0.34,0,0.99,0,0.99,0
		c2.44,0,5.29-1.1,5.29-4.21v-36.5c0-5.82-3.44-5.82-5.29-5.82c0,0-0.65,0-0.99,0c0-0.37,0-1.46,0-1.83
		C337.46,59.87,359.39,59.87,359.39,59.87 M351.68,62.24l0,22.22h4.29c7.81,0,11.26-3.48,11.26-11.64c0-6.62-4.27-10.9-10.69-10.9
		C355.03,61.92,353.11,62.01,351.68,62.24z"/>
	<path class="st2" d="M409.04,59.86c0,0.37,0,1.47,0,1.84c-0.29,0-0.71,0-0.71,0c-2.86,0-5.5,0.54-5.5,4.43v37.66
		c0,3.9,2.64,4.43,5.5,4.43c0,0,0.42,0,0.71,0c0,0.37,0,1.47,0,1.84c-0.53,0-20.44,0-20.97,0c0-0.36,0-1.47,0-1.84
		c0.29,0,0.71,0,0.71,0c2.86,0,5.5-0.54,5.5-4.43V66.14c0-3.89-2.64-4.43-5.5-4.43c0,0-0.42,0-0.71,0c0-0.37,0-1.47,0-1.84
		C388.6,59.86,408.51,59.86,409.04,59.86"/>
	<path class="st2" d="M406.7,2.08h26.48c1.33,0,3.04-0.34,3.31-2.08l1.29,0l-1.02,10.44l-1.42,0c-0.09-2.41-0.44-5.91-4.31-5.91
		h-8.08v30.9c0,4.81,2.32,5.22,4.9,5.22c0,0,0.57,0,0.84,0c0,0.29,0,1.17,0,1.46c-0.43,0-17.8,0-18.23,0c0-0.29,0-1.17,0-1.46
		c0.28,0,0.85,0,0.85,0c3.04,0,4.89-0.25,4.89-5.1V4.52h-8.17c-4.16,0-4.56,1.83-5.36,5.87h-1.44l0.92-10.31c0,0,0.98,0,1.17,0
		C403.84,1.75,405.29,2.09,406.7,2.08"/>
	<path class="st2" d="M478.71,2.08v1.49c-2.31,0.13-3.69,1.7-4.74,3.17c0,0-10.16,15.66-10.16,15.66v12.79
		c0,5.08,1.85,5.45,4.89,5.45c0,0,0.57,0,0.85,0c0,0.29,0,1.17,0,1.46c-0.43,0-17.81,0-18.24,0c0-0.29,0-1.17,0-1.46
		c0.28,0,0.85,0,0.85,0c3.17,0,4.9-0.79,4.9-4.98V23.35L446.02,7.58c-1.69-2.43-2.95-4.04-5.63-4.04h-0.34V2.08h16.53v1.46h-0.51
		c-3.17,0-3.41,1.68-2.05,3.6l8.55,13.25l7.56-11.96c1.73-2.61,2.23-4.89-2.05-4.89h-0.66l0-1.46"/>
	<path class="st2" d="M490.84,22.38c0-11.87,9.02-21.17,20.54-21.17c12.56,0,21.32,8.13,21.32,19.78c0,12.74-8.85,21.98-21.04,21.98
		C499.6,42.97,490.84,34.31,490.84,22.38 M498.27,20.35c0,9.89,4.37,20.52,13.95,20.52c8.78,0,13.05-6.09,13.05-18.61
		c0-9.19-4.91-18.96-14.01-18.96C499.21,3.31,498.27,16.35,498.27,20.35z"/>
	<path class="st2" d="M537.27,42.1c0-0.3,0-1.17,0-1.46c0.23,0,0.57,0,0.57,0c2.28,0,4.38-0.43,4.38-3.53V7.08
		c0-3.11-2.11-3.54-4.38-3.54c0,0-0.34,0-0.57,0c0-0.29,0-1.16,0-1.46h27.96l0.1,8.47c-0.23,0.06-1.03,0.25-1.35,0.35
		c-0.31-3.44-1.1-6.73-5.88-6.73h-9.13v15.66h8.01c3.31,0,3.79-2.61,3.82-4.7c0.28,0,1.03,0,1.32,0v0.01v12.81
		c-0.29,0-1.04,0-1.32,0c-0.03-2.51-0.61-5.68-4.72-5.68h-7.11V37.1c0,3.53,2.98,3.53,5.62,3.53c0,0,0.29,0,0.51,0
		c0,0.29,0,1.16,0,1.46"/>
	<path class="st2" d="M121.85,84.93c0-7.46,3.03-14.79,8.24-19.46c4.84-4.34,11.18-6.77,18.35-6.77c6.42,0,11.77,1.16,17,3.61
		l0.53,11.62l-1.65,0.21c-1.89-6.74-5.04-12.91-15.68-12.91c-10.93,0-17.72,8.65-17.72,22.58c0,12.4,5.49,24.12,18.78,24.12
		c7.47,0,12.8-2.8,16.82-7.97l1.31,2.46c-4.53,5.86-11.53,8.98-19.49,8.98C132.17,111.4,121.85,101.85,121.85,84.93"/>
	<path class="st2" d="M230.1,69.58c0,0-1.67,31-1.67,31.01c-0.3,6.87,1.83,7.47,6.44,7.64h0.43v1.82h-16.92v-1.82h0.65
		c5.7-0.23,6.05-3.4,6.32-8.03l1.97-31.74c0.26-4.33-2.12-6.79-6.11-6.79c0,0-0.32,0-0.58,0c0-0.4,0-1.43,0-1.83
		c0.62,0,13.8,0,14.21,0c0.17,0.4,17.05,38.04,17.05,38.04s15.96-37.65,16.13-38.05c0.4,0,13.93,0,13.93,0l0,1.85h-0.27
		c-5.65,0-6.65,1.75-6.22,8.85l1.94,33.3c0.3,3.9,2.34,4.25,6.18,4.39c0,0.39,0,1.41,0,1.81c-0.62,0-20.21,0-20.83,0
		c0-0.4,0-1.43,0-1.81c0.06-0.01,0.14-0.01,0.14-0.01c3.39-0.21,5.84-0.35,5.84-3.75l-0.07-3.6c0-0.01-1.53-32.1-1.53-32.1
		s-17.19,41.26-17.36,41.66c-0.28,0-1.24,0-1.51,0C248.08,110.01,230.1,69.58,230.1,69.58"/>
	<path class="st2" d="M416.94,110.07v-1.84h0.71c2.86,0,5.5-0.53,5.5-4.44V66.14c0-3.9-2.64-4.43-5.5-4.43h-0.71v-1.84l22.44-0.02
		c8.34,0,15.33,2.1,20.21,6.64c4.81,4.48,7.35,10.82,7.35,18.35c0,7.03-2.8,13.85-7.68,18.69c-4.91,4.87-11.79,6.53-18.75,6.53
		 M431.68,62.26l0,39.42c0,5.32,2.25,6.18,7.64,6.18c12.68,0,18.46-10.92,18.46-21.63c0-16.64-6.87-24.21-20.99-24.21
		C435.54,62.02,432.89,62.13,431.68,62.26z"/>
	<path class="st2" d="M509.68,107.48V95.18c0-2.69-1.96-4.12-5.67-4.12h-0.59v-1.79h19.3v1.79h-0.58c-2.7,0-4.12,1.42-4.12,4.12
		l-0.01,13.7c-4.61,1.48-10.78,2.65-17.65,2.65c-16.57,0-27.28-10.74-27.28-27.36c0-17.68,14.12-25.73,27.42-25.73
		c5.95,0,12.07,1.18,15.95,2.48l0.8,11.98L515.56,73c-2.08-8.63-5.93-12.01-14.57-12.01c-11.66,0-18.73,8.6-18.73,22.44
		c0,12.71,5.97,25.31,19.3,25.31C504.62,108.81,507.8,108.34,509.68,107.48"/>
	<path class="st2" d="M305.46,84.07v17.67c0,4.91,1.56,6.31,6.66,6.31c6.11,0,10.73-5.03,10.73-11.89c0-7.71-4.69-12.09-12.56-12.09
		 M305.46,61.72v20.16h3.78c6.92,0,10.73-3.35,10.73-9.77c0-7.09-3.35-10.39-9.96-10.39H305.46z M315.74,82.73
		c6.32,0.46,9.68,1.85,12.51,4.75c2.19,2.24,3.34,5.07,3.34,8.38c0,7.88-7.22,14.19-16.61,14.19l-24.59,0v-1.82h0.99
		c2.43,0,5.29-1.16,5.29-4.28V67.53c0-5.81-3.44-5.81-5.29-5.81h-0.99v-1.84l22.29-0.01c10.46,0,16.23,3.79,16.23,10.98
		C328.9,78.8,321.9,81.74,315.74,82.73"/>
	<path class="st2" d="M190.12,59.86c0,0-15.93,43.33-15.93,43.33c-1.18,3.08-3.27,4.98-6.36,4.98h-0.17l-0.01,1.88h15.28l0-1.88
		h-0.66c-3.68,0-6.18-1.17-4.58-5.92l3.65-10.12h15.82l3.96,11.03c1.14,3.48-0.34,5.06-4.12,5.06h-0.44l0,1.85h19.44l0-1.85h-0.15
		c-2.59,0-4.36-1.36-5.58-4.8L193.9,59.87 M189.24,70.1l7.01,19.56h-14.04L189.24,70.1z"/>
	<path class="st2" d="M301.98,2.08l0.11,8.46c0,0-1.03,0.26-1.35,0.35c-0.3-3.7-1.14-6.72-7.06-6.72h-7.95v15.64h6.82
		c3.35,0,4.26-1.87,4.63-5.1c0.26,0,1.07,0,1.36,0c0,0.44,0,13.08,0,13.08l-1.36,0.02c-0.21-3.13-0.94-5.56-4.61-5.56h-6.85v13.74
		c0,4,3.44,4,7.08,4c6.53,0,9.56-0.41,11.39-7.03c0.26,0.07,1.34,0.3,1.34,0.3l-1.83,8.82c0,0-29.26,0-29.7,0c0-0.29,0-1.17,0-1.46
		c0.23,0,0.57,0,0.57,0c2.28,0,4.39-0.43,4.39-3.53V7.07c0-3.1-2.11-3.53-4.39-3.53c0,0-0.34,0-0.57,0c0-0.29,0-1.17,0-1.46
		C274.45,2.08,301.98,2.08,301.98,2.08"/>
</g>
<g id="Layer_2">
</g>
</svg>
