<?xml version="1.0" encoding="utf-8"?>
<!-- Generator: Adobe Illustrator 26.4.1, SVG Export Plug-In . SVG Version: 6.00 Build 0)  -->
<svg version="1.1" id="LOGO" xmlns="http://www.w3.org/2000/svg" xmlns:xlink="http://www.w3.org/1999/xlink" x="0px" y="0px"
	 viewBox="0 0 2670.3 317.7" style="enable-background:new 0 0 2670.3 317.7;" xml:space="preserve">
<style type="text/css">
	.st0{fill:#2E2D62;}
	.st1{fill:#FFFFFF;}
	.st2{fill:#00BED5;}
	.st3{fill:#008AAD;}
	.st4{fill:none;stroke:#FED100;stroke-width:0.5701;stroke-miterlimit:10;}
	.st5{fill:none;stroke:#171614;stroke-width:0.5701;stroke-miterlimit:10;}
	.st6{fill:#241F0C;}
	.st7{fill:#ED2939;}
	.st8{fill:#FED100;}
	.st9{fill:#1D1D1B;}
</style>
<g>
	<rect y="35.4" class="st0" width="282.3" height="282.3"/>
	<path class="st1" d="M251.2,66.5h-32.9L174,113.6V66.5h-63.9v62.6c0,13.4-9.9,21.2-23.1,21.2s-23.1-7.8-23.1-21.2V66.5H31v63
		c0,28.2,22.8,44.4,48.5,47.1H31v110.1h32.9v-40.8h14.4l30.4,40.8h142.5v-22.2h-38.6v-65.6h38.6v-29L204,121.6l47.2-48.2V66.5z
		 M141.1,142.9V194c-7-11.8-23.1-17.3-47.1-17.4C115.4,174.4,135.1,162.9,141.1,142.9z M63.9,198.8H94c12.4,0,17.4,4.8,17.4,12.3
		c0,7.5-5,12.5-17.4,12.5H63.9V198.8z M179.7,264.4h-38.6v15.4l-27.2-35.6c20.7-3.8,31.4-14.5,31.4-33.1c0-4.6-0.7-8.7-1.9-12.3
		h36.3V264.4z M218.3,176.5H174v-47.2L218.3,176.5z"/>
	<g>
		<polygon class="st2" points="339.5,35.4 304.9,0 282.3,0 282.3,35.4 282.3,317.7 477.3,317.7 477.3,176.5 		"/>
		<polygon class="st3" points="339.5,35.4 477.3,176.5 477.3,317.7 564.6,317.7 564.6,35.4 		"/>
	</g>
</g>
<g>
	<g>
		<path class="st4" d="M1556.1,191.3c-0.5,12.4-2.3,23.7-5.4,33.5c-3,9.5-7.3,18.1-12.8,25.3c-10.2,13.5-22.6,20.2-30.8,24.6
			c-0.7,0.4-5.6,2.9-28.9,14.5v-97.9H1556.1"/>
	</g>
	<path class="st4" d="M1418.5,191.3v98c-23.4-11.6-28.2-14.1-28.9-14.5c-8.2-4.5-20.6-11.2-30.8-24.6c-5.5-7.2-9.8-15.7-12.8-25.3
		c-3.1-9.9-4.9-21.1-5.4-33.5h77.9"/>
	<path class="st5" d="M1556.2,51.8h-78v79.8h78V51.8L1556.2,51.8z"/>
	<path class="st5" d="M1418.5,51.8h-78v79.8h78V51.8L1418.5,51.8z"/>
	<path class="st6" d="M1448.4,316.3l-2.4-1.3c-3.5-1.7-58.3-29-61.6-30.8c-17.8-9.7-54.7-29.7-54.7-100.1V40.9h237.4v143.2
		c0,70.4-37,90.5-54.7,100.1c-3.3,1.8-58.4,29.2-61.6,30.8L1448.4,316.3z"/>
	<path class="st1" d="M1472.5,137.3V46.1h-48.3v91.2h-89.4v46.8l0,0c0,0.5,0,1,0,1.5h89.4v112.8c12.9,6.4,24.1,12,24.1,12l0,0l0,0
		c0,0,11.3-5.6,24.1-12V185.6h89.4c0-0.5,0-1,0-1.5v-46.8H1472.5z"/>
	<g>
		<rect x="1334.8" y="46.1" class="st7" width="89.4" height="91.2"/>
		<rect x="1472.5" y="46.1" class="st7" width="89.4" height="91.2"/>
		<path class="st7" d="M1424.2,185.6h-89.4c0.5,65.4,34.1,84.4,52,94.1c1.8,1,20.9,10.5,37.4,18.7V185.6z"/>
		<path class="st7" d="M1472.5,185.6v112.8c16.4-8.2,35.5-17.7,37.4-18.7c18-9.8,51.5-28.7,52-94.1L1472.5,185.6L1472.5,185.6z"/>
	</g>
	<g>
		<path class="st6" d="M1503.2,162.2l1.8-2.2l-2.3-2.8l-2.3,2.8l1.8,2.2c0,1.1,0.1,10.8-5.6,14.2c0,0,1.9,0.4,4.5-0.1
			c0,0,0.4,2.5,1.6,5.4c1.2-2.9,1.6-5.4,1.6-5.4c2.6,0.5,4.5,0.1,4.5,0.1C1503.1,173,1503.2,163.3,1503.2,162.2z"/>
		<path class="st6" d="M1517.8,145.7l1.8-2.2l-2.3-2.8l-2.3,2.8l1.8,2.2c0,1.1,0.1,10.8-5.6,14.2c0,0,1.9,0.4,4.5-0.1
			c0,0,0.4,2.5,1.6,5.4c1.2-2.9,1.6-5.4,1.6-5.4c2.6,0.5,4.5,0.1,4.5,0.1C1517.7,156.5,1517.8,146.8,1517.8,145.7z"/>
		<path class="st6" d="M1532.4,162.2l1.8-2.2l-2.3-2.8l-2.3,2.8l1.8,2.2c0,1.1,0.1,10.8-5.6,14.2c0,0,1.9,0.4,4.5-0.1
			c0,0,0.4,2.5,1.6,5.4c1.2-2.9,1.6-5.4,1.6-5.4c2.6,0.5,4.5,0.1,4.5,0.1C1532.3,173,1532.3,163.3,1532.4,162.2z"/>
		<path class="st6" d="M1546.9,145.7l1.8-2.2l-2.3-2.8l-2.3,2.8l1.8,2.2c0,1.1,0.1,10.8-5.6,14.2c0,0,1.9,0.4,4.5-0.1
			c0,0,0.4,2.5,1.6,5.4c1.2-2.9,1.6-5.4,1.6-5.4c2.6,0.5,4.5,0.1,4.5,0.1C1546.8,156.5,1546.9,146.8,1546.9,145.7z"/>
		<path class="st6" d="M1488.7,145.7l1.8-2.2l-2.3-2.8l-2.3,2.8l1.8,2.2c0,1.1,0.1,10.8-5.6,14.2c0,0,1.9,0.4,4.5-0.1
			c0,0,0.4,2.5,1.6,5.4c1.2-2.9,1.6-5.4,1.6-5.4c2.6,0.5,4.5,0.1,4.5,0.1C1488.6,156.5,1488.6,146.8,1488.7,145.7z"/>
	</g>
	<g>
		<path class="st6" d="M1365.4,162.2l1.8-2.2l-2.3-2.8l-2.3,2.8l1.8,2.2c0,1.1,0.1,10.8-5.6,14.2c0,0,1.9,0.4,4.5-0.1
			c0,0,0.4,2.5,1.6,5.4c1.2-2.9,1.6-5.4,1.6-5.4c2.6,0.5,4.5,0.1,4.5,0.1C1365.3,173,1365.3,163.3,1365.4,162.2z"/>
		<path class="st6" d="M1379.9,145.7l1.8-2.2l-2.3-2.8l-2.3,2.8l1.8,2.2c0,1.1,0.1,10.8-5.6,14.2c0,0,1.9,0.4,4.5-0.1
			c0,0,0.4,2.5,1.6,5.4c1.2-2.9,1.6-5.4,1.6-5.4c2.6,0.5,4.5,0.1,4.5,0.1C1379.8,156.5,1379.9,146.8,1379.9,145.7z"/>
		<path class="st6" d="M1394.5,162.2l1.8-2.2l-2.3-2.8l-2.3,2.8l1.8,2.2c0,1.1,0.1,10.8-5.6,14.2c0,0,1.9,0.4,4.5-0.1
			c0,0,0.4,2.5,1.6,5.4c1.2-2.9,1.6-5.4,1.6-5.4c2.6,0.5,4.5,0.1,4.5,0.1C1394.4,173,1394.5,163.3,1394.5,162.2z"/>
		<path class="st6" d="M1409,145.7l1.8-2.2l-2.3-2.8l-2.3,2.8l1.8,2.2c0,1.1,0.1,10.8-5.6,14.2c0,0,1.9,0.4,4.5-0.1
			c0,0,0.4,2.5,1.6,5.4c1.2-2.9,1.6-5.4,1.6-5.4c2.6,0.5,4.5,0.1,4.5,0.1C1408.9,156.5,1409,146.8,1409,145.7z"/>
		<path class="st6" d="M1350.8,145.7l1.8-2.2l-2.3-2.8l-2.3,2.8l1.8,2.2c0,1.1,0.1,10.8-5.6,14.2c0,0,1.9,0.4,4.5-0.1
			c0,0,0.4,2.5,1.6,5.4c1.2-2.9,1.6-5.4,1.6-5.4c2.6,0.5,4.5,0.1,4.5,0.1C1350.7,156.5,1350.8,146.8,1350.8,145.7z"/>
	</g>
	<g>
		<path class="st6" d="M1449,199.2l1.8-2.2l-2.3-2.8l-2.3,2.8l1.8,2.2c0,1.1,0.1,10.8-5.6,14.2c0,0,1.9,0.4,4.5-0.1
			c0,0,0.4,2.5,1.6,5.4c1.2-2.9,1.6-5.4,1.6-5.4c2.6,0.5,4.5,0.1,4.5,0.1C1448.9,210,1448.9,200.3,1449,199.2z"/>
		<path class="st6" d="M1449,248.7l1.8-2.2l-2.3-2.8l-2.3,2.8l1.8,2.2c0,1.1,0.1,10.8-5.6,14.2c0,0,1.9,0.4,4.5-0.1
			c0,0,0.4,2.5,1.6,5.4c1.2-2.9,1.6-5.4,1.6-5.4c2.6,0.5,4.5,0.1,4.5,0.1C1448.9,259.5,1448.9,249.8,1449,248.7z"/>
		<g>
			<path class="st6" d="M1462.5,224l1.8-2.2l-2.3-2.8l-2.3,2.8l1.8,2.2c0,1.1,0.1,10.8-5.6,14.2c0,0,1.9,0.4,4.5-0.1
				c0,0,0.4,2.5,1.6,5.4c1.2-2.9,1.6-5.4,1.6-5.4c2.6,0.5,4.5,0.1,4.5,0.1C1462.4,234.7,1462.4,225.1,1462.5,224z"/>
			<path class="st6" d="M1435.3,224l1.8-2.2l-2.3-2.8l-2.3,2.8l1.8,2.2c0,1.1,0.1,10.8-5.6,14.2c0,0,1.9,0.4,4.5-0.1
				c0,0,0.4,2.5,1.6,5.4c1.2-2.9,1.6-5.4,1.6-5.4c2.6,0.5,4.5,0.1,4.5,0.1C1435.2,234.7,1435.3,225.1,1435.3,224z"/>
		</g>
	</g>
	<g>
		<g>
			<path class="st6" d="M1462.5,273.4l1.8-2.2l-2.3-2.8l-2.3,2.8l1.8,2.2c0,1.1,0.1,10.8-5.6,14.2c0,0,1.9,0.4,4.5-0.1
				c0,0,0.4,2.5,1.6,5.4c1.2-2.9,1.6-5.4,1.6-5.4c2.6,0.5,4.5,0.1,4.5,0.1C1462.4,284.2,1462.4,274.5,1462.5,273.4z"/>
			<path class="st6" d="M1435.3,273.4l1.8-2.2l-2.3-2.8l-2.3,2.8l1.8,2.2c0,1.1,0.1,10.8-5.6,14.2c0,0,1.9,0.4,4.5-0.1
				c0,0,0.4,2.5,1.6,5.4c1.2-2.9,1.6-5.4,1.6-5.4c2.6,0.5,4.5,0.1,4.5,0.1C1435.2,284.2,1435.3,274.5,1435.3,273.4z"/>
		</g>
	</g>
	<g>
		<path class="st6" d="M1449,86.6l1.8-2.2l-2.3-2.8l-2.3,2.8l1.8,2.2c0,1.1,0.1,10.8-5.6,14.2c0,0,1.9,0.4,4.5-0.1
			c0,0,0.4,2.5,1.6,5.4c1.2-2.9,1.6-5.4,1.6-5.4c2.6,0.5,4.5,0.1,4.5,0.1C1448.9,97.4,1448.9,87.7,1449,86.6z"/>
		<g>
			<path class="st6" d="M1462.5,61.9l1.8-2.2l-2.3-2.8l-2.3,2.8l1.8,2.2c0,1.1,0.1,10.8-5.6,14.2c0,0,1.9,0.4,4.5-0.1
				c0,0,0.4,2.5,1.6,5.4c1.2-2.9,1.6-5.4,1.6-5.4c2.6,0.5,4.5,0.1,4.5,0.1C1462.4,72.7,1462.4,63,1462.5,61.9z"/>
			<path class="st6" d="M1435.3,61.9l1.8-2.2l-2.3-2.8l-2.3,2.8l1.8,2.2c0,1.1,0.1,10.8-5.6,14.2c0,0,1.9,0.4,4.5-0.1
				c0,0,0.4,2.5,1.6,5.4c1.2-2.9,1.6-5.4,1.6-5.4c2.6,0.5,4.5,0.1,4.5,0.1C1435.2,72.7,1435.3,63,1435.3,61.9z"/>
		</g>
		<g>
			<path class="st6" d="M1462.5,111.4l1.8-2.2l-2.3-2.8l-2.3,2.8l1.8,2.2c0,1.1,0.1,10.8-5.6,14.2c0,0,1.9,0.4,4.5-0.1
				c0,0,0.4,2.5,1.6,5.4c1.2-2.9,1.6-5.4,1.6-5.4c2.6,0.5,4.5,0.1,4.5,0.1C1462.4,122.1,1462.4,112.5,1462.5,111.4z"/>
			<path class="st6" d="M1435.3,111.4l1.8-2.2l-2.3-2.8l-2.3,2.8l1.8,2.2c0,1.1,0.1,10.8-5.6,14.2c0,0,1.9,0.4,4.5-0.1
				c0,0,0.4,2.5,1.6,5.4c1.2-2.9,1.6-5.4,1.6-5.4c2.6,0.5,4.5,0.1,4.5,0.1C1435.2,122.1,1435.3,112.5,1435.3,111.4z"/>
		</g>
	</g>
	<g>
		<path class="st6" d="M1404.9,91.1l0.3,1.1c0.3,1,0.5,1.8,0.6,2.4c1,4.3,1.8,5.5,3.9,5.5c1.2,0,2.2-0.7,2.5-1.7l0.5-1.5
			c0.1-0.3,0.4-0.6,0.7-0.6c0.8,0,1.2,0.9,1.2,2.8c0,0.5,0.2,1.8,0.5,3.7c0.2,1.1,0.3,2.2,0.3,3.3c0,1-0.1,1.4-0.4,2.4
			c0.3,1.5,0.5,3.5,0.5,4.6c0,1.9-0.4,3.6-0.9,4.5c0.3,1.3,0.4,1.8,0.4,2.9c0,0.8-0.1,1.7-0.2,2.5c-0.3,1.8-0.4,2.3-0.4,2.6
			s0.1,0.7,0.2,1c0.1,0.4,0.2,0.7,0.2,0.9s-0.1,0.4-0.2,0.4l-1.5-0.6l-1.7-0.9c-0.5-0.3-0.9-0.6-1.7-1.4c-1.5,1.3-1.9,1.5-5.8,2.6
			c-0.8,0.2-1.3,0.4-1.7,0.7c-0.5,0.3-0.8,0.5-1,0.5c-0.7,0-1-1-1-3.2c0-1.6,0.2-3.1,0.5-4.2c-1.1-0.4-2.1-0.7-2.7-0.7
			c-0.1,0-0.5,0.1-1.2,0.1h-0.3c-0.2,0-0.4-0.3-0.4-0.7c0-0.3,0.2-1,0.5-1.6l0.8-1.8c0.3-0.7,0.9-1.4,1.8-2.2c0.7-0.6,1.4-1,2-1.1
			l2.7-0.5c1.6-0.3,2.6-1.2,2.6-2.3s-0.7-1.8-2.4-2.4l-3.3-1.1c-0.8-0.3-1.8-0.8-3-1.4c-1.8-1.1-2.1-1.2-2.5-1.2c-0.7,0-1,0.5-1,1.3
			c0,1.3,0.9,2.3,2.1,2.3c0.3,0,0.5-0.1,0.8-0.2c0.4-0.1,0.6-0.2,0.8-0.2c0.3,0,0.5,0.2,0.5,0.6v0.3l-0.2,1.3
			c-0.1,1.1-0.8,2.4-2.4,4.6l-0.7,0.9c-0.6,2.4-2.1,4.7-4.1,6c-0.5,0.3-0.8,0.5-0.8,0.6c-0.1,0.1-0.3,0.4-0.6,1.1
			c-0.2,0.3-0.7,0.9-1.5,1.8c-0.6,0.7-1.3,1.3-1.9,1.7c-0.8,0.6-1.4,1.1-1.5,1.4l-0.8,1.3c-0.1,0.2-0.4,0.4-0.6,0.4
			c-0.7,0-1.3-0.7-1.7-1.9c-0.3-0.9-0.5-1.1-1.1-1.1c-0.3,0-0.7,0.1-1.3,0.2l-1.1,0.1h-2.7c-1.4,0-3.3,0.4-4.2,0.8
			c-0.4,0.2-0.6,0.2-0.8,0.2c-0.2,0-0.3-0.1-0.5-0.5c-0.1-0.3-0.2-0.4-0.2-0.6c0-1.4,1-4,2.3-6.1c0.8-1.3,1.1-1.6,2-2.4
			c-0.3-1.3-1.1-2.3-2.1-2.6l-1.3-0.4c-0.2-0.1-0.3-0.2-0.3-0.4c0-0.4,0.6-0.9,1.7-1.5c1.5-0.8,3-1.2,4.2-1.2c1.3,0,2.5,0.5,3.9,1.6
			c2.1,1.6,2.6,1.9,3.6,1.9c1.6,0,3.2-1.5,3.2-3c0-1-0.6-2.1-2-4c-2.1-2.7-2.7-4.2-2.7-6.2c0-1.2,0.4-2.8,0.8-3.5l0.8-1.1
			c0.2-0.3,0.3-0.5,0.3-0.7c0-0.5-0.6-0.9-1.4-0.9c-1.2,0-3.5,0.9-5.3,2c-0.9,0.6-1.5,1.2-1.5,1.6c0,0.2,0.1,0.5,0.3,0.6l0.8,0.5
			c0.1,0.1,0.2,0.2,0.2,0.3s-0.1,0.3-0.3,0.6l-1.5,2c-0.8,1-2,2.3-3.2,3.3c-0.4,0.4-0.7,0.6-0.8,0.8c0,0-0.2,0.4-0.6,1.1
			c-0.5,1-2,2.5-3.3,3.4c-0.6,0.4-0.9,0.7-1.1,0.8c-0.1,0.1-0.3,0.5-0.6,1.1c-0.2,0.4-0.5,0.9-1,1.6c-0.7,1.1-1.4,1.9-1.8,2.4
			l-2.1,2.1c-0.7,0.6-1.2,1.9-2.1,4.7c-0.5,1.7-1,2.7-1.3,2.7c-0.1,0-0.3-0.2-0.6-0.5c-1.5-1.7-2.8-2.7-3.5-2.7
			c-0.2,0-0.4,0.1-0.8,0.4c-0.6,0.3-1.2,0.6-2,0.8l-2.8,0.5c-2.1,0.4-3,0.9-4.2,2.3c-0.3,0.3-0.5,0.5-0.7,0.5s-0.4-0.4-0.4-0.9
			l0.1-0.7l0.4-2c0.4-2.2,0.9-3.8,1.5-4.9l1.3-2.4c0.3-0.5,0.4-0.9,0.4-1.2c0-1.7-1.8-3.3-4-3.5c-0.6,0-0.8-0.2-0.8-0.5
			c0-0.4,0.6-1.1,1.5-1.8c1.5-1.2,3.5-2,4.8-2c0.8,0,2,0.3,3.4,0.9l1.7,0.7c0.6,0.3,1.2,0.4,1.7,0.4c1.8,0,3.5-1.6,5.6-5.2
			c1-1.6,1.4-2.8,1.4-3.9c0-1.9-0.9-3.1-2.4-3.1c-1.1,0-2.4,0.5-3.3,1.4c-0.8,0.8-1.2,1.6-1.2,2.3v0.8v0.2c0,0.7-0.2,1.1-0.7,1.1
			c-0.7,0-1.8-1-4.7-4.6c-2.2-2.7-2.7-3.8-2.8-6.5c-2.6-3.3-3.2-4.7-3.2-7l0.1-1.6c-1.8-2.1-2.3-3.3-2.3-5.3c0-0.7,0.1-1.1,0.5-2
			c-0.9-1.3-1.2-1.9-1.4-3l-0.4-1.6c-0.3-1.1-0.7-2-1.2-2.8c-0.7-1-0.8-1.1-0.8-1.5c0-0.9,0.6-1.2,3.3-1.9c-0.1-0.7-0.2-1.3-0.2-1.7
			c0-0.4,0.1-0.9,0.2-1.8l0.5-2.8c0.2-1.1,0.3-1.9,0.3-2.4s-0.1-0.9-0.6-2.4c-0.3-0.9-0.5-1.5-0.7-1.7c-0.3-0.4-0.5-0.9-0.5-1
			c0-0.3,0.2-0.4,0.5-0.4c0.8,0,2.7,1.2,4.8,2.9c4.3,3.6,5.2,5,5.8,9.4c0,0.3,0.1,0.8,0.2,1.5c2.1,1.5,3.2,3.4,3.2,5.4
			c0,1.6-0.6,3.4-1.5,4.9l-1.5,2.4c-0.4,0.7-0.7,1.6-0.7,2.5c0,1.4,0.4,2.7,1.4,4.5c1.2,2,2.2,2.9,3.4,2.9c2,0,3.7-3.5,3.7-7.4v-0.7
			v-1.4c0-0.8,0-1.5,0.2-2.5c0.1-1.2,0.2-1.9,0.2-2.2l0.1-1.8v-1.2c0-0.4-0.2-0.9-0.8-1.5l-1.7-1.8c-2.4-2.6-3.7-5.1-3.7-7
			c0-2.3,1.7-4,3.9-4c0.4,0,0.8,0.1,1.6,0.3v-0.5c0-3.3,0.7-5.8,1.6-5.8l0.4,0.1l1.4,1.2l1.7,1.1l0.5,0.5c0-0.9,0-1,1-2.1
			c0.2-0.3,0.6-0.7,1.1-1.4c0.4-0.6,0.6-0.9,0.8-1.1c0.1-0.2,0.2-0.4,0.4-0.7c0.2-0.4,0.4-0.6,0.6-0.6s0.4,0.3,0.7,1.1
			c0.2,0.5,0.3,0.7,1.6,1.8c0.5,0.4,0.8,0.7,0.9,1c0.1,0.2,0.3,0.7,0.6,1.5c0,0.1,0.1,0.3,0.2,0.6c0.6-0.7,0.8-1,1.5-1.4l1.1-0.7
			c0.4-0.3,0.7-0.4,0.8-0.4c0.1,0,0.2,0.2,0.4,0.5c0.1,0.3,0.3,0.6,0.6,1.1c0.8,1.4,1.1,2.1,1.1,2.7v0.7v0.9
			c2.5,0.8,3.4,2.1,3.4,4.7c0,1.9-1,4.1-3,6.5c-1.3,1.6-1.5,1.9-1.5,2.9c0,5.6,3.9,8.9,10.8,9l5.1,0.1c3.3,0.1,5.2,0.4,8.3,1.4
			c3.6,1.2,4.7,1.4,5.7,1.4c0.4,0,0.7-0.1,1-0.3s0.5-0.4,0.5-0.7c0-1.1-1.9-1.9-8-3.6c-12.5-3.5-17.8-8.6-17.8-16.9
			c0-6.4,5.3-11.4,12.2-11.4c2.2,0,5.6,0.6,7.6,1.3l3.1,1.1c0.6,0.2,1.1,0.3,1.6,0.3c1.1,0,1.6-0.9,1.6-2.7c0-1,0.2-1.3,0.9-1.3
			c0.9,0,2.2,1.1,3.5,2.8c1.2,1.7,2.1,3.7,2.1,5c0,1.7-0.8,2.9-2.7,4c-1.7,2.6-3.8,3.8-6.6,3.8c-2.2,0-5.3-1.2-10.4-4.2
			c-1.8-1-2.7-1.4-3.7-1.4c-1.3,0-2.2,0.8-2.2,2c0,1.1,0.8,1.8,3.1,2.6c3.3,1.1,4.1,1.6,5.4,3c3.9,0.7,5.5,1.3,8,3.2
			c6.7,2.1,10.8,6.6,10.8,11.8c0,5.1-3.4,8.7-8.2,8.7C1407.4,91.6,1406.7,91.5,1404.9,91.1"/>
		<path class="st8" d="M1412.4,124.3c-0.2-0.9-0.3-1.4-0.3-1.8l0.1-0.6l0.2-1.2l0.1-1c0-1.1-0.2-1.8-0.5-2.3l-0.9-1.2
			c-0.3-0.4-0.6-0.9-0.8-1.4c-0.1-0.3-0.2-0.5-0.2-0.6c0-0.3,0.2-0.6,0.5-0.6c0.2,0,0.3,0,1,0.4c0.3,0.2,0.6,0.3,0.7,0.3
			c0.5,0,0.7-0.7,0.7-2c0-1.5-0.1-2.3-0.5-2.6l-1.1-1.3l-1-0.8c-0.2-0.2-0.4-0.5-0.4-0.7c0-0.3,0.3-0.6,0.6-0.6
			c0.3,0,1.1,0.2,1.7,0.4l0.3,0.1c0.3,0,0.4-0.2,0.4-0.6v-0.3l-0.2-1.6l-0.5-1.7c-0.1-0.5-0.2-0.6-0.6-0.6h-0.2l-1.9,0.4h-0.3
			c-2.5,0-5.1-2.1-5.9-4.7l-1.5-4.9c-0.5-1.5-1.6-3-3.6-4.6c-0.6-0.5-1.1-0.8-1.5-0.8l-1.4-0.2c-0.2,0-0.4-0.2-0.4-0.4
			c0-0.3,0.3-0.5,0.9-0.5l2.5,0.2c0.9,0.1,2.3,0.4,4.1,1.1c2.3,0.8,3.8,1.1,5.1,1.1c3.8,0,6.1-2.1,6.1-5.5c0-2.3-1.2-5-3.1-6.7
			c-1.1-1-2.1-1.7-2.5-1.7c-0.2,0-0.4,0.2-0.4,0.4l0.1,1v0.1c0,0.4-0.2,0.7-0.5,0.7c-0.4,0-0.8-0.5-1.3-1.5c-1.4-3-3.7-4.8-6.1-4.8
			c-0.4,0-0.7,0.2-0.7,0.4s0.1,0.5,0.4,1.1l0.6,1.4c0.2,0.4,0.2,0.6,0.2,0.7c0,0.1-0.1,0.2-0.3,0.2c-0.4,0-0.9-0.3-1.3-0.7l-1.1-1.2
			l-1-1.5c-0.8-1.2-1.4-1.8-3.1-2.6c-0.9-0.5-1.5-0.8-1.8-1s-0.7-0.3-0.9-0.3c-0.3,0-0.4,0.1-0.4,0.4c0,0.2,0.1,0.5,0.3,0.8
			c0.6,0.9,0.8,1.3,0.8,1.5s-0.2,0.4-0.4,0.4c-0.6,0-1.8-1.2-2.9-2.8c-0.9-1.3-1.4-2.8-1.4-4.3c0-3.3,2.4-5.7,5.6-5.7
			c1.7,0,3.8,0.7,5.7,1.9l3.6,2.2c1.2,0.8,3.1,1.4,4.1,1.4c0.5,0,1.5-0.2,2.2-0.4c0.3-0.1,0.6-0.2,0.9-0.4c0.2-0.1,0.4-0.3,0.4-0.4
			c0-0.2-0.1-0.3-0.2-0.3l-0.5-0.2L1407,61c-0.4-0.1-1.1-0.3-2-0.8c-2-0.9-3.3-1.5-3.8-1.9c-1.2-0.8-2.1-1.3-2.5-1.4
			c-0.6-0.2-1-0.5-1-0.7s0.1-0.3,0.3-0.3c0.2,0,0.5,0.1,0.8,0.3c1.1,0.7,2.1,1.1,2.8,1.1l3.3,1.1c1.6,0.6,4,1.1,5,1.1
			c1.4,0,2.5-1.1,2.5-2.5c0-0.9-0.5-2.2-1.3-3.3c-0.2-0.2-0.4-0.4-0.5-0.4c-0.3,0-0.5,0.2-0.5,0.6l0.1,0.6l0.1,0.9
			c0,1-0.7,1.8-1.5,1.8c-0.3,0-0.7-0.1-1.2-0.2l-4.9-1.6c-4.1-1.3-6-1.7-8.1-1.7c-5.9,0-10.4,4.1-10.4,9.4c0,6,4.2,9.9,14.7,13.5
			c10.3,3.5,11.7,4.4,11.7,7.1c0,1.5-1.5,2.9-3.3,2.9c-0.7,0-1.3-0.1-1.8-0.2c-0.3-0.1-2.1-0.5-5.2-1.2s-5.9-1.1-9.4-1.1
			c-7.4,0-11.6,1.3-15.1,4.8c-0.9,0.9-1.2,1-2.2,1h-0.5l-1.1-0.1h-0.1c-0.9,0-1.5,0.4-2.1,1.4c-0.8,1.3-1.2,2-1.3,2
			c-0.2,0.3-0.5,0.5-0.9,0.5c-0.7,0-1.1-0.5-1.9-2.3c-0.4-0.9-0.9-1.7-1.6-2.3l-1.5-1.4c-0.2-0.2-0.4-0.4-0.4-0.6
			c0-0.2,0.1-0.4,0.3-0.7c0.7-1.1,1-1.5,1.1-2c0.2-1,0.2-1.1,0.6-1.1c0.5,0,0.6,0.5,0.6,2.2c0,0.5,0.2,1.2,0.6,2l0.8,1.8
			c0.1,0.2,0.4,0.4,0.7,0.4c0.8,0,1.8-1.8,2-3.8c0.2-1.6,0.4-2.1,0.7-2.1c0.1,0,0.3,0.1,0.3,0.2c0.1,0.1,0.3,0.6,0.7,1.4
			c0.2,0.4,0.5,0.8,1,1.1c0.4,0.3,0.7,0.5,0.9,0.5h0.1c0.6,0,0.8-0.4,1-1.8l0.1-0.8l-0.2-1.1l-0.1-0.7c0-0.5,0.2-0.8,0.4-0.8
			c0.2,0,0.4,0.1,0.6,0.3l0.8,0.8c0.5,0.5,1,0.8,1.5,0.8c0.6,0,1-0.3,1-0.7s-0.1-0.7-0.7-1.8l-0.5-1c-0.6-1.1-1.1-1.6-1.7-1.6
			l-0.8,0.1l-0.9,0.4c-0.3,0.1-0.5,0.2-0.6,0.2s-0.2-0.1-0.2-0.3c0-0.7,0.4-1.8,1.3-3.1c0.6-1,1-3,1.2-6c0.3-4,0.8-6.5,1.3-6.5
			c0.4,0,0.5,0.3,0.5,1.2v1v0.7c0,0.7,0.2,1.3,0.3,1.3c0.6,0,1.4-1,2-2.5c0.3-0.7,0.4-1.2,0.4-1.5l-0.1-0.4l-1.5-2.8l-1.5-0.5
			c-0.3-0.1-0.5-0.2-0.5-0.3v-1v-0.8l-0.2-0.9l-0.3-0.8l-0.4-0.8c-1.7,0.9-2.4,1.5-3,2.3s-0.9,1.1-1.2,1.1c-0.2,0-0.4-0.2-0.4-0.4
			c0-0.2,0.1-0.6,0.2-1.2v-0.4c0-1.6-1-3.2-2.6-4.3l-0.5,0.6l-0.5,0.8l-0.9,1.1c-0.3,0.3-0.5,0.9-0.8,1.5c-0.1,0.3-0.2,0.6-0.2,0.9
			v0.1v0.3c0,0.6-0.1,0.8-0.4,0.8l-0.2-0.1l-0.5-0.8l-0.8-0.9l-1.3-0.8l-0.7-0.5c-0.1,0.3-0.2,0.5-0.3,0.7c-0.2,0.5-0.4,0.9-0.4,1.2
			l-0.1,1.2l-0.1,1.3V60c0,0.7-0.2,0.9-0.6,0.9c-0.1,0-0.5-0.2-0.9-0.4c-0.3-0.2-0.7-0.3-1.1-0.3c-1.2,0-1.9,0.8-1.9,2.1
			c0,1.5,0.4,3,1.2,4l1,1.3c0.3,0.3,0.8,0.6,0.8,0.5l0.2-1.6l-0.2-1.3v-0.6c0-0.5,0.2-0.8,0.5-0.8c0.4,0,0.7,0.5,1,1.7l0.6,2.8
			l0.6,3.6c0.2,1,0.5,2,0.9,3c0.6,1.4,1,2.3,1.3,2.7c0.8,1.1,0.9,1.2,0.9,1.5c0,0.2-0.2,0.4-0.3,0.4c-0.2,0-0.4-0.1-0.7-0.2
			c-0.3-0.1-0.6-0.2-0.9-0.3l-0.6-0.1c-1.2,0-1.5,1-1.5,6.1c0,3.1,0.7,7.3,1.5,9.3l1.6,4c0.3,0.6,0.4,1.3,0.4,1.9
			c0,5.5-7.3,14.2-15.4,18.2c-3,1.5-4,2.9-4.2,6.2l-0.1,1c1.2-0.6,1.7-0.8,2.6-1.1c2.3-0.6,2.7-0.9,3-2l0.3-1c0.1-0.4,0.3-0.5,2-1.4
			c0.6-0.3,1-0.7,1.2-1c0.4-0.6,0.7-1,0.9-1c0.2,0,0.3,0.1,0.3,0.2l-0.1,0.3l-0.8,2.2l-0.1,0.5c0,1.6,0.9,2.9,2.5,3.7
			c0.3-1.8,0.5-2.4,1-3.2l1.4-2.1c0.5-0.8,0.7-1.7,0.7-3.2c0-0.8-0.1-1.7-0.2-2.4l-0.1-0.6c0-0.4,0.2-0.6,0.5-0.6s0.5,0.1,0.5,0.2
			l0.3,1.4c0.1,0.3,0.4,0.5,0.7,0.5c0.7,0,1.7-0.9,2.7-2.7c0.4-0.6,0.6-1.3,0.6-2l-0.1-1l-0.2-1.1V108c0-0.5,0.3-0.8,0.7-0.8
			c0.2,0,0.3,0.1,0.3,0.1l0.5,1.8c0.2,0.6,0.6,1,1,1c0.5,0,1.4-0.9,1.9-1.9c0.5-0.9,0.7-1.9,0.7-3.1c0-1.6,0.2-2.1,0.8-2.1
			c0.2,0,0.3,0.1,0.4,0.2l0.3,1c0.1,0.4,0.3,0.6,0.5,0.6c0.3,0,1.2-0.9,1.7-1.9c0.2-0.3,0.2-0.5,0.2-0.7c0-0.3-0.2-0.7-0.7-1
			c-0.8-0.7-0.8-0.8-0.8-1.7c0-1,0.2-1.5,0.8-2.6c0.4-0.6,0.7-1.3,1-1.8c1-1.9,1.3-2.4,1.6-2.4c0.3,0,0.6,0.3,0.6,0.7
			c0,0.2-0.1,0.4-0.2,0.6c-0.2,0.4-0.3,0.7-0.3,0.9c0,0.3,0.3,0.5,0.6,0.5c0.3,0,0.8-0.2,1.3-0.5c0.2-0.1,0.9-0.4,2.1-0.8l2.5-0.9
			c0.4-0.2,0.9-0.2,1.5-0.2c0.5,0,0.9,0.1,1.4,0.2c0.9,0.2,1.5,0.3,1.7,0.3c0.7,0,1.3-0.6,1.3-1.3c0-0.5-0.5-1.5-1.2-2.3
			c-0.3-0.3-0.4-0.5-0.4-0.7l0.1-0.3c0.1-0.2,0.3-0.3,0.4-0.3c0.5,0,1.7,1.3,2.8,3c6.5,10.3,8.9,12.8,13.3,14.1
			c4.5,1.4,5.6,2.4,5.6,5c0,1.4-0.7,3.1-2.4,5.4c-3.3,4.6-4.1,6.5-4.1,9.5v0.6c0.4-0.2,0.7-0.3,0.8-0.4c0.6-0.3,1-0.5,1.2-0.5
			l1.9-0.4c0.6-0.1,1.1-0.8,1.1-1.5v-0.2l-0.2-1.7v-0.2c0-0.6,0.3-1.3,0.7-1.6c0.1-0.1,0.3-0.2,0.4-0.2c0.2,0,0.5,0.2,0.6,0.5
			l1.2,2.6C1410.3,123.1,1410.8,123.6,1412.4,124.3"/>
		<path class="st8" d="M1351.3,69.4c-0.6,0-0.8,0.5-0.9,1.5l-0.1,1.4c-0.2,1.3-0.2,1.5-0.2,1.8c0,1.1,0.3,1.9,0.8,1.9s1.2-0.9,1.6-2
			c0.2-0.6,0.3-1.2,0.3-1.8c0-0.5-0.1-1.1-0.3-1.7C1352.2,69.8,1351.8,69.4,1351.3,69.4"/>
		<path class="st8" d="M1345,58.3l1.1,1.1c1.7,1.7,2.6,4.6,2.6,8.7c0,0.9,0,1.5-0.2,3.9c-0.1,1.3-0.2,2.3-0.2,3.1
			c0,9.4,3.1,16.5,7.1,16.5c1.3,0,2.1-0.6,3.3-2.4c0.2-0.3,0.5-0.5,0.7-0.5s0.4,0.2,0.4,0.6l0.2,1.7l0.2,1.4l0.1,1.6l0.2,1.4v0.2
			c0,0.4-0.2,0.7-0.5,0.7l-1.4,0.2c-0.7,0.1-1.4,0.4-2.1,0.8c-1.1,0.7-1.8,1.2-2,1.5l-0.8,1.7c-0.1,0.2-0.3,0.4-0.5,0.4
			c-0.4,0-1.1-0.8-2-2.1c-0.7-1.2-1.1-2.1-1.1-2.5c0-0.2,0.2-0.3,0.7-0.3h0.1l1,0.1l0.6-0.1l0.7-0.1c0.3,0,0.5-0.3,0.5-0.5
			s-0.1-0.4-0.3-0.5l-3.4-1.4c-1.1-0.4-2-1.3-2.6-2.5c-0.9-1.8-1.4-2.9-1.4-3.4s0.2-0.8,0.6-0.8c0.1,0,0.3,0.1,0.5,0.2
			c0.3,0.2,0.8,0.3,1,0.3c0.3,0,0.6-0.2,0.6-0.5c0-0.2-0.3-0.6-0.6-0.8c-2.8-2.1-4.5-4.4-4.5-6.5c0-0.6,0.1-0.8,0.4-0.8l0.6,0.1
			l1,0.1l0,0c0.4,0,0.7-0.2,0.7-0.6c0-0.2-0.3-0.5-0.6-0.7c-0.7-0.4-1.1-0.6-1.2-0.7c-0.4-0.3-0.8-0.6-1.1-1.1
			c-0.1-0.2-0.6-1-1.3-2.4l-1.1-2c-0.4-0.8-0.6-1.2-0.7-1.3s-0.2-0.3-0.5-0.6c1-0.5,1.5-0.6,2.4-0.6c1,0,1.7,0.7,2.4,2.5
			c0.5,1.2,1,1.9,1.2,1.9c0.1,0,0.2-0.3,0.2-0.9c0-0.7-0.1-1.5-0.3-2.3c-0.2-0.7-0.3-1.3-0.2-1.7l-0.1-1.1l-0.9-0.5
			c-0.2-0.1-0.4-0.4-0.7-0.8c-0.4-0.7-0.6-1.2-0.6-1.7c0-0.3,0.1-0.8,0.2-1.4c0.8-2.9,1-4,1-5v-0.7L1345,58.3z"/>
		<path class="st8" d="M1354.1,113c-1.1-0.2-1.6-0.3-2.2-0.5c-0.2-0.1-0.7-0.3-1.4-0.6c-1.2-0.5-2.1-0.8-2.9-0.8
			c-1.1,0-2.1,0.4-3.2,1.3l0.7,0.5l1.5,1.1l1.4,1.1c0.4,0.3,0.8,0.5,1.2,0.5C1350.8,115.5,1352.1,114.8,1354.1,113"/>
		<path class="st8" d="M1383.3,126.7c0.4-0.9,0.6-1.2,1.5-2c2.1-1.8,3.1-3.2,3.1-4.2v-0.8v-0.9c0-1,0.2-1.3,0.7-1.3
			c0.2,0,0.4,0.1,0.5,0.2l0.4,0.9c0.1,0.2,0.3,0.4,0.6,0.4c0.3,0,0.7-0.3,1.1-0.9l0.8-1.1c0.4-0.5,0.5-1,0.5-1.5
			c0-0.3-0.1-0.6-0.2-0.9c-0.1-0.1-0.2-0.5-0.5-1.2c-0.2-0.4-0.3-0.9-0.3-1.2c0-0.5,0.3-0.8,0.7-0.8c0.2,0,0.4,0.1,0.5,0.2l0.6,0.8
			c0.1,0.2,0.3,0.3,0.6,0.3c0.3,0,0.6-0.3,0.8-0.6l0.6-1.2c0.2-0.3,0.2-0.5,0.2-0.7s-0.2-0.5-0.7-0.7l-1-0.5
			c-1.3-0.6-2.3-2.7-2.3-4.9c0-0.3,0.1-0.6,0.2-0.8l0.5-1.3c0.2-0.4,0.2-0.8,0.2-1.2c0-0.8-0.3-1.6-0.8-2.4c-0.6-0.9-0.9-1.5-1-1.6
			c-0.4-1.2-0.7-1.5-1-1.5l-0.4,0.1l-0.5,0.3l-0.8,0.5l-1,1.2l-1.1,0.5c-0.6,0.3-1.2,1.7-1.2,2.8c0,2,0.2,2.5,2.8,7
			c1,1.7,1.5,3.2,1.5,4.3c0,3.1-2.8,5.3-8.4,6.7l-3.5,0.8c-2.6,0.6-4.1,2.4-4.6,5.4c1.1-0.5,1.5-0.6,3.4-0.6h1.1h0.2
			c1,0,1.1-0.1,1.8-1c0.8-1,1.5-1.7,2.5-2.1l1.2-0.5l1-0.5l0.3-0.1c0.3,0,0.4,0.1,0.4,0.3c0,0.3-0.3,0.8-0.7,1.3
			c-0.9,1-1.2,1.8-1.2,2.9C1382.5,125.5,1382.7,125.9,1383.3,126.7"/>
		<path class="st8" d="M1373.8,115c0.9,0.5,1.8,1.3,2.3,2c0.7,1,0.8,1.1,1.5,1.1c0.3,0,0.7-0.1,1.1-0.2l0.7-0.1
			c1.3-0.2,1.7-0.4,1.7-0.7c0-0.2-0.1-0.4-0.4-0.6l-0.8-0.8l-0.8-0.8c-0.5-0.5-1.6-0.8-2.5-0.8
			C1375.6,114.1,1375.1,114.3,1373.8,115"/>
		<path class="st8" d="M1398.3,119.1l0.5-0.1l0.7-0.1l0.7,0.1h0.3c1.7,0,3.3-1.4,3.3-2.9c0-0.5-0.5-0.8-1.3-0.8
			C1400.4,115.3,1399.1,116.5,1398.3,119.1"/>
		<path class="st6" d="M1370,66.7c0.1,0.7,0.4,1.3,0.8,1.3c0.3,0,0.7-0.8,1.5-2.2c1.1-1.8,2.1-3.6,2.1-4.6c0-0.3-0.2-0.6-0.4-0.6
			h-0.1l-0.8,0.8c-0.6,0.5-1.1,0.8-2.6,1.4c-0.9,0.3-1.2,0.7-1.2,1.3l0.1,0.6l0.4,1.1L1370,66.7z"/>
		<path class="st6" d="M1365.4,62.8l1.3,0.7c0.4,0.2,0.5,0.4,0.5,0.7l-0.1,0.5c-0.2,0.6,0,1.3,0,1.6c-0.1,1.4-1.1,1.3-1.5,1.3
			c-0.3,0-0.1-0.2-0.7-0.8l-1.7-1.9c-0.5-0.6-1-1.9-1.1-3.4v-0.2c0-0.4,0.1-0.6,0.5-0.6c0.2,0,0.6,0.2,0.8,0.4L1365.4,62.8z"/>
		<path class="st6" d="M1368.4,70.7h-0.4l-0.9-0.1c0,0-0.3-0.2-0.9-0.5c-0.3-0.2-0.7-0.3-1.1-0.3c-0.7,0-1.1,0.4-1.1,1
			c0,0.6,0.3,1.7,1,3.4l1,2.4c0.9,2.1,1.7,3,2.8,3c1,0,1.1-1,1.8-2.6c1.5-3.8,2.4-4.4,2.4-5.7c0-0.9-0.2-1.2-1-1.2l-0.7-0.2
			l-1.2,0.8L1368.4,70.7z"/>
		<path class="st8" d="M1368.3,72.9h-1c-0.1,0-0.3,0.1-0.4,0.2l-0.1,0.4l0.4,1.8l0.3,1.6c0.2,0.9,0.5,1.2,1.1,1.2
			c0.7,0,1.2-0.5,1.3-1.4l0.2-1.7c0.1-1.1,0.1-1.7,0.1-1.7c0-0.2-0.1-0.3-0.2-0.5c-0.1-0.1-0.2-0.2-0.4-0.2h-0.1L1368.3,72.9z"/>
	</g>
	<g>
		<path class="st6" d="M1546.3,91.1l0.3,1.1c0.3,1,0.5,1.8,0.6,2.4c1,4.3,1.8,5.5,3.9,5.5c1.2,0,2.2-0.7,2.5-1.7l0.5-1.5
			c0.1-0.3,0.4-0.5,0.7-0.5c0.8,0,1.3,0.9,1.3,2.7c0,0.7,0.2,1.9,0.5,3.7c0.2,1.3,0.3,2.4,0.3,3.5c0,0.8-0.1,1.2-0.5,2.2l0.1,0.9
			c0.3,1.5,0.3,2.1,0.3,2.8c0,3.3-0.2,4.2-0.9,5.5c0.3,1.2,0.4,1.8,0.4,2.7c0,0.6-0.1,1.4-0.2,2.7l-0.3,2.3l0.1,1.4
			c0.2,0.5,0.3,0.8,0.3,0.9c0,0.2-0.1,0.4-0.3,0.4l-1.5-0.6l-1.7-0.9c-0.5-0.3-0.9-0.6-1.7-1.4c-1.5,1.3-1.7,1.4-3.4,1.9
			c-2.5,0.7-3.4,1-3.9,1.4c-0.5,0.3-0.9,0.5-1,0.5c-0.6,0-1-1.1-1-2.8c0-2.4,0.1-3.7,0.5-4.6c-1.5-0.5-2.2-0.7-2.8-0.7
			c-0.2,0-0.3,0-1.1,0.1h-0.3c-0.2,0-0.3-0.3-0.3-0.7c0-0.7,0.5-2.2,1.2-3.5c0.9-1.7,2.5-3.1,3.7-3.3l2.7-0.5
			c1.6-0.3,2.6-1.2,2.6-2.3s-0.7-1.8-2.4-2.4l-3.2-1.1c-1.1-0.4-2.1-0.9-3-1.4c-0.8-0.5-1.4-0.8-1.7-1c-0.3-0.1-0.6-0.2-0.8-0.2
			c-0.7,0-1.1,0.5-1.1,1.3c0,1.3,1,2.3,2.2,2.3c0.3,0,0.5-0.1,0.8-0.2c0.3-0.1,0.6-0.2,0.7-0.2c0.3,0,0.6,0.3,0.6,0.8
			c0,1.3-0.8,3.7-1.7,4.8l-0.9,1.1l-0.7,0.9c-0.3,2-2.2,4.7-4.1,6c-0.5,0.3-0.8,0.5-0.8,0.6c-0.1,0.1-0.3,0.4-0.6,1.1
			c-0.2,0.3-0.7,0.9-1.5,1.8c-0.6,0.7-1.3,1.3-1.9,1.7c-0.8,0.6-1.4,1.1-1.5,1.4l-0.8,1.3c-0.2,0.3-0.3,0.4-0.6,0.4
			c-0.7,0-1.3-0.7-1.7-1.9c-0.3-0.9-0.5-1.1-1.1-1.1c-0.3,0-0.7,0.1-1.3,0.2l-1.1,0.1h-2.7c-1.4,0-3.4,0.3-4.2,0.8
			c-0.3,0.2-0.6,0.2-0.8,0.2c-0.4,0-0.6-0.4-0.6-1.2c0-2.4,1.9-6,4.3-8.4c-0.4-1.4-1.1-2.3-2-2.6c-0.9-0.2-1.3-0.4-1.4-0.4
			c-0.1-0.1-0.2-0.2-0.2-0.4c0-0.5,0.5-1,1.7-1.5c2.2-1,2.8-1.2,4-1.2c1.4,0,2.5,0.5,4,1.6c2.1,1.6,2.6,1.9,3.6,1.9
			c1.6,0,3.2-1.5,3.2-3c0-1-0.6-2.2-2-4c-2-2.6-2.7-4.3-2.7-6.4c0-1.5,0.3-2.3,1.6-4.4c0.2-0.3,0.3-0.6,0.3-0.8
			c0-0.4-0.7-0.8-1.5-0.8s-1.8,0.3-3.2,0.9c-2.3,1-3.6,2-3.6,2.6c0,0.2,0.1,0.5,0.4,0.6l0.8,0.5c0.1,0.1,0.2,0.2,0.2,0.3
			s-0.1,0.4-0.3,0.6c-0.1,0.2-0.7,0.8-1.5,2c-1.1,1.4-2.1,2.5-3.2,3.3c-0.4,0.3-0.7,0.6-0.8,0.8l-0.6,1.1c-0.5,0.9-2,2.5-3.3,3.4
			c-0.6,0.4-0.9,0.7-1.1,0.8c-0.2,0.2-0.4,0.5-0.7,1.1c-0.8,1.4-2,3.1-2.8,3.9l-2,2.1c-0.6,0.6-1.4,2.4-2.2,4.7
			c-0.6,1.8-1,2.7-1.3,2.7c-0.1,0-0.3-0.2-0.6-0.5c-1.5-1.7-2.8-2.7-3.4-2.7c-0.2,0-0.5,0.1-0.9,0.4c-0.6,0.4-1.3,0.6-2,0.8
			l-2.7,0.5c-2.3,0.4-3.2,0.9-4.2,2.3c-0.3,0.3-0.5,0.5-0.6,0.5c-0.3,0-0.5-0.4-0.5-0.9l0.1-0.7c0-0.1,0.1-0.8,0.4-2
			c0.4-2.2,0.9-3.9,1.5-4.9l1.4-2.4c0.2-0.4,0.4-0.9,0.4-1.2c0-1.7-1.6-3.2-4.1-3.6c-0.5-0.1-0.8-0.3-0.8-0.5c0-0.3,0.6-1,1.5-1.7
			c1.6-1.2,3.4-2,4.6-2c0.8,0,2,0.3,3.5,0.9l1.7,0.7c0.6,0.3,1.2,0.4,1.7,0.4c1.8,0,3.5-1.6,5.6-5.2c1-1.7,1.4-2.8,1.4-3.9
			c0-1.9-0.9-3.1-2.4-3.1c-1.2,0-2.3,0.5-3.2,1.4c-0.8,0.8-1.3,1.7-1.3,2.4v0.8v0.4c0,0.6-0.2,0.9-0.7,0.9c-0.6,0-1.2-0.6-2.5-2.1
			c-0.5-0.7-1.3-1.5-2.1-2.5c-2.3-2.7-2.8-3.8-2.9-6.5c-2.6-3.3-3.2-5.1-3.2-7l0.1-1.6c-1.8-2.2-2.2-3.1-2.2-5.2c0-1,0.1-1.2,0.5-2
			c-0.9-1.3-1.2-1.9-1.4-3l-0.4-1.6c-0.3-1.1-0.7-2-1.2-2.8c-0.7-1-0.8-1.1-0.8-1.4c0-0.8,0.8-1.3,2.7-1.8l0.6-0.2
			c-0.1-0.7-0.2-1.3-0.2-1.7c0-0.4,0.1-0.9,0.2-1.8l0.5-2.8c0.2-1.1,0.3-1.9,0.3-2.5s-0.1-1.2-0.5-2.4c-0.2-0.8-0.5-1.4-0.8-1.7
			c-0.3-0.4-0.5-0.8-0.5-1c0-0.3,0.3-0.5,0.6-0.5c0.2,0,0.5,0.1,0.8,0.2c2.6,1.4,5.4,3.6,7.3,5.8c1.7,1.9,2.3,3.5,2.7,7.7
			c2.3,1.7,3.2,3.3,3.2,5.7c0,1.5-0.5,2.9-1.5,4.5c-0.9,1.4-1.4,2.2-1.5,2.4c-0.5,0.8-0.7,1.6-0.7,2.6c0,1.4,0.4,2.7,1.4,4.5
			c1.1,2,2.1,2.9,3.4,2.9c2,0,3.8-3.4,3.8-7.2v-0.7v-2l0.2-1.8l0.1-2.2l0.1-1.8l0.1-1c0-0.7-0.2-1-2.5-3.5c-2.6-2.8-3.8-5.1-3.8-7.2
			c0-2,1.8-3.7,3.9-3.7c0.4,0,0.8,0.1,1.6,0.3v-1l0.1-1.6l0.5-2c0.4-1.6,0.5-1.9,1.1-1.9l0.4,0.1l1.4,1.2l1.7,1.1l0.5,0.5
			c0.1-0.9,0.2-1.1,1-2.1c0.4-0.5,0.7-1,1.1-1.4l0.8-1.1l0.5-0.7c0.3-0.5,0.4-0.6,0.6-0.6s0.3,0.3,0.6,1.1c0.1,0.3,0.3,0.7,0.7,1
			l1,0.8c0.8,0.7,1.3,1.7,1.7,3.1c0.6-0.7,0.9-1,1.5-1.4l1.2-0.7c0.4-0.3,0.7-0.4,0.8-0.4c0.1,0,0.2,0.2,0.3,0.5
			c0.2,0.4,0.4,0.8,0.6,1.1c1,1.6,1.1,1.8,1.1,2.9v0.6v0.9c2.5,0.7,3.4,2,3.4,4.7c0,2-0.9,4.1-2.9,6.5c-1.3,1.6-1.5,2-1.5,3.2
			c0,5.3,4,8.6,10.8,8.7l5,0.1c3.3,0.1,5.3,0.4,8.3,1.4c3.5,1.2,4.7,1.4,5.7,1.4c0.8,0,1.4-0.4,1.4-0.9c0-1.1-1.8-1.9-8-3.7
			c-12.5-3.5-17.8-8.6-17.8-16.8c0-6.4,5.3-11.4,12.3-11.4c2.2,0,5.6,0.6,7.5,1.3l3.1,1.1c0.6,0.2,1.1,0.3,1.6,0.3
			c1.1,0,1.5-0.7,1.6-2.7c0.1-0.9,0.4-1.3,0.9-1.3c0.8,0,2.3,1.2,3.5,2.8c1.2,1.6,2,3.7,2,5.1c0,1.6-0.8,2.8-2.7,3.9
			c-1.7,2.6-3.8,3.8-6.6,3.8c-2.2,0-5.8-1.5-10.4-4.2c-1.8-1.1-2.6-1.4-3.6-1.4c-1.4,0-2.2,0.8-2.2,2c0,1.1,0.8,1.8,3.1,2.6
			c3.6,1.3,4.4,1.7,5.4,3c3.9,0.7,5.5,1.3,8,3.2c6.9,2.2,10.8,6.5,10.8,12c0,5-3.4,8.6-8.1,8.6C1548.8,91.6,1548.1,91.5,1546.3,91.1
			"/>
		<path class="st8" d="M1553.8,124.3c-0.2-0.7-0.2-1-0.2-1.4l0.1-1c0.2-1.4,0.2-2.1,0.2-2.9c0-0.6-0.2-1-0.5-1.5l-0.9-1.2
			c-0.6-0.8-0.8-1.4-0.8-2.1c0-0.4,0.1-0.6,0.4-0.6l0.4,0.1c0,0,0.3,0.1,0.7,0.4c0.3,0.2,0.6,0.3,0.8,0.3c0.5,0,0.7-0.7,0.7-2.1
			c0-2-0.4-2.9-1.5-3.8l-1.1-0.8c-0.2-0.1-0.3-0.4-0.3-0.6c0-0.4,0.2-0.6,0.6-0.6c0.2,0,0.5,0.1,0.9,0.2l0.8,0.2l0.3,0.1
			c0.3,0,0.4-0.2,0.4-0.6v-0.3l-0.2-1.6c-0.2-1.7-0.5-2.3-1-2.3h-0.1l-2,0.4h-0.3c-2.4,0-5.2-2.2-5.9-4.7l-1.4-4.9
			c-0.4-1.5-1.7-3.1-3.6-4.6c-0.6-0.5-1.2-0.8-1.6-0.8l-1.4-0.2c-0.2,0-0.4-0.2-0.4-0.4c0-0.3,0.3-0.5,0.8-0.5c1.9,0,4,0.4,6.7,1.3
			c2.5,0.8,3.8,1.1,5.1,1.1c3.8,0,6.1-2,6.1-5.3c0-1.6-0.6-3.7-1.4-5c-0.7-1.1-2-2.3-3.6-3.3c-0.2-0.2-0.4-0.2-0.6-0.2
			s-0.4,0.2-0.4,0.4l0.1,1v0.1c0,0.4-0.2,0.7-0.5,0.7c-0.4,0-0.9-0.5-1.3-1.5c-1.4-3-3.6-4.7-6-4.7c-0.5,0-0.8,0.2-0.8,0.5
			c0,0.2,0.1,0.6,0.4,1c0.2,0.4,0.5,0.8,0.7,1.4c0.1,0.3,0.2,0.5,0.2,0.6c0,0.1-0.1,0.2-0.3,0.2c-0.3,0-0.9-0.3-1.3-0.7
			c-0.8-0.8-1.1-1.2-1.1-1.2l-1-1.5c-0.8-1.2-1.6-1.9-3-2.6l-1.9-1c-0.4-0.2-0.7-0.3-1-0.3c-0.2,0-0.4,0.1-0.4,0.3s0.1,0.5,0.3,0.9
			c0.4,0.6,0.7,1.2,0.7,1.5s-0.2,0.5-0.4,0.5c-0.5,0-1.5-1-2.8-2.8c-1-1.3-1.4-2.8-1.4-4.3c0-3.2,2.5-5.7,5.6-5.7
			c1.6,0,3.7,0.7,5.7,1.9l3.6,2.2c1.3,0.8,3.1,1.4,4.2,1.4c0.6,0,0.8,0,2.1-0.4c0.4-0.1,0.7-0.2,1-0.4c0.2-0.1,0.3-0.3,0.3-0.4
			c0-0.3-0.2-0.4-0.7-0.5c-1.7-0.1-5.2-1.5-7.5-3c-1.3-0.8-2.2-1.3-2.5-1.4c-0.6-0.2-1-0.5-1-0.8c0-0.1,0.1-0.2,0.3-0.2l0.4,0.1
			l3.3,1.2l3.2,1.1c1.6,0.6,4,1.1,5.1,1.1c1.4,0,2.4-1,2.4-2.4c0-0.7-0.2-1.5-0.5-2.1c-0.5-0.9-1.1-1.7-1.3-1.7
			c-0.3,0-0.5,0.3-0.5,0.8v0.4l0.1,1c0,1-0.6,1.7-1.4,1.7c-0.3,0-0.8-0.1-1.2-0.2l-4.9-1.6c-4.3-1.4-5.9-1.7-8.1-1.7
			c-6,0-10.4,4-10.4,9.4c0,6,4.1,9.8,14.8,13.5c10.3,3.6,11.7,4.4,11.7,7.1c0,1.6-1.5,2.8-3.3,2.8c-0.7,0-1.3-0.1-1.8-0.2
			c-0.4-0.1-2.2-0.5-5.2-1.2c-3.2-0.8-5.8-1.1-9.4-1.1c-7.5,0-11.1,1.1-15.1,4.8c-0.9,0.8-1.3,1-2.3,1h-0.5l-1.2-0.1
			c-0.9,0-1.6,0.4-2.1,1.4l-1.2,2c-0.2,0.3-0.5,0.5-0.9,0.5c-0.8,0-1.2-0.5-1.9-2.3c-0.4-1-0.9-1.8-1.5-2.3l-1.6-1.4
			c-0.2-0.2-0.4-0.4-0.4-0.6c0-0.2,0.1-0.4,0.4-0.7c0.2-0.3,0.5-0.7,0.7-1.1c0.2-0.4,0.4-0.7,0.4-0.9l0.1-0.7
			c0.1-0.2,0.3-0.4,0.5-0.4c0.5,0,0.6,0.3,0.6,2.2c0,0.5,0.2,1.2,0.6,2l0.8,1.8c0.1,0.2,0.4,0.4,0.7,0.4c0.8,0,1.8-1.8,2-3.8
			c0.2-1.6,0.4-2.1,0.7-2.1c0.3,0,0.5,0.2,1.1,1.5c0.2,0.4,0.5,0.8,0.9,1.1s0.7,0.5,0.9,0.5h0.1c0.6,0,0.8-0.4,1-1.8l0.1-0.8
			l-0.2-1.1l-0.1-0.7c0-0.5,0.2-0.8,0.4-0.8c0.2,0,0.4,0.1,0.6,0.3l0.8,0.8c0.5,0.5,1,0.8,1.5,0.8c0.6,0,1.1-0.3,1.1-0.7
			s-0.1-0.6-0.8-1.7c-0.1-0.1-0.2-0.4-0.5-1c-0.7-1.3-1-1.6-1.6-1.6l-0.8,0.1l-1,0.4c-0.3,0.1-0.5,0.2-0.6,0.2s-0.2-0.1-0.2-0.3
			c0-0.7,0.4-1.8,1.3-3.1c0.5-0.8,1-2.9,1.3-6l0.4-3.6c0.2-2.2,0.5-3,0.9-3c0.2,0,0.3,0.1,0.3,0.2l0.2,1.1v0.9c0,1.1,0.1,2,0.3,2
			c0.3,0,0.8-0.4,1.3-1c0.3-0.5,0.6-1,0.8-1.5c0.3-0.8,0.4-1.5,0.4-2c0-1.8-0.7-2.5-3.1-3.2c-0.2-0.1-0.4-0.1-0.5-0.2l-0.1-0.7v-1.3
			l-0.2-0.9l-0.3-0.8l-0.4-0.8l-0.6,0.4c-1.5,1-1.9,1.3-2.4,1.9c-0.7,0.9-0.9,1.1-1.2,1.1c-0.2,0-0.4-0.1-0.4-0.3l0.3-1.3v-0.2
			c0-1.7-0.9-3.3-2.6-4.5l-0.5,0.6l-0.5,0.8l-0.9,1.1c-0.5,0.6-0.8,1.5-0.8,2.2v0.3v0.3c0,0.6-0.1,0.8-0.4,0.8l-0.2-0.1l-0.6-0.8
			l-0.8-0.9l-1.4-0.8l-0.7-0.5c-0.7,1.6-0.8,1.8-0.8,3.8v0.6c0,0.7-0.2,1.1-0.6,1.1c-0.2,0-0.5-0.1-0.9-0.4
			c-0.3-0.2-0.7-0.3-1.1-0.3c-1.1,0-1.9,0.9-1.9,2.2c0,1.4,0.3,2.3,1.2,3.9c0.6,1,1.4,1.8,1.7,1.8c0,0,0.1-0.7,0.2-1.6l-0.2-1.3
			v-0.6c0-0.5,0.2-0.8,0.5-0.8c0.4,0,0.7,0.5,1,1.7l0.6,2.8l0.6,3.6c0.2,1,0.5,2,0.9,3c0.6,1.4,1,2.3,1.3,2.7
			c0.8,1.1,0.9,1.2,0.9,1.5c0,0.2-0.2,0.4-0.3,0.4c-0.2,0-0.4-0.1-0.7-0.2c-0.3-0.1-0.6-0.2-0.9-0.3l-0.6-0.1c-1.3,0-1.5,1-1.5,6
			c0,3.1,0.7,7.3,1.5,9.3l1.6,4c0.3,0.6,0.4,1.3,0.4,1.9c0,5.5-7.5,14.4-15.4,18.2c-3.1,1.5-4,3-4.2,7.2c1.3-0.6,1.8-0.8,2.7-1.1
			c2.2-0.6,2.7-0.9,3-2l0.3-1c0.1-0.4,0.4-0.6,2-1.4c0.6-0.3,1-0.6,1.2-1c0.4-0.7,0.7-1,0.9-1c0.2,0,0.3,0.1,0.3,0.4v0.1l-0.8,2.2
			l-0.1,0.5c0,1.6,0.9,2.9,2.5,3.7c0.1-0.4,0.2-0.7,0.2-0.9c0.3-1.2,0.5-1.9,0.8-2.3l1.4-2.1c0.5-0.8,0.6-1.3,0.6-3.2l-0.1-2.4v-0.6
			c0-0.4,0.2-0.6,0.5-0.6s0.5,0.1,0.5,0.2l0.2,1.4c0.1,0.3,0.4,0.5,0.7,0.5c0.7,0,1.7-0.9,2.7-2.7c0.4-0.7,0.5-1.2,0.5-1.8
			c0-0.5-0.1-1.5-0.2-2.4v-0.4c0-0.4,0.2-0.6,0.6-0.6c0.2,0,0.3,0.1,0.4,0.1l0.5,1.8c0.2,0.6,0.6,1,1,1c1.2,0,2.4-2.4,2.5-4.9
			c0.1-1.6,0.3-2.2,0.8-2.2c0.2,0,0.3,0.1,0.4,0.2l0.3,1c0.1,0.4,0.3,0.6,0.5,0.6s0.6-0.3,1.1-0.9c0.3-0.3,0.5-0.7,0.7-1
			c0.1-0.3,0.2-0.5,0.2-0.8c0-0.4-0.1-0.5-0.7-0.9s-0.8-1-0.8-1.6c0-1.1,0.5-2.3,1.8-4.6c1.2-2.1,1.4-2.4,1.7-2.4
			c0.3,0,0.5,0.3,0.5,0.6c0,0.2-0.1,0.5-0.2,0.7c-0.2,0.4-0.3,0.7-0.3,0.9c0,0.3,0.3,0.5,0.6,0.5c0.4,0,0.8-0.2,1.4-0.5
			c0.3-0.2,1-0.5,2-0.8c1.4-0.5,2.3-0.8,2.6-0.9c0.5-0.2,1-0.2,1.6-0.2c0.4,0,0.9,0.1,1.3,0.2c0.9,0.2,1.5,0.3,1.7,0.3
			c0.7,0,1.2-0.5,1.2-1.2c0-0.3-0.2-0.9-0.5-1.3c-0.4-0.6-0.6-1-0.7-1.1c-0.3-0.4-0.5-0.5-0.5-0.7l0.1-0.3c0.1-0.2,0.3-0.3,0.4-0.3
			c0.6,0,1.8,1.2,2.8,3c5.9,9.7,8.8,12.8,13.2,14.1c4.6,1.4,5.6,2.3,5.6,5.1c0,1.4-0.8,3.2-2.4,5.4c-3,4.2-4.1,6.7-4.1,9.5v0.6
			c0.4-0.2,0.7-0.3,0.8-0.4c0.6-0.3,1-0.5,1.2-0.5l1.9-0.4c0.6-0.1,1.1-0.8,1.1-1.6V123l-0.1-1.7V121c0-0.9,0.5-1.7,1-1.7
			c0.2,0,0.5,0.2,0.6,0.5l1.2,2.6C1551.7,123.1,1552.2,123.6,1553.8,124.3"/>
		<path class="st8" d="M1491.7,72.3l-0.1,1.2v0.7c0,1.2,0.2,1.8,0.7,1.8s1.3-0.9,1.6-2c0.2-0.6,0.4-1.5,0.4-2.1
			c0-0.4-0.1-0.7-0.4-1.4c-0.3-0.8-0.7-1.2-1.1-1.2C1492.1,69.4,1491.8,70.2,1491.7,72.3"/>
		<path class="st8" d="M1486.5,58.3l1.1,1.1c1.5,1.6,2.6,4.7,2.6,7.8v1.3l-0.2,3.6l-0.1,3c0,9.9,2.9,16.7,7.1,16.7
			c1.1,0,2.4-1,3.3-2.4c0.2-0.3,0.4-0.5,0.6-0.5s0.4,0.2,0.4,0.6l0.2,1.7l0.1,1.4c0.1,0.7,0.1,1.2,0.2,1.6c0.1,0.7,0.2,1.2,0.2,1.5
			c0,0.8-0.2,0.8-2,1.1c-0.7,0.1-1.4,0.4-2.1,0.8c-1.2,0.8-1.9,1.3-2,1.5l-0.8,1.7c-0.1,0.2-0.3,0.4-0.5,0.4c-0.4,0-1-0.7-1.9-2.1
			c-0.8-1.3-1.1-2.1-1.1-2.5c0-0.2,0.2-0.3,0.7-0.3h0.2l0.9,0.1l0.7-0.1l0.6-0.1c0.3-0.1,0.5-0.3,0.5-0.6c0-0.2-0.1-0.4-0.3-0.4
			l-3.4-1.4c-0.8-0.3-1.7-1.2-2.5-2.5c-0.9-1.4-1.4-2.6-1.4-3.3c0-0.5,0.2-0.9,0.6-0.9c0.1,0,0.3,0.1,0.6,0.2
			c0.4,0.2,0.7,0.3,0.9,0.3c0.1,0,0.3-0.1,0.4-0.2c0.1-0.1,0.2-0.2,0.2-0.4s-0.2-0.5-0.6-0.8c-2.8-2-4.6-4.4-4.6-6.5
			c0-0.6,0.1-0.9,0.4-0.9l0.6,0.1c0.4,0.1,0.9,0.2,1.1,0.2c0.4,0,0.7-0.2,0.7-0.6c0-0.2-0.3-0.5-0.7-0.7c-1.9-0.9-2.4-1.5-3.6-4.2
			c-0.9-2.1-1.4-2.9-2.2-3.9c1-0.5,1.5-0.6,2.4-0.6c1,0,1.7,0.7,2.4,2.5c0.5,1.2,1,1.9,1.3,1.9c0.1,0,0.2-0.2,0.2-0.9
			c0-0.8-0.1-1.5-0.3-2.3c-0.2-0.7-0.3-1.3-0.2-1.7l-0.2-1.1l-0.8-0.5c-0.8-0.4-1.3-1.4-1.3-2.5c0-0.5,0-0.9,0.2-1.4
			c0-0.1,0.2-0.7,0.5-1.7c0.3-1.2,0.5-2.5,0.5-3.2v-0.7L1486.5,58.3z"/>
		<path class="st8" d="M1495.5,113c-1.6-0.3-1.8-0.3-3.6-1.1c-1.2-0.6-2-0.8-2.8-0.8c-1.2,0-2.1,0.4-3.2,1.3l0.7,0.5l1.5,1.1
			l1.4,1.1c0.4,0.3,0.8,0.5,1.3,0.5C1492.2,115.5,1493.5,114.9,1495.5,113"/>
		<path class="st8" d="M1524.7,126.7c0.4-0.9,0.6-1.2,1.5-2c2.1-1.8,3.1-3.2,3.1-4.2v-0.8v-0.9c0-1,0.2-1.3,0.7-1.3
			c0.2,0,0.4,0.1,0.5,0.2l0.4,0.9c0.1,0.2,0.3,0.3,0.6,0.3c0.5,0,0.9-0.4,1.9-1.9c0.4-0.7,0.6-1.1,0.6-1.5c0-0.3-0.1-0.6-0.2-0.9
			c-0.1-0.1-0.2-0.5-0.5-1.2c-0.2-0.4-0.3-0.9-0.3-1.2c0-0.5,0.3-0.8,0.7-0.8c0.2,0,0.4,0.1,0.5,0.2l0.6,0.8
			c0.1,0.2,0.2,0.3,0.4,0.3c0.3,0,0.8-0.3,1-0.6l0.6-1.2c0.2-0.3,0.2-0.5,0.2-0.7c0-0.3-0.2-0.5-0.6-0.7l-1.1-0.5
			c-1.2-0.5-2.3-2.7-2.3-4.7c0-0.2,0.1-0.6,0.2-1l0.5-1.3c0.2-0.4,0.2-0.9,0.2-1.3c0-0.7-0.2-1.5-0.8-2.3c-0.5-0.8-0.8-1.4-0.9-1.6
			c-0.4-1.1-0.7-1.5-1.1-1.5c-0.3,0-0.5,0.1-1,0.4l-0.8,0.5l-1.1,1.2l-1.1,0.5c-0.6,0.3-1.2,1.7-1.2,2.8c0,1.6,0.4,2.5,2.8,6.9
			c1,1.9,1.5,3.3,1.5,4.3c0,3.1-3.1,5.6-8.3,6.7c-6.1,1.3-7.5,2.3-8.2,6.2c1.1-0.5,1.5-0.6,3.4-0.6h1.1h0.2c1,0,1.1-0.1,1.8-1
			c0.7-1,1.5-1.7,2.5-2.1l1.2-0.5l1-0.5l0.3-0.1c0.3,0,0.4,0.1,0.4,0.3c0,0.3-0.2,0.7-0.7,1.3c-0.7,0.9-1.2,1.8-1.2,2.5
			C1523.9,125.3,1524.1,125.8,1524.7,126.7"/>
		<path class="st8" d="M1515.2,115c0.9,0.5,1.8,1.3,2.3,2c0.7,1,0.8,1.1,1.5,1.1c0.3,0,0.7-0.1,1.1-0.2l0.7-0.1
			c1.3-0.2,1.7-0.4,1.7-0.8c0-0.2-0.1-0.4-0.3-0.6l-0.9-0.8l-0.8-0.8c-0.5-0.5-1.6-0.8-2.4-0.8
			C1517.1,114.1,1516.3,114.3,1515.2,115"/>
		<path class="st8" d="M1539.7,119.1l0.5-0.1l0.8-0.1l0.6,0.1h0.4c0.8,0,1.2-0.1,1.5-0.3c0.5-0.4,0.9-0.9,1.4-1.7
			c0.2-0.3,0.3-0.6,0.3-0.9c0-0.5-0.5-0.8-1.3-0.8C1541.8,115.3,1540.5,116.5,1539.7,119.1"/>
		<path class="st6" d="M1511.5,66.7c0.1,0.7,0.5,1.3,0.8,1.3s0.8-1.1,1.6-2.4c1.1-1.8,2-3.3,2-4.3c0-0.3-0.2-0.6-0.4-0.6h-0.1
			l-0.8,0.8c-0.5,0.4-1.5,1-2.5,1.4c-1,0.3-1.2,0.6-1.2,1.3l0.1,0.6l0.6,1.3L1511.5,66.7z"/>
		<path class="st6" d="M1504.8,61.1c-0.3-0.2-0.6-0.4-0.8-0.4c-0.3,0-0.5,0.2-0.5,0.5v0.2c0.1,0.4,0.2,0.8,0.3,1.3
			c0.4,1.2,0.8,1.9,1,2.1l1.1,1.9c0.5,0.6,1.3,0.9,1.6,1h0.1c0.2,0,0.4-0.1,0.4-0.3l0.2-1.5l0.4-1.4v-0.3c0-0.4-0.2-0.7-0.6-0.9
			l-1.3-0.7L1504.8,61.1z"/>
		<path class="st6" d="M1509.8,70.7h-0.4l-0.9-0.1c0,0-0.3-0.2-0.9-0.5c-0.3-0.2-0.7-0.3-1.1-0.3c-0.7,0-1.1,0.4-1.1,1.2
			c0,0.6,0.3,1.7,1,3.2c0.3,0.6,0.6,1.4,1,2.4c0.8,2.1,1.7,3,2.8,3c1,0,1.8-0.8,2.4-2.4l0.8-3.4c0.4-1.1,1.4-1.5,1.4-2.3
			c0-0.9-1-1.7-1.8-1.7l-0.4,0.1l-1.1,0.8H1509.8z"/>
		<path class="st8" d="M1509.7,72.9h-0.9c-0.1,0-0.3,0.1-0.4,0.2c-0.1,0.2-0.2,0.4-0.2,0.4l0.4,1.8l0.3,1.6c0.2,0.9,0.3,1.2,1,1.2
			s1.4-0.5,1.5-1.4l0.2-1.7c0.1-1.1,0.2-1.7,0.2-1.7c0-0.2-0.1-0.3-0.2-0.5c-0.1-0.1-0.3-0.2-0.4-0.2h-0.1L1509.7,72.9z"/>
	</g>
	<g>
		<path class="st6" d="M1406.3,234.2c0.7,1.7,0.9,2.5,1,3.6l0.1,3.2c0.1,3.2,1.2,4.8,3.2,4.8c0.7,0,1.3-0.2,1.7-0.5l0.8-0.8l0.3-0.1
			c0.5,0,0.8,0.3,0.8,1l-0.1,1.2c-0.1,0.6,0,1.7,0.3,3.5c0.2,1,0.2,2.1,0.2,3.1c0,1.6-0.1,2.2-0.7,3.7c0.5,1.5,0.8,3.2,0.8,4.6
			c0,1.6-0.3,2.8-0.9,3.7c0.3,1.3,0.4,1.8,0.4,2.6c0,0.7-0.1,1.7-0.3,2.9c-0.3,1.6-0.4,2.8-0.3,3.6v0.2c0,0.5-0.1,0.7-0.4,0.7
			s-0.6-0.2-0.9-0.6c-0.5-0.6-0.8-0.8-1.1-0.8c-0.5,0-0.7,0.3-1.5,2.5c-0.2,0.7-0.9,1.7-1.8,2.8c-0.8,0.9-1.2,1.6-1.4,2.2
			c-0.2,0.9-0.4,1.4-0.5,1.6s-0.3,0.4-0.5,0.4h-0.1c-1.2,0-2.7-2.7-4.1-7.7c-0.4-1.4-0.9-2.1-1.7-2.1c-0.5,0-1.1,0.4-1.3,0.9
			l-0.5,1.1c-0.1,0.2-0.2,0.3-0.4,0.3c-0.6,0-1.5-1.1-2.1-2.5c-0.5-1.2-0.7-2.4-0.7-3.5c0-2.4,1.7-4.1,7-7.1
			c2.3-1.3,3.2-2.9,3.2-5.9c0-2.4-0.7-3.7-2.7-5.2c-1.6-1.2-2.5-1.7-3.4-1.7c-0.7,0-1.3,0.5-1.3,1.1c0,0.7,0.4,1.1,1.4,1.5
			c1.2,0.4,1.7,0.8,1.7,1.4c0,0.5-0.5,1.5-1.3,2.7c-0.9,1.3-1.2,1.7-2.4,2.5c-0.4,2.1-1.3,3.4-3.6,4.9c-0.5,1.3-0.7,1.8-1.5,2.8
			l-1.6,2.1c-0.5,0.6-1.1,1.8-1.1,2.3c-0.2,1.2-0.3,1.4-0.7,1.4c-0.6,0-1.8-1.1-3.1-2.7c-0.7-0.9-0.9-1.4-1-2.5
			c-0.8,0.6-1,0.7-2.6,0.9c-0.9,0.1-1.6,0.3-2,0.5c-1.2,0.6-1.5,0.8-1.8,0.8s-0.4-0.2-0.4-0.7l-0.1-1.7c0-2.3,0.9-5,2.3-6.7
			c-1.3-1.2-2.7-1.9-3.7-2c-0.5,0-0.6-0.1-0.6-0.3c0-0.3,0.3-0.9,0.7-1.4c0.6-0.7,1-1.2,1.4-1.5c1.1-0.9,2.9-1.6,4.4-1.6
			c1,0,2.4,0.4,4.3,1.1c0.7,0.3,1.3,0.4,1.8,0.4c0.8,0,1.3-0.5,1.3-1.5c0-1.4-0.7-3.5-2.2-7c-1-2.3-1.5-3.9-1.5-5
			c0-2.6,1.2-5.4,2.8-6.1c-0.7-0.4-1.1-0.5-1.7-0.5c-0.8,0-1.4,0.2-2.3,0.8c-1.1,0.7-1.7,1.2-1.7,1.6c0,0.1,0.2,0.4,0.6,0.7
			c0.6,0.4,0.7,0.6,0.7,1.1c0,1.9-1.5,4.4-3.7,6c-0.5,2.7-1.7,4.3-4.1,5.4c-0.3,1.4-0.5,1.9-1.7,3.5c-2,2.8-2.4,3.7-2.8,5.2
			c-0.2,0.8-0.4,1.2-0.6,1.2c-0.3,0-1-0.5-1.7-1.3c-0.6-0.7-1-1.2-1.2-1.5c-0.3-0.5-0.5-1-0.8-2.4c-0.6,0.2-0.7,0.2-1.1,0.2h-1.1
			h-0.8c-1.7,0-3.4,0.4-4.3,0.9c-0.3,0.2-0.6,0.3-0.7,0.3c-0.5,0-0.9-1-0.9-2.3c0-2.7,0.8-5,2.5-7.5c-0.7-0.5-0.9-0.7-1.4-1.4
			c-0.3-0.3-0.5-0.5-0.6-0.5l-0.8-0.5c-0.3-0.2-0.5-0.3-0.5-0.5c0-0.4,1.1-1.5,2.4-2.3c1.5-0.9,2.6-1.4,3.7-1.4
			c1.2,0,1.9,0.3,3.5,1.7c1.1,0.9,1.8,1.4,2.3,1.4c0.4,0,0.8-0.3,1.1-0.7c0.3-0.3,0.4-0.7,0.4-1.1c0-1.5-1.7-3.9-3.6-5.2
			c-1.4-0.9-3-1.4-4.5-1.4c-2.1,0-3.9,1.1-4.7,2.7l-0.8,1.7c-0.2,0.4-0.4,0.6-0.7,0.6c-0.5,0-0.7-0.2-2.5-2.2l-2-2.3
			c-0.6-0.7-1-1.4-1.2-2s-0.3-0.9-0.4-1s-0.3-0.3-0.8-0.6c-1.5-1.1-2.6-3.2-3.3-6.3c0-0.2-0.1-0.6-0.2-1c-1.9-2.3-3-5.1-3-7.5
			c0-0.3,0-0.5,0.2-1c-1.1-1.1-1.2-1.3-2.1-4.2c-0.6-2.1-1-2.9-1.7-3.9c-0.2-0.3-0.3-0.5-0.3-0.6c0-0.4,0.6-0.7,1.7-0.9
			c1-0.2,1.1-0.2,1.5-0.2l1.5,0.1l-0.1-2.1c0-1.2,0.1-2,0.4-3.5c0.1-0.7,0.2-1.2,0.2-1.6c0-0.1-0.1-0.6-0.2-1.3
			c-0.1-0.6-0.2-0.9-0.2-1.1c-0.1-0.3-0.2-0.5-0.2-0.6c0-0.2,0.2-0.4,0.5-0.4c0.2,0,0.5,0.1,1,0.3c1.3,0.6,2.4,1.3,3.3,2
			c2.6,2,4.7,5.2,4.7,7.1v0.6c-0.1,0.7-0.2,1.1-0.2,1.1c0,0.3,0.2,0.8,0.5,1.2l0.8,1.1c0.7,1,1.2,2.2,1.2,3c0,0.7-0.1,1-1.4,2.8
			c-0.9,1.3-1.3,2.3-1.3,3.4c0,1.4,0.5,3.1,1.5,4.8c0.9,1.6,1.9,2.4,2.9,2.4c1.7,0,2.4-1.5,2.7-5.5c0.1-2.1,0.3-4,0.6-5.8l0.1-1
			c0-0.5-0.1-0.7-0.8-1.5l-2.3-2.6c-2.2-2.5-2.8-3.8-2.8-5.7c0-2.1,1.4-3.5,3.4-3.5l0.9,0.1v-0.6c0-0.5,0.1-1.2,0.4-2.1
			c0.5-1.6,1.1-2.9,1.4-2.9c0.1,0,0.4,0.1,0.7,0.4c0.1,0.1,0.6,0.3,1.4,0.5c0.4,0.2,0.7,0.3,1.5,0.8c0.4-1.3,0.6-1.9,1.2-2.6
			c1-1.3,2.1-2.3,2.5-2.3c0.2,0,0.7,0.3,1.2,0.9l1.4,1.5c0.2,0.2,0.5,0.7,0.8,1.4l0.3,0.7c0.4-0.2,0.7-0.4,0.9-0.5
			c0.6-0.4,1-0.6,1.2-0.7c0.9-0.4,1.4-0.7,1.4-0.7c0.4-0.3,0.7-0.4,0.8-0.4c0.3,0,0.4,0.5,1,3c0.4,1.7,0.4,2.1,0.5,3.3
			c2.4,0.3,3.6,1.7,3.6,4.3c0,2.4-1.2,4.9-3.8,7.6c-0.7,0.8-0.9,1.1-0.9,1.8c0,6.7,2.3,8.8,10.7,9.7c5.2,0.5,6.7,0.9,12.9,2.7
			c3.3,1,5.1,1.4,6.3,1.4c1.4,0,2.2-0.5,2.2-1.4c0-1.4-1-1.8-7.1-3.1c-14-3-19.6-7.8-19.6-17c0-6.6,4.9-11.6,11.5-11.6
			c2.9,0,5.5,0.9,9.6,3.3c3.8,2.2,4.6,2.6,5.5,2.6c1,0,1.4-0.7,1.4-2.3c0-1.1,0.3-1.6,1-1.6c0.6,0,1.5,0.6,2.4,1.6
			c1.3,1.5,1.7,2.2,1.7,4.3c0,2.7-1.5,4.5-4.3,5.3c-0.3,0.3-0.5,0.6-0.7,0.8c-1.6,1.8-2.9,2.3-5.4,2.3c-2.2,0-4.9-0.9-6.7-2.2
			l-3.6-2.6c-1.6-1.1-2.7-1.6-3.8-1.6c-1.6,0-2.5,0.9-2.5,2.5c0,1.5,1,2.8,2.7,3.3l3.4,1.1c1.2,0.4,1.8,0.6,3.3,1.4
			c0.8-0.1,1.2-0.2,1.7-0.2c2.1,0,4.4,0.6,6.4,1.6c0.6,0.3,1.1,0.5,1.4,0.6l1.9,0.5c4.3,1.2,7.8,6,7.8,10.7c0,5.4-3.5,8.7-9.1,8.7
			L1406.3,234.2z"/>
		<path class="st8" d="M1405.1,279.2l0.5-0.9l1.1-1.1c0.9-1,1.4-2.3,1.4-3.9c0-0.8-0.1-1.6-0.4-2.4c-0.2-0.6-0.3-1.1-0.3-1.3
			c0-0.5,0.4-0.9,0.7-0.9c0.2,0,0.4,0.1,0.6,0.4l1.1,1.3c0.7,0.8,0.9,0.9,1.8,1.1l0.1-1.1l0.1-1.2c0-1.8-0.7-3.8-1.7-5.1
			c-0.6-0.8-0.9-1.2-0.9-1.5s0.2-0.5,0.4-0.5c0.1,0,0.2,0.1,0.3,0.2c0.7,0.5,1.1,0.8,1.3,0.8c0.4,0,0.7-0.9,0.7-1.9
			c0-1.4-0.6-3.1-1.5-4.2c-0.5-0.6-0.8-1-0.9-1.1s-0.2-0.3-0.2-0.4c0-0.3,0.3-0.6,0.7-0.6c0.3,0,0.5,0.1,0.9,0.4
			c0.2,0.1,0.4,0.2,0.6,0.2c0.6,0,0.8-0.8,0.8-3.1v-0.9l-0.1-1.4c-0.1-1.6-0.2-1.9-0.9-1.9h-0.6c-3.7,0-5.4-2.3-6.4-8.6
			c-0.7-4.6-2.4-7.8-4.5-8.5c-1.2-0.4-1.7-0.7-1.7-1c0-0.2,0.3-0.4,0.7-0.4c0.3,0,0.9,0.2,1.4,0.4c3,1.2,5.6,1.8,7.8,1.8
			c3.6,0,6.5-2.7,6.5-6.1c0-2.6-1.2-5.2-3.4-7.4c-0.6-0.6-1.3-1-1.9-1.1h-0.1l-0.4,0.1l0.2,1.1l0.3,0.8l0.1,0.3
			c0,0.2-0.2,0.3-0.4,0.3c-0.2,0-0.4-0.1-0.6-0.3l-1.4-2c-1.1-1.6-3.5-3-5.2-3c-0.6,0-1,0.3-1,0.7c0,0.2,0.2,0.6,0.5,0.9
			c0.4,0.4,0.7,1,0.7,1.2l-0.1,0.3c-0.1,0.2-0.2,0.3-0.3,0.3h-0.1c-0.4,0-0.5-0.2-2.2-2c-1.3-1.5-4.1-3-5.6-3
			c-0.2,0-0.4,0.1-0.6,0.2c-0.1,0.1-0.2,0.2-0.2,0.3c0,0.2,0.2,0.5,0.5,0.8c0.5,0.4,0.8,0.9,0.8,1.2c0,0.1-0.2,0.3-0.4,0.3
			c-0.4,0-1.4-0.6-3.2-2.1c-2.8-2.2-4.1-4.3-4.1-6.7c0-2.9,2.1-5.2,4.8-5.2c1.6,0,3.7,0.8,5.1,1.8l3.7,2.8c1.7,1.3,3.8,2,6,2
			c0.5,0,0.9-0.1,1.3-0.3c0.3-0.2,0.5-0.4,0.5-0.5s-0.3-0.2-0.7-0.3c-1.3-0.3-2.4-0.8-3.2-1.4l-3.8-2.9c-1.4-1.1-2.4-1.8-3-2
			c-2-1.1-2.4-1.3-2.4-1.5c0-0.1,0.2-0.2,0.4-0.2c0.2,0,0.4,0.1,0.7,0.2l2,0.8c0.6,0.3,1.7,0.9,3.2,1.9c4.1,2.7,6.1,3.6,8.5,3.6
			c2.3,0,3.9-1.6,3.9-3.8c0-0.4-0.1-0.9-0.3-1.3l-0.4-0.8c-0.1-0.3-0.4-0.5-0.5-0.4l-0.2,0.3l-0.2,1.6c0,0.1-0.1,0.2-0.2,0.5
			s-0.3,0.6-0.5,0.8c-0.4,0.4-0.8,0.5-1.4,0.5c-1.2,0-2.5-0.6-6-2.9c-3.6-2.3-6.8-3.5-9.4-3.5c-5.5,0-9.9,4.4-9.9,9.8
			c0,7.6,4.6,11,19.2,14.2c5.5,1.2,8,2.8,8,5.3c0,2.2-1.8,3.7-4.7,3.7c-0.9,0-1.6-0.1-2.1-0.2s-3.1-0.8-7.8-2.1
			c-3.3-0.9-6.9-1.4-10.1-1.4c-5.7,0-9.5,1.7-12.2,5.4c-0.3,0.4-0.6,0.7-0.8,0.7c-0.2,0-0.4-0.1-0.6-0.3l-1.1-0.8
			c-0.7-0.6-1.9-1-2.7-1c-0.6,0-1.1,0.2-1.6,0.7c-0.4,0.3-0.7,0.5-0.8,0.5c-0.4,0-1.2-1-1.8-2.2c-0.9-1.8-1.3-3.5-1.3-5.2
			c0-0.8,0.2-1.3,0.6-1.3c0.3,0,0.5,0.2,0.6,0.6l0.6,2.2c0.3,1.2,1,2.2,1.5,2.2c0.2,0,0.6-0.3,1.1-0.9c0.3-0.3,0.5-0.7,0.6-1.1
			c0.5-1.4,0.6-1.6,1-1.6s0.7,0.3,1,1.7c0.1,0.3,0.1,0.6,0.5,1.3c0.3,0.6,0.6,1,0.9,1.4c0.2,0.2,0.5,0.4,0.8,0.4
			c0.7,0,1.3-1.1,1.3-2.3v-0.3l-0.1-1.4c0-0.5,0.1-0.7,0.4-0.7c0.2,0,0.3,0.1,0.5,0.4c0.3,0.4,0.8,0.8,1.3,1.1
			c0.5,0.3,0.8,0.4,1.1,0.4c0.2,0,0.5-0.1,0.7-0.4c0.2-0.2,0.3-0.4,0.3-0.6s-0.3-0.6-1.1-1.4c-0.4-0.4-0.9-1.5-1.5-3
			c-0.2-0.6-0.5-1-0.7-1c-0.1,0-0.2,0.1-0.5,0.2l-1,0.4l-0.7,0.3l-0.3,0.1c-0.3,0-0.6-0.2-0.6-0.5s0.7-1.1,1.5-1.8
			c0.6-0.5,1-1.2,1-2c0-1.3,0.3-2.3,0.5-2.3l0.2-2.7c0.1-1.3,0.7-3.8,1.1-5.2c0.1-0.3,0.2-0.5,0.3-0.5c0.2,0,0.4,0.6,0.4,1.2v0.4
			v0.8c0,1,0.2,1.5,0.5,1.5s0.7-0.5,1-1.3l0.7-1.7c0.2-0.5,0.3-1,0.3-1.4c0-1.5-0.9-2.5-2.1-2.5l-0.5,0.1c-0.3,0.1-0.5,0.2-0.5,0.2
			c-0.4,0-0.7-0.4-0.7-1l0.1-1.1l-0.1-1.5l-0.3-1.6l-0.1-0.8l-0.7,0.4l-0.8,0.7l-1.2,1l-1,0.8c-0.2,0.2-0.4,0.2-0.6,0.2
			c-0.6,0-0.7-0.2-0.7-1.3v-1.4c0-1-0.4-1.7-2-3.5c-0.1-0.1-0.2-0.2-0.4-0.5l-0.3,0.5l-0.8,1.4l-0.8,2.1l-0.2,1.4
			c0,0.4-0.2,0.7-0.3,0.7c-0.2,0-0.4-0.2-0.7-0.5c-1.2-1.3-1.5-1.6-3.3-2.2l-0.1,0.5c-0.3,0.9-0.4,1.4-0.5,1.6l-0.1,1.4v0.6v0.5
			c0,0.4-0.2,0.7-0.4,0.7l0,0c0,0-0.2-0.1-0.5-0.4c-0.2-0.2-0.5-0.2-0.9-0.2c-1.4,0-2.3,0.8-2.3,2c0,0.9,0.3,1.6,1.7,3.7
			c0.6,0.9,1.3,1.7,1.6,1.7c0.2,0,0.3-0.5,0.3-1.1l-0.1-0.9c-0.1-0.4-0.2-0.8-0.2-1.2c0-0.4,0.1-0.7,0.4-0.7c0.7,0,1.4,2,1.7,4.7
			l0.3,2.8c0.1,1,0.4,2,0.9,3c0.7,1.4,1.4,2.4,2,2.8c0.7,0.5,1.2,1,1.2,1.3c0,0.2-0.2,0.5-0.4,0.5c0,0-0.5-0.2-1.5-0.5l-0.6-0.1
			c-1.5,0-2,0.9-2,3.5c0,3.2,2.1,7.7,4.5,9.6l3.5,2.8c1.8,1.4,3.1,3.8,3.1,5.5c0,2.2-2.4,4.4-6.6,5.9l-2.5,0.9
			c-1.9,0.7-2.7,2-3.5,5.6c1-0.3,1.4-0.4,2.1-0.4h0.3h1.1c1,0,1.8-0.6,1.8-1.5v-0.7c0-0.2,0.3-0.5,0.7-0.7c0.7-0.3,1-0.5,1.1-0.5
			l0.8-0.7c0.1-0.1,0.3-0.2,0.4-0.2c0.2,0,0.4,0.2,0.4,0.5c0,0.2-0.1,0.4-0.2,0.7c-0.3,0.7-0.4,1.6-0.4,2.6c0,1.9,0.3,2.9,1.2,4.2
			c0.1-0.5,0.2-0.8,0.2-1c0.2-0.4,0.6-1.1,1.3-2c1.1-1.6,2-3.6,2-4.6v-0.3l-0.2-1.7c0-0.3,0.1-0.6,0.4-0.8c0.2-0.1,0.3-0.2,0.5-0.2
			c0.3,0,0.5,0.2,0.8,0.8c0.2,0.4,0.4,0.7,0.5,0.7c0.3,0,0.8-0.7,1.1-1.5c0.3-0.6,0.4-1.1,0.4-1.6c0-0.3-0.1-0.6-0.2-1
			c-0.2-0.4-0.2-0.7-0.2-0.9c0-0.2,0.1-0.3,0.3-0.5c0.1-0.1,0.3-0.2,0.4-0.2s0.3,0.1,0.4,0.2l0.7,0.5c0.2,0.2,0.4,0.2,0.6,0.2
			c0.3,0,0.7-0.3,1.1-0.8c0.7-1,1.1-1.8,1.1-2.2c0-0.2-0.1-0.3-0.5-0.6c-1.5-1.1-2.5-2.7-2.5-4.1c0-0.3,0.1-0.7,0.2-1.1l0.8-2
			c0.4-1,0.6-1.6,0.6-1.6l0.2-0.1c0.3,0,0.4,0.2,0.4,0.6c0,0.2-0.1,0.5-0.2,0.9c-0.2,0.5-0.3,1.1-0.3,1.4c0,0.5,0.3,0.8,0.8,0.8
			c0.4,0,0.8-0.1,1.3-0.3c2.3-1,4.1-1.5,5.2-1.5c1,0,1.7,0.2,2.8,1c0.3,0.2,0.5,0.3,0.7,0.3c0.1,0,0.3-0.1,0.4-0.3
			c0.1-0.1,0.2-0.3,0.2-0.4c0-0.3-0.2-0.6-0.5-1c-0.4-0.5-0.5-0.8-0.5-1.1c0-0.2,0.2-0.4,0.4-0.4c1.2,0,3.1,3.8,4.8,9.7
			c1.4,4.7,1.8,5.2,6.3,7.7c3.8,2.1,5.3,4.3,5.3,7.7c0,3.4-0.9,7.8-2.9,13.5c-0.6,1.8-0.9,3-0.9,4c0,0.8,0.2,1.6,0.7,3.6
			c0.3,1,0.5,1.6,0.5,1.7C1404.5,278.3,1404.7,278.7,1405.1,279.2"/>
		<path class="st8" d="M1387.5,268.6c0.5-1.1,0.6-1.3,1.4-2.6c1.2-1.8,1.7-2.8,1.7-3.7v-1.2c0-1.1,0.2-1.7,0.7-1.7
			c0.2,0,0.3,0.1,0.4,0.2l0.4,0.6c0.1,0.2,0.3,0.3,0.5,0.3s0.6-0.3,0.9-0.6c0.5-0.8,0.9-1.9,0.9-2.7l-0.1-0.8l-0.1-0.9
			c0-0.5,0.2-0.7,0.6-0.7c0.3,0,0.4,0.1,0.7,0.7c0.2,0.4,0.4,0.6,0.6,0.6s0.4-0.2,0.6-0.5l0.6-0.9l0.5-0.7l0.1-0.4
			c0-0.2-0.2-0.4-0.6-0.7c-1.4-1-2-2.6-2.1-5.4c-0.1-2.1-0.2-3.5-0.4-4.2c0-0.1-0.5-1.2-1.4-3.3c-0.3-0.8-0.6-1.7-0.9-2.7
			c-0.2-0.7-0.4-0.9-0.9-0.9c-2.1,0-3.6,1.8-3.6,4.1c0,1.4,0.6,3.5,1.6,6.2c1.5,3.7,1.8,5,1.8,6.3c0,2.8-1.1,4-5,5.4
			c-4.3,1.6-6.4,3.8-7.1,7.8c0.3-0.1,0.6-0.2,0.8-0.3c0.5-0.2,0.8-0.3,1.1-0.4l1.2-0.3c1-0.3,1.9-0.8,2-1.4l0.3-1.1
			c0.1-0.3,0.2-0.4,0.5-0.5l0.7-0.3l0.7-0.3l0.1,0.3l-0.3,1c-0.1,0.3-0.2,0.9-0.2,1.8C1386.2,266.4,1386.5,267.4,1387.5,268.6"/>
		<path class="st8" d="M1346.8,198.5c0.1,0.4,0.2,0.7,0.2,0.8c0,0.2-0.1,0.9-0.3,2l-0.1,1.5c0,1.4,0.2,2.8,0.7,4
			c0.4,1.1,0.5,1.4,0.5,1.7v0.3c-0.1,0.3-0.2,0.5-0.3,0.5c-0.1,0-0.4-0.2-0.8-0.5c-0.9-0.8-1.8-1.1-2.8-1.1c-0.3,0-0.8,0.1-1.3,0.2
			l0.4,0.8l1.1,2.8l1.6,2.4l1.7,1.1c0.2,0.1,0.3,0.3,0.5,0.4c0.2,0.2,0.2,0.4,0.2,0.5s-0.1,0.2-0.3,0.3l-1.5,0.1
			c-0.2,0-0.4,0.2-0.4,0.3c0,0.3,0.2,1,0.6,2.3l0.8,2.2l1.3,1.2l1.4,1c0.4,0.3,0.6,0.6,0.6,0.9c0,0.2-0.1,0.4-0.3,0.4l-0.8,0.1
			c-0.2,0-0.4,0.2-0.4,0.6c0,0.6,0.5,1.6,1.5,3c1.2,1.6,2,2.1,3.3,2.1h1.1c0.5,0,0.9,0.3,0.9,0.7c0,0.4-0.2,0.6-0.7,0.7
			c-1,0.2-1.4,0.4-1.4,0.9c0,0.2,0.1,0.5,0.4,0.8l0.6,0.8c0.5,0.7,1.1,1.1,1.4,1.1c0.2,0,0.7-0.2,1.1-0.7c0.7-0.8,1.5-1.4,2.5-1.7
			c2.6-0.7,3.2-0.9,3.2-1.6c0-0.2-0.1-0.5-0.3-0.9c-0.8-1.5-1.1-2.5-1.1-3.7c0-0.9-0.2-1.6-0.6-1.6c-0.1,0-0.4,0.2-0.6,0.6
			c-0.6,1-1.7,1.6-2.7,1.6c-2.6,0-5.8-4.1-7.4-9.6c-0.4-1.3-0.6-2.7-0.6-4.1s0.2-3,0.6-4.6c0.5-2.2,0.8-3.5,0.8-3.7l0.1-1
			C1351.2,202.8,1349.5,200.4,1346.8,198.5"/>
		<path class="st8" d="M1352.2,209c-0.6,1.1-1.1,3.4-1.1,4.9c0,0.9,0.3,1.6,0.7,1.6c0.1,0,0.3-0.1,0.4-0.4l0.8-1.5
			c0.1-0.3,0.3-0.5,0.5-0.9c0.3-0.4,0.5-0.9,0.5-1.1C1354.1,210.7,1353.3,209.6,1352.2,209"/>
		<path class="st8" d="M1360.6,243.2c0.2,0.2,0.3,0.3,0.4,0.4c0.3,0.3,0.5,0.5,0.6,0.6c1.5,1.5,1.7,1.7,2.4,1.7c0.7,0,2-0.4,2.8-0.8
			c0.3-0.2,0.5-0.4,0.5-0.5s-0.3-0.4-0.8-0.8l-0.8-0.8c-0.6-0.6-1.6-1.1-2-1.1C1362.8,241.9,1361.9,242.3,1360.6,243.2"/>
		<path class="st8" d="M1378.2,256.9c0.8,0.3,1.1,0.5,1.5,0.8c0.7,0.4,1.1,0.7,1.2,0.8c0.2,0.1,0.6,0.2,1.2,0.2
			c0.3,0,0.7-0.1,0.9-0.2l1.6-0.6l1.5-0.5c0.4-0.1,0.7-0.4,0.7-0.6c0-0.1-0.3-0.3-0.8-0.4c-0.3-0.1-0.7-0.2-1.1-0.4
			c-1.9-0.8-2.1-0.9-2.8-0.9C1380.5,255.1,1379,255.8,1378.2,256.9"/>
		<path class="st8" d="M1397.3,272.2c0.5-1.2,0.9-1.4,2.6-1.5c1.9-0.1,3.8-3.6,3.8-6c0-0.2-0.1-0.4-0.2-0.4s-0.3,0.1-0.5,0.2
			c-0.5,0.4-0.9,0.6-1.1,0.7l-2.2,1c-1.5,0.7-2.8,2.6-2.8,4.2C1396.9,270.9,1397,271.3,1397.3,272.2"/>
		<path class="st6" d="M1364.6,206.3l0.8,1.1c0.2,0.2,1.5,1.2,1.6,1.2c0.2,0,0.4-0.2,0.5-0.7l0.3-1.1l0.1-1.3c0-1-0.4-1.4-2.5-1.9
			c-0.5-0.1-0.7-0.1-1.1-0.4c-0.3-0.2-0.7-0.5-0.9-0.5c-0.2,0-0.3,0.1-0.3,0.2l0.1,0.3l0.4,1.1L1364.6,206.3z"/>
		<path class="st6" d="M1372.7,206.3l-1,1.8c-0.2,0.3-0.4,0.4-0.4,0.4h-0.1c-0.4,0-0.8-0.9-0.8-1.9l-0.1-1.5
			c0.1-0.6,0.5-0.9,1.4-1.1c0.8-0.1,1.3-0.3,1.5-0.5c0.7-0.5,1.1-0.8,1.2-0.8h0.1c0.2,0,0.3,0.1,0.3,0.4v0.1l-0.5,1.3L1372.7,206.3z
			"/>
		<path class="st6" d="M1370.7,211.5l1.2-0.6c0.2-0.1,0.4-0.2,0.6-0.2c0.6,0,1,0.4,1,1.2c0,0.9-0.7,2-1.6,3.7c-1,1.8-1.8,3-2.5,3
			c-1.1,0-2.6-1.7-4.1-4.6c-0.4-0.7-0.6-1.5-0.6-2.1c0-1,0.4-1.5,1.2-1.5c0.3,0,0.6,0.1,0.9,0.2l0.7,0.5c0.6,0.4,1.3,0.6,1.9,0.6
			C1369.9,211.8,1370.3,211.7,1370.7,211.5"/>
		<path class="st8" d="M1369,213.3l-0.8-0.1h-0.1c-0.5,0-0.7,0.3-0.7,0.8c0,0.8,0.6,2.2,1.4,3.3c0.1,0.2,0.4,0.3,0.6,0.3
			c0.5,0,0.8-0.9,1.1-2.4l0.2-1.1v-0.2c0-0.5-0.1-0.6-0.5-0.6h-0.2"/>
	</g>
	<g>
		<path class="st6" d="M1538.2,233.1c1.3,1.7,3.2,2.9,4.7,2.9c0.5,0,1.3-0.1,2-0.3c0.4-0.1,0.7-0.2,1-0.2c0.4,0,0.5,0.1,0.5,0.5
			c0,0.3-0.2,0.9-0.4,1.4c-0.2,0.6-0.4,1-0.5,1.4l-0.3,1.6l-0.8,1.4l-1.1,1l-0.3,0.3v0.7v0.3c0,1.9-0.5,2.9-2,3.9
			c-0.1,0.1-0.3,0.2-0.5,0.4l-0.2,0.6c-0.3,1.4-0.6,2.3-0.8,2.6c-0.2,0.4-0.7,1.1-1.4,2.1c-0.9,1.2-1.5,2.2-1.9,3.1
			c-0.3,0.8-0.5,1-1,1c-0.7,0-1.5-0.9-1.6-2c-0.2,0.2-0.3,0.4-0.4,0.5l-0.9,0.6l-1.4,1c-0.6,0.4-1,0.7-1.2,0.9l-0.8,0.8
			c-0.1,0.1-0.3,0.2-0.4,0.2c-0.4,0-0.8-0.6-1.2-1.9l-0.8-2.5c-0.2-0.7-0.3-1.5-0.3-2.4c0-1.3,0.1-1.7,0.5-2.7
			c-1.5,0.2-1.9,0.2-2.7,0.5c-0.2,0.1-0.5,0.1-0.7,0.1c-0.3,0-0.4-0.2-0.4-0.5c0-0.2,0.1-0.7,0.3-1.1l1-2.6c0.8-2,3.2-3.8,5.2-3.8
			c0.5,0,1.1,0.1,1.9,0.4c0.5,0.2,0.9,0.2,1.1,0.2c0.9,0,1.6-0.6,1.6-1.4c0-0.4-0.3-0.8-0.6-1c-0.1-0.1-1-0.3-2.7-0.8
			c-1.3-0.4-1.9-0.8-3.3-2.5c-1-1.2-1.4-1.5-1.8-1.5c-0.3,0-0.4,0.2-0.4,0.5l0.1,1v0.5c0,2.1-0.6,4.1-2.1,6.9l-2.1,3.9
			c-1,1.8-1.4,3.2-1.4,4.6c0,1.5,0.7,2.9,1.5,3.1l1.1,0.3c0.1,0,0.3,0.1,0.4,0.2c0.1,0.2,0.2,0.3,0.2,0.4c0,0.2-0.1,0.4-0.4,0.7
			c-0.1,0.1-0.6,0.7-1.4,1.7c-1.3,1.7-2.1,2.3-3.7,2.8c-0.9,2.2-2.4,3.5-5.1,4.4l-0.3,0.5c-0.9,1.6-2.9,3-4.2,3h-0.3
			c-0.2,1.4-1.2,2.8-2.7,3.9c-1,0.7-1.6,1.1-1.7,1.3c-0.1,0.1-0.2,0.3-0.4,0.7c-0.3,0.8-0.7,1.1-1.1,1.1c-0.8,0-1.5-0.8-1.9-2.2
			c-0.3,0.2-0.5,0.3-0.7,0.5c-0.9,0.6-1.3,0.9-1.4,1c-0.3,0.2-1.2,0.4-2.7,0.8c-1.9,0.4-3.5,1.2-3.9,1.9l-0.7,1.1l-0.3,0.1
			c-0.4,0-0.8-0.5-1-1.2c-0.4-1.6-0.7-3.2-0.7-4.3c0-2.7,0.9-4.4,3.6-7.2v-0.7c0-4.2,3.2-7,7.9-7h0.8l2.6,0.2h0.2
			c1.4,0,2.7-0.5,4.1-1.7c1.9-1.5,2.4-2.4,2.4-4.1c0-0.5-0.1-1.2-0.7-3.1c-0.4-1.3-0.6-2.4-0.6-3.6c0-3.1,2.3-7,5.4-9.2
			c0.8-0.6,1.4-1.3,1.4-1.7c0-0.2-0.1-0.3-0.2-0.3c-0.2,0-0.5,0.2-1,0.6c-0.4,0.3-1,0.7-1.8,1.1l-1.2,0.6l-1.4,0.5
			c-0.4,0.2-0.6,0.4-0.6,0.7c0,0.2,0.1,0.4,0.2,0.7c0.1,0.2,0.2,0.4,0.2,0.6s-0.1,0.5-0.4,0.9l-1.1,1.7c-1,1.7-1.8,2.4-3.1,3
			c-0.9,2.5-2.1,3.8-3.9,4c-1.4,2.9-2.7,3.9-5.2,4.2c-0.4,1.1-1,2-2.3,3.5c-0.5,0.6-0.9,1-1,1.2c-0.6,1.1-0.6,1.1-0.9,1.1
			s-1.1-0.5-1.7-1.1c-0.3-0.3-0.5-0.6-0.7-0.9l-0.7-1.2c-0.2-0.4-0.4-0.6-0.7-0.6h-0.5l-1.7,0.2c-1,0.1-2.5,1-3,1.7l-0.9,1.4
			c-0.1,0.1-0.2,0.2-0.4,0.2c-0.7,0-1.1-1.5-1.1-4c0-2.2,0.3-3.6,1.1-4.7l2.1-3c0.3-0.4,0.5-0.8,0.5-1.2c0-0.3-0.1-0.7-0.4-1
			c-0.5-0.5-0.9-0.9-1.2-0.9l-1.6-0.2c-0.3,0-0.4-0.1-0.4-0.2s0.1-0.3,0.2-0.5c0.5-0.7,1.2-1.2,1.9-1.7c1.9-1.1,3.1-1.6,4.4-1.6
			s2.7,0.5,4,1.3l2.2,1.4c0.3,0.2,0.7,0.3,1.1,0.3c1,0,1.8-0.6,2.5-2c0.7-1.3,1-2.4,1-3.5c0-2.8-2-4.9-4.9-4.9
			c-1.3,0-2.7,0.5-3.9,1.5c-0.4,0.3-0.6,0.6-0.8,0.8l-0.6,1.4c-0.1,0.3-0.4,0.5-0.5,0.5c-0.4,0-1.2-1.1-2-2.5
			c-0.4-0.7-0.7-1.6-1.1-2.7c-0.5-1.5-0.6-2.6-0.6-3.8l0.1-2.1c-1-1.6-1.4-2.8-1.4-4.7c0-0.7,0.1-1.2,0.5-2.7
			c-0.6-1.1-0.8-1.8-0.8-3.4l0.1-0.9l0.2-1.1l0.2-0.9c-0.7-1-0.9-1.6-1.7-4.9c-0.4-1.9-0.7-2.7-1-3.2c-0.2-0.2-0.2-0.4-0.2-0.5
			c0-0.4,1.1-0.8,2.3-0.8l1.1,0.1c-0.3-0.7-0.3-1-0.3-1.5c0-0.9,0.2-2,0.5-3c0.4-1.2,0.5-1.5,0.5-1.9c0-0.9-0.1-1.8-0.3-2.3
			l-0.6-1.5c-0.1-0.3-0.2-0.6-0.2-0.8s0.1-0.2,0.4-0.2c1.5,0,4.3,1.6,6.6,3.7c2.2,2.1,2.9,3.8,2.9,6.9l-0.1,1.7c2.1,1.8,3,3.3,3,4.9
			c0,1.2-0.4,2-1.5,3.1c-2,2-2.5,3.1-2.5,5.7c0,4,1.2,6.2,3.4,6.2c2,0,3.5-2.1,3.7-5.2l0.2-2.9c0.1-0.7,0.2-1.7,0.4-2.7
			c0.1-0.7,0.2-1.6,0.2-2c0-1-0.7-2.3-2.7-4.6c-2.1-2.5-2.8-3.8-2.8-5.8c0-2.3,1.6-4,3.8-4c0.5,0,0.8,0.1,1.5,0.4
			c0-1.3,0.1-1.6,0.8-3.4c0.6-1.5,1.2-2.5,1.5-2.5c0.1,0,0.3,0.1,0.5,0.3c0.3,0.3,0.7,0.6,1,0.8c0.5,0.3,0.7,0.5,0.8,0.5
			c0.2,0.1,0.4,0.4,0.7,0.7c0.5-1.7,1-2.5,2.4-3.9c1.1-1,1.5-1.4,1.7-1.4s0.4,0.1,0.5,0.4l0.9,1.2l1.3,1.4c0.5,0.5,0.7,1,0.9,2.3
			l0.8-0.5l1.2-0.7c0.2-0.1,0.5-0.3,0.9-0.6c0.2-0.1,0.4-0.2,0.5-0.2s0.3,0.2,0.4,0.5l0.4,1.7l1,2c0.3,0.6,0.4,1,0.4,1.9v0.5h0.5
			c1.5,0,2.8,1.8,2.8,3.8c0,2.7-2.2,6.2-5,8c-0.3,0.9-0.3,1.3-0.3,2c0,6,1.6,7.3,10.8,8.7c2.3,0.3,4.4,0.8,6.2,1.3
			c0.3,0.1,2.3,0.7,6,2c2,0.7,3.4,1,4.5,1s1.8-0.3,1.8-0.9c0-1-1.5-2-6.2-3.8l-6.6-2.6c-6.7-2.6-9.9-6.7-9.9-12.7
			c0-7,5.3-12.3,12.3-12.3c2.6,0,5.2,0.5,9,1.9c4.8,1.7,5,1.8,5.5,1.8c0.9,0,1.4-0.6,1.6-2c0.1-1.1,0.4-1.6,1.1-1.6
			c0.9,0,1.9,0.9,2.7,2.3c0.6,1.2,1,2.7,1,3.9c0,2.5-1.3,4.1-3.7,4.6c-1.6,2.1-3.6,3.1-6.1,3.1c-3,0-4.5-0.6-9.7-3.8
			c-1.8-1.2-2.6-1.4-4-1.4c-1.8,0-3.1,1.1-3.1,2.6c0,1.4,1.1,2.3,3.6,3c1.5,0.4,1.7,0.5,2.5,1.3c0.6-0.1,0.9-0.2,1.3-0.2
			c2.5,0,5.5,1.3,8.1,3.5c4.7,1.4,8.8,6.5,8.8,10.7c0,4.7-4.1,8.9-8.6,8.9C1542.9,234,1540.4,233.6,1538.2,233.1"/>
		<path class="st8" d="M1535.5,254.1l0.3-0.8l0.3-1.1c0.1-0.2,0.3-0.6,0.8-1.3c0.8-1,1.2-2.3,1.2-3.8c0-0.5-0.1-0.9-0.4-1.5
			c-0.1-0.3-0.2-0.5-0.2-0.7c0-0.1,0.1-0.2,0.2-0.4c0.1-0.1,0.2-0.2,0.3-0.2l0,0c0.2,0,0.5,0.2,0.8,0.5c0.3,0.4,0.6,0.6,0.8,0.6
			c0.3,0,0.7-0.6,0.9-1.4c0.1-0.5,0.2-0.7,0.2-0.8c0-0.4-0.3-1.3-0.7-2.1c-0.1-0.3-0.2-0.6-0.2-0.8c0-0.3,0.2-0.5,0.4-0.5
			c0.2,0,0.6,0.2,1,0.6c0.2,0.2,0.4,0.3,0.6,0.3c0.5,0,0.8-0.5,1.2-1.7c0.2-0.7,0.3-1.1,0.3-1.2c0-0.2-0.1-0.4-0.3-0.4h-0.3
			l-0.9,0.1c-1.4,0-3.3-1-4.3-2.1l-2.1-2.6c-0.8-1-2-2.5-1.9-2.5l-1.7-1.1c-0.3-0.2-0.5-0.4-0.5-0.6c0-0.3,0.3-0.5,0.7-0.5
			c0.4,0,1.6,0.4,3.9,1.4c2.2,0.9,5.6,1.7,7.7,1.7c3.6,0,6.6-2.9,6.6-6.5c0-1.9-0.9-3.7-3-6.3c-0.4-0.5-1.1-0.9-1.4-0.9
			c-0.2,0-0.4,0.2-0.4,0.4c0,0.2,0.1,0.5,0.2,0.9c0.1,0.2,0.1,0.5,0.1,0.7c0,0.3-0.1,0.5-0.4,0.5c-0.5,0-1-0.8-1.4-2.1
			c-0.5-1.7-1.5-2.7-3.8-3.9c-0.9-0.5-2-0.9-2.4-0.9c-0.1,0-0.2,0.1-0.2,0.3c0,0.3,0.1,0.6,0.3,0.9c0.3,0.5,0.5,1,0.6,1.4v0.1
			c0,0.3-0.2,0.5-0.4,0.5c-0.5,0-0.6-0.1-1.7-1.8c-0.6-0.9-2.1-2-3.4-2.6c-0.4-0.2-0.9-0.3-1.3-0.3l0,0c-0.3,0-0.5,0.1-0.5,0.3
			c0,0.1,0.1,0.3,0.3,0.7l0.1,0.4c0,0.2-0.2,0.4-0.4,0.4c-0.5,0-1.9-1.2-3-2.4c-1.2-1.4-2-3.2-2-4.5c0-2.9,2.8-5.5,5.9-5.5
			c0.8,0,1.4,0.1,1.9,0.4l2.6,1.4l3.1,2.1c1.8,1.2,4.2,2.1,5.7,2.1c0.6,0,1-0.1,2.4-0.5c0.7-0.2,1.2-0.5,1.2-0.8v-0.1l-0.3-0.2
			l-1.7-0.1c-0.9-0.1-3-1-4.7-2.1l-3.5-2.3l-3.1-1.3c-0.2-0.1-0.4-0.2-0.4-0.4s0.2-0.3,0.4-0.3c0,0,0.3,0.1,0.9,0.2l2.9,0.8
			c0.7,0.2,1.9,0.7,3.5,1.6c3.2,1.7,5.2,2.4,6.7,2.4c1.8,0,3-1.2,3-2.8c0-0.5-0.1-1.4-0.3-2.2c-0.1-0.4-0.2-0.7-0.5-1
			c-0.1-0.2-0.3-0.3-0.4-0.3c-0.2,0-0.3,0.2-0.3,0.6v0.5v0.4c0,1.4-0.5,1.9-2.1,1.9c-1.3,0-2.9-0.5-6.8-2c-3.6-1.4-5.9-2-8.1-2
			c-5.7,0-10.7,4.7-10.7,10c0,4.6,3,8.1,9.3,10.7l6.4,2.7c5.3,2.2,7.3,3.8,7.3,5.8c0,1.7-1.6,2.8-4.1,2.8c-1.1,0-2.4-0.3-4.9-1.1
			c-6-1.9-9.9-2.7-13.4-2.7c-5.6,0-9.6,1.5-12.8,4.9c-0.4,0.4-0.7,0.6-1,0.6s-0.5-0.1-1.1-0.4s-1.2-0.5-1.7-0.5
			c-0.6,0-1.4,0.5-1.8,1l-0.8,1c-0.2,0.3-0.5,0.5-0.7,0.5c-0.5,0-1.5-0.9-2.1-2.1c-0.4-0.7-0.6-1.3-0.8-2c-0.1-0.5-0.2-1.3-0.2-2.1
			l0.1-1.4l0.2-1.5c0.1-0.7,0.2-1.2,0.2-1.3c0.1-0.2,0.2-0.3,0.4-0.3c0.4,0,0.6,0.4,0.6,1.2v0.5v0.3c0,2.2,0.9,4.1,1.8,4.1
			c0.7,0,1.4-1.3,1.9-3.9c0.1-0.5,0.3-0.8,0.6-0.8c0.3,0,0.5,0.4,0.7,1.5c0.1,0.7,0.6,1.8,1.1,2.4c0.3,0.4,0.6,0.6,0.9,0.6
			c0.6,0,1-0.9,1.3-3.1c0.1-0.8,0.4-1.4,0.7-1.4c0.1,0,0.2,0.1,0.3,0.2c0.1,0.1,0.2,0.3,0.5,0.8c0.2,0.3,0.5,0.6,0.8,0.8
			c0.4,0.2,0.7,0.3,0.9,0.3c0.2,0,0.5-0.1,0.7-0.3c0.3-0.3,0.5-0.5,0.5-0.6s-0.2-0.3-0.5-0.7c-0.5-0.5-0.9-1.2-1.4-2.5
			c-0.3-0.8-0.5-1.4-0.7-1.7c-0.1-0.3-0.3-0.5-0.4-0.5l-0.2-0.1l-0.4,0.1c-0.1,0-0.6,0.2-1.6,0.4l-0.5,0.1c-0.2,0-0.4-0.1-0.4-0.4
			c0-0.2,0.3-0.6,0.6-0.8c1.9-1.5,3.1-4.1,3.5-7.8c0.3-2.3,0.6-3.1,1.5-4.5c0.2-0.3,0.4-0.5,0.5-0.5c0.3,0,0.5,0.2,0.5,0.7
			c0,0.3-0.1,0.7-0.2,1.1c-0.1,0.3-0.2,0.6-0.2,0.9v0.3l0.2,0.5l0.8-0.3l0.9-1.1c0.5-0.6,1-2.1,1-3.1c0-0.7-0.2-1.2-0.6-1.7
			c-0.5-0.6-0.8-0.8-1.2-0.8h-0.5h-0.5c-0.5,0-0.7-0.1-0.7-0.4l0.1-0.6l0.1-0.8l-0.5-1.9l-0.4-0.9l-0.2-0.8l-0.5,0.4l-1.1,0.7
			c-0.3,0.2-0.6,0.5-0.9,0.8c-1.1,1.3-1.1,1.4-1.6,1.4c-0.3,0-0.4-0.1-0.4-0.3v-0.3c0.2-0.7,0.2-1.2,0.2-1.6c0-1.3-1-3.3-2.1-4.4
			c-1.6,1.5-2.4,3.2-2.4,4.8v0.9c0,0.3-0.1,0.5-0.3,0.5l0,0c-0.2,0-0.4-0.2-0.5-0.4l-0.9-1.2c-0.1-0.1-0.5-0.4-1.2-1
			c-0.1-0.1-0.3-0.3-0.6-0.5l-0.3,0.6c-0.7,1.5-1,2.4-1.1,3.6c0,1-0.1,1.3-0.4,1.3c-0.1,0-0.3-0.1-0.5-0.2c-1.1-0.6-1.3-0.7-1.8-0.7
			c-1.4,0-2.3,1-2.3,2.4c0,0.6,0.3,1.4,0.9,2.5c0.7,1.2,1.7,2.4,2.2,2.4c0.1,0,0.2-0.1,0.2-0.5v-0.2l-0.1-1.3l-0.2-1V205
			c0-0.3,0.1-0.4,0.3-0.4c0.7,0,1.3,2,1.8,6c0.4,3.5,1.4,6,2.9,7.4c0.4,0.4,0.6,0.7,0.6,0.8c0,0.1-0.1,0.2-0.3,0.2
			c-0.2,0-0.6-0.1-1-0.4c-0.3-0.2-0.6-0.2-0.8-0.2c-0.8,0-1.6,0.9-1.8,1.8l-0.7,4.3l-0.5,6.1c-0.1,1.1,0.1,2.7,0.5,4.5
			c0.4,1.6,0.5,2.8,0.5,3.6c0,4.5-2.8,8.1-7.5,9.5l-4.8,1.4c-3,0.9-4.5,2.9-4.9,6.6c0.8-0.6,1-0.7,2.2-0.9l1.4-0.2
			c0.6-0.1,1-0.2,1.3-0.4c0.1-0.1,0.4-0.4,0.8-0.8l1.3-1.4c0.5-0.5,0.9-0.9,1.2-0.9c0.2,0,0.3,0.2,0.3,0.4c0,0.3-0.2,0.7-0.5,1.3
			c-0.4,0.6-0.6,1.2-0.6,2c0,1,0.3,1.6,1.2,3c0.1-0.5,0.2-0.8,0.3-0.9c0.1-0.2,0.5-0.8,1.1-1.6c1-1.4,1.8-2.8,1.8-3.4
			c0-1.2,0.1-1.6,0.4-1.6s0.3,0.1,0.4,0.7c0,0.2,0.1,0.3,0.2,0.5c0.2,0.2,0.3,0.3,0.5,0.3c0.1,0,0.3-0.1,0.6-0.3
			c0.5-0.4,0.9-0.7,1.2-1.1c0.3-0.4,0.6-0.9,0.8-1.4c0.3-0.7,0.4-1.2,0.4-1.4v-1c0-0.3,0.1-0.5,0.3-0.5c0.2,0,0.6,0.4,0.8,0.8
			c0.2,0.3,0.3,0.4,0.5,0.4l0,0c0.3,0,0.5-0.1,0.7-0.3c0.9-0.9,1.5-2,1.5-2.8l-0.1-1.4l-0.3-1.1v-0.1c0-0.2,0.2-0.4,0.4-0.4
			c0.3,0,0.7,0.5,1.2,1.6c0.2,0.5,0.5,0.8,0.7,0.8c0.4,0,0.6-0.3,1.4-1.3l0.7-1c0.1-0.2,0.2-0.5,0.2-0.8s-0.1-0.5-0.2-0.7l-0.6-0.9
			c-0.1-0.2-0.2-0.4-0.2-0.8c0-1,0.4-2.2,1.1-3.6c0.6-1,0.9-1.6,1-1.9s0.3-0.5,0.4-0.5s0.3,0.2,0.3,0.4l-0.1,0.8v0.6v0.6
			c0.1,0.3,0.3,0.4,0.7,0.4c0.2,0,0.5-0.1,0.8-0.2l1.9-0.7c0.5-0.2,1-0.4,1.7-0.8c3-1.6,3.9-2,5.4-2c0.9,0,2,0.3,3.6,1.1
			c0.3,0.2,0.6,0.2,0.8,0.2c0.2,0,0.5-0.1,0.7-0.4c0.2-0.2,0.2-0.4,0.2-0.6c0-0.3-0.1-0.6-0.3-0.9c-0.2-0.4-0.5-0.9-0.5-1.1
			s0.1-0.3,0.3-0.3c0.2,0,0.4,0.2,0.6,0.4c0.2,0.4,0.8,1.4,1.7,3c1.4,2.5,3.3,4.3,4.9,4.6l3.3,0.8c1,0.2,1.3,0.6,1.3,1.9
			c0,2.4-1.1,4.4-3,5.7l-2.7,1.8c-1,0.6-1.8,2.4-1.8,3.8c0,0.9,0.2,2.6,0.5,3.9l0.5-0.5l1.3-0.8l1.1-1.1l0.6-1.7l0.6-1.5
			c0.3-0.7,0.6-1.2,0.9-1.2s0.4,0.4,0.4,1.2v0.2v0.3C1534.5,252,1534.6,252.4,1535.5,254.1"/>
		<path class="st8" d="M1490.6,275.7c0-3.6,1.3-5.2,6.5-7.8c10.3-5.2,15.9-10,15.9-13.7c0-0.7-0.2-1.8-0.9-4.1
			c-0.4-1.4-0.7-2.6-0.7-3.3c0-1.7,1.4-4.2,3.2-5.8l1.4-1.3c0.8-0.7,1.4-1.7,1.4-2.4V237v-0.5c0-0.7,0.3-1,1.1-1.1l0.7-0.1
			c0.3-0.1,0.5-0.2,0.6-0.2c0.2,0,0.5,0.1,0.6,0.4l0.4,0.6l0.5,0.6c0.2,0.2,0.4,0.3,0.5,0.3s0.3-0.1,0.6-0.2
			c0.4-0.2,0.6-0.3,0.9-0.3c0.4,0,0.6,0.2,0.6,0.7c0,1.5-1,3.7-2.7,6.1c-2.9,3.9-3.9,6.1-3.9,8.6c0,2,0.6,3.7,1.7,5.1
			c0.2,0.3,0.3,0.5,0.3,0.6c0,0.2-0.2,0.5-0.5,1c-0.1,0.2-0.3,0.4-0.5,0.6c-0.6,0.9-1,1.2-1.4,1.2c-0.3,0-0.6-0.2-0.7-0.6l-0.3-0.8
			c-0.1-0.2-0.3-0.4-0.4-0.4s-0.2,0.1-0.3,0.3c-0.2,0.3-0.3,0.5-0.3,0.8v1.3c0,0.5-0.2,1-0.5,1.5c-0.3,0.4-0.6,0.8-1.1,1.1
			c-0.3,0.2-0.5,0.4-0.6,0.4c-0.2,0-0.4-0.2-0.5-0.6l-0.5-1.5c-0.1-0.2-0.2-0.4-0.4-0.4c-0.3,0-0.5,0.4-0.5,1.1
			c-0.2,1.7-0.5,2.8-0.9,3.2l-1.1,1c-0.3,0.3-0.7,0.6-1,0.6c-0.2,0-0.4-0.1-0.5-0.2l-0.5-1.1c-0.1-0.1-0.2-0.2-0.3-0.2
			c-0.3,0-0.5,0.6-0.6,1.8c-0.3,2.7-0.8,4-2.3,5c-1.2,0.8-1.4,1.1-1.9,2.1c-0.7-1-0.9-1.8-0.9-3c0-0.6,0.1-1.1,0.3-1.4
			c0.3-0.6,0.5-1,0.5-1.3c0-0.2-0.1-0.3-0.3-0.3c-0.1,0-0.2,0.1-0.4,0.3c-0.2,0.2-0.5,0.5-1,0.8c-1.4,0.8-1.6,1.1-1.9,2.6
			c-0.4,2-1.4,3-3.5,3.4c-2.6,0.5-2.7,0.6-3.6,1.4L1490.6,275.7z"/>
		<path class="st8" d="M1485.7,197.5v0.8v1.1c0,0.4,0,0.7-0.2,1.2c-0.2,1.1-0.3,1.4-0.3,1.7c0,1.5,0.2,2.2,1.1,3.7
			c0.5,0.8,0.8,1.8,0.8,2.5c0,0.3-0.1,0.5-0.3,0.5c-0.1,0-0.3-0.1-0.4-0.2l-0.6-0.8c-0.5-0.7-0.9-0.8-2.2-0.8l-1.3,0.1
			c0.5,1.3,0.7,1.8,0.9,2.7c0.6,2.5,0.7,2.7,2,3.9c1.4,1.2,1.5,1.4,1.5,1.8c0,0.3-0.2,0.6-0.5,0.6l-0.5-0.1h-0.3
			c-0.4,0-0.8,0.8-0.8,1.6c0,0.5,0.2,1.3,0.5,1.9c0.2,0.4,0.4,0.8,0.5,0.9l0.8,0.8c0.2,0.2,0.3,0.5,0.3,0.8c0,0.4-0.2,0.7-0.5,0.7
			c-0.2,0-0.4-0.1-0.7-0.2c-0.2-0.1-0.4-0.2-0.5-0.2c-0.3,0-0.5,0.2-0.5,0.6l0.1,1.1l0.5,2c0.1,0.4,0.4,0.9,0.8,1.4
			c0.4,0.4,0.8,0.7,1.1,0.9c1,0.4,1.5,0.6,1.5,0.7c0.1,0.1,0.2,0.3,0.2,0.6c0,0.3-0.2,0.5-0.5,0.5c-0.1,0-0.3-0.1-0.8-0.2l-0.8-0.1
			c-0.8,0-0.8,0-0.8,0.6c0,0.4,0.1,0.8,0.2,1.2l0.3,1.2c0.3,1.3,0.7,2,1.2,2c0.1,0,0.3-0.1,0.5-0.3c1.1-0.8,3.3-1.6,4.7-1.6
			c1.4,0,3,0.2,3.7,0.4c0.3,0.1,0.6,0.2,0.7,0.2c0.2,0,0.2-0.2,0.3-0.9l0.2-1.4l0.3-2.4l0.2-1.7v-1c-0.3,0.2-0.5,0.4-0.6,0.5
			c-1.3,1.2-2.1,1.6-3.4,1.6c-3.5,0-5.5-3.9-5.5-10.8c0-2.8,0.4-6.8,1.2-11.4c0.2-1,0.2-1.6,0.2-2.1
			C1490,201.7,1488.4,199.3,1485.7,197.5"/>
		<path class="st8" d="M1490.8,214.5l0.7-0.7l0.7-0.6c0.6-0.5,1-1.6,1-2.3c0-0.4-0.1-0.7-0.3-1.1c-0.3-0.6-0.8-1.1-1.1-1.1
			c-0.3,0-0.5,0.6-0.6,1.6l-0.2,1.1l-0.2,1.1l-0.1,1.1v0.9H1490.8z"/>
		<path class="st8" d="M1484.2,245.5c0.8,0.3,0.9,0.4,1.7,1.4c1.1,1.2,1.6,1.5,3,1.5c0.4,0,0.7,0,1.1-0.1l1-0.3l0.8-0.2
			c0.4-0.1,0.6-0.3,0.6-0.4c0-0.2-0.6-0.7-1.5-1.3c-0.6-0.4-1.2-0.8-1.8-1.1c-0.7-0.3-1.2-0.5-1.7-0.5
			C1486.2,244.5,1485.2,244.8,1484.2,245.5"/>
		<path class="st8" d="M1494.4,266.8c0-2.4,2.4-4.5,5.3-4.5c1.5,0,2.3,0.3,2.3,0.8c0,0.4-0.6,0.9-2,1.7c-0.1,0.1-0.9,0.5-2.2,1.2
			c-1.5,0.8-2,1.1-3.3,1.7L1494.4,266.8z"/>
		<path class="st8" d="M1525.3,248.5c1.1-0.2,1.4-0.5,2-0.5l1.4,0.1c0.2-0.1,0.5-0.3,0.9-0.6c0.2-0.2,0.6-0.4,1.1-0.8
			c1.5-1,1.6-1.1,1.6-1.4c0-0.4-0.6-0.6-1.9-0.6C1527.9,244.6,1526.4,245.7,1525.3,248.5"/>
		<path class="st6" d="M1502.4,202.3l1.1,0.7c0.6,0.4,1.1,0.7,1.5,0.8c1.2,0.5,1.6,0.7,1.6,1.1c0,0.2,0,0.6-0.2,0.9
			c-0.1,0.3-0.2,0.7-0.2,1.1c-0.1,1-0.7,1.3-1.1,1.3c-0.5,0-1-0.8-1.9-2.3c-0.4-0.7-0.9-2-1.2-3v-0.3c0-0.2,0.1-0.3,0.3-0.3"/>
		<path class="st6" d="M1512.6,204.9l-1.7,1.8c-0.6,0.8-0.6,1.5-0.8,1.7c-0.1,0.1-0.3,0.2-0.5,0.2h-0.1c-0.4,0-0.8-0.3-0.8-0.8
			l-0.1-1.3l-0.1-1.3v-0.1c0-0.5,0.3-0.8,0.7-0.8l1.6-0.4l1.7-0.8c0.5-0.2,0.6-0.3,0.7-0.3c0.2,0,0.4,0.2,0.4,0.4
			c0,0.1-0.1,0.3-0.2,0.5L1512.6,204.9z"/>
		<path class="st6" d="M1504.9,210.1l1.1,0.8c0.3,0.2,0.6,0.3,1,0.3c0.5,0,1.1-0.2,1.8-0.5l1-0.5c0.2-0.1,0.4-0.2,0.6-0.2
			c0.6,0,1.1,0.6,1.1,1.4c0,1.1-0.8,2.3-2,3.9l-0.8,1.8c-0.7,0.9-1.1,1.3-1.6,1.3c-0.9,0-1.3-0.5-2.7-3.2c-1-1.9-1.4-3.1-1.4-4
			c0-0.8,0.4-1.4,1-1.4C1504.3,210,1504.6,209.9,1504.9,210.1"/>
		<path class="st8" d="M1505.9,214.3l0.1,1.4c0,0.7,0.6,1.3,1.1,1.3c0.7,0,1.2-1.1,1.5-2.7c0.1-0.7,0.2-0.9,0.2-1.1
			c0-0.6-0.2-0.7-0.9-0.7h-0.4h-0.5h-0.3c-0.5,0-0.7,0.4-0.7,1.3"/>
	</g>
	<g>
		<path class="st6" d="M1420.6,180h7.4v15.2h8.7v-15.1h22v15.1h8.7v-15.1h7.4v-39.3h-8.5l-0.3-0.5c-1-1.5-2.4-2.3-4.1-2.3
			s-3.1,1-4,2.8h-6.1c-0.6-1.6-2.3-2.8-4.1-2.8c-1.9,0-3.5,1-4.3,2.8h-6.6c-1.1-2-2.3-2.8-4.2-2.8c-1.9,0-3.1,0.8-4.1,2.8h-8V180
			H1420.6z"/>
		<rect x="1423.8" y="144.1" class="st7" width="48.2" height="33"/>
		<path class="st8" d="M1428.8,151.6c-1.3,0-2.3,1-2.3,2.3s1,2.3,2.3,2.3s2.3-1,2.3-2.3C1431.1,152.6,1430,151.6,1428.8,151.6"/>
		<path class="st9" d="M1428.8,156.5c-1.4,0-2.6-1.2-2.6-2.6c0-1.4,1.2-2.6,2.6-2.6s2.6,1.2,2.6,2.6S1430.2,156.5,1428.8,156.5z
			 M1428.8,151.9c-1.1,0-2,0.9-2,2s0.9,2,2,2s2-0.9,2-2S1429.9,151.9,1428.8,151.9z"/>
		<path class="st8" d="M1466.6,151.6c-1.3,0-2.3,1-2.3,2.3s1,2.3,2.3,2.3s2.3-1,2.3-2.3S1467.9,151.6,1466.6,151.6"/>
		<path class="st9" d="M1466.6,156.5c-1.4,0-2.6-1.2-2.6-2.6c0-1.4,1.2-2.6,2.6-2.6s2.6,1.2,2.6,2.6
			C1469.2,155.3,1468,156.5,1466.6,156.5z M1466.6,151.9c-1.1,0-2,0.9-2,2s0.9,2,2,2s2-0.9,2-2S1467.7,151.9,1466.6,151.9z"/>
		<path class="st8" d="M1428.8,169.6c-1.3,0-2.3,1-2.3,2.3s1.1,2.3,2.4,2.3c1.2,0,2.2-1,2.2-2.3S1430,169.6,1428.8,169.6"/>
		<path class="st9" d="M1428.9,174.5c-1.5,0-2.7-1.2-2.7-2.6c0-1.4,1.2-2.6,2.6-2.6s2.6,1.2,2.6,2.6S1430.2,174.5,1428.9,174.5z
			 M1428.8,169.9c-1.1,0-2,0.9-2,2s0.9,2,2.1,2c1,0,1.9-0.9,1.9-2S1429.9,169.9,1428.8,169.9z"/>
		<path class="st8" d="M1466.6,169.6c-1.3,0-2.3,1-2.3,2.3s1,2.3,2.3,2.3s2.3-1,2.3-2.3S1467.9,169.6,1466.6,169.6"/>
		<path class="st9" d="M1466.6,174.5c-1.4,0-2.6-1.2-2.6-2.6c0-1.4,1.2-2.6,2.6-2.6s2.6,1.2,2.6,2.6
			C1469.2,173.3,1468,174.5,1466.6,174.5z M1466.6,169.9c-1.1,0-2,0.9-2,2s0.9,2,2,2s2-0.9,2-2S1467.7,169.9,1466.6,169.9z"/>
		<path class="st8" d="M1436,162.6c3.1,3.9,7,5.8,11.9,5.8c4.5,0,7.6-1.6,11.2-5.8c-3.6-3.7-7-5.3-11.4-5.3
			C1442.9,157.3,1438.7,159.3,1436,162.6"/>
		<path class="st6" d="M1438.2,162.6c3.2-2.5,5.9-3.5,9.2-3.5c3.4,0,5.9,1,9.2,3.6c-2.9,2.8-5.4,3.9-9.2,3.9
			C1444,166.6,1440.9,165.2,1438.2,162.6"/>
		<path class="st8" d="M1442.1,161.9c1.9,1.2,3.4,1.7,5.2,1.7c2.1,0,3.9-0.5,5.6-1.7c-1.8-0.9-3.7-1.3-5.5-1.3
			C1445.5,160.6,1443.7,161,1442.1,161.9"/>
		<rect x="1423.1" y="145.8" class="st6" width="49.5" height="1.7"/>
		<path class="st9" d="M1472.7,147.5H1423v-1.9h49.7V147.5z M1423.2,147.3h49.3v-1.5h-49.3V147.3z"/>
		<path class="st8" d="M1430.7,143.6v3.9v0.8c0,1.1,0.9,2,2,2c1.3,0,2.1-0.7,2.1-2v-0.8v-3.8c0-1.8-0.7-2.9-1.9-2.9
			c-0.2,0-0.6,0.1-0.9,0.2c-0.3,0.1-0.4,0.2-0.5,0.3c-0.2,0.2-0.3,0.4-0.5,0.6c-0.2,0.4-0.3,0.7-0.3,0.8"/>
		<path class="st8" d="M1445.6,147.5v0.8c0,1.1,0.9,2,2,2c1.3,0,2.1-0.7,2.1-2v-0.8v-3.8c0-1.8-0.7-2.9-1.9-2.9
			c-1.4,0-2.2,1.1-2.2,2.8"/>
		<path class="st8" d="M1460,143.6v3.9v0.8c0,1.1,0.9,2,2,2c1.3,0,2.1-0.7,2.1-2v-0.8v-3.8c0-1.8-0.7-2.9-1.9-2.9
			c-0.2,0-0.6,0.1-0.9,0.2c-0.3,0.1-0.4,0.2-0.5,0.3c-0.2,0.2-0.3,0.4-0.5,0.6c-0.2,0.4-0.3,0.7-0.3,0.8"/>
		<rect x="1429.6" y="183.6" class="st8" width="4.5" height="5.8"/>
		<rect x="1429.6" y="190.7" class="st8" width="4.5" height="1.8"/>
		<rect x="1460.3" y="183.6" class="st8" width="4.5" height="5.8"/>
		<rect x="1460.3" y="190.7" class="st8" width="4.5" height="1.8"/>
	</g>
	<path class="st6" d="M1707.9,42.7c0,0.7,0,2.8,0,3.5c-0.7,0-2.3,0-2.3,0c-3.4,0-9,0-9,10.5V100c0,26.5-11.5,39.4-35.3,39.4
		c-26.8,0-39.2-10.7-39.2-33.6V56.7c0-10.5-5.7-10.5-10.8-10.5c0,0-0.6,0-1.1,0c0-0.7,0-2.8,0-3.5c1,0,39,0,40.1,0
		c0,0.7,0,2.8,0,3.5c-0.5,0-1.1,0-1.1,0c-5,0-11.2,0-11.2,10.5v46.9c0,20.2,8.4,30,25.8,30c16.9,0,25.8-10.6,25.8-30.6V56.7
		c0-10.5-5.8-10.5-10.1-10.5c0,0-1.5,0-2.1,0c0-0.7,0-2.8,0-3.5C1678.5,42.7,1706.9,42.7,1707.9,42.7"/>
	<path class="st6" d="M1751.2,133.8v3.5c0,0-32.8,0-33.8,0c0-0.7,0-2.8,0-3.5c0.5,0,1.3,0,1.3,0c11.1,0,12.5-8.5,12.5-18V58.9
		c0-9.1-5.2-12.9-12.6-12.9h-1.2v-3.5h26.6l57.5,70.5V59.4c0-12.1-8.5-13.4-12.1-13.4c0,0-1.7,0-2.4,0c0-0.7,0-2.8,0-3.5
		c1,0,33.1,0,34.1,0c0,0.7,0,2.8,0,3.5c-0.6,0-1.5,0-1.5,0c-6,0-12.4,1.4-12.4,18v73.7h-5L1737,58.8v57c0,9.5,1.4,18,12.8,18"/>
	<path class="st6" d="M1932.5,117.2l20.8-58.2c3.7-9.9,1.3-12.9-7.3-12.9h-1.7v-3.5h26.9v3.5h-0.6c-2.9,0-6.4,0.9-8.9,7.4
		l-31.5,84.1h-6l-34.3-83.3c-2.7-6.9-5.9-8.2-11.7-8.2c0,0-0.4,0-0.8,0c0-0.7,0-2.8,0-3.5c1,0,38.1,0,39.1,0c0,0.7,0,2.8,0,3.5
		c-0.7,0-2.5,0-2.5,0c-6.7,0-8,4.2-6.1,9.3"/>
	<path class="st6" d="M2104.9,42.6c20.9,0,31.4,7.7,31.4,23.6c0,13.5-10.5,20.3-18.8,23.6l-0.6,0.2l23.2,35.3
		c3.7,5.7,6.7,7.9,13.1,8.3c0,0.6,0,2.8,0,3.5c-1,0-24.2,0-24.2,0l-28.1-44.4h-10.5v29.6c0,10.7,4.8,11.5,11.5,11.5c0,0,1.2,0,1.9,0
		c0,0.7,0,2.8,0,3.5c-1,0-40.1,0-41.1,0c0-0.7,0-2.8,0-3.5c0.6,0,1.9,0,1.9,0c4.6,0,10-2.1,10-7.9V57.1c0-11-6.5-11-10-11
		c0,0-1.2,0-1.9,0c0-0.7,0-2.8,0-3.5C2063.6,42.6,2104.9,42.6,2104.9,42.6 M2090.4,47.1V89h8.1c14.7,0,21.2-6.6,21.2-21.9
		c0-12.5-8-20.6-20.2-20.6C2096.7,46.5,2092.8,46.7,2090.4,47.1z"/>
	<path class="st6" d="M2203.2,119.3c0-11.5-9.9-16.1-19.1-20.9c-10.8-5.6-23.2-11.4-23.2-28.9c0-16.9,12.9-27.8,31.3-27.8
		c7.5,0,16.1,1.5,19.8,2.3l1.3,18.4l-3.5,0.5c-1.6-9.7-6.7-17.1-17.6-17.1c-10.2,0-17.8,6.3-17.8,17.6c0,10.7,9.8,15,19,19.7
		c11.2,5.7,24.1,11.5,24.1,29.1c0,19.5-17.4,28.3-33.5,28.3c-6.4,0-15.3-1.3-22.4-5.3l-2.3-20.5l3.4-0.6
		c2.6,13.6,11.2,21.5,22.6,21.5C2196.3,135.5,2203.2,128.9,2203.2,119.3"/>
	<path class="st6" d="M2270.7,42.7c0,0.7,0,2.8,0,3.5c-0.5,0-1.3,0-1.3,0c-5.4,0-10.4,1-10.4,8.4v71c0,7.3,5,8.4,10.4,8.4
		c0,0,0.8,0,1.3,0c0,0.7,0,2.8,0,3.5c-1,0-38.5,0-39.5,0c0-0.7,0-2.8,0-3.5c0.5,0,1.3,0,1.3,0c5.4,0,10.4-1,10.4-8.4v-71
		c0-7.3-5-8.4-10.4-8.4c0,0-0.8,0-1.3,0c0-0.7,0-2.8,0-3.5C2232.2,42.7,2269.7,42.7,2270.7,42.7"/>
	<path class="st6" d="M1871.9,42.7c0,0.7,0,2.8,0,3.5c-0.5,0-1.3,0-1.3,0c-5.4,0-10.4,1-10.4,8.4v71c0,7.3,5,8.4,10.4,8.4
		c0,0,0.8,0,1.3,0c0,0.7,0,2.8,0,3.5c-1,0-38.5,0-39.5,0c0-0.7,0-2.8,0-3.5c0.5,0,1.3,0,1.3,0c5.4,0,10.4-1,10.4-8.4v-71
		c0-7.3-5-8.4-10.4-8.4c0,0-0.8,0-1.3,0c0-0.7,0-2.8,0-3.5C1833.4,42.7,1870.9,42.7,1871.9,42.7"/>
	<path class="st6" d="M2659.6,179.3l0.3,25.1c0,0-3,0.8-4,1c-0.9-11-3.4-19.9-20.9-19.9h-23.6v46.4h20.3c9.9,0,12.6-5.6,13.8-15.1
		c0.8,0,3.2,0,4,0c0,1.3,0,38.8,0,38.8l-4,0.1c-0.6-9.3-2.8-16.5-13.7-16.5h-20.3V280c0,11.9,10.2,11.9,21,11.9
		c19.4,0,28.4-1.2,33.8-20.8c0.8,0.2,4,0.9,4,0.9l-5.4,26.2c0,0-86.8,0-88.1,0c0-0.9,0-3.5,0-4.3c0.7,0,1.7,0,1.7,0
		c6.8,0,13-1.3,13-10.5v-89c0-9.2-6.2-10.5-13-10.5c0,0-1,0-1.7,0c0-0.9,0-3.5,0-4.3C2577.9,179.3,2659.6,179.3,2659.6,179.3"/>
	<path class="st6" d="M2179.5,179.3c26.3,0,39.3,9.7,39.3,29.6c0,16.9-13.2,25.4-23.6,29.6l-0.8,0.3l29.1,44.3
		c4.7,7.2,8.5,10,16.5,10.4c0,0.8,0,3.5,0,4.4c-1.2,0-30.4,0-30.4,0l-35.3-55.7h-13.1v37c0,13.4,5.9,14.4,14.3,14.4c0,0,1.5,0,2.4,0
		c0,0.9,0,3.5,0,4.3c-1.3,0-50.3,0-51.6,0c0-0.9,0-3.5,0-4.3c0.8,0,2.3,0,2.3,0c5.8,0,12.5-2.6,12.5-10v-86.3
		c0-13.8-8.1-13.8-12.5-13.8c0,0-1.5,0-2.3,0c0-0.9,0-3.5,0-4.3C2127.6,179.3,2179.5,179.3,2179.5,179.3 M2161.2,184.9v52.6h10.1
		c18.5,0,26.6-8.2,26.6-27.5c0-15.7-10.1-25.8-25.3-25.8C2169.1,184.1,2164.6,184.3,2161.2,184.9z"/>
	<path class="st6" d="M2296.9,179.3c0,0.9,0,3.5,0,4.3c-0.7,0-1.7,0-1.7,0c-6.8,0-13,1.3-13,10.5v89.1c0,9.2,6.3,10.5,13,10.5
		c0,0,1,0,1.7,0c0,0.9,0,3.5,0,4.3c-1.3,0-48.3,0-49.6,0c0-0.9,0-3.5,0-4.3c0.7,0,1.7,0,1.7,0c6.8,0,13-1.3,13-10.5v-89.1
		c0-9.2-6.2-10.5-13-10.5c0,0-1,0-1.7,0c0-0.9,0-3.5,0-4.3C2248.5,179.3,2295.6,179.3,2296.9,179.3"/>
	<path class="st6" d="M2291.3,42.7h62.6c3.1,0,7.2-0.8,7.8-4.9h3l-2.4,24.7h-3.4c-0.2-5.7-1-14-10.2-14h-19.1v73.1
		c0,11.4,5.5,12.3,11.6,12.3c0,0,1.3,0,2,0c0,0.7,0,2.8,0,3.5c-1,0-42.1,0-43.1,0c0-0.7,0-2.8,0-3.5c0.7,0,2,0,2,0
		c7.2,0,11.6-0.6,11.6-12.1V48.5h-19.3c-9.8,0-10.8,4.3-12.7,13.9h-3.4l2.2-24.4c0,0,2.3,0,2.8,0C2284.6,41.9,2288,42.7,2291.3,42.7
		"/>
	<path class="st6" d="M2461.6,42.7v3.5c-5.5,0.3-8.7,4-11.2,7.5l-24,37v30.2c0,12,4.4,12.9,11.6,12.9c0,0,1.3,0,2,0
		c0,0.7,0,2.8,0,3.5c-1,0-42.1,0-43.1,0c0-0.7,0-2.8,0-3.5c0.7,0,2,0,2,0c7.5,0,11.6-1.9,11.6-11.8V92.9l-26.1-37.3
		c-4-5.7-7-9.5-13.3-9.5h-0.8v-3.5h39.1v3.5h-1.2c-7.5,0-8.1,4-4.8,8.5l20.2,31.3l17.9-28.3c4.1-6.2,5.3-11.6-4.9-11.6h-1.6v-3.5"/>
	<path class="st6" d="M2490.3,90.7c0-28.1,21.3-50.1,48.6-50.1c29.7,0,50.4,19.2,50.4,46.8c0,30.1-20.9,52-49.7,52
		C2511,139.3,2490.3,118.9,2490.3,90.7 M2507.8,85.9c0,23.4,10.3,48.5,33,48.5c20.8,0,30.8-14.4,30.8-44c0-21.7-11.6-44.8-33.1-44.8
		C2510.1,45.5,2507.8,76.4,2507.8,85.9z"/>
	<path class="st6" d="M2600,137.3c0-0.7,0-2.8,0-3.5c0.5,0,1.3,0,1.3,0c5.4,0,10.4-1,10.4-8.4v-71c0-7.3-5-8.4-10.4-8.4
		c0,0-0.8,0-1.3,0c0-0.7,0-2.7,0-3.4h66.1l0.2,20c-0.5,0.1-2.4,0.6-3.2,0.8c-0.7-8.1-2.6-15.9-13.9-15.9h-21.6v37h18.9
		c7.8,0,9-6.2,9-11.1c0.7,0,2.4,0,3.1,0l0,0v30.3c-0.7,0-2.5,0-3.1,0c-0.1-5.9-1.4-13.4-11.2-13.4h-16.8v35.1
		c0,8.4,7.1,8.4,13.3,8.4c0,0,0.7,0,1.2,0c0,0.7,0,2.7,0,3.5"/>
	<path class="st6" d="M1617.8,238.6c0-17.6,7.2-35,19.5-46c11.4-10.3,26.4-16,43.4-16c15.2,0,27.8,2.7,40.2,8.5l1.3,27.5l-3.9,0.5
		c-4.5-15.9-11.9-30.5-37.1-30.5c-25.8,0-41.9,20.5-41.9,53.4c0,29.3,13,57,44.4,57c17.7,0,30.3-6.6,39.8-18.8l3.1,5.8
		c-10.7,13.8-27.3,21.2-46.1,21.2C1642.2,301.1,1617.8,278.6,1617.8,238.6"/>
	<path class="st6" d="M1873.7,202.3l-3.9,73.3c-0.7,16.2,4.3,17.7,15.2,18.1h1v4.3h-40v-4.3h1.5c13.5-0.5,14.3-8,14.9-19l4.6-75
		c0.6-10.2-5-16-14.4-16c0,0-0.7,0-1.4,0c0-0.9,0-3.4,0-4.3c1.5,0,32.6,0,33.6,0c0.4,1,40.3,90,40.3,90s37.7-89,38.1-90
		c0.9,0,32.9,0,32.9,0v4.4h-0.6c-13.3,0-15.7,4.1-14.7,20.9l4.6,78.7c0.7,9.2,5.5,10,14.6,10.4c0,0.9,0,3.3,0,4.3
		c-1.5,0-47.8,0-49.3,0c0-1,0-3.4,0-4.3c0.1,0,0.3,0,0.3,0c8-0.5,13.8-0.8,13.8-8.9l-0.2-8.5l-3.6-75.9c0,0-40.6,97.6-41,98.5
		c-0.7,0-2.9,0-3.6,0C1916.3,297.9,1873.7,202.3,1873.7,202.3"/>
	<path class="st6" d="M2315.5,298v-4.4h1.7c6.8,0,13-1.3,13-10.5v-89c0-9.2-6.3-10.5-13-10.5h-1.7v-4.3h53.1
		c19.7,0,36.2,5,47.8,15.7c11.4,10.6,17.4,25.6,17.4,43.4c0,16.6-6.6,32.7-18.2,44.2c-11.6,11.5-27.9,15.4-44.3,15.4 M2350.4,184.9
		v93.2c0,12.6,5.3,14.6,18.1,14.6c30,0,43.6-25.8,43.6-51.1c0-39.3-16.2-57.2-49.6-57.2C2359.5,184.4,2353.2,184.6,2350.4,184.9z"/>
	<path class="st6" d="M2534.8,291.9v-29.1c0-6.4-4.6-9.7-13.4-9.7h-1.4v-4.2h45.6v4.2h-1.4c-6.4,0-9.8,3.4-9.8,9.7v32.4
		c-10.9,3.5-25.5,6.3-41.7,6.3c-39.2,0-64.5-25.4-64.5-64.7c0-41.8,33.4-60.8,64.8-60.8c14.1,0,28.5,2.8,37.7,5.9l1.9,28.3l-4,0.2
		c-4.9-20.4-14-28.4-34.5-28.4c-27.6,0-44.3,20.3-44.3,53.1c0,30.1,14.1,59.9,45.6,59.9C2522.9,295,2530.4,293.9,2534.8,291.9"/>
	<path class="st6" d="M2051.9,236.5v41.8c0,11.6,3.7,14.9,15.7,14.9c14.5,0,25.4-11.9,25.4-28.1c0-18.2-11.1-28.6-29.7-28.6
		 M2051.9,183.7v47.6h8.9c16.4,0,25.4-7.9,25.4-23.1c0-16.8-7.9-24.6-23.5-24.6h-10.8V183.7z M2076.3,233.4
		c14.9,1.1,22.9,4.4,29.6,11.2c5.2,5.3,7.9,12,7.9,19.8c0,18.6-17.1,33.6-39.3,33.6h-58.2v-4.3h2.3c5.8,0,12.5-2.7,12.5-10.1v-86.1
		c0-13.7-8.1-13.7-12.5-13.7h-2.3v-4.5h52.7c24.7,0,38.4,9,38.4,26C2107.4,224.1,2090.8,231,2076.3,233.4"/>
	<path class="st6" d="M1779.2,179.3c0,0-37.7,102.4-37.7,102.5c-2.8,7.3-7.7,11.8-15,11.8h-0.4v4.5h36.1v-4.5h-1.6
		c-8.7,0-14.6-2.8-10.8-14l8.6-23.9h37.4l9.4,26.1c2.7,8.2-0.8,12-9.8,12h-1v4.4h46v-4.4h-0.4c-6.1,0-10.3-3.2-13.2-11.4l-38.7-103
		 M1777.1,203.5l16.6,46.2h-33.2L1777.1,203.5z"/>
	<path class="st6" d="M2043.7,42.6l0.3,20c0,0-2.4,0.6-3.2,0.8c-0.7-8.8-2.7-15.9-16.7-15.9h-18.8v37h16.1c7.9,0,10.1-4.4,11-12.1
		c0.6,0,2.5,0,3.2,0c0,1,0,30.9,0,30.9h-3.2c-0.5-7.4-2.2-13.1-10.9-13.1h-16.2v32.5c0,9.5,8.1,9.5,16.7,9.5
		c15.4,0,22.6-1,26.9-16.6c0.6,0.2,3.2,0.7,3.2,0.7l-4.3,20.9c0,0-69.2,0-70.2,0c0-0.7,0-2.8,0-3.5c0.5,0,1.3,0,1.3,0
		c5.4,0,10.4-1,10.4-8.4v-71c0-7.3-5-8.4-10.4-8.4c0,0-0.8,0-1.3,0c0-0.7,0-2.8,0-3.5C1978.6,42.6,2043.7,42.6,2043.7,42.6"/>
</g>
<g>
	<path class="st0" d="M689.7,122.4h-10.3V85.2h-0.6L664.9,116h-10.6l-14-30.8h-0.6v37.2h-10.3v-56h13l17,38.4h0.6l17-38.4h12.9v56
		H689.7z"/>
	<path class="st0" d="M732.9,122.4l-11.7-21.8h-9.1v21.8h-10.3v-56h22.1c11.2,0,18.1,6.6,18.1,16.5c0,7.6-4.2,13.2-10.8,15.8
		l12.9,23.8h-11.2V122.4z M712.1,91.6h10.6c5.4,0,8.7-3.4,8.7-8.2c0-5-3.3-8.1-8.7-8.1h-10.6V91.6z"/>
	<path class="st0" d="M776.6,123.2c-17.1,0-27.5-12.1-27.5-28.6c0-17,11-29,27.5-29c12.6,0,22.7,6.7,24.6,19.1h-11.3
		c-1.8-5.8-6.5-9.4-13.3-9.4c-10,0-16.7,8.4-16.7,19.3c0,11.3,7.2,18.8,16.7,18.8c7.3,0,12.4-3.6,14.2-9h11.4
		C800.3,116.4,789.6,123.2,776.6,123.2z"/>
	<path class="st0" d="M858.8,123.2c-17.1,0-27.5-12.1-27.5-28.6c0-17,11-29,27.5-29c12.6,0,22.7,6.7,24.6,19.1H872
		c-1.8-5.8-6.5-9.4-13.3-9.4c-10,0-16.7,8.4-16.7,19.3c0,11.3,7.2,18.8,16.7,18.8c7.3,0,12.4-3.6,14.2-9h11.4
		C882.5,116.4,871.7,123.2,858.8,123.2z"/>
	<path class="st0" d="M890,102.3c0-12.3,9.1-20.7,21.1-20.7s21.1,8.5,21.1,20.7c0,12.4-9,20.9-21.1,20.9
		C899.2,123.2,890,114.6,890,102.3z M922,102.3c0-6.6-4.4-11.8-11-11.8s-10.9,5.2-10.9,11.8c0,6.7,4.3,12,10.9,12
		C917.7,114.3,922,109,922,102.3z"/>
	<path class="st0" d="M970.6,87.9c1.7,2.2,2.6,4.7,2.6,7.5c0,8.5-7.3,13.4-16.8,13.4c-2.5,0-4.7-0.3-6.7-0.9
		c-1.3,0.6-1.9,1.5-1.9,2.6c0,2.3,2.6,3,5.3,3h7.8c9.6,0,14.6,4.6,14.6,11.8c0,8.6-7.2,13.7-18.8,13.7c-12.7,0-18.6-6.3-19.4-13.4
		l6.1-5.4c-2.8-1.5-4.6-4.2-4.6-7.4c0-3.8,2.5-6.2,5.4-7.8c-3-2.3-4.7-5.6-4.7-9.8c0-7.8,6.3-13.8,16.6-13.8c3.5,0,6.7,0.7,9.3,2
		c2.6-1.3,5.3-3.5,6.9-5.7l5,5.6C975.8,84.9,973.3,86.6,970.6,87.9z M959.6,121.7h-7.3l-5.3,4.5c0.9,2.8,3.8,5.4,9.7,5.4
		c4.9,0,9-1.8,9-5.4C965.6,122.7,962.5,121.7,959.6,121.7z M963.4,95.3c0-3.7-2.6-6.3-7-6.3c-4.5,0-7.3,2.6-7.3,6.3
		c0,3.5,2.8,6.2,7.3,6.2C960.8,101.4,963.4,98.8,963.4,95.3z"/>
	<path class="st0" d="M982.4,82.4h9.4l0.9,4.7h0.6c2.4-3.1,5.8-5.5,11.8-5.5c9.5,0,15.6,6.1,15.6,16.6v24.2h-10.2v-22.2
		c0-6.6-3.8-9.8-8.6-9.8c-4.9,0-9.2,3.1-9.2,10.2v21.7h-10.2V82.4H982.4z"/>
	<path class="st0" d="M1028.4,71.1c0-3.5,3-6.2,6.3-6.2c3.4,0,6.2,2.7,6.2,6.2c0,3.3-2.8,6.2-6.2,6.2
		C1031.4,77.3,1028.4,74.4,1028.4,71.1z M1029.6,82.4h10.2v40h-10.2V82.4z"/>
	<path class="st0" d="M1053.8,111.5v-21h-8.6v-8.1h2.7c4.9,0,6.8-1.8,6.8-6.1v-4.8h9.3v10.9h10.5v8.1H1064v19.7c0,2.2,0.6,5,5.4,5
		c1.2,0,2.7-0.2,3.9-0.6v7.8c-1.8,0.4-4.2,0.9-7,0.9C1055.1,123.2,1053.8,115.9,1053.8,111.5z"/>
	<path class="st0" d="M1079.5,71.1c0-3.5,3-6.2,6.3-6.2c3.4,0,6.2,2.7,6.2,6.2c0,3.3-2.8,6.2-6.2,6.2
		C1082.4,77.3,1079.5,74.4,1079.5,71.1z M1080.7,82.4h10.2v40h-10.2V82.4z"/>
	<path class="st0" d="M1098.2,102.3c0-12.3,9.1-20.7,21.1-20.7s21.1,8.5,21.1,20.7c0,12.4-9,20.9-21.1,20.9
		C1107.4,123.2,1098.2,114.6,1098.2,102.3z M1130.3,102.3c0-6.6-4.4-11.8-11-11.8s-10.9,5.2-10.9,11.8c0,6.7,4.3,12,10.9,12
		C1126,114.3,1130.3,109,1130.3,102.3z"/>
	<path class="st0" d="M1147.8,82.4h9.4l0.9,4.7h0.6c2.4-3.1,5.8-5.5,11.8-5.5c9.5,0,15.6,6.1,15.6,16.6v24.2h-10.2v-22.2
		c0-6.6-3.8-9.8-8.6-9.8c-4.9,0-9.2,3.1-9.2,10.2v21.7h-10.2V82.4H1147.8z"/>
	<path class="st0" d="M666.1,196.7v7.7h-4.3c-3.8,0-6.7-1.1-8.1-4.8c-2.7,3.4-6.9,5.6-13.2,5.6c-8.2,0-14.2-3.8-14.2-11.8
		c0-7.7,5.8-11.4,13.2-12.2l12.5-1.3v-1.6c0-4.4-2.8-6.6-6.7-6.6c-4.3,0-6.6,2.4-7.2,6h-10.2c0.8-8.3,7.2-14.2,17.4-14.2
		c9.4,0,17,4.7,17,15.4v14.6c0,2.1,1,3,2.9,3h0.9V196.7z M652.1,187l-9,1c-3.7,0.4-6.5,1.9-6.5,5c0,3.2,2.5,4.3,5.7,4.3
		c4.3,0,9.8-2.1,9.8-8.4V187z"/>
	<path class="st0" d="M672.1,164.4h9.4l0.9,4.7h0.6c2.4-3.1,5.8-5.5,11.8-5.5c9.5,0,15.6,6.1,15.6,16.6v24.2h-10.2v-22.2
		c0-6.6-3.8-9.8-8.6-9.8c-4.9,0-9.2,3.1-9.2,10.2v21.7h-10.2v-39.9H672.1z"/>
	<path class="st0" d="M758.2,147.6v56.8h-8.3l-0.9-4.7h-0.7c-1.9,2.6-5.7,5.5-11.9,5.5c-10.7,0-18.8-8.2-18.8-20.9
		c0-13,8.3-20.7,18.8-20.7c5.4,0,9.4,2.2,11.6,4.6v-20.6L758.2,147.6L758.2,147.6z M748,184.3c0-7-3.9-11.8-10-11.8
		s-10.2,4.8-10.2,11.8c0,7.2,4.1,12,10.2,12S748,191.5,748,184.3z"/>
	<path class="st0" d="M830.7,188.9c0,9.8-6.8,15.5-18.1,15.5h-22.9v-56h23c11,0,16.3,5.8,16.3,14c0,6.7-3.7,10.1-7.8,12v0.5
		C825.3,176.3,830.7,180.2,830.7,188.9z M800,171.3h11.1c4.8,0,7.4-2.9,7.4-7.3c0-4.5-2.9-7.2-7.2-7.2H800V171.3z M819.9,188.1
		c0-4.7-3-8.2-8.2-8.2h-11.6V196h11.6C817.1,195.9,819.9,192.6,819.9,188.1z"/>
	<path class="st0" d="M838.7,164.4h9.3l1,5.7h0.6c2.5-4,5.2-6.5,11.9-6.5h2.9v10.2c-1.4-0.2-2.9-0.3-4.3-0.3
		c-8.8,0-11.1,6.5-11.1,12.2v18.6h-10.2v-39.9H838.7z"/>
	<path class="st0" d="M906.8,196.7v7.7h-4.3c-3.8,0-6.7-1.1-8.1-4.8c-2.7,3.4-6.9,5.6-13.2,5.6c-8.2,0-14.2-3.8-14.2-11.8
		c0-7.7,5.8-11.4,13.2-12.2l12.5-1.3v-1.6c0-4.4-2.8-6.6-6.7-6.6c-4.3,0-6.6,2.4-7.2,6h-10.2c0.8-8.3,7.2-14.2,17.4-14.2
		c9.4,0,17,4.7,17,15.4v14.6c0,2.1,1,3,2.9,3h0.9V196.7z M892.8,187l-9,1c-3.7,0.4-6.5,1.9-6.5,5c0,3.2,2.5,4.3,5.7,4.3
		c4.3,0,9.8-2.1,9.8-8.4V187z"/>
	<path class="st0" d="M911.7,153.1c0-3.5,3-6.2,6.3-6.2c3.4,0,6.2,2.7,6.2,6.2c0,3.3-2.8,6.2-6.2,6.2
		C914.7,159.3,911.7,156.4,911.7,153.1z M912.9,164.4h10.2v40h-10.2V164.4z"/>
	<path class="st0" d="M932,164.4h9.4l0.9,4.7h0.6c2.4-3.1,5.8-5.5,11.8-5.5c9.5,0,15.6,6.1,15.6,16.6v24.2h-10.2v-22.2
		c0-6.6-3.8-9.8-8.6-9.8c-4.9,0-9.2,3.1-9.2,10.2v21.7h-10.2v-39.9H932z"/>
	<path class="st0" d="M648.8,287.2c-13.4,0-20.5-7.2-20.9-17.9h10.4c0.5,5.6,4.1,9,10.5,9c4.8,0,8.8-2,8.8-6.9c0-5.7-5.5-7.5-10.6-9
		l-3.2-1c-6.9-2.1-14.1-6.3-14.1-15.6c0-10,8.2-16.2,19-16.2c11.5,0,18.8,7,19.1,16.5h-10.4c-0.5-4.4-3.3-7.5-8.6-7.5
		c-5,0-8.4,2.6-8.4,6.7c0,4.8,4.9,6.4,9.6,7.8l2.8,0.9c5.3,1.6,15.5,5.4,15.5,17C668.2,282,659.1,287.2,648.8,287.2z"/>
	<path class="st0" d="M674.2,266.5c0-12.6,9.1-21,20.8-21c9.3,0,18.1,5,19.4,15.4h-10.2c-0.9-3.7-4.3-6.6-9.1-6.6
		c-6.1,0-10.6,5-10.6,12.1c0,7,4.2,11.8,10.7,11.8c4.6,0,7.8-2.1,9-5.8h10.3c-1.4,9-9,14.6-19.4,14.6
		C682.7,287.2,674.2,278.6,674.2,266.5z"/>
	<path class="st0" d="M720.3,235.1c0-3.5,3-6.2,6.3-6.2c3.4,0,6.2,2.7,6.2,6.2c0,3.3-2.8,6.2-6.2,6.2
		C723.3,241.3,720.3,238.4,720.3,235.1z M721.5,246.4h10.2v40h-10.2V246.4z"/>
	<path class="st0" d="M778.2,273.7c-1.6,8.2-8.5,13.4-18.6,13.4c-11.9,0-20.6-8.1-20.6-20.4c0-13.2,9.1-21.2,20.2-21.2
		c9.8,0,19,6.2,19,20.6c0,1-0.1,1.8-0.2,3h-28.8c0.4,5.8,4.2,9.9,10.4,9.9c4.5,0,7.7-1.8,8.8-5.3H778.2z M749.3,262.2h19.1
		c-0.2-5-3.9-8.5-9.2-8.5C753.7,253.7,750,257.4,749.3,262.2z"/>
	<path class="st0" d="M785.9,246.4h9.4l0.9,4.7h0.6c2.4-3.1,5.8-5.5,11.8-5.5c9.5,0,15.6,6.1,15.6,16.6v24.2h-10.3v-22.2
		c0-6.6-3.8-9.8-8.6-9.8c-4.9,0-9.2,3.1-9.2,10.2v21.7h-10.2V246.4z"/>
	<path class="st0" d="M831.3,266.5c0-12.6,9.1-21,20.8-21c9.3,0,18.1,5,19.4,15.4h-10.2c-0.9-3.7-4.3-6.6-9.1-6.6
		c-6.1,0-10.6,5-10.6,12.1c0,7,4.2,11.8,10.7,11.8c4.6,0,7.8-2.1,9-5.8h10.3c-1.4,9-9,14.6-19.4,14.6
		C839.7,287.2,831.3,278.6,831.3,266.5z"/>
	<path class="st0" d="M915.7,273.7c-1.6,8.2-8.5,13.4-18.6,13.4c-11.9,0-20.6-8.1-20.6-20.4c0-13.2,9.1-21.2,20.2-21.2
		c9.8,0,19,6.2,19,20.6c0,1-0.1,1.8-0.2,3h-28.8c0.4,5.8,4.2,9.9,10.4,9.9c4.5,0,7.7-1.8,8.8-5.3H915.7z M886.8,262.2h19.1
		c-0.2-5-3.9-8.5-9.2-8.5C891.2,253.7,887.5,257.4,886.8,262.2z"/>
	<path class="st0" d="M921.6,273.6h9.8c0.6,4.3,3.8,6,7.8,6c3.1,0,5.8-1.2,5.8-4.1c0-3-2.7-4.3-7-5.4l-3.8-1
		c-5.4-1.3-11.4-3.4-11.4-11.3c0-8,7-12.2,15-12.2c10.8,0,15.8,5.7,16.3,12.2h-9.8c-0.4-2.9-2.6-4.6-6.4-4.6c-3.1,0-5.3,1.5-5.3,4.1
		c0,2.8,2.7,3.5,6.6,4.6l3.8,1c7,1.8,11.9,5,11.9,12.5c0,8.2-7,11.9-15.5,11.9C928.1,287.2,922.1,281.8,921.6,273.6z"/>
	<path class="st0" d="M1031.3,264.7c0,15.2-9.8,22.5-22.9,22.5s-23.1-7.3-23.1-22.5v-34.3h10.6v34c0,8.5,5.3,13,12.6,13
		s12.3-4.6,12.3-13v-34h10.6v34.3H1031.3z"/>
	<path class="st0" d="M1041.5,246.4h9.4l0.9,4.7h0.6c2.4-3.1,5.8-5.5,11.8-5.5c9.5,0,15.6,6.1,15.6,16.6v24.2h-10.2v-22.2
		c0-6.6-3.8-9.8-8.6-9.8c-4.9,0-9.2,3.1-9.2,10.2v21.7h-10.2v-39.9H1041.5z"/>
	<path class="st0" d="M1087.5,235.1c0-3.5,3-6.2,6.3-6.2c3.4,0,6.2,2.7,6.2,6.2c0,3.3-2.8,6.2-6.2,6.2
		C1090.4,241.3,1087.5,238.4,1087.5,235.1z M1088.7,246.4h10.2v40h-10.2V246.4z"/>
	<path class="st0" d="M1112.8,275.5v-21h-8.6v-8.1h2.7c4.9,0,6.8-1.8,6.8-6.1v-4.8h9.3v10.9h10.5v8.1H1123v19.7c0,2.2,0.6,5,5.4,5
		c1.2,0,2.7-0.2,3.9-0.6v7.8c-1.8,0.4-4.2,0.9-7,0.9C1114.1,287.2,1112.8,279.9,1112.8,275.5z"/>
</g>
</svg>
