<?xml version="1.0" encoding="utf-8"?>
<!-- Generator: Adobe Illustrator 26.4.1, SVG Export Plug-In . SVG Version: 6.00 Build 0)  -->
<svg version="1.1" id="Layer_1" xmlns="http://www.w3.org/2000/svg" xmlns:xlink="http://www.w3.org/1999/xlink" x="0px" y="0px"
	 viewBox="0 0 141.73 43.61" style="enable-background:new 0 0 141.73 43.61;" xml:space="preserve">
<style type="text/css">
	.st0{fill:#001C54;}
	.st1{clip-path:url(#SVGID_00000135667010085833017270000001800904410415890836_);fill:#FFFFFF;}
	.st2{clip-path:url(#SVGID_00000135667010085833017270000001800904410415890836_);fill:#001C54;}
</style>
<rect class="st0" width="141.73" height="43.61"/>
<g>
	<defs>
		<rect id="SVGID_1_" width="141.73" height="43.61"/>
	</defs>
	<clipPath id="SVGID_00000005256450309306255120000003386400419670500228_">
		<use xlink:href="#SVGID_1_"  style="overflow:visible;"/>
	</clipPath>
	<path style="clip-path:url(#SVGID_00000005256450309306255120000003386400419670500228_);fill:#FFFFFF;" d="M57.75,27.19
		c0,4.04-3.12,6.98-7.02,6.98c-3.97,0-7.02-2.97-7.02-6.83c0-4.05,3.12-6.98,7.02-6.98C54.7,20.36,57.75,23.33,57.75,27.19
		 M55.52,27.27c0-3.68-1.78-6.24-4.79-6.24c-3.27,0-4.79,3.08-4.79,6.24c0,3.67,1.78,6.24,4.79,6.24
		C54,33.5,55.52,30.42,55.52,27.27"/>
	<path style="clip-path:url(#SVGID_00000005256450309306255120000003386400419670500228_);fill:#FFFFFF;" d="M100.59,27.19
		c0,4.04-3.12,6.98-7.02,6.98c-3.97,0-7.02-2.97-7.02-6.83c0-4.05,3.12-6.98,7.02-6.98C97.55,20.36,100.59,23.33,100.59,27.19
		 M98.37,27.27c0-3.68-1.78-6.24-4.79-6.24c-3.27,0-4.79,3.08-4.79,6.24c0,3.67,1.78,6.24,4.79,6.24
		C96.84,33.5,98.37,30.42,98.37,27.27"/>
	<path style="clip-path:url(#SVGID_00000005256450309306255120000003386400419670500228_);fill:#FFFFFF;" d="M106.01,27.34h1.67
		c2.53,0,3.08-1.59,3.08-3.12c0-1.15-0.52-2.23-1.71-2.75c-0.63-0.26-1.23-0.26-2.04-0.26h-1V27.34z M109.1,29.49
		c-0.78-1.11-1.08-1.52-2.04-1.52h-1.04v4.53c0,0.37,0.15,0.55,0.56,0.63l1.52,0.33v0.49h-5.98v-0.49l1.37-0.33
		c0.41-0.11,0.56-0.26,0.56-0.63V22.03c0-0.37-0.15-0.52-0.56-0.63l-1.37-0.33v-0.48h5.83c1.23,0,2.08,0.11,2.79,0.37
		c1.45,0.56,2.26,1.93,2.26,3.23c0,1.64-1.23,3.01-3.27,3.49v0.08c0.41,0.19,0.63,0.45,2.08,2.34l1.82,2.41
		c0.26,0.37,0.59,0.59,1,0.67l1.34,0.3v0.49h-3.19c-0.37,0-0.56-0.11-0.89-0.56L109.1,29.49z"/>
	<path style="clip-path:url(#SVGID_00000005256450309306255120000003386400419670500228_);fill:#FFFFFF;" d="M82.92,25.15h0.56v4.46
		h-0.56l-0.33-1.34c-0.11-0.49-0.41-0.67-0.85-0.67H78.5v4.9c0,0.37,0.15,0.55,0.56,0.63l1.52,0.33v0.49H74.6v-0.49l1.37-0.33
		c0.41-0.11,0.56-0.26,0.56-0.63V22.03c0-0.37-0.15-0.52-0.56-0.63l-1.37-0.33v-0.48h10.1v3.35h-0.56l-0.63-2.01
		c-0.15-0.52-0.37-0.71-0.82-0.71h-4.2v5.76h3.23c0.45,0,0.71-0.18,0.85-0.67L82.92,25.15z"/>
	<path style="clip-path:url(#SVGID_00000005256450309306255120000003386400419670500228_);fill:#FFFFFF;" d="M117.04,33.95v-0.49
		l1.37-0.33c0.41-0.11,0.56-0.26,0.56-0.63V22.03c0-0.37-0.15-0.52-0.56-0.63l-1.37-0.33v-0.48h6.28c1.71,0,2.93,0.22,3.94,0.67
		c2.52,1.15,3.68,3.64,3.68,6.09c0,2.38-0.89,4.6-3.16,5.79c-1.04,0.56-2.49,0.82-4.38,0.82H117.04z M120.94,21.21v11.51
		c0,0.49,0.11,0.6,0.59,0.6h1.63c1.56,0,2.71-0.23,3.53-0.82c1.37-1,2.01-2.82,2.01-5.12c0-2.26-0.63-4.49-2.49-5.57
		c-0.78-0.45-1.78-0.6-3.34-0.6H120.94z"/>
	<path style="clip-path:url(#SVGID_00000005256450309306255120000003386400419670500228_);fill:#FFFFFF;" d="M62.98,33.47v0.49
		h-4.72v-0.49l1.19-0.29c0.45-0.12,0.74-0.26,1.04-0.59l4.09-5.12l-4.09-5.42c-0.26-0.37-0.59-0.56-1-0.67l-1.11-0.3v-0.48h5.87
		v0.48l-1.26,0.26c-0.45,0.08-0.34,0.26-0.11,0.56l3.01,4.31h0.07l3.08-4.31c0.22-0.3,0.3-0.41-0.11-0.52l-1.19-0.3v-0.48h4.71v0.48
		l-1.19,0.3c-0.45,0.11-0.74,0.26-1.04,0.59l-3.86,4.87l4.31,5.68c0.26,0.37,0.59,0.55,1,0.67l1.11,0.29v0.49h-5.87v-0.49l1.26-0.26
		c0.45-0.08,0.37-0.22,0.15-0.52l-3.27-4.6h-0.07l-3.3,4.57c-0.22,0.3-0.3,0.4,0.11,0.52L62.98,33.47z"/>
	<path style="clip-path:url(#SVGID_00000005256450309306255120000003386400419670500228_);fill:#FFFFFF;" d="M48.92,14.29
		c-0.37,0.37-0.92,0.62-1.7,0.62c-0.67,0-1.3-0.21-1.72-0.63c-0.58-0.58-0.55-1.31-0.55-2.1V8.45h0.76v3.99c0,0.51-0.02,1,0.38,1.39
		c0.27,0.27,0.69,0.42,1.17,0.42c0.47,0,0.84-0.16,1.08-0.4c0.43-0.43,0.41-0.91,0.41-2.05V8.45h0.75v3.15
		C49.48,12.81,49.53,13.68,48.92,14.29"/>
	<polygon style="clip-path:url(#SVGID_00000005256450309306255120000003386400419670500228_);fill:#FFFFFF;" points="55.65,14.79 
		52.6,9.6 52.61,14.79 51.92,14.79 51.92,8.45 52.69,8.45 55.76,13.67 55.74,8.45 56.43,8.45 56.43,14.79 	"/>
	
		<rect x="59.07" y="8.46" style="clip-path:url(#SVGID_00000005256450309306255120000003386400419670500228_);fill:#FFFFFF;" width="0.76" height="6.33"/>
	<polygon style="clip-path:url(#SVGID_00000005256450309306255120000003386400419670500228_);fill:#FFFFFF;" points="64.57,14.79 
		63.7,14.79 61.52,8.45 62.31,8.45 64.16,14.04 66.06,8.45 66.8,8.45 	"/>
	<polygon style="clip-path:url(#SVGID_00000005256450309306255120000003386400419670500228_);fill:#FFFFFF;" points="68.52,14.79 
		68.52,8.45 71.96,8.45 71.96,9.09 69.27,9.09 69.27,11.18 71.8,11.18 71.8,11.79 69.27,11.79 69.27,14.14 72.04,14.14 72.04,14.79 
			"/>
	<path style="clip-path:url(#SVGID_00000005256450309306255120000003386400419670500228_);fill:#FFFFFF;" d="M76.85,9.41
		c-0.36-0.36-0.83-0.35-1.35-0.35h-0.7v2.36h0.25c0.64,0,1.33,0.03,1.76-0.4c0.21-0.21,0.33-0.5,0.33-0.83
		C77.14,9.84,77,9.56,76.85,9.41 M77.54,14.79l-0.73-1.64c-0.45-1.01-0.66-1.11-1.58-1.11H74.8v2.75h-0.75V8.45h1.37
		c0.84,0,1.48-0.01,1.98,0.49c0.32,0.32,0.49,0.74,0.49,1.27c0,0.44-0.13,0.81-0.39,1.09c-0.23,0.24-0.6,0.46-1.02,0.5
		c0.22,0.01,0.41,0.13,0.53,0.25c0.17,0.17,0.3,0.43,0.48,0.85l0.84,1.88H77.54z"/>
	
		<rect x="85.73" y="8.46" style="clip-path:url(#SVGID_00000005256450309306255120000003386400419670500228_);fill:#FFFFFF;" width="0.76" height="6.33"/>
	<polygon style="clip-path:url(#SVGID_00000005256450309306255120000003386400419670500228_);fill:#FFFFFF;" points="90.84,9.09 
		90.84,14.79 90.08,14.79 90.08,9.09 88.2,9.09 88.2,8.45 92.72,8.45 92.72,9.09 	"/>
	<polygon style="clip-path:url(#SVGID_00000005256450309306255120000003386400419670500228_);fill:#FFFFFF;" points="96.36,12.28 
		96.36,14.79 95.61,14.79 95.61,12.28 93.6,8.45 94.47,8.45 96.03,11.42 97.55,8.45 98.37,8.45 	"/>
	<path style="clip-path:url(#SVGID_00000005256450309306255120000003386400419670500228_);fill:#FFFFFF;" d="M105.48,8.98
		c-1.24,0-2.05,1.05-2.05,2.63c0,1.57,0.9,2.64,2.09,2.64c1.32,0,2.06-1.12,2.06-2.69C107.58,10.01,106.71,8.98,105.48,8.98
		 M105.48,14.91c-1.64,0-2.84-1.35-2.84-3.26c0-1.96,1.18-3.32,2.9-3.32c1.66,0,2.83,1.35,2.83,3.26
		C108.37,13.55,107.19,14.91,105.48,14.91"/>
	<polygon style="clip-path:url(#SVGID_00000005256450309306255120000003386400419670500228_);fill:#FFFFFF;" points="111.21,9.09 
		111.21,11.18 113.65,11.18 113.65,11.79 111.21,11.79 111.21,14.79 110.45,14.79 110.45,8.45 113.81,8.45 113.81,9.09 	"/>
	<path style="clip-path:url(#SVGID_00000005256450309306255120000003386400419670500228_);fill:#FFFFFF;" d="M79.87,10
		c0-0.97,0.78-1.67,1.93-1.67c1.16,0,1.71,0.6,1.77,0.66L83.2,9.44c-0.14-0.11-0.65-0.48-1.35-0.48c-0.81,0-1.26,0.42-1.26,0.99
		c0,0.28,0.11,0.48,0.3,0.64c0.22,0.19,0.53,0.34,0.88,0.5c0.42,0.2,1.01,0.42,1.4,0.82c0.27,0.28,0.47,0.64,0.47,1.14
		c0,1.05-0.73,1.85-2.04,1.85c-1.12,0-1.83-0.62-1.89-0.68l0.35-0.51c0.18,0.13,0.88,0.55,1.53,0.55c0.95,0,1.31-0.52,1.31-1.15
		c0-0.29-0.13-0.53-0.33-0.72c-0.3-0.29-0.74-0.48-1.17-0.67c-0.42-0.19-0.84-0.4-1.12-0.7C80.06,10.83,79.87,10.5,79.87,10"/>
	<path style="clip-path:url(#SVGID_00000005256450309306255120000003386400419670500228_);fill:#FFFFFF;" d="M21.68,17.04
		c0-0.56-0.19-1.01-0.6-1.25c-0.26-0.15-0.6-0.2-1.03-0.2h-3.12v6.3h3.4c0.78,0,1.24,0.18,1.28,0.88h0.07V17.04z"/>
	<path style="clip-path:url(#SVGID_00000005256450309306255120000003386400419670500228_);fill:#FFFFFF;" d="M22.11,17.04
		c0-0.56,0.19-1.01,0.6-1.25c0.26-0.15,0.61-0.2,1.03-0.2h3.14v6.3h-3.42c-0.78,0-1.24,0.18-1.28,0.88h-0.08V17.04z"/>
	<path style="clip-path:url(#SVGID_00000005256450309306255120000003386400419670500228_);fill:#FFFFFF;" d="M27.55,16.05v6.66
		h-4.83l-0.05,0.14c-0.08,0.21-0.23,0.4-0.76,0.4c-0.53,0-0.68-0.19-0.76-0.4l-0.06-0.14h-4.82v-6.66h-0.44v0.2l-0.42-0.13
		c-0.05-0.16-0.2-0.29-0.38-0.29c-0.22,0-0.4,0.18-0.4,0.4c0,0.22,0.18,0.4,0.4,0.4c0.1,0,0.18-0.03,0.25-0.09l0.55,0.17v0.54
		l-0.41-0.07c-0.06-0.14-0.2-0.24-0.36-0.24c-0.22,0-0.4,0.18-0.4,0.4c0,0.22,0.18,0.4,0.4,0.4c0.11,0,0.22-0.05,0.29-0.12
		l0.49,0.09v0.55l-0.43-0.02c-0.07-0.12-0.19-0.19-0.34-0.19c-0.22,0-0.4,0.18-0.4,0.4c0,0.22,0.18,0.4,0.4,0.4
		c0.13,0,0.25-0.06,0.32-0.16l0.45,0.02v0.59l-0.44,0.01c-0.07-0.1-0.19-0.17-0.32-0.17c-0.22,0-0.4,0.18-0.4,0.4
		c0,0.22,0.18,0.4,0.4,0.4c0.14,0,0.27-0.08,0.34-0.19l0.42-0.01v0.55l-0.48,0.08c-0.07-0.08-0.17-0.13-0.29-0.13
		c-0.22,0-0.4,0.18-0.4,0.4c0,0.22,0.18,0.4,0.4,0.4c0.16,0,0.3-0.1,0.36-0.24l0.4-0.07v0.54l-0.52,0.16
		c-0.07-0.06-0.15-0.09-0.25-0.09c-0.22,0-0.4,0.18-0.4,0.4c0,0.22,0.18,0.4,0.4,0.4c0.18,0,0.33-0.12,0.38-0.28l0.4-0.12v0.52
		l-0.58,0.25c-0.06-0.04-0.14-0.07-0.22-0.07c-0.22,0-0.4,0.18-0.4,0.4c0,0.22,0.18,0.4,0.4,0.4c0.2,0,0.36-0.14,0.39-0.33
		l0.41-0.18v0.47h4.98c0.2,0.35,0.55,0.54,1.09,0.54c0.53,0,0.88-0.18,1.08-0.54h5v-7.1H27.55z"/>
	<path style="clip-path:url(#SVGID_00000005256450309306255120000003386400419670500228_);fill:#FFFFFF;" d="M18.62,13.83
		c-1.01,0-1.82,0.16-1.82,0.35c0,0.19,0.82,0.35,1.82,0.35s1.82-0.16,1.82-0.35C20.44,13.99,19.63,13.83,18.62,13.83"/>
	<path style="clip-path:url(#SVGID_00000005256450309306255120000003386400419670500228_);fill:#FFFFFF;" d="M21.13,11.65
		l-1.05,0.74l-0.01,0.07l0.25,0.11c0.05,0.02,0.05,0.06,0.03,0.09l-0.66,0.56l-0.06-0.01l-0.47-0.69c-0.03-0.04-0.02-0.09,0.04-0.1
		l0.31-0.05v-0.08l-0.82-1.15h-0.13l-0.82,1.15v0.08l0.32,0.05c0.06,0.01,0.07,0.05,0.04,0.1l-0.47,0.69l-0.06,0.01l-0.62-0.56
		c-0.03-0.02-0.03-0.06,0.02-0.09l0.25-0.11l-0.01-0.07l-1.1-0.74l-0.09,0.04l0.64,1.97c0.33-0.15,1.08-0.25,1.96-0.26
		c0.88,0,1.63,0.11,1.96,0.26l0.64-1.97L21.13,11.65z"/>
	<path style="clip-path:url(#SVGID_00000005256450309306255120000003386400419670500228_);fill:#FFFFFF;" d="M21.89,27.03
		c-1.01,0-1.83,0.16-1.83,0.35c0,0.19,0.82,0.35,1.83,0.35s1.82-0.16,1.82-0.35C23.72,27.18,22.9,27.03,21.89,27.03"/>
	<path style="clip-path:url(#SVGID_00000005256450309306255120000003386400419670500228_);fill:#FFFFFF;" d="M24.4,24.84l-1.05,0.74
		l-0.01,0.08l0.25,0.11c0.05,0.03,0.05,0.06,0.03,0.09l-0.66,0.56l-0.06-0.01l-0.47-0.69c-0.03-0.04-0.02-0.09,0.04-0.1l0.31-0.05
		v-0.08l-0.82-1.15h-0.13l-0.82,1.15v0.08l0.31,0.05c0.06,0.01,0.07,0.05,0.04,0.1l-0.47,0.69l-0.06,0.01l-0.62-0.56
		c-0.03-0.02-0.03-0.06,0.02-0.09l0.25-0.11l-0.01-0.08l-1.1-0.74l-0.09,0.04l0.64,1.97c0.33-0.15,1.08-0.25,1.96-0.26
		c0.88,0,1.63,0.11,1.96,0.26l0.64-1.97L24.4,24.84z"/>
	<path style="clip-path:url(#SVGID_00000005256450309306255120000003386400419670500228_);fill:#FFFFFF;" d="M25.16,13.83
		c-1.01,0-1.83,0.16-1.83,0.35c0,0.19,0.82,0.35,1.83,0.35c1.01,0,1.82-0.16,1.82-0.35C26.98,13.99,26.16,13.83,25.16,13.83"/>
	<path style="clip-path:url(#SVGID_00000005256450309306255120000003386400419670500228_);fill:#FFFFFF;" d="M27.67,11.65
		l-1.05,0.74l-0.01,0.07l0.25,0.11c0.05,0.02,0.05,0.06,0.03,0.09l-0.66,0.56l-0.06-0.01l-0.47-0.69c-0.03-0.04-0.02-0.09,0.04-0.1
		l0.31-0.05v-0.08l-0.82-1.15h-0.13l-0.82,1.15v0.08l0.32,0.05c0.06,0.01,0.07,0.05,0.04,0.1l-0.47,0.69l-0.06,0.01l-0.62-0.57
		c-0.03-0.02-0.03-0.06,0.02-0.09l0.25-0.1l-0.01-0.07l-1.1-0.74l-0.09,0.04l0.64,1.97c0.33-0.15,1.08-0.25,1.96-0.26
		c0.88,0,1.63,0.11,1.96,0.26l0.64-1.97L27.67,11.65z"/>
	<path style="clip-path:url(#SVGID_00000005256450309306255120000003386400419670500228_);fill:#001C54;" d="M17.73,16.59
		c0.17,0,0.31,0.03,0.41,0.12c0.07,0.06,0.12,0.17,0.12,0.29c0,0.35-0.26,0.49-0.58,0.49h-0.36v-0.05c0.1-0.01,0.11-0.02,0.11-0.17
		v-0.46c0-0.15-0.01-0.16-0.1-0.17v-0.05H17.73z M17.66,17.27c0,0.12,0.03,0.15,0.1,0.15c0.12,0,0.24-0.13,0.24-0.38
		c0-0.3-0.15-0.38-0.27-0.38c-0.03,0-0.05,0.01-0.06,0.01c-0.01,0-0.01,0.04-0.01,0.07V17.27z"/>
	<path style="clip-path:url(#SVGID_00000005256450309306255120000003386400419670500228_);fill:#001C54;" d="M19.31,17.03
		c0,0.3-0.2,0.48-0.47,0.48c-0.28,0-0.46-0.2-0.46-0.46c0-0.22,0.15-0.48,0.48-0.48C19.11,16.57,19.31,16.75,19.31,17.03 M18.63,17
		c0,0.25,0.09,0.43,0.23,0.43c0.12,0,0.18-0.11,0.18-0.37c0-0.28-0.1-0.43-0.22-0.43C18.72,16.64,18.63,16.76,18.63,17"/>
	<path style="clip-path:url(#SVGID_00000005256450309306255120000003386400419670500228_);fill:#001C54;" d="M20.53,16.59v0.05
		c-0.11,0.01-0.11,0.02-0.11,0.16l0.01,0.46c0,0.15,0.01,0.16,0.11,0.17v0.05h-0.43v-0.05c0.1-0.01,0.11-0.01,0.11-0.17l0-0.49
		h-0.01l-0.27,0.7h-0.08l-0.25-0.65h0l-0.01,0.31c0,0.12,0,0.19,0,0.23c0.01,0.05,0.04,0.06,0.13,0.07v0.05h-0.34v-0.05
		c0.07-0.01,0.09-0.02,0.1-0.07c0.01-0.04,0.02-0.12,0.02-0.24l0.02-0.28c0.01-0.18,0-0.19-0.11-0.2v-0.05h0.33l0.24,0.55l0.21-0.55
		H20.53z"/>
	<path style="clip-path:url(#SVGID_00000005256450309306255120000003386400419670500228_);fill:#001C54;" d="M20.98,17.27
		c0,0.15,0.01,0.16,0.11,0.17v0.05h-0.45v-0.05c0.1-0.01,0.11-0.02,0.11-0.17v-0.46c0-0.15-0.01-0.16-0.11-0.17v-0.05h0.45v0.05
		c-0.1,0.01-0.11,0.02-0.11,0.17V17.27z"/>
	<path style="clip-path:url(#SVGID_00000005256450309306255120000003386400419670500228_);fill:#001C54;" d="M18.75,19.17h-0.12
		l-0.51-0.66h0v0.26c0,0.15,0.01,0.22,0.01,0.26c0.01,0.05,0.04,0.07,0.14,0.07v0.05h-0.35V19.1c0.06,0,0.1-0.02,0.1-0.07
		c0.01-0.04,0.01-0.12,0.01-0.26v-0.26c0-0.1,0-0.12-0.03-0.16c-0.02-0.03-0.06-0.04-0.11-0.04v-0.05h0.31l0.46,0.58h0v-0.19
		c0-0.15-0.01-0.22-0.01-0.27c-0.01-0.05-0.04-0.07-0.14-0.07v-0.05h0.35v0.05c-0.07,0-0.1,0.02-0.11,0.07
		c-0.01,0.04-0.01,0.12-0.01,0.27V19.17z"/>
	<path style="clip-path:url(#SVGID_00000005256450309306255120000003386400419670500228_);fill:#001C54;" d="M19.31,19.17
		c-0.1-0.25-0.23-0.59-0.28-0.72c-0.05-0.12-0.07-0.13-0.14-0.13v-0.05h0.45v0.05l-0.05,0.01c-0.05,0.01-0.05,0.02-0.04,0.07
		c0.02,0.08,0.13,0.35,0.19,0.49c0.04-0.12,0.13-0.38,0.15-0.45c0.03-0.09,0.02-0.1-0.04-0.11l-0.04,0v-0.05h0.34v0.05
		c-0.08,0.01-0.1,0.02-0.15,0.14c-0.01,0.02-0.18,0.43-0.28,0.71H19.31z"/>
	<path style="clip-path:url(#SVGID_00000005256450309306255120000003386400419670500228_);fill:#001C54;" d="M19.94,18.87
		c0.03,0.08,0.11,0.24,0.25,0.24c0.07,0,0.13-0.05,0.13-0.14c0-0.08-0.05-0.13-0.14-0.17l-0.02-0.01c-0.11-0.05-0.24-0.12-0.24-0.27
		c0-0.16,0.11-0.29,0.33-0.29c0.04,0,0.09,0.01,0.13,0.02c0.03,0.01,0.05,0.01,0.07,0.02c0.01,0.05,0.01,0.12,0.03,0.22l-0.06,0.01
		c-0.03-0.09-0.08-0.19-0.19-0.19c-0.07,0-0.12,0.05-0.12,0.12c0,0.07,0.05,0.11,0.14,0.15l0.03,0.01c0.13,0.06,0.24,0.13,0.24,0.29
		c0,0.17-0.14,0.3-0.35,0.3c-0.05,0-0.11-0.01-0.15-0.02c-0.04-0.01-0.07-0.03-0.09-0.03c-0.01-0.06-0.03-0.14-0.05-0.23
		L19.94,18.87z"/>
	<path style="clip-path:url(#SVGID_00000005256450309306255120000003386400419670500228_);fill:#001C54;" d="M18.13,20.6
		c0,0.15,0.01,0.16,0.11,0.17v0.05h-0.45v-0.05c0.1-0.01,0.11-0.02,0.11-0.17v-0.46c0-0.15-0.01-0.16-0.11-0.17v-0.05h0.45v0.05
		c-0.1,0.01-0.11,0.02-0.11,0.17V20.6z"/>
	<path style="clip-path:url(#SVGID_00000005256450309306255120000003386400419670500228_);fill:#001C54;" d="M18.68,20.62
		c0,0.07,0,0.11,0.03,0.12c0.02,0.01,0.05,0.01,0.1,0.01c0.04,0,0.1,0,0.13-0.04c0.02-0.03,0.05-0.06,0.07-0.14l0.06,0.01
		c-0.01,0.05-0.04,0.2-0.05,0.24h-0.69v-0.05c0.1-0.01,0.12-0.02,0.12-0.17v-0.46c0-0.15-0.01-0.16-0.1-0.17v-0.05h0.45v0.05
		c-0.1,0.01-0.11,0.02-0.11,0.17V20.62z"/>
	<path style="clip-path:url(#SVGID_00000005256450309306255120000003386400419670500228_);fill:#001C54;" d="M19.45,20.62
		c0,0.07,0,0.11,0.03,0.12c0.02,0.01,0.05,0.01,0.1,0.01s0.1,0,0.13-0.04c0.02-0.03,0.05-0.06,0.07-0.14l0.06,0.01
		c-0.01,0.05-0.04,0.2-0.05,0.24H19.1v-0.05c0.11-0.01,0.12-0.02,0.12-0.17v-0.46c0-0.15-0.01-0.16-0.1-0.17v-0.05h0.45v0.05
		c-0.1,0.01-0.11,0.02-0.11,0.17V20.62z"/>
	<path style="clip-path:url(#SVGID_00000005256450309306255120000003386400419670500228_);fill:#001C54;" d="M20.12,20.83
		c-0.1-0.25-0.23-0.59-0.28-0.72c-0.05-0.12-0.07-0.13-0.14-0.13v-0.05h0.45v0.05l-0.05,0.01c-0.05,0-0.05,0.02-0.04,0.07
		c0.03,0.08,0.14,0.35,0.19,0.49c0.04-0.12,0.13-0.38,0.15-0.45c0.03-0.09,0.02-0.1-0.04-0.11l-0.04,0v-0.05h0.34v0.05
		c-0.08,0.01-0.1,0.02-0.15,0.14c-0.01,0.02-0.18,0.43-0.28,0.71H20.12z"/>
	<path style="clip-path:url(#SVGID_00000005256450309306255120000003386400419670500228_);fill:#001C54;" d="M23.85,16.59v0.05
		c-0.11,0.01-0.11,0.02-0.11,0.16l0.01,0.46c0,0.15,0.01,0.16,0.11,0.17v0.05h-0.43v-0.05c0.1-0.01,0.11-0.01,0.11-0.17l0-0.49
		h-0.01l-0.27,0.7h-0.08l-0.25-0.65h0l-0.01,0.31c0,0.12,0,0.19,0,0.23c0.01,0.05,0.04,0.06,0.13,0.07v0.05H22.7v-0.05
		c0.07-0.01,0.09-0.02,0.1-0.07c0.01-0.04,0.02-0.12,0.02-0.24l0.02-0.28c0.01-0.18,0-0.19-0.11-0.2v-0.05h0.33l0.24,0.55l0.21-0.55
		H23.85z"/>
	<path style="clip-path:url(#SVGID_00000005256450309306255120000003386400419670500228_);fill:#001C54;" d="M24.3,17.27
		c0,0.15,0.01,0.16,0.11,0.17v0.05h-0.45v-0.05c0.1-0.01,0.11-0.02,0.11-0.17v-0.46c0-0.15-0.01-0.16-0.11-0.17v-0.05h0.45v0.05
		c-0.1,0.01-0.11,0.02-0.11,0.17V17.27z"/>
	<path style="clip-path:url(#SVGID_00000005256450309306255120000003386400419670500228_);fill:#001C54;" d="M25.33,17.5h-0.12
		l-0.51-0.66h0v0.26c0,0.15,0.01,0.22,0.01,0.26c0.01,0.05,0.04,0.07,0.14,0.07v0.05H24.5v-0.05c0.06,0,0.1-0.02,0.1-0.07
		c0.01-0.04,0.01-0.12,0.01-0.26v-0.26c0-0.1,0-0.12-0.03-0.16c-0.02-0.03-0.06-0.04-0.1-0.04v-0.05h0.31l0.46,0.58h0v-0.19
		c0-0.15-0.01-0.22-0.01-0.27c-0.01-0.05-0.04-0.07-0.14-0.07v-0.05h0.36v0.05c-0.07,0-0.11,0.02-0.11,0.07
		c-0.01,0.04-0.01,0.12-0.01,0.27V17.5z"/>
	<path style="clip-path:url(#SVGID_00000005256450309306255120000003386400419670500228_);fill:#001C54;" d="M25.92,17.44l0.04-0.01
		c0.05-0.01,0.05-0.02,0.04-0.07l-0.05-0.14h-0.23l-0.04,0.13c-0.02,0.06-0.02,0.07,0.04,0.08l0.04,0.01v0.05h-0.32v-0.05
		c0.07-0.01,0.09-0.02,0.14-0.13l0.28-0.72l0.1-0.02l0.09,0.26c0.06,0.17,0.12,0.33,0.17,0.47c0.04,0.12,0.07,0.13,0.14,0.14v0.05
		h-0.44V17.44z M25.74,17.13h0.18l-0.09-0.26h0L25.74,17.13z"/>
	<path style="clip-path:url(#SVGID_00000005256450309306255120000003386400419670500228_);fill:#001C54;" d="M23.84,18.93
		c0,0.15,0.01,0.16,0.13,0.17v0.05h-0.48V19.1c0.11-0.01,0.12-0.02,0.12-0.17v-0.61h-0.02c-0.09,0-0.13,0.02-0.15,0.04
		c-0.02,0.02-0.03,0.06-0.05,0.13h-0.06c0.01-0.12,0.02-0.21,0.02-0.28h0.04c0.02,0.03,0.04,0.03,0.07,0.03H24
		c0.04,0,0.04-0.01,0.07-0.03h0.04c0,0.06,0.01,0.18,0.02,0.28l-0.06,0c-0.02-0.08-0.04-0.12-0.06-0.14
		c-0.02-0.03-0.07-0.03-0.14-0.03h-0.03V18.93z"/>
	<path style="clip-path:url(#SVGID_00000005256450309306255120000003386400419670500228_);fill:#001C54;" d="M24.57,18.93
		c0,0.15,0.01,0.16,0.11,0.17v0.05h-0.45V19.1c0.1-0.01,0.11-0.02,0.11-0.17v-0.46c0-0.15-0.01-0.16-0.11-0.17v-0.05h0.45v0.05
		c-0.1,0.01-0.11,0.02-0.11,0.17V18.93z"/>
	<path style="clip-path:url(#SVGID_00000005256450309306255120000003386400419670500228_);fill:#001C54;" d="M25.72,18.69
		c0,0.3-0.2,0.48-0.47,0.48c-0.28,0-0.46-0.2-0.46-0.46c0-0.22,0.15-0.48,0.48-0.48C25.53,18.23,25.72,18.42,25.72,18.69
		 M25.05,18.67c0,0.25,0.09,0.43,0.23,0.43c0.12,0,0.18-0.11,0.18-0.37c0-0.28-0.1-0.43-0.22-0.43
		C25.14,18.31,25.05,18.43,25.05,18.67"/>
	<path style="clip-path:url(#SVGID_00000005256450309306255120000003386400419670500228_);fill:#001C54;" d="M24.25,19.92v0.05
		c-0.11,0.01-0.11,0.02-0.11,0.16l0.01,0.47c0,0.15,0.01,0.16,0.11,0.17v0.05h-0.43v-0.05c0.1-0.01,0.11-0.01,0.11-0.17l0-0.49
		h-0.01l-0.27,0.7h-0.08l-0.25-0.65h0l-0.01,0.31c0,0.12,0,0.19,0,0.23c0.01,0.05,0.04,0.06,0.13,0.07v0.05H23.1v-0.05
		c0.07-0.01,0.09-0.02,0.1-0.07c0.01-0.04,0.02-0.12,0.02-0.24l0.02-0.28c0.01-0.18,0-0.19-0.11-0.2v-0.05h0.33l0.24,0.55l0.21-0.55
		H24.25z"/>
	<path style="clip-path:url(#SVGID_00000005256450309306255120000003386400419670500228_);fill:#001C54;" d="M24.46,20.14
		c0-0.15-0.01-0.16-0.1-0.17v-0.05h0.66c0,0.02,0.01,0.12,0.02,0.23l-0.06,0c-0.01-0.07-0.03-0.11-0.05-0.13
		c-0.02-0.02-0.07-0.03-0.14-0.03h-0.02c-0.05,0-0.06,0-0.06,0.05v0.27h0.07c0.12,0,0.12-0.01,0.14-0.11h0.06v0.33h-0.06
		c-0.01-0.12-0.02-0.13-0.14-0.13H24.7v0.23c0,0.07,0,0.11,0.03,0.12c0.02,0.01,0.05,0.01,0.1,0.01c0.06,0,0.12-0.01,0.15-0.04
		c0.02-0.02,0.05-0.08,0.07-0.14l0.06,0.01c-0.01,0.07-0.04,0.21-0.05,0.25h-0.71v-0.05c0.11-0.01,0.12-0.02,0.12-0.17V20.14z"/>
	<path style="clip-path:url(#SVGID_00000005256450309306255120000003386400419670500228_);fill:#001C54;" d="M25.59,20.77l0.04-0.01
		c0.05-0.01,0.05-0.02,0.04-0.07l-0.05-0.14h-0.23l-0.04,0.13c-0.02,0.06-0.02,0.07,0.05,0.08l0.04,0.01v0.05h-0.32v-0.05
		c0.07-0.01,0.09-0.02,0.14-0.13l0.28-0.72l0.1-0.02l0.09,0.26c0.06,0.17,0.12,0.33,0.17,0.47c0.05,0.12,0.07,0.13,0.14,0.14v0.05
		h-0.44V20.77z M25.41,20.47h0.18L25.5,20.2h0L25.41,20.47z"/>
	<path style="clip-path:url(#SVGID_00000005256450309306255120000003386400419670500228_);fill:#FFFFFF;" d="M20.64,32
		c0,0.2-0.16,0.36-0.36,0.36c-0.2,0-0.36-0.16-0.36-0.36s0.16-0.36,0.36-0.36C20.48,31.64,20.64,31.8,20.64,32"/>
	<path style="clip-path:url(#SVGID_00000005256450309306255120000003386400419670500228_);fill:#FFFFFF;" d="M24.32,32.6
		c0,0.2-0.16,0.36-0.36,0.36c-0.2,0-0.36-0.16-0.36-0.36c0-0.2,0.16-0.36,0.36-0.36C24.16,32.24,24.32,32.4,24.32,32.6"/>
	<path style="clip-path:url(#SVGID_00000005256450309306255120000003386400419670500228_);fill:#FFFFFF;" d="M10.21,12.19"/>
	<path style="clip-path:url(#SVGID_00000005256450309306255120000003386400419670500228_);fill:#FFFFFF;" d="M25.47,5.62"/>
	<path style="clip-path:url(#SVGID_00000005256450309306255120000003386400419670500228_);fill:#FFFFFF;" d="M31.33,12.84"/>
	<path style="clip-path:url(#SVGID_00000005256450309306255120000003386400419670500228_);fill:#FFFFFF;" d="M34.16,24.66"/>
	<path style="clip-path:url(#SVGID_00000005256450309306255120000003386400419670500228_);fill:#FFFFFF;" d="M22.24,6.35
		c0,0.2-0.16,0.36-0.36,0.36s-0.36-0.16-0.36-0.36s0.16-0.36,0.36-0.36S22.24,6.15,22.24,6.35"/>
	<path style="clip-path:url(#SVGID_00000005256450309306255120000003386400419670500228_);fill:#FFFFFF;" d="M30.89,9.75
		c-0.01,0.2-0.18,0.36-0.38,0.35c-0.2-0.01-0.36-0.18-0.35-0.38c0.01-0.2,0.18-0.36,0.38-0.35C30.74,9.38,30.9,9.55,30.89,9.75"/>
	<path style="clip-path:url(#SVGID_00000005256450309306255120000003386400419670500228_);fill:#FFFFFF;" d="M12.67,25.34
		c0.14,0.2,0.21,0.42,0.21,0.64c0,0.25-0.09,0.46-0.54,0.77l-1.31,0.94l-0.24-0.35c0,0,1.34-0.96,1.37-0.97
		c0.23-0.16,0.33-0.28,0.33-0.46c0-0.12-0.04-0.24-0.13-0.36c-0.13-0.19-0.3-0.25-0.45-0.25c-0.13,0-0.28,0.1-0.54,0.27l-1.23,0.84
		L9.9,26.07l1.17-0.8c0.33-0.23,0.59-0.39,0.83-0.39C12.25,24.89,12.51,25.12,12.67,25.34"/>
	<polygon style="clip-path:url(#SVGID_00000005256450309306255120000003386400419670500228_);fill:#FFFFFF;" points="8.47,22.78 
		10.97,21.91 11.11,22.29 9.68,24.03 11.48,23.32 11.62,23.69 9.15,24.63 9.01,24.25 10.45,22.51 8.61,23.15 	"/>
	
		<rect x="8.12" y="20.6" transform="matrix(0.9892 -0.1469 0.1469 0.9892 -2.9544 1.6119)" style="clip-path:url(#SVGID_00000005256450309306255120000003386400419670500228_);fill:#FFFFFF;" width="2.64" height="0.42"/>
	<polygon style="clip-path:url(#SVGID_00000005256450309306255120000003386400419670500228_);fill:#FFFFFF;" points="8.02,17.65 
		8.03,17.21 10.64,18.27 10.62,18.7 7.95,19.5 7.95,19.06 10.12,18.45 	"/>
	<path style="clip-path:url(#SVGID_00000005256450309306255120000003386400419670500228_);fill:#FFFFFF;" d="M10.41,11.74
		c-0.37,0-0.55,0.21-0.78,0.65l-0.31,0.55l2.33,1.26l0.2-0.36l-0.97-0.53l0.06-0.1c0.16-0.29,0.22-0.34,0.63-0.3l0.75,0.07
		l0.21-0.39l-0.87-0.07c-0.17-0.02-0.31-0.03-0.42,0c-0.04,0.01-0.08,0.03-0.12,0.06c0.01-0.05,0.03-0.09,0.03-0.14
		c0-0.07-0.01-0.15-0.03-0.21c-0.05-0.15-0.16-0.28-0.33-0.37C10.66,11.77,10.53,11.74,10.41,11.74 M9.94,12.54
		c0.16-0.28,0.27-0.39,0.43-0.39c0.06,0,0.14,0.02,0.21,0.06c0.1,0.06,0.17,0.15,0.2,0.24c0.01,0.04,0.02,0.08,0.02,0.11
		c0,0.16-0.09,0.32-0.18,0.48l-0.05,0.1l-0.74-0.4L9.94,12.54z"/>
	<polygon style="clip-path:url(#SVGID_00000005256450309306255120000003386400419670500228_);fill:#FFFFFF;" points="13.3,8 
		13.63,7.75 15.24,9.85 14.9,10.1 	"/>
	<polygon style="clip-path:url(#SVGID_00000005256450309306255120000003386400419670500228_);fill:#FFFFFF;" points="14.75,6.98 
		16.46,6.09 16.62,6.41 15.96,6.75 17.01,8.78 16.64,8.97 15.58,6.95 14.91,7.3 	"/>
	<polygon style="clip-path:url(#SVGID_00000005256450309306255120000003386400419670500228_);fill:#FFFFFF;" points="19.01,5.28 
		19.46,5.16 19.1,6.93 19.39,7.93 18.98,8.04 18.7,7.05 17.45,5.74 17.88,5.61 18.78,6.55 	"/>
	<polygon style="clip-path:url(#SVGID_00000005256450309306255120000003386400419670500228_);fill:#FFFFFF;" points="27.07,8.89 
		28.41,6.62 29.67,7.36 29.49,7.67 28.59,7.14 28.22,7.77 29.06,8.27 28.88,8.58 28.04,8.08 27.43,9.11 	"/>
	<polygon style="clip-path:url(#SVGID_00000005256450309306255120000003386400419670500228_);fill:#FFFFFF;" points="33.85,14.78 
		34.82,13.63 34.97,14.08 34.25,14.9 35.31,15.14 35.45,15.57 34,15.22 32.97,16.46 32.82,16.01 33.6,15.1 32.43,14.83 32.29,14.4 	
		"/>
	<polygon style="clip-path:url(#SVGID_00000005256450309306255120000003386400419670500228_);fill:#FFFFFF;" points="33.1,17.37 
		35.73,17.16 35.85,18.62 35.49,18.65 35.41,17.6 34.68,17.66 34.76,18.64 34.41,18.67 34.33,17.69 33.13,17.79 	"/>
	<path style="clip-path:url(#SVGID_00000005256450309306255120000003386400419670500228_);fill:#FFFFFF;" d="M34.26,19.73
		c-0.31,0-0.59,0.08-0.81,0.24c-0.4,0.29-0.47,0.7-0.47,0.95c0,0.89,0.84,1.25,1.47,1.25c0.3,0,0.58-0.08,0.8-0.24
		c0.44-0.32,0.47-0.81,0.47-0.96C35.72,20.18,35.01,19.73,34.26,19.73 M34.47,21.74c-0.52,0-1.11-0.28-1.11-0.8
		c0-0.19,0.07-0.44,0.3-0.61c0.16-0.11,0.36-0.17,0.59-0.17c0.26,0,0.73,0.07,0.98,0.41c0.09,0.12,0.13,0.26,0.13,0.4
		c0,0.2-0.08,0.44-0.3,0.6C34.9,21.68,34.7,21.74,34.47,21.74"/>
	<path style="clip-path:url(#SVGID_00000005256450309306255120000003386400419670500228_);fill:#FFFFFF;" d="M32.73,10.93
		c-0.27,0-0.55,0.08-0.83,0.26c-0.51,0.32-0.69,0.78-0.69,1.12c0,0.22,0.06,0.43,0.18,0.63c0.28,0.44,0.7,0.55,0.99,0.55
		c0.27,0,0.56-0.09,0.83-0.26c0.33-0.21,0.69-0.59,0.69-1.11c0-0.22-0.06-0.43-0.19-0.63C33.49,11.12,33.13,10.93,32.73,10.93
		 M32.32,13.09c-0.24,0-0.45-0.1-0.6-0.33c-0.08-0.12-0.11-0.25-0.11-0.38c0-0.3,0.19-0.6,0.53-0.82c0.23-0.15,0.45-0.22,0.66-0.22
		c0.25,0,0.46,0.11,0.6,0.33c0.08,0.13,0.12,0.26,0.12,0.4c0,0.29-0.18,0.58-0.52,0.79C32.76,13.01,32.53,13.09,32.32,13.09"/>
	<path style="clip-path:url(#SVGID_00000005256450309306255120000003386400419670500228_);fill:#FFFFFF;" d="M25.53,5.49
		c-0.55,0-1.03,0.37-1.22,1.03c-0.04,0.15-0.07,0.29-0.07,0.43c0,0.26,0.04,0.47,0.15,0.67c0.24,0.45,0.69,0.6,1.03,0.6
		c0.19,0,0.38-0.04,0.55-0.14c0.45-0.24,0.74-0.81,0.74-1.35c0-0.24-0.05-0.46-0.15-0.65C26.34,5.7,25.94,5.49,25.53,5.49
		 M25.39,7.85c-0.19,0-0.47-0.09-0.62-0.38c-0.08-0.14-0.11-0.3-0.11-0.47c0-0.47,0.32-1.14,0.89-1.14c0.32,0,0.73,0.24,0.73,0.84
		C26.28,7.08,26.01,7.85,25.39,7.85"/>
	<polygon style="clip-path:url(#SVGID_00000005256450309306255120000003386400419670500228_);fill:#FFFFFF;" points="10.9,15.07 
		11.25,15.17 10.85,16.62 8.29,15.92 8.73,14.46 9.08,14.55 8.76,15.61 9.46,15.8 9.73,14.84 10.07,14.94 9.8,15.9 10.6,16.12 	"/>
	<path style="clip-path:url(#SVGID_00000005256450309306255120000003386400419670500228_);fill:#FFFFFF;" d="M11.57,9.56
		c0.37-0.41,0.74-0.38,0.74-0.38l0.06,0.35c0,0-0.29,0.01-0.52,0.26c-0.1,0.11-0.15,0.23-0.15,0.33c0,0.09,0.03,0.16,0.1,0.22
		c0.18,0.16,0.5-0.02,0.69-0.1c0.15-0.06,0.36-0.15,0.58-0.15c0.16,0,0.32,0.04,0.47,0.18c0.18,0.16,0.26,0.35,0.26,0.56
		c0,0.22-0.09,0.42-0.26,0.62c-0.34,0.38-0.79,0.42-0.79,0.42l-0.09-0.35c0.27-0.06,0.47-0.16,0.59-0.3
		c0.1-0.11,0.14-0.23,0.14-0.33c0-0.1-0.04-0.19-0.12-0.27c-0.07-0.06-0.15-0.08-0.23-0.08c-0.17,0-0.37,0.1-0.54,0.17
		c-0.32,0.13-0.66,0.24-0.96-0.03c-0.15-0.14-0.24-0.31-0.24-0.5C11.32,9.96,11.4,9.75,11.57,9.56"/>
	<path style="clip-path:url(#SVGID_00000005256450309306255120000003386400419670500228_);fill:#FFFFFF;" d="M32.4,23.14l1,0.45
		l-0.05,0.11c-0.14,0.31-0.19,0.36-0.6,0.36l-0.76,0l-0.18,0.41l0.87,0c0.18,0,0.31,0,0.42-0.04c0.03-0.01,0.07-0.03,0.11-0.06
		c0,0.02-0.01,0.04-0.01,0.07c0,0.1,0.02,0.19,0.05,0.28c0.12,0.28,0.44,0.41,0.68,0.41c0.42,0,0.58-0.25,0.79-0.71
		c0.01-0.02,0.24-0.57,0.24-0.57l-2.4-1.08L32.4,23.14z M33.96,24.71c-0.12,0-0.32-0.07-0.4-0.26c-0.02-0.05-0.03-0.1-0.03-0.15
		c0-0.14,0.07-0.29,0.14-0.45l0.04-0.1l0.76,0.34l-0.08,0.2C34.25,24.61,34.16,24.71,33.96,24.71"/>
	<path style="clip-path:url(#SVGID_00000005256450309306255120000003386400419670500228_);fill:#FFFFFF;" d="M31.01,25.64
		c-0.27,0.34-0.48,0.65-0.48,1.05c0,0.34,0.15,0.72,0.54,1.03c0.26,0.2,0.55,0.32,0.84,0.32c0.37,0,0.66-0.11,1.12-0.68l0.42-0.52
		l-2.06-1.65L31.01,25.64z M31.95,27.63c-0.21,0-0.41-0.08-0.61-0.24c-0.21-0.17-0.43-0.42-0.43-0.75c0-0.23,0.12-0.45,0.32-0.69
		l0.17-0.22l1.51,1.2l-0.11,0.15C32.51,27.42,32.32,27.63,31.95,27.63"/>
	<path style="clip-path:url(#SVGID_00000005256450309306255120000003386400419670500228_);fill:#FFFFFF;" d="M37.03,18.96
		c0-8.33-6.79-15.11-15.13-15.11c-8.34,0-15.13,6.78-15.13,15.11c0,5,2.47,9.65,6.6,12.48c0.41,1.51,1.79,2.63,3.44,2.63
		c0.45,0,0.88-0.09,1.29-0.24c0.55,0.18,1.13,0.33,1.7,0.45c-0.16,0.46-0.39,0.89-0.62,1.27c0,0,0.01,0,0.01,0
		c0,0-0.01,0.01-0.01,0.01l0.32,0.32c0.08-0.04,0.17-0.07,0.27-0.07c0.31,0,0.57,0.25,0.57,0.57c0,0.31-0.25,0.57-0.57,0.57
		c-0.27,0-0.51-0.17-0.64-0.36c0,0-0.07,0.25-0.07,0.59c0,1.08,1.18,2.32,2.83,2.85c1.64-0.51,2.83-1.76,2.83-2.85
		c0-0.37-0.07-0.59-0.07-0.59c-0.13,0.15-0.33,0.36-0.64,0.36c-0.31,0-0.57-0.25-0.57-0.57c0-0.31,0.25-0.57,0.57-0.57
		c0.11,0,0.21,0.03,0.3,0.09l0.3-0.31c0.01,0,0.01,0,0.01,0c-0.17-0.41-0.3-0.79-0.39-1.16c2.72-0.37,5.02-1.52,6.84-3.44v0
		C34.85,28.1,37.03,23.73,37.03,18.96 M16.81,33.65c-1.72,0-3.11-1.4-3.11-3.12c0-0.54,0.14-1.05,0.38-1.49
		c0.16,0.15,0.33,0.3,0.51,0.45c-0.15,0.32-0.24,0.68-0.24,1.05c0,0.94,0.47,1.71,1.37,2.24c0.51,0.3,1.09,0.58,1.71,0.81
		C17.22,33.63,17.01,33.65,16.81,33.65 M21.9,29.11c-0.65,0-1.29-0.06-1.91-0.18c-0.6-1.18-1.84-1.95-3.18-1.95
		c-0.33,0-0.65,0.05-0.95,0.13c-2.57-1.91-4.1-4.94-4.1-8.14c0-5.59,4.55-10.14,10.14-10.14c5.59,0,10.14,4.55,10.14,10.14
		C32.03,24.56,27.49,29.11,21.9,29.11 M24.15,29.29c-0.3,0.43-0.48,1.04-0.54,1.65c-0.96-0.25-1.83-0.58-2.59-0.93
		c0.15-0.28,0.56-0.48,0.87-0.48C22.67,29.53,23.42,29.45,24.15,29.29 M20.94,29.49c-0.13,0.1-0.23,0.21-0.31,0.34
		c-0.38-0.19-0.86-0.43-1.18-0.6C19.9,29.32,20.48,29.45,20.94,29.49 M16.81,27.4c1.04,0,2.02,0.54,2.59,1.39
		c-0.5-0.13-0.99-0.29-1.47-0.5l0,0l-0.02-0.01c-0.34-0.16-0.7-0.24-1.07-0.24c-0.83,0-1.57,0.41-2.02,1.03
		c-0.19-0.11-0.38-0.22-0.57-0.33C14.81,27.94,15.75,27.4,16.81,27.4 M23.98,35.37c-0.56,0-1.02,0.39-1.02,1c0,0.59,0.46,1,1.02,1
		c0.08,0,0.16-0.01,0.24-0.04c-0.12,0.84-1.09,1.78-2.35,2.2c-1.25-0.42-2.23-1.37-2.36-2.2c0.08,0.02,0.16,0.03,0.24,0.03
		c0.6,0,1.02-0.42,1.02-1c0-0.55-0.43-0.99-0.99-1c0.17-0.31,0.34-0.64,0.46-1c0.69,0.12,1.38,0.19,2.01,0.19
		c0.52,0,1.03-0.03,1.52-0.08c0.07,0.29,0.16,0.59,0.28,0.89C24.02,35.37,24,35.37,23.98,35.37 M22.24,34.13
		c-2.03,0-4.56-0.69-6.3-1.71c-0.53-0.31-1.16-0.89-1.16-1.88c0-0.27,0.05-0.52,0.15-0.76c0.65,0.54,1.32,1.04,1.74,1.27
		c0.1,0.05,0.15,0.08,0.27,0.08c0.27,0,0.49-0.22,0.49-0.49c0-0.21-0.11-0.38-0.3-0.46c-0.36-0.16-1.11-0.47-1.92-0.89
		c0.38-0.49,0.97-0.82,1.63-0.82c0.3,0,0.6,0.07,0.87,0.19L18.26,29c1.77,1.08,6.32,3.85,11.81,2.33
		C27.99,33.21,25.42,34.13,22.24,34.13 M30.76,30.67c-2.46,0.87-4.75,0.81-6.71,0.37c0.06-0.88,0.42-1.81,0.98-1.98
		c4.31-1.34,7.45-5.36,7.45-10.09c0-5.83-4.75-10.57-10.59-10.57c-5.84,0-10.59,4.74-10.59,10.57c0,3.24,1.51,6.32,4.06,8.32
		c-0.61,0.27-1.12,0.7-1.49,1.23c-0.19-0.13-0.38-0.27-0.55-0.41l-0.1,0.1c0.11,0.14,0.29,0.32,0.51,0.53
		c-0.31,0.53-0.5,1.14-0.5,1.8c0,0.1,0.01,0.2,0.02,0.3c-3.79-2.76-6.05-7.16-6.05-11.87c0-8.1,6.59-14.68,14.68-14.68
		c8.1,0,14.68,6.59,14.68,14.68C36.58,23.6,34.46,27.86,30.76,30.67"/>
</g>
</svg>
